M48
;Layer_Color=9474304
;FILE_FORMAT=4:4
METRIC
;TYPE=PLATED
T1F00S00C0.2000
%
T01
X00753750Y00384250
Y00390750
X00763000Y00376000
X00770000Y00369500
X00776500
X00783000
X00789500
X00796000
X00802500
X00809000
X00815500
X00822000
X00828500
X00835000
X00841500
X00848000
X00854500
X00861000
X00867500
X00874000
X00880500
X00887000
X00902750Y00377500
X00840918Y00395353
X00836000Y00405750
X00831000Y00402250
X00827500Y00420750
X00836000Y00421500
X00854250Y00409500
Y00403500
X00909750Y00436250
Y00442750
Y00449250
Y00455750
Y00462250
Y00468750
Y00475250
Y00481750
Y00488250
Y00494750
Y00501250
Y00507750
Y00514250
Y00520750
Y00527250
Y00533750
Y00540250
Y00546750
X00910750Y00593500
X00880500Y00587500
X00809000
X00802500
X00796000
X00789500
X00783000
X00776500
X00770000
X00761750Y00579500
X00753750Y00572750
Y00566250
Y00559750
Y00553250
Y00546750
Y00540250
Y00533750
Y00527250
Y00520750
Y00514250
Y00507750
Y00501250
Y00494750
Y00488250
Y00481750
Y00475250
Y00468750
Y00462250
Y00455750
Y00449250
Y00442750
Y00436250
Y00429750
Y00423250
Y00416750
Y00410250
Y00403750
Y00397250
M30
