G04*
G04 #@! TF.GenerationSoftware,Altium Limited,Altium Designer,21.7.2 (23)*
G04*
G04 Layer_Color=8388736*
%FSAX44Y44*%
%MOMM*%
G71*
G04*
G04 #@! TF.SameCoordinates,CF3CE134-0CDD-455B-BED0-1871B7D76FAE*
G04*
G04*
G04 #@! TF.FilePolarity,Negative*
G04*
G01*
G75*
%ADD15C,0.9000*%
%ADD16R,1.9000X0.4500*%
%ADD17R,0.4500X1.9000*%
%ADD18R,1.0500X0.3000*%
D15*
X00912250Y00368500D02*
G03*
X00912250Y00368500I-00001500J00000000D01*
G01*
X00754250Y00588500D02*
G03*
X00754250Y00588500I-00001500J00000000D01*
G01*
D16*
X00741750Y00566250D02*
D03*
Y00572750D02*
D03*
Y00559750D02*
D03*
Y00546750D02*
D03*
Y00553250D02*
D03*
Y00533750D02*
D03*
Y00540250D02*
D03*
Y00520750D02*
D03*
Y00527250D02*
D03*
Y00507750D02*
D03*
Y00514250D02*
D03*
Y00494750D02*
D03*
Y00501250D02*
D03*
Y00481750D02*
D03*
Y00488250D02*
D03*
Y00397250D02*
D03*
Y00390750D02*
D03*
Y00410250D02*
D03*
Y00403750D02*
D03*
Y00423250D02*
D03*
Y00416750D02*
D03*
Y00436250D02*
D03*
Y00429750D02*
D03*
Y00449250D02*
D03*
Y00442750D02*
D03*
Y00462250D02*
D03*
Y00455750D02*
D03*
Y00468750D02*
D03*
Y00475250D02*
D03*
Y00384250D02*
D03*
X00921750Y00572750D02*
D03*
Y00481750D02*
D03*
Y00488250D02*
D03*
Y00501250D02*
D03*
Y00494750D02*
D03*
Y00514250D02*
D03*
Y00507750D02*
D03*
Y00527250D02*
D03*
Y00520750D02*
D03*
Y00540250D02*
D03*
Y00533750D02*
D03*
Y00553250D02*
D03*
Y00546750D02*
D03*
Y00566250D02*
D03*
Y00559750D02*
D03*
Y00468750D02*
D03*
Y00475250D02*
D03*
Y00455750D02*
D03*
Y00462250D02*
D03*
Y00442750D02*
D03*
Y00449250D02*
D03*
Y00429750D02*
D03*
Y00436250D02*
D03*
Y00416750D02*
D03*
Y00423250D02*
D03*
Y00403750D02*
D03*
Y00410250D02*
D03*
Y00397250D02*
D03*
Y00384250D02*
D03*
Y00390750D02*
D03*
D17*
X00867500Y00357500D02*
D03*
X00874000D02*
D03*
X00887000D02*
D03*
X00880500D02*
D03*
X00893500D02*
D03*
X00854500D02*
D03*
X00861000D02*
D03*
X00841500D02*
D03*
X00848000D02*
D03*
X00828500D02*
D03*
X00835000D02*
D03*
X00815500D02*
D03*
X00822000D02*
D03*
X00802500D02*
D03*
X00809000D02*
D03*
X00789500D02*
D03*
X00796000D02*
D03*
X00783000D02*
D03*
X00770000D02*
D03*
X00776500D02*
D03*
X00887000Y00599500D02*
D03*
X00893500D02*
D03*
X00880500D02*
D03*
X00867500D02*
D03*
X00874000D02*
D03*
X00854500D02*
D03*
X00861000D02*
D03*
X00841500D02*
D03*
X00848000D02*
D03*
X00828500D02*
D03*
X00835000D02*
D03*
X00815500D02*
D03*
X00822000D02*
D03*
X00802500D02*
D03*
X00809000D02*
D03*
X00770000D02*
D03*
X00783000D02*
D03*
X00776500D02*
D03*
X00789500D02*
D03*
X00796000D02*
D03*
D18*
X00817600Y00552500D02*
D03*
X00845900Y00556500D02*
D03*
Y00552500D02*
D03*
X00817600Y00556500D02*
D03*
X00845900Y00548500D02*
D03*
X00817600D02*
D03*
X00845900Y00544500D02*
D03*
X00817600D02*
D03*
X00845900Y00540500D02*
D03*
X00817600D02*
D03*
Y00524500D02*
D03*
X00845900D02*
D03*
X00817600Y00528500D02*
D03*
X00845900D02*
D03*
X00817600Y00532500D02*
D03*
X00845900D02*
D03*
Y00536500D02*
D03*
X00817600D02*
D03*
Y00508500D02*
D03*
X00845900D02*
D03*
X00817600Y00512500D02*
D03*
X00845900D02*
D03*
X00817600Y00516500D02*
D03*
X00845900D02*
D03*
Y00520500D02*
D03*
X00817600D02*
D03*
Y00492500D02*
D03*
X00845900D02*
D03*
X00817600Y00496500D02*
D03*
X00845900D02*
D03*
X00817600Y00500500D02*
D03*
X00845900D02*
D03*
Y00504500D02*
D03*
X00817600D02*
D03*
Y00476500D02*
D03*
X00845900D02*
D03*
X00817600Y00480500D02*
D03*
X00845900D02*
D03*
X00817600Y00484500D02*
D03*
X00845900D02*
D03*
Y00488500D02*
D03*
X00817600D02*
D03*
Y00460500D02*
D03*
X00845900D02*
D03*
X00817600Y00464500D02*
D03*
X00845900D02*
D03*
X00817600Y00468500D02*
D03*
X00845900D02*
D03*
Y00472500D02*
D03*
X00817600D02*
D03*
Y00444500D02*
D03*
X00845900D02*
D03*
X00817600Y00448500D02*
D03*
X00845900D02*
D03*
X00817600Y00452500D02*
D03*
X00845900D02*
D03*
Y00456500D02*
D03*
X00817600D02*
D03*
Y00428500D02*
D03*
X00845900D02*
D03*
X00817600Y00432500D02*
D03*
X00845900D02*
D03*
X00817600Y00436500D02*
D03*
X00845900D02*
D03*
Y00440500D02*
D03*
X00817600D02*
D03*
Y00412500D02*
D03*
Y00408500D02*
D03*
Y00404500D02*
D03*
Y00400500D02*
D03*
Y00424500D02*
D03*
Y00420500D02*
D03*
Y00416500D02*
D03*
X00845900Y00412500D02*
D03*
Y00408500D02*
D03*
Y00404500D02*
D03*
Y00400500D02*
D03*
Y00424500D02*
D03*
Y00420500D02*
D03*
Y00416500D02*
D03*
M02*
