G04*
G04 #@! TF.GenerationSoftware,Altium Limited,Altium Designer,21.7.2 (23)*
G04*
G04 Layer_Color=65535*
%FSAX44Y44*%
%MOMM*%
G71*
G04*
G04 #@! TF.SameCoordinates,CF3CE134-0CDD-455B-BED0-1871B7D76FAE*
G04*
G04*
G04 #@! TF.FilePolarity,Positive*
G04*
G01*
G75*
%ADD10C,0.2500*%
%ADD11C,0.1524*%
%ADD12C,0.1500*%
D10*
X00809250Y00556750D02*
G03*
X00809250Y00556750I-00001250J00000000D01*
G01*
D11*
X00814250Y00562250D02*
X00849250D01*
X00814250Y00394750D02*
X00849250D01*
D12*
X00777575Y00564126D02*
X00782574Y00569125D01*
X00777574Y00552875D02*
X00787574D01*
X00782574D02*
Y00569125D01*
X00787574Y00564126D01*
X00772888Y00470082D02*
X00771556Y00468749D01*
Y00466083D01*
X00772888Y00464750D01*
X00774221D01*
X00775554Y00466083D01*
Y00468749D01*
X00776887Y00470082D01*
X00778220D01*
X00779553Y00468749D01*
Y00466083D01*
X00778220Y00464750D01*
X00771556Y00472747D02*
X00779553D01*
X00775554D01*
Y00478079D01*
X00771556D01*
X00779553D01*
X00771556Y00480745D02*
X00776887D01*
X00779553Y00483411D01*
X00776887Y00486077D01*
X00771556D01*
X00772888Y00494074D02*
X00771556Y00492741D01*
Y00490075D01*
X00772888Y00488742D01*
X00778220D01*
X00779553Y00490075D01*
Y00492741D01*
X00778220Y00494074D01*
X00775554Y00496740D02*
Y00502071D01*
X00772888Y00510069D02*
X00771556Y00508736D01*
Y00506070D01*
X00772888Y00504737D01*
X00778220D01*
X00779553Y00506070D01*
Y00508736D01*
X00778220Y00510069D01*
X00779553Y00512735D02*
X00771556D01*
Y00516733D01*
X00772888Y00518066D01*
X00775554D01*
X00776887Y00516733D01*
Y00512735D01*
X00771556Y00520732D02*
X00778220D01*
X00779553Y00522065D01*
Y00524731D01*
X00778220Y00526064D01*
X00771556D01*
X00775554Y00528729D02*
Y00534061D01*
X00771556Y00536727D02*
X00779553Y00542058D01*
X00771556D02*
X00779553Y00536727D01*
X00771556Y00544724D02*
X00779553Y00550056D01*
X00771556D02*
X00779553Y00544724D01*
X00786085Y00470082D02*
X00784753Y00468749D01*
Y00466083D01*
X00786085Y00464750D01*
X00787418D01*
X00788751Y00466083D01*
Y00468749D01*
X00790084Y00470082D01*
X00791417D01*
X00792750Y00468749D01*
Y00466083D01*
X00791417Y00464750D01*
X00792750Y00472747D02*
X00784753D01*
X00792750Y00478079D01*
X00784753D01*
X00786085Y00486077D02*
X00784753Y00484744D01*
Y00482078D01*
X00786085Y00480745D01*
X00787418D01*
X00788751Y00482078D01*
Y00484744D01*
X00790084Y00486077D01*
X00791417D01*
X00792750Y00484744D01*
Y00482078D01*
X00791417Y00480745D01*
X00792750Y00488742D02*
X00784753D01*
Y00492741D01*
X00786085Y00494074D01*
X00788751D01*
X00790084Y00492741D01*
Y00488742D01*
X00788751Y00496740D02*
Y00502071D01*
X00786085Y00510069D02*
X00784753Y00508736D01*
Y00506070D01*
X00786085Y00504737D01*
X00791417D01*
X00792750Y00506070D01*
Y00508736D01*
X00791417Y00510069D01*
X00792750Y00512735D02*
X00784753D01*
Y00516733D01*
X00786085Y00518066D01*
X00788751D01*
X00790084Y00516733D01*
Y00512735D01*
X00784753Y00520732D02*
X00791417D01*
X00792750Y00522065D01*
Y00524731D01*
X00791417Y00526064D01*
X00784753D01*
X00788751Y00528729D02*
Y00534061D01*
X00784753Y00536727D02*
X00792750Y00542058D01*
X00784753D02*
X00792750Y00536727D01*
X00784753Y00544724D02*
X00792750Y00550056D01*
X00784753D02*
X00792750Y00544724D01*
X00858962Y00415520D02*
X00857462Y00414021D01*
Y00411022D01*
X00858962Y00409522D01*
X00860461D01*
X00861961Y00411022D01*
Y00414021D01*
X00863460Y00415520D01*
X00864960D01*
X00866459Y00414021D01*
Y00411022D01*
X00864960Y00409522D01*
X00866459Y00418519D02*
X00857462D01*
X00866459Y00424518D01*
X00857462D01*
Y00433515D02*
Y00427517D01*
X00866459D01*
Y00433515D01*
X00861961Y00427517D02*
Y00430516D01*
X00858962Y00442512D02*
X00857462Y00441012D01*
Y00438013D01*
X00858962Y00436514D01*
X00860461D01*
X00861961Y00438013D01*
Y00441012D01*
X00863460Y00442512D01*
X00864960D01*
X00866459Y00441012D01*
Y00438013D01*
X00864960Y00436514D01*
X00857462Y00454508D02*
Y00460506D01*
Y00457507D01*
X00866459D01*
X00858962Y00469503D02*
X00857462Y00468003D01*
Y00465004D01*
X00858962Y00463505D01*
X00860461D01*
X00861961Y00465004D01*
Y00468003D01*
X00863460Y00469503D01*
X00864960D01*
X00866459Y00468003D01*
Y00465004D01*
X00864960Y00463505D01*
X00857462Y00472502D02*
Y00478500D01*
Y00475501D01*
X00866459D01*
Y00490496D02*
X00860461D01*
X00857462Y00493495D01*
X00860461Y00496494D01*
X00866459D01*
X00861961D01*
Y00490496D01*
X00857462Y00505491D02*
X00866459D01*
Y00500993D01*
X00864960Y00499493D01*
X00861961D01*
X00860461Y00500993D01*
Y00505491D01*
Y00509990D02*
Y00512989D01*
X00861961Y00514488D01*
X00866459D01*
Y00509990D01*
X00864960Y00508490D01*
X00863460Y00509990D01*
Y00514488D01*
X00869458Y00517487D02*
X00860461D01*
Y00521986D01*
X00861961Y00523485D01*
X00864960D01*
X00866459Y00521986D01*
Y00517487D01*
X00858962Y00527984D02*
X00860461D01*
Y00526484D01*
Y00529483D01*
Y00527984D01*
X00864960D01*
X00866459Y00529483D01*
Y00538481D02*
Y00535482D01*
X00864960Y00533982D01*
X00861961D01*
X00860461Y00535482D01*
Y00538481D01*
X00861961Y00539980D01*
X00863460D01*
Y00533982D01*
X00860461Y00542979D02*
X00866459D01*
X00863460D01*
X00861961Y00544479D01*
X00860461Y00545978D01*
Y00547478D01*
X00874857Y00426017D02*
Y00432015D01*
Y00429016D01*
X00883855D01*
X00877857Y00435014D02*
X00882355D01*
X00883855Y00436514D01*
Y00441012D01*
X00885354D01*
X00886854Y00439513D01*
Y00438013D01*
X00883855Y00441012D02*
X00877857D01*
X00886854Y00444011D02*
X00877857D01*
Y00448510D01*
X00879356Y00450009D01*
X00882355D01*
X00883855Y00448510D01*
Y00444011D01*
Y00457507D02*
Y00454508D01*
X00882355Y00453008D01*
X00879356D01*
X00877857Y00454508D01*
Y00457507D01*
X00879356Y00459006D01*
X00880856D01*
Y00453008D01*
X00883855Y00471002D02*
X00877857D01*
X00874857Y00474002D01*
X00877857Y00477001D01*
X00883855D01*
X00879356D01*
Y00471002D01*
X00883855Y00488997D02*
X00874857D01*
Y00493495D01*
X00876357Y00494995D01*
X00879356D01*
X00880856Y00493495D01*
Y00488997D01*
Y00491996D02*
X00883855Y00494995D01*
Y00502492D02*
Y00499493D01*
X00882355Y00497994D01*
X00879356D01*
X00877857Y00499493D01*
Y00502492D01*
X00879356Y00503992D01*
X00880856D01*
Y00497994D01*
X00877857Y00506991D02*
X00883855Y00509990D01*
X00877857Y00512989D01*
X00876357Y00524985D02*
X00874857Y00526484D01*
Y00529483D01*
X00876357Y00530983D01*
X00882355D01*
X00883855Y00529483D01*
Y00526484D01*
X00882355Y00524985D01*
X00876357D01*
X00901250Y00443261D02*
Y00437263D01*
X00895252Y00443261D01*
X00893753D01*
X00892253Y00441762D01*
Y00438763D01*
X00893753Y00437263D01*
Y00446260D02*
X00892253Y00447760D01*
Y00450759D01*
X00893753Y00452258D01*
X00899751D01*
X00901250Y00450759D01*
Y00447760D01*
X00899751Y00446260D01*
X00893753D01*
X00901250Y00461256D02*
Y00455257D01*
X00895252Y00461256D01*
X00893753D01*
X00892253Y00459756D01*
Y00456757D01*
X00893753Y00455257D01*
X00901250Y00464255D02*
Y00467254D01*
Y00465754D01*
X00892253D01*
X00893753Y00464255D01*
X00896751Y00471752D02*
Y00477750D01*
X00901250Y00480749D02*
Y00483748D01*
Y00482249D01*
X00892253D01*
X00893753Y00480749D01*
Y00488247D02*
X00892253Y00489746D01*
Y00492745D01*
X00893753Y00494245D01*
X00899751D01*
X00901250Y00492745D01*
Y00489746D01*
X00899751Y00488247D01*
X00893753D01*
X00896751Y00497244D02*
Y00503242D01*
X00901250Y00506241D02*
Y00509240D01*
Y00507741D01*
X00892253D01*
X00893753Y00506241D01*
X00899751Y00513739D02*
X00901250Y00515238D01*
Y00518237D01*
X00899751Y00519737D01*
X00893753D01*
X00892253Y00518237D01*
Y00515238D01*
X00893753Y00513739D01*
X00895252D01*
X00896751Y00515238D01*
Y00519737D01*
M02*
