G04*
G04 #@! TF.GenerationSoftware,Altium Limited,Altium Designer,21.7.2 (23)*
G04*
G04 Layer_Physical_Order=4*
G04 Layer_Color=16711680*
%FSAX44Y44*%
%MOMM*%
G71*
G04*
G04 #@! TF.SameCoordinates,CF3CE134-0CDD-455B-BED0-1871B7D76FAE*
G04*
G04*
G04 #@! TF.FilePolarity,Positive*
G04*
G01*
G75*
%ADD12C,0.1500*%
%ADD19R,1.8000X0.3500*%
%ADD20R,0.3500X1.8000*%
%ADD21C,0.2000*%
%ADD22C,0.4500*%
G36*
X00920750Y00589997D02*
X00912252D01*
Y00589000D01*
X00898020Y00589000D01*
X00896750Y00590270D01*
Y00598500D01*
X00920750D01*
Y00589997D01*
D02*
G37*
G36*
X00777500Y00588500D02*
X00778374D01*
X00779180Y00587518D01*
X00779176Y00587500D01*
X00779467Y00586037D01*
X00780296Y00584796D01*
X00781537Y00583968D01*
X00783000Y00583677D01*
X00784463Y00583968D01*
X00785403Y00584596D01*
X00786250Y00584718D01*
X00787097Y00584596D01*
X00788037Y00583968D01*
X00789500Y00583677D01*
X00790963Y00583968D01*
X00791903Y00584596D01*
X00792750Y00584718D01*
X00793597Y00584596D01*
X00794537Y00583968D01*
X00796000Y00583677D01*
X00797463Y00583968D01*
X00798403Y00584596D01*
X00799250Y00584718D01*
X00800097Y00584596D01*
X00801037Y00583968D01*
X00802500Y00583677D01*
X00803963Y00583968D01*
X00804903Y00584596D01*
X00805750Y00584718D01*
X00806597Y00584596D01*
X00807537Y00583968D01*
X00809000Y00583677D01*
X00810463Y00583968D01*
X00811703Y00584796D01*
X00812532Y00586037D01*
X00812823Y00587500D01*
X00812777Y00587730D01*
X00813820Y00589000D01*
X00817480D01*
X00818750Y00589000D01*
Y00589000D01*
X00818750D01*
Y00589000D01*
X00823980D01*
X00825250Y00589000D01*
Y00589000D01*
X00825250D01*
Y00589000D01*
X00830480D01*
X00831750Y00589000D01*
Y00589000D01*
X00831750D01*
Y00589000D01*
X00836980D01*
X00838250Y00589000D01*
Y00589000D01*
X00838250D01*
Y00589000D01*
X00843480D01*
X00844750Y00589000D01*
Y00589000D01*
X00844750D01*
Y00589000D01*
X00849980D01*
X00851250Y00589000D01*
Y00589000D01*
X00851250D01*
Y00589000D01*
X00856480D01*
X00857750Y00589000D01*
Y00589000D01*
X00857750D01*
Y00589000D01*
X00862980D01*
X00864250Y00589000D01*
Y00589000D01*
X00864250D01*
Y00589000D01*
X00869480D01*
X00870750Y00589000D01*
Y00589000D01*
X00870750D01*
Y00589000D01*
X00875680D01*
X00876722Y00587730D01*
X00876676Y00587500D01*
X00876968Y00586037D01*
X00877796Y00584796D01*
X00879037Y00583968D01*
X00880500Y00583677D01*
X00881963Y00583968D01*
X00883204Y00584796D01*
X00884032Y00586037D01*
X00884323Y00587500D01*
X00884278Y00587730D01*
X00885320Y00589000D01*
X00886761D01*
X00888031Y00587730D01*
X00888031Y00576500D01*
X00910187Y00576500D01*
X00911250Y00575230D01*
Y00570770D01*
X00911250Y00569500D01*
X00911250D01*
Y00569500D01*
X00911250D01*
Y00564270D01*
X00911250Y00563000D01*
X00911250D01*
Y00563000D01*
X00911250D01*
Y00557770D01*
X00911250Y00556500D01*
X00911250D01*
Y00556500D01*
X00911250D01*
Y00551570D01*
X00909980Y00550528D01*
X00909750Y00550574D01*
X00908287Y00550283D01*
X00907046Y00549454D01*
X00906218Y00548214D01*
X00905927Y00546750D01*
X00906218Y00545287D01*
X00906846Y00544347D01*
X00906968Y00543500D01*
X00906846Y00542653D01*
X00906218Y00541713D01*
X00905927Y00540250D01*
X00906218Y00538787D01*
X00906846Y00537847D01*
X00906968Y00537000D01*
X00906846Y00536153D01*
X00906218Y00535213D01*
X00905927Y00533750D01*
X00906218Y00532287D01*
X00906846Y00531347D01*
X00906968Y00530500D01*
X00906846Y00529653D01*
X00906218Y00528713D01*
X00905927Y00527250D01*
X00906218Y00525787D01*
X00906846Y00524847D01*
X00906968Y00524000D01*
X00906846Y00523153D01*
X00906218Y00522213D01*
X00905927Y00520750D01*
X00906218Y00519287D01*
X00906846Y00518347D01*
X00906968Y00517500D01*
X00906846Y00516653D01*
X00906218Y00515713D01*
X00905927Y00514250D01*
X00906218Y00512787D01*
X00906846Y00511847D01*
X00906968Y00511000D01*
X00906846Y00510153D01*
X00906218Y00509213D01*
X00905927Y00507750D01*
X00906218Y00506287D01*
X00906846Y00505347D01*
X00906968Y00504500D01*
X00906846Y00503653D01*
X00906218Y00502713D01*
X00905927Y00501250D01*
X00906218Y00499787D01*
X00907046Y00498547D01*
X00908287Y00497718D01*
X00909750Y00497427D01*
X00909768Y00497430D01*
X00910750Y00496625D01*
Y00495750D01*
X00921750D01*
Y00493750D01*
X00910750D01*
Y00492876D01*
X00909768Y00492070D01*
X00909750Y00492074D01*
X00908287Y00491783D01*
X00907046Y00490954D01*
X00906218Y00489713D01*
X00905927Y00488250D01*
X00906218Y00486787D01*
X00906846Y00485847D01*
X00906968Y00485000D01*
X00906846Y00484153D01*
X00906218Y00483213D01*
X00905927Y00481750D01*
X00906218Y00480287D01*
X00906846Y00479347D01*
X00906968Y00478500D01*
X00906846Y00477653D01*
X00906218Y00476713D01*
X00905927Y00475250D01*
X00906218Y00473787D01*
X00906846Y00472847D01*
X00906968Y00472000D01*
X00906846Y00471153D01*
X00906218Y00470213D01*
X00905927Y00468750D01*
X00906218Y00467287D01*
X00906846Y00466347D01*
X00906968Y00465500D01*
X00906846Y00464653D01*
X00906218Y00463713D01*
X00905927Y00462250D01*
X00906218Y00460787D01*
X00906846Y00459847D01*
X00906968Y00459000D01*
X00906846Y00458153D01*
X00906218Y00457213D01*
X00905927Y00455750D01*
X00906218Y00454287D01*
X00906846Y00453347D01*
X00906968Y00452500D01*
X00906846Y00451653D01*
X00906218Y00450713D01*
X00905927Y00449250D01*
X00906218Y00447787D01*
X00906846Y00446847D01*
X00906968Y00446000D01*
X00906846Y00445153D01*
X00906218Y00444213D01*
X00905927Y00442750D01*
X00906218Y00441287D01*
X00906846Y00440347D01*
X00906968Y00439500D01*
X00906846Y00438653D01*
X00906218Y00437713D01*
X00905927Y00436250D01*
X00906218Y00434787D01*
X00907046Y00433546D01*
X00908287Y00432718D01*
X00909750Y00432427D01*
X00909980Y00432472D01*
X00911250Y00431430D01*
Y00427770D01*
X00911250Y00426500D01*
X00911250D01*
Y00426500D01*
X00911250D01*
Y00421270D01*
X00911250Y00420000D01*
X00911250D01*
Y00420000D01*
X00911250D01*
Y00414770D01*
X00911250Y00413500D01*
X00911250D01*
Y00413500D01*
X00911250D01*
Y00408270D01*
X00911250Y00407000D01*
X00911250D01*
Y00407000D01*
X00911250D01*
Y00401770D01*
X00911250Y00400500D01*
X00911250D01*
Y00400500D01*
X00911250D01*
Y00395270D01*
X00911250Y00394000D01*
X00911250D01*
Y00394000D01*
X00911250D01*
Y00388770D01*
X00911250Y00387500D01*
X00911250D01*
Y00387500D01*
X00911250D01*
Y00381000D01*
X00920750D01*
Y00358500D01*
X00896750D01*
Y00368000D01*
X00891820D01*
X00890778Y00369270D01*
X00890824Y00369500D01*
X00890533Y00370963D01*
X00889704Y00372203D01*
X00888463Y00373032D01*
X00887000Y00373323D01*
X00885537Y00373032D01*
X00884297Y00372203D01*
X00883204D01*
X00881963Y00373032D01*
X00880500Y00373323D01*
X00879037Y00373032D01*
X00877797Y00372203D01*
X00876704D01*
X00875463Y00373032D01*
X00874000Y00373323D01*
X00872537Y00373032D01*
X00871297Y00372203D01*
X00870204D01*
X00868963Y00373032D01*
X00867500Y00373323D01*
X00866037Y00373032D01*
X00864797Y00372203D01*
X00863704D01*
X00862463Y00373032D01*
X00861000Y00373323D01*
X00859537Y00373032D01*
X00858297Y00372203D01*
X00857204D01*
X00855963Y00373032D01*
X00854500Y00373323D01*
X00853037Y00373032D01*
X00851797Y00372203D01*
X00850704D01*
X00849463Y00373032D01*
X00848000Y00373323D01*
X00846537Y00373032D01*
X00845297Y00372203D01*
X00844204D01*
X00842963Y00373032D01*
X00841500Y00373323D01*
X00840037Y00373032D01*
X00838797Y00372203D01*
X00837704D01*
X00836463Y00373032D01*
X00835000Y00373323D01*
X00833537Y00373032D01*
X00832297Y00372203D01*
X00831204D01*
X00829963Y00373032D01*
X00828500Y00373323D01*
X00827037Y00373032D01*
X00825797Y00372203D01*
X00824704D01*
X00823463Y00373032D01*
X00822000Y00373323D01*
X00820537Y00373032D01*
X00819297Y00372203D01*
X00818204D01*
X00816963Y00373032D01*
X00815500Y00373323D01*
X00814037Y00373032D01*
X00812796Y00372203D01*
X00811704D01*
X00810463Y00373032D01*
X00809000Y00373323D01*
X00807537Y00373032D01*
X00806296Y00372203D01*
X00805992Y00372229D01*
X00805049Y00372622D01*
Y00375444D01*
X00810806Y00381201D01*
X00847250D01*
X00848225Y00381395D01*
X00849052Y00381948D01*
X00862802Y00395698D01*
X00863355Y00396525D01*
X00863549Y00397500D01*
Y00405250D01*
X00863355Y00406225D01*
X00862802Y00407052D01*
X00859015Y00410840D01*
X00858188Y00411393D01*
X00857389Y00411551D01*
X00856954Y00412204D01*
X00855713Y00413032D01*
X00854250Y00413323D01*
X00852787Y00413032D01*
X00851546Y00412204D01*
X00850718Y00410963D01*
X00850427Y00409500D01*
X00850718Y00408037D01*
X00851546Y00406796D01*
X00852787Y00405968D01*
X00854250Y00405677D01*
X00855713Y00405968D01*
X00856291Y00406354D01*
X00858451Y00404194D01*
Y00398556D01*
X00846194Y00386299D01*
X00809750D01*
X00808775Y00386105D01*
X00807948Y00385552D01*
X00800698Y00378302D01*
X00800145Y00377475D01*
X00799951Y00376500D01*
Y00372307D01*
X00799797Y00372203D01*
X00798968Y00370963D01*
X00798677Y00369500D01*
X00798680Y00369482D01*
X00797875Y00368500D01*
X00797000D01*
Y00357500D01*
X00795000D01*
Y00368500D01*
X00794126D01*
X00793320Y00369482D01*
X00793324Y00369500D01*
X00793032Y00370963D01*
X00792204Y00372203D01*
X00792049Y00372307D01*
Y00373894D01*
X00810959Y00392804D01*
X00838111D01*
X00838215Y00392650D01*
X00839455Y00391821D01*
X00840918Y00391530D01*
X00842381Y00391821D01*
X00843622Y00392650D01*
X00844451Y00393890D01*
X00844742Y00395353D01*
X00844451Y00396816D01*
X00843622Y00398057D01*
X00842381Y00398886D01*
X00840918Y00399177D01*
X00839455Y00398886D01*
X00838215Y00398057D01*
X00838111Y00397902D01*
X00833529D01*
X00833144Y00399172D01*
X00833704Y00399546D01*
X00834532Y00400787D01*
X00834806Y00402164D01*
X00836000Y00401927D01*
X00837463Y00402218D01*
X00838704Y00403046D01*
X00839532Y00404287D01*
X00839823Y00405750D01*
X00839532Y00407213D01*
X00838704Y00408454D01*
X00838549Y00408557D01*
Y00418693D01*
X00838704Y00418796D01*
X00839532Y00420037D01*
X00839823Y00421500D01*
X00839532Y00422963D01*
X00838704Y00424204D01*
X00837463Y00425032D01*
X00836000Y00425323D01*
X00834537Y00425032D01*
X00833296Y00424204D01*
X00832468Y00422963D01*
X00832323Y00422235D01*
X00831076Y00422214D01*
X00831026Y00422223D01*
X00830204Y00423454D01*
X00828963Y00424282D01*
X00827500Y00424573D01*
X00826037Y00424282D01*
X00824796Y00423454D01*
X00823968Y00422213D01*
X00823677Y00420750D01*
X00823968Y00419287D01*
X00824796Y00418046D01*
X00824951Y00417943D01*
Y00405750D01*
X00825145Y00404775D01*
X00825698Y00403948D01*
X00827213Y00402432D01*
X00827177Y00402250D01*
X00827468Y00400787D01*
X00828296Y00399546D01*
X00828856Y00399172D01*
X00828471Y00397902D01*
X00809904D01*
X00808928Y00397708D01*
X00808101Y00397156D01*
X00787698Y00376752D01*
X00787145Y00375925D01*
X00786951Y00374950D01*
Y00372622D01*
X00786008Y00372229D01*
X00785704Y00372203D01*
X00784463Y00373032D01*
X00783000Y00373323D01*
X00781537Y00373032D01*
X00780296Y00372203D01*
X00779204D01*
X00777963Y00373032D01*
X00776500Y00373323D01*
X00775037Y00373032D01*
X00773796Y00372203D01*
X00772704D01*
X00771463Y00373032D01*
X00770000Y00373323D01*
X00768537Y00373032D01*
X00767296Y00372203D01*
X00766468Y00370963D01*
X00766177Y00369500D01*
X00766468Y00368037D01*
X00766750Y00367614D01*
Y00358500D01*
X00742750D01*
Y00381000D01*
X00751864D01*
X00752287Y00380717D01*
X00753750Y00380426D01*
X00755213Y00380717D01*
X00756454Y00381546D01*
X00757282Y00382786D01*
X00757573Y00384250D01*
X00757282Y00385713D01*
X00756654Y00386653D01*
X00756532Y00387500D01*
X00756654Y00388346D01*
X00757282Y00389286D01*
X00757573Y00390750D01*
X00757282Y00392213D01*
X00756654Y00393153D01*
X00756532Y00394000D01*
X00756654Y00394846D01*
X00757282Y00395787D01*
X00757573Y00397250D01*
X00757282Y00398713D01*
X00756654Y00399653D01*
X00756532Y00400500D01*
X00756654Y00401347D01*
X00757282Y00402286D01*
X00757573Y00403750D01*
X00757282Y00405213D01*
X00756654Y00406153D01*
X00756532Y00407000D01*
X00756654Y00407846D01*
X00757282Y00408787D01*
X00757573Y00410250D01*
X00757282Y00411713D01*
X00756654Y00412653D01*
X00756532Y00413500D01*
X00756654Y00414347D01*
X00757282Y00415286D01*
X00757573Y00416750D01*
X00757282Y00418213D01*
X00756654Y00419153D01*
X00756532Y00420000D01*
X00756654Y00420847D01*
X00757282Y00421786D01*
X00757573Y00423250D01*
X00757282Y00424713D01*
X00756654Y00425653D01*
X00756532Y00426500D01*
X00756654Y00427347D01*
X00757282Y00428287D01*
X00757573Y00429750D01*
X00757282Y00431213D01*
X00756654Y00432153D01*
X00756532Y00433000D01*
X00756654Y00433847D01*
X00757282Y00434787D01*
X00757573Y00436250D01*
X00757282Y00437713D01*
X00756654Y00438653D01*
X00756532Y00439500D01*
X00756654Y00440347D01*
X00757282Y00441287D01*
X00757573Y00442750D01*
X00757282Y00444213D01*
X00756654Y00445153D01*
X00756532Y00446000D01*
X00756654Y00446847D01*
X00757282Y00447787D01*
X00757573Y00449250D01*
X00757282Y00450713D01*
X00756654Y00451653D01*
X00756532Y00452500D01*
X00756654Y00453347D01*
X00757282Y00454287D01*
X00757573Y00455750D01*
X00757282Y00457213D01*
X00756654Y00458153D01*
X00756532Y00459000D01*
X00756654Y00459847D01*
X00757282Y00460787D01*
X00757573Y00462250D01*
X00757282Y00463713D01*
X00756654Y00464653D01*
X00756532Y00465500D01*
X00756654Y00466347D01*
X00757282Y00467287D01*
X00757573Y00468750D01*
X00757282Y00470213D01*
X00756454Y00471453D01*
X00755213Y00472282D01*
X00753750Y00472573D01*
X00753732Y00472570D01*
X00752750Y00473375D01*
Y00474250D01*
X00741750D01*
Y00476250D01*
X00752750D01*
Y00477124D01*
X00753732Y00477930D01*
X00753750Y00477926D01*
X00755213Y00478217D01*
X00756454Y00479046D01*
X00757282Y00480287D01*
X00757573Y00481750D01*
X00757282Y00483213D01*
X00756654Y00484153D01*
X00756532Y00485000D01*
X00756654Y00485847D01*
X00757282Y00486787D01*
X00757573Y00488250D01*
X00757282Y00489713D01*
X00756654Y00490653D01*
X00756532Y00491500D01*
X00756654Y00492347D01*
X00757282Y00493287D01*
X00757573Y00494750D01*
X00757282Y00496213D01*
X00756654Y00497153D01*
X00756532Y00498000D01*
X00756654Y00498847D01*
X00757282Y00499787D01*
X00757573Y00501250D01*
X00757282Y00502713D01*
X00756654Y00503653D01*
X00756532Y00504500D01*
X00756654Y00505347D01*
X00757282Y00506287D01*
X00757573Y00507750D01*
X00757282Y00509213D01*
X00756654Y00510153D01*
X00756532Y00511000D01*
X00756654Y00511847D01*
X00757282Y00512787D01*
X00757573Y00514250D01*
X00757282Y00515713D01*
X00756654Y00516653D01*
X00756532Y00517500D01*
X00756654Y00518347D01*
X00757282Y00519287D01*
X00757573Y00520750D01*
X00757282Y00522213D01*
X00756654Y00523153D01*
X00756532Y00524000D01*
X00756654Y00524847D01*
X00757282Y00525787D01*
X00757573Y00527250D01*
X00757282Y00528713D01*
X00756654Y00529653D01*
X00756532Y00530500D01*
X00756654Y00531347D01*
X00757282Y00532287D01*
X00757573Y00533750D01*
X00757282Y00535213D01*
X00756654Y00536153D01*
X00756532Y00537000D01*
X00756654Y00537847D01*
X00757282Y00538787D01*
X00757573Y00540250D01*
X00757282Y00541713D01*
X00756654Y00542653D01*
X00756532Y00543500D01*
X00756654Y00544347D01*
X00757282Y00545287D01*
X00757573Y00546750D01*
X00757282Y00548213D01*
X00756654Y00549153D01*
X00756532Y00550000D01*
X00756654Y00550847D01*
X00757282Y00551787D01*
X00757573Y00553250D01*
X00757282Y00554713D01*
X00756654Y00555653D01*
X00756532Y00556500D01*
X00756654Y00557347D01*
X00757282Y00558287D01*
X00757573Y00559750D01*
X00757282Y00561213D01*
X00756654Y00562153D01*
X00756532Y00563000D01*
X00756654Y00563847D01*
X00757282Y00564787D01*
X00757573Y00566250D01*
X00757282Y00567713D01*
X00756654Y00568653D01*
X00756532Y00569500D01*
X00756654Y00570347D01*
X00757282Y00571287D01*
X00757573Y00572750D01*
X00757282Y00574213D01*
X00756454Y00575454D01*
X00755213Y00576282D01*
X00753750Y00576573D01*
X00752287Y00576282D01*
X00751864Y00576000D01*
X00742750D01*
Y00598500D01*
X00766750D01*
Y00589386D01*
X00766467Y00588963D01*
X00766176Y00587500D01*
X00766467Y00586037D01*
X00767296Y00584796D01*
X00768537Y00583968D01*
X00770000Y00583677D01*
X00771463Y00583968D01*
X00772703Y00584796D01*
X00773532Y00586037D01*
X00773823Y00587500D01*
X00773820Y00587518D01*
X00774625Y00588500D01*
X00775500D01*
Y00599500D01*
X00777500D01*
Y00588500D01*
D02*
G37*
D12*
X00916751Y00578000D02*
Y00586997D01*
X00921250Y00582499D01*
X00915252D01*
D19*
X00741750Y00566250D02*
D03*
Y00572750D02*
D03*
Y00559750D02*
D03*
Y00546750D02*
D03*
Y00553250D02*
D03*
Y00533750D02*
D03*
Y00540250D02*
D03*
Y00520750D02*
D03*
Y00527250D02*
D03*
Y00507750D02*
D03*
Y00514250D02*
D03*
Y00494750D02*
D03*
Y00501250D02*
D03*
Y00481750D02*
D03*
Y00488250D02*
D03*
Y00397250D02*
D03*
Y00390750D02*
D03*
Y00410250D02*
D03*
Y00403750D02*
D03*
Y00423250D02*
D03*
Y00416750D02*
D03*
Y00436250D02*
D03*
Y00429750D02*
D03*
Y00449250D02*
D03*
Y00442750D02*
D03*
Y00462250D02*
D03*
Y00455750D02*
D03*
Y00468750D02*
D03*
Y00475250D02*
D03*
Y00384250D02*
D03*
X00921750Y00572750D02*
D03*
Y00481750D02*
D03*
Y00488250D02*
D03*
Y00501250D02*
D03*
Y00494750D02*
D03*
Y00514250D02*
D03*
Y00507750D02*
D03*
Y00527250D02*
D03*
Y00520750D02*
D03*
Y00540250D02*
D03*
Y00533750D02*
D03*
Y00553250D02*
D03*
Y00546750D02*
D03*
Y00566250D02*
D03*
Y00559750D02*
D03*
Y00468750D02*
D03*
Y00475250D02*
D03*
Y00455750D02*
D03*
Y00462250D02*
D03*
Y00442750D02*
D03*
Y00449250D02*
D03*
Y00429750D02*
D03*
Y00436250D02*
D03*
Y00416750D02*
D03*
Y00423250D02*
D03*
Y00403750D02*
D03*
Y00410250D02*
D03*
Y00397250D02*
D03*
Y00384250D02*
D03*
Y00390750D02*
D03*
D20*
X00867500Y00357500D02*
D03*
X00874000D02*
D03*
X00887000D02*
D03*
X00880500D02*
D03*
X00893500D02*
D03*
X00854500D02*
D03*
X00861000D02*
D03*
X00841500D02*
D03*
X00848000D02*
D03*
X00828500D02*
D03*
X00835000D02*
D03*
X00815500D02*
D03*
X00822000D02*
D03*
X00802500D02*
D03*
X00809000D02*
D03*
X00789500D02*
D03*
X00796000D02*
D03*
X00783000D02*
D03*
X00770000D02*
D03*
X00776500D02*
D03*
X00887000Y00599500D02*
D03*
X00893500D02*
D03*
X00880500D02*
D03*
X00867500D02*
D03*
X00874000D02*
D03*
X00854500D02*
D03*
X00861000D02*
D03*
X00841500D02*
D03*
X00848000D02*
D03*
X00828500D02*
D03*
X00835000D02*
D03*
X00815500D02*
D03*
X00822000D02*
D03*
X00802500D02*
D03*
X00809000D02*
D03*
X00770000D02*
D03*
X00783000D02*
D03*
X00776500D02*
D03*
X00789500D02*
D03*
X00796000D02*
D03*
D21*
X00854250Y00397000D02*
Y00403500D01*
Y00409500D02*
X00854712Y00409038D01*
X00857212D01*
X00847000Y00389750D02*
X00854250Y00397000D01*
X00809250Y00389750D02*
X00847000D01*
X00857212Y00409038D02*
X00861000Y00405250D01*
Y00397500D02*
Y00405250D01*
X00847250Y00383750D02*
X00861000Y00397500D01*
X00809750Y00383750D02*
X00847250D01*
X00841500Y00357500D02*
Y00369500D01*
X00848000Y00357500D02*
Y00369500D01*
X00854500Y00357500D02*
Y00369500D01*
X00861000Y00357500D02*
Y00369500D01*
X00867500Y00357500D02*
Y00369500D01*
X00874000Y00357500D02*
Y00369500D01*
X00880500Y00357500D02*
Y00369500D01*
X00887000Y00357500D02*
Y00369500D01*
X00809904Y00395353D02*
X00840918D01*
X00789500Y00374950D02*
X00809904Y00395353D01*
X00789500Y00369500D02*
Y00374950D01*
X00796000Y00376500D02*
X00809250Y00389750D01*
X00802500Y00376500D02*
X00809750Y00383750D01*
X00796000Y00357500D02*
Y00376500D01*
X00802500Y00357500D02*
Y00376500D01*
X00827500Y00405750D02*
X00831000Y00402250D01*
X00827500Y00405750D02*
Y00420750D01*
X00789500Y00587500D02*
Y00599500D01*
X00783000Y00587500D02*
Y00599500D01*
X00776500Y00587500D02*
Y00599500D01*
X00770000Y00587500D02*
Y00599500D01*
X00809000Y00587500D02*
Y00599500D01*
X00802500Y00587500D02*
Y00599500D01*
X00796000Y00587500D02*
Y00599500D01*
X00880500Y00587500D02*
Y00599500D01*
X00909750Y00540250D02*
X00921750D01*
X00909750Y00546750D02*
X00921750D01*
X00909750Y00514250D02*
X00921750D01*
X00909750Y00520750D02*
X00921750D01*
X00909750Y00527250D02*
X00921750D01*
X00909750Y00533750D02*
X00921750D01*
X00909750Y00488250D02*
X00921750D01*
X00909750Y00494750D02*
X00921750D01*
X00909750Y00501250D02*
X00921750D01*
X00909750Y00507750D02*
X00921750D01*
X00909750Y00462250D02*
X00921750D01*
X00909750Y00468750D02*
X00921750D01*
X00909750Y00475250D02*
X00921750D01*
X00909750Y00481750D02*
X00921750D01*
X00909750Y00436250D02*
X00921750D01*
X00909750Y00442750D02*
X00921750D01*
X00909750Y00449250D02*
X00921750D01*
X00909750Y00455750D02*
X00921750D01*
X00822000Y00357500D02*
Y00369500D01*
X00828500Y00357500D02*
Y00369500D01*
X00835000Y00357500D02*
Y00369500D01*
X00809000Y00357500D02*
Y00369500D01*
X00815500Y00357500D02*
Y00369500D01*
X00789500Y00357500D02*
Y00369500D01*
X00770000Y00357500D02*
Y00369500D01*
X00776500Y00357500D02*
Y00369500D01*
X00783000Y00357500D02*
Y00369500D01*
X00741750Y00390750D02*
X00753750D01*
X00741750Y00384250D02*
X00753750D01*
X00741750Y00416750D02*
X00753750D01*
X00741750Y00410250D02*
X00753750D01*
X00741750Y00403750D02*
X00753750D01*
X00741750Y00397250D02*
X00753750D01*
X00741750Y00442750D02*
X00753750D01*
X00741750Y00436250D02*
X00753750D01*
X00741750Y00429750D02*
X00753750D01*
X00741750Y00423250D02*
X00753750D01*
X00741750Y00468750D02*
X00753750D01*
X00741750Y00462250D02*
X00753750D01*
X00741750Y00455750D02*
X00753750D01*
X00741750Y00449250D02*
X00753750D01*
X00741750Y00494750D02*
X00753750D01*
X00741750Y00488250D02*
X00753750D01*
X00741750Y00481750D02*
X00753750D01*
X00741750Y00475250D02*
X00753750D01*
X00741750Y00520750D02*
X00753750D01*
X00741750Y00514250D02*
X00753750D01*
X00741750Y00507750D02*
X00753750D01*
X00741750Y00501250D02*
X00753750D01*
X00741750Y00546750D02*
X00753750D01*
X00741750Y00540250D02*
X00753750D01*
X00741750Y00533750D02*
X00753750D01*
X00741750Y00527250D02*
X00753750D01*
X00741750Y00553250D02*
X00753750D01*
X00741750Y00559750D02*
X00753750D01*
X00741750Y00566250D02*
X00753750D01*
X00741750Y00572750D02*
X00753750D01*
X00836000Y00405750D02*
Y00421500D01*
D22*
X00761750Y00579500D02*
D03*
X00763000Y00376000D02*
D03*
X00910750Y00593500D02*
D03*
X00902750Y00377500D02*
D03*
X00854250Y00403500D02*
D03*
Y00409500D02*
D03*
X00841500Y00369500D02*
D03*
X00848000D02*
D03*
X00854500D02*
D03*
X00861000D02*
D03*
X00867500D02*
D03*
X00874000D02*
D03*
X00880500D02*
D03*
X00887000D02*
D03*
X00840918Y00395353D02*
D03*
X00831000Y00402250D02*
D03*
X00827500Y00420750D02*
D03*
X00789500Y00369500D02*
D03*
X00836000Y00421500D02*
D03*
Y00405750D02*
D03*
X00828500Y00369500D02*
D03*
X00835000D02*
D03*
X00822000D02*
D03*
X00796000D02*
D03*
X00783000D02*
D03*
X00753750Y00416750D02*
D03*
Y00410250D02*
D03*
Y00403750D02*
D03*
Y00397250D02*
D03*
Y00390750D02*
D03*
Y00384250D02*
D03*
Y00423250D02*
D03*
Y00429750D02*
D03*
Y00436250D02*
D03*
Y00442750D02*
D03*
Y00449250D02*
D03*
Y00455750D02*
D03*
Y00462250D02*
D03*
Y00468750D02*
D03*
Y00475250D02*
D03*
Y00481750D02*
D03*
Y00488250D02*
D03*
Y00494750D02*
D03*
Y00501250D02*
D03*
Y00507750D02*
D03*
Y00514250D02*
D03*
Y00520750D02*
D03*
X00809000Y00587500D02*
D03*
X00753750Y00527250D02*
D03*
Y00533750D02*
D03*
Y00540250D02*
D03*
Y00546750D02*
D03*
Y00553250D02*
D03*
X00909750Y00501250D02*
D03*
X00753750Y00559750D02*
D03*
Y00566250D02*
D03*
Y00572750D02*
D03*
X00783000Y00587500D02*
D03*
X00776500D02*
D03*
X00770000D02*
D03*
X00789500D02*
D03*
X00796000D02*
D03*
X00802500D02*
D03*
X00909750Y00468750D02*
D03*
X00880500Y00587500D02*
D03*
X00770000Y00369500D02*
D03*
X00776500D02*
D03*
X00815500D02*
D03*
X00809000D02*
D03*
X00802500D02*
D03*
X00909750Y00527250D02*
D03*
Y00533750D02*
D03*
Y00540250D02*
D03*
Y00546750D02*
D03*
Y00507750D02*
D03*
Y00514250D02*
D03*
Y00520750D02*
D03*
Y00475250D02*
D03*
Y00481750D02*
D03*
Y00488250D02*
D03*
Y00494750D02*
D03*
Y00449250D02*
D03*
Y00455750D02*
D03*
Y00462250D02*
D03*
Y00436250D02*
D03*
Y00442750D02*
D03*
M02*
