G04*
G04 #@! TF.GenerationSoftware,Altium Limited,Altium Designer,21.7.2 (23)*
G04*
G04 Layer_Physical_Order=3*
G04 Layer_Color=16440176*
%FSAX44Y44*%
%MOMM*%
G71*
G04*
G04 #@! TF.SameCoordinates,8073F22B-F9D6-4515-8FA4-32CADCE011FE*
G04*
G04*
G04 #@! TF.FilePolarity,Positive*
G04*
G01*
G75*
%ADD12C,0.1500*%
%ADD22C,0.4500*%
G36*
X00920750Y00589000D02*
X00915748D01*
Y00589997D01*
X00903750D01*
Y00589000D01*
X00888031D01*
X00888031Y00576500D01*
X00903750D01*
Y00575000D01*
X00915748D01*
Y00576500D01*
X00920750D01*
Y00358500D01*
X00742750D01*
Y00598500D01*
X00920750D01*
Y00589000D01*
D02*
G37*
%LPC*%
G36*
X00880500Y00591323D02*
X00879037Y00591032D01*
X00877796Y00590204D01*
X00876968Y00588963D01*
X00876676Y00587500D01*
X00876968Y00586037D01*
X00877602Y00585087D01*
X00877246Y00584083D01*
X00877040Y00583817D01*
X00812460D01*
X00812254Y00584083D01*
X00811897Y00585087D01*
X00812532Y00586037D01*
X00812823Y00587500D01*
X00812532Y00588963D01*
X00811703Y00590204D01*
X00810463Y00591032D01*
X00809000Y00591323D01*
X00807537Y00591032D01*
X00806296Y00590204D01*
X00805467Y00588963D01*
X00805176Y00587500D01*
X00805467Y00586037D01*
X00806102Y00585087D01*
X00805745Y00584083D01*
X00805540Y00583817D01*
X00786773D01*
X00786412Y00583745D01*
X00785924Y00584469D01*
X00785782Y00584915D01*
X00786532Y00586037D01*
X00786823Y00587500D01*
X00786532Y00588963D01*
X00785703Y00590204D01*
X00784463Y00591032D01*
X00783000Y00591323D01*
X00781537Y00591032D01*
X00780296Y00590204D01*
X00779467Y00588963D01*
X00779176Y00587500D01*
X00779467Y00586037D01*
X00780296Y00584796D01*
X00781537Y00583968D01*
X00783000Y00583677D01*
X00784106Y00583897D01*
X00784762Y00582756D01*
X00758492Y00556486D01*
X00756901Y00556663D01*
X00756618Y00557096D01*
X00756654Y00557347D01*
X00757282Y00558287D01*
X00757573Y00559750D01*
X00757282Y00561213D01*
X00756654Y00562153D01*
X00756532Y00563000D01*
X00756654Y00563847D01*
X00757282Y00564787D01*
X00757573Y00566250D01*
X00757282Y00567713D01*
X00756654Y00568653D01*
X00756532Y00569500D01*
X00756654Y00570347D01*
X00757282Y00571287D01*
X00757573Y00572750D01*
X00757282Y00574213D01*
X00756454Y00575454D01*
X00755213Y00576282D01*
X00753750Y00576573D01*
X00752287Y00576282D01*
X00751046Y00575454D01*
X00750218Y00574213D01*
X00749927Y00572750D01*
X00750218Y00571287D01*
X00750846Y00570347D01*
X00750968Y00569500D01*
X00750846Y00568653D01*
X00750218Y00567713D01*
X00749927Y00566250D01*
X00750218Y00564787D01*
X00750846Y00563847D01*
X00750968Y00563000D01*
X00750846Y00562153D01*
X00750218Y00561213D01*
X00749927Y00559750D01*
X00750218Y00558287D01*
X00750846Y00557347D01*
X00750968Y00556500D01*
X00750846Y00555653D01*
X00750218Y00554713D01*
X00749927Y00553250D01*
X00750218Y00551787D01*
X00750846Y00550847D01*
X00750968Y00550000D01*
X00750846Y00549153D01*
X00750218Y00548213D01*
X00749927Y00546750D01*
X00750218Y00545287D01*
X00750846Y00544347D01*
X00750968Y00543500D01*
X00750846Y00542653D01*
X00750218Y00541713D01*
X00749927Y00540250D01*
X00750218Y00538787D01*
X00750846Y00537847D01*
X00750968Y00537000D01*
X00750846Y00536153D01*
X00750218Y00535213D01*
X00749927Y00533750D01*
X00750218Y00532287D01*
X00750846Y00531347D01*
X00750968Y00530500D01*
X00750846Y00529653D01*
X00750218Y00528713D01*
X00749927Y00527250D01*
X00750218Y00525787D01*
X00750846Y00524847D01*
X00750968Y00524000D01*
X00750846Y00523153D01*
X00750218Y00522213D01*
X00749927Y00520750D01*
X00750218Y00519287D01*
X00750846Y00518347D01*
X00750968Y00517500D01*
X00750846Y00516653D01*
X00750218Y00515713D01*
X00749927Y00514250D01*
X00750218Y00512787D01*
X00750846Y00511847D01*
X00750968Y00511000D01*
X00750846Y00510153D01*
X00750218Y00509213D01*
X00749927Y00507750D01*
X00750218Y00506287D01*
X00750846Y00505347D01*
X00750968Y00504500D01*
X00750846Y00503653D01*
X00750218Y00502713D01*
X00749927Y00501250D01*
X00750218Y00499787D01*
X00750846Y00498847D01*
X00750968Y00498000D01*
X00750846Y00497153D01*
X00750218Y00496213D01*
X00749927Y00494750D01*
X00750218Y00493287D01*
X00750846Y00492347D01*
X00750968Y00491500D01*
X00750846Y00490653D01*
X00750218Y00489713D01*
X00749927Y00488250D01*
X00750218Y00486787D01*
X00750846Y00485847D01*
X00750968Y00485000D01*
X00750846Y00484153D01*
X00750218Y00483213D01*
X00749927Y00481750D01*
X00750218Y00480287D01*
X00751046Y00479046D01*
X00752287Y00478217D01*
X00753750Y00477926D01*
X00754456Y00478067D01*
X00755726Y00477149D01*
Y00473351D01*
X00754456Y00472433D01*
X00753750Y00472573D01*
X00752287Y00472282D01*
X00751046Y00471453D01*
X00750218Y00470213D01*
X00749927Y00468750D01*
X00750218Y00467287D01*
X00750846Y00466347D01*
X00750968Y00465500D01*
X00750846Y00464653D01*
X00750218Y00463713D01*
X00749927Y00462250D01*
X00750218Y00460787D01*
X00750846Y00459847D01*
X00750968Y00459000D01*
X00750846Y00458153D01*
X00750218Y00457213D01*
X00749927Y00455750D01*
X00750218Y00454287D01*
X00750846Y00453347D01*
X00750968Y00452500D01*
X00750846Y00451653D01*
X00750218Y00450713D01*
X00749927Y00449250D01*
X00750218Y00447787D01*
X00750846Y00446847D01*
X00750968Y00446000D01*
X00750846Y00445153D01*
X00750218Y00444213D01*
X00749927Y00442750D01*
X00750218Y00441287D01*
X00750846Y00440347D01*
X00750968Y00439500D01*
X00750846Y00438653D01*
X00750218Y00437713D01*
X00749927Y00436250D01*
X00750218Y00434787D01*
X00750846Y00433847D01*
X00750968Y00433000D01*
X00750846Y00432153D01*
X00750218Y00431213D01*
X00749927Y00429750D01*
X00750218Y00428287D01*
X00750846Y00427347D01*
X00750968Y00426500D01*
X00750846Y00425653D01*
X00750218Y00424713D01*
X00749927Y00423250D01*
X00750218Y00421786D01*
X00750846Y00420847D01*
X00750968Y00420000D01*
X00750846Y00419153D01*
X00750218Y00418213D01*
X00749927Y00416750D01*
X00750218Y00415286D01*
X00750846Y00414347D01*
X00750968Y00413500D01*
X00750846Y00412653D01*
X00750218Y00411713D01*
X00749927Y00410250D01*
X00750218Y00408787D01*
X00750846Y00407846D01*
X00750968Y00407000D01*
X00750846Y00406153D01*
X00750218Y00405213D01*
X00749927Y00403750D01*
X00750218Y00402286D01*
X00750846Y00401347D01*
X00750968Y00400500D01*
X00750846Y00399653D01*
X00750218Y00398713D01*
X00749927Y00397250D01*
X00750218Y00395787D01*
X00750846Y00394846D01*
X00750968Y00394000D01*
X00750846Y00393153D01*
X00750218Y00392213D01*
X00749927Y00390750D01*
X00750218Y00389286D01*
X00750846Y00388346D01*
X00750968Y00387500D01*
X00750846Y00386653D01*
X00750218Y00385713D01*
X00749927Y00384250D01*
X00750218Y00382786D01*
X00751046Y00381546D01*
X00752287Y00380717D01*
X00753750Y00380426D01*
X00755213Y00380717D01*
X00756454Y00381546D01*
X00757282Y00382786D01*
X00757573Y00384250D01*
X00757282Y00385713D01*
X00756654Y00386653D01*
X00756532Y00387500D01*
X00756654Y00388346D01*
X00757282Y00389286D01*
X00757573Y00390750D01*
X00757282Y00392213D01*
X00756654Y00393153D01*
X00756532Y00394000D01*
X00756654Y00394846D01*
X00757282Y00395787D01*
X00757573Y00397250D01*
X00757282Y00398713D01*
X00756654Y00399653D01*
X00756532Y00400500D01*
X00756654Y00401347D01*
X00757282Y00402286D01*
X00757573Y00403750D01*
X00757282Y00405213D01*
X00756654Y00406153D01*
X00756532Y00407000D01*
X00756654Y00407846D01*
X00757282Y00408787D01*
X00757573Y00410250D01*
X00757282Y00411713D01*
X00756654Y00412653D01*
X00756532Y00413500D01*
X00756654Y00414347D01*
X00757282Y00415286D01*
X00757573Y00416750D01*
X00757527Y00416985D01*
X00758697Y00417610D01*
X00795680Y00380628D01*
X00796424Y00380131D01*
X00797302Y00379956D01*
X00797302Y00379956D01*
X00803773D01*
X00804046Y00379546D01*
X00805287Y00378718D01*
X00805795Y00378616D01*
X00806379Y00377205D01*
X00806218Y00376963D01*
X00805927Y00375500D01*
X00806218Y00374037D01*
X00806360Y00373824D01*
X00806077Y00372583D01*
X00805031Y00372319D01*
X00803963Y00373032D01*
X00802500Y00373323D01*
X00801037Y00373032D01*
X00799797Y00372203D01*
X00798968Y00370963D01*
X00798677Y00369500D01*
X00798968Y00368037D01*
X00799797Y00366796D01*
X00801037Y00365968D01*
X00802500Y00365676D01*
X00803963Y00365968D01*
X00805204Y00366796D01*
X00806296D01*
X00807537Y00365968D01*
X00809000Y00365676D01*
X00810463Y00365968D01*
X00811704Y00366796D01*
X00812796D01*
X00814037Y00365968D01*
X00815500Y00365676D01*
X00816963Y00365968D01*
X00818204Y00366796D01*
X00819297D01*
X00820537Y00365968D01*
X00822000Y00365676D01*
X00823463Y00365968D01*
X00824704Y00366796D01*
X00825797D01*
X00827037Y00365968D01*
X00828500Y00365676D01*
X00829963Y00365968D01*
X00831204Y00366796D01*
X00832297D01*
X00833537Y00365968D01*
X00835000Y00365676D01*
X00836463Y00365968D01*
X00837704Y00366796D01*
X00838797D01*
X00840037Y00365968D01*
X00841500Y00365676D01*
X00842963Y00365968D01*
X00844204Y00366796D01*
X00845297D01*
X00846537Y00365968D01*
X00848000Y00365676D01*
X00849463Y00365968D01*
X00850704Y00366796D01*
X00851797D01*
X00853037Y00365968D01*
X00854500Y00365676D01*
X00855963Y00365968D01*
X00857204Y00366796D01*
X00858297D01*
X00859537Y00365968D01*
X00861000Y00365676D01*
X00862463Y00365968D01*
X00863704Y00366796D01*
X00864797D01*
X00866037Y00365968D01*
X00867500Y00365676D01*
X00868963Y00365968D01*
X00870204Y00366796D01*
X00871297D01*
X00872537Y00365968D01*
X00874000Y00365676D01*
X00875463Y00365968D01*
X00876704Y00366796D01*
X00877797D01*
X00879037Y00365968D01*
X00880500Y00365676D01*
X00881963Y00365968D01*
X00883204Y00366796D01*
X00884297D01*
X00885537Y00365968D01*
X00887000Y00365676D01*
X00888463Y00365968D01*
X00889704Y00366796D01*
X00890533Y00368037D01*
X00890824Y00369500D01*
X00890533Y00370963D01*
X00889704Y00372203D01*
X00888463Y00373032D01*
X00887000Y00373323D01*
X00885537Y00373032D01*
X00884297Y00372203D01*
X00883204D01*
X00881963Y00373032D01*
X00880500Y00373323D01*
X00879037Y00373032D01*
X00877797Y00372203D01*
X00876704D01*
X00875463Y00373032D01*
X00874000Y00373323D01*
X00872537Y00373032D01*
X00871297Y00372203D01*
X00870204D01*
X00868963Y00373032D01*
X00867500Y00373323D01*
X00866037Y00373032D01*
X00864797Y00372203D01*
X00863704D01*
X00862463Y00373032D01*
X00861000Y00373323D01*
X00860517Y00373227D01*
X00845872Y00387872D01*
X00845128Y00388369D01*
X00844250Y00388544D01*
X00840255D01*
X00832774Y00396025D01*
Y00406818D01*
X00833154Y00407089D01*
X00834044Y00407381D01*
X00835037Y00406718D01*
X00836500Y00406427D01*
X00837963Y00406718D01*
X00839204Y00407546D01*
X00840032Y00408787D01*
X00840323Y00410250D01*
X00840032Y00411713D01*
X00839558Y00412423D01*
X00839222Y00413048D01*
X00839463Y00414308D01*
X00839782Y00414787D01*
X00840073Y00416250D01*
X00839782Y00417713D01*
X00839150Y00418660D01*
X00839190Y00419499D01*
X00839467Y00420138D01*
X00840454Y00420797D01*
X00841282Y00422037D01*
X00841573Y00423500D01*
X00841282Y00424963D01*
X00840454Y00426204D01*
X00839912Y00426566D01*
X00839462Y00428179D01*
X00839533Y00428284D01*
X00839824Y00429748D01*
X00839533Y00431211D01*
X00839367Y00431459D01*
X00839454Y00433044D01*
X00840283Y00434285D01*
X00840574Y00435748D01*
X00840283Y00437211D01*
X00839454Y00438451D01*
X00839338Y00438529D01*
X00839185Y00440159D01*
X00839626Y00440820D01*
X00839917Y00442283D01*
X00839626Y00443746D01*
X00838798Y00444986D01*
X00838336Y00445295D01*
Y00446822D01*
X00838485Y00446922D01*
X00839314Y00448163D01*
X00839605Y00449626D01*
X00839390Y00450708D01*
X00839213Y00451968D01*
X00840454Y00452796D01*
X00840938Y00453521D01*
X00842436Y00453820D01*
X00851203Y00445053D01*
X00851628Y00444625D01*
X00851408Y00443248D01*
X00851218Y00442963D01*
X00850927Y00441500D01*
X00851218Y00440037D01*
X00852046Y00438796D01*
X00853287Y00437968D01*
X00854750Y00437677D01*
X00856213Y00437968D01*
X00857454Y00438796D01*
X00858282Y00440037D01*
X00858573Y00441500D01*
X00858338Y00442686D01*
X00859030Y00443956D01*
X00879594D01*
X00887456Y00436094D01*
Y00390980D01*
X00887630Y00390102D01*
X00888128Y00389358D01*
X00892023Y00385463D01*
X00891927Y00384980D01*
X00892218Y00383517D01*
X00893046Y00382276D01*
X00894287Y00381448D01*
X00895750Y00381157D01*
X00897213Y00381448D01*
X00898454Y00382276D01*
X00899282Y00383517D01*
X00899573Y00384980D01*
X00899282Y00386443D01*
X00898454Y00387684D01*
X00897213Y00388512D01*
X00895750Y00388803D01*
X00895267Y00388707D01*
X00892044Y00391930D01*
Y00397950D01*
X00893217Y00398436D01*
X00895974Y00395679D01*
X00895878Y00395196D01*
X00896169Y00393733D01*
X00896998Y00392493D01*
X00898239Y00391664D01*
X00899702Y00391373D01*
X00901165Y00391664D01*
X00902405Y00392493D01*
X00902686Y00392913D01*
X00903956Y00392528D01*
Y00380262D01*
X00898099Y00374405D01*
X00897250Y00374573D01*
X00895787Y00374282D01*
X00894546Y00373454D01*
X00893718Y00372213D01*
X00893427Y00370750D01*
X00893718Y00369287D01*
X00894546Y00368046D01*
X00895787Y00367218D01*
X00897250Y00366926D01*
X00898713Y00367218D01*
X00899954Y00368046D01*
X00900782Y00369287D01*
X00901073Y00370750D01*
X00901050Y00370868D01*
X00907872Y00377690D01*
X00908369Y00378434D01*
X00908544Y00379312D01*
X00908544Y00379312D01*
Y00410212D01*
X00908369Y00411090D01*
X00908171Y00411386D01*
X00908935Y00412529D01*
X00909000Y00412516D01*
X00910463Y00412808D01*
X00911704Y00413636D01*
X00912532Y00414877D01*
X00912823Y00416340D01*
X00912532Y00417803D01*
X00911756Y00418966D01*
X00911457Y00419646D01*
Y00420294D01*
X00912286Y00421534D01*
X00912577Y00422997D01*
X00912286Y00424460D01*
X00911463Y00425692D01*
X00911204Y00426097D01*
Y00427046D01*
X00912032Y00428287D01*
X00912323Y00429750D01*
X00912032Y00431213D01*
X00911736Y00431656D01*
X00911298Y00432545D01*
X00912060Y00433284D01*
X00912454Y00433546D01*
X00913282Y00434787D01*
X00913573Y00436250D01*
X00913282Y00437713D01*
X00912654Y00438653D01*
X00912532Y00439500D01*
X00912654Y00440347D01*
X00913282Y00441287D01*
X00913573Y00442750D01*
X00913282Y00444213D01*
X00912654Y00445153D01*
X00912532Y00446000D01*
X00912654Y00446847D01*
X00913282Y00447787D01*
X00913573Y00449250D01*
X00913282Y00450713D01*
X00912654Y00451653D01*
X00912532Y00452500D01*
X00912654Y00453347D01*
X00913282Y00454287D01*
X00913573Y00455750D01*
X00913282Y00457213D01*
X00912654Y00458153D01*
X00912532Y00459000D01*
X00912654Y00459847D01*
X00913282Y00460787D01*
X00913573Y00462250D01*
X00913282Y00463713D01*
X00912654Y00464653D01*
X00912532Y00465500D01*
X00912654Y00466347D01*
X00913282Y00467287D01*
X00913573Y00468750D01*
X00913282Y00470213D01*
X00912654Y00471153D01*
X00912532Y00472000D01*
X00912654Y00472847D01*
X00913282Y00473787D01*
X00913573Y00475250D01*
X00913282Y00476713D01*
X00912654Y00477653D01*
X00912532Y00478500D01*
X00912654Y00479347D01*
X00913282Y00480287D01*
X00913573Y00481750D01*
X00913282Y00483213D01*
X00912654Y00484153D01*
X00912532Y00485000D01*
X00912654Y00485847D01*
X00913282Y00486787D01*
X00913573Y00488250D01*
X00913282Y00489713D01*
X00912454Y00490954D01*
X00911213Y00491783D01*
X00909750Y00492074D01*
X00909267Y00491978D01*
X00885574Y00515670D01*
Y00520522D01*
X00886748Y00521008D01*
X00906023Y00501733D01*
X00905927Y00501250D01*
X00906218Y00499787D01*
X00907046Y00498547D01*
X00908287Y00497718D01*
X00909750Y00497427D01*
X00911213Y00497718D01*
X00912454Y00498547D01*
X00913282Y00499787D01*
X00913573Y00501250D01*
X00913282Y00502713D01*
X00912654Y00503653D01*
X00912532Y00504500D01*
X00912654Y00505347D01*
X00913282Y00506287D01*
X00913573Y00507750D01*
X00913282Y00509213D01*
X00912654Y00510153D01*
X00912532Y00511000D01*
X00912654Y00511847D01*
X00913282Y00512787D01*
X00913573Y00514250D01*
X00913282Y00515713D01*
X00912654Y00516653D01*
X00912532Y00517500D01*
X00912654Y00518347D01*
X00913282Y00519287D01*
X00913573Y00520750D01*
X00913282Y00522213D01*
X00912654Y00523153D01*
X00912532Y00524000D01*
X00912654Y00524847D01*
X00913282Y00525787D01*
X00913573Y00527250D01*
X00913282Y00528713D01*
X00912654Y00529653D01*
X00912532Y00530500D01*
X00912654Y00531347D01*
X00913282Y00532287D01*
X00913573Y00533750D01*
X00913282Y00535213D01*
X00912654Y00536153D01*
X00912532Y00537000D01*
X00912654Y00537847D01*
X00913282Y00538787D01*
X00913573Y00540250D01*
X00913282Y00541713D01*
X00912654Y00542653D01*
X00912532Y00543500D01*
X00912654Y00544347D01*
X00913282Y00545287D01*
X00913573Y00546750D01*
X00913282Y00548214D01*
X00912454Y00549454D01*
X00911970Y00549777D01*
X00911869Y00550282D01*
X00911372Y00551026D01*
X00879897Y00582502D01*
X00880500Y00583677D01*
X00881963Y00583968D01*
X00883204Y00584796D01*
X00884032Y00586037D01*
X00884323Y00587500D01*
X00884032Y00588963D01*
X00883204Y00590204D01*
X00881963Y00591032D01*
X00880500Y00591323D01*
D02*
G37*
G36*
X00770000D02*
X00768537Y00591032D01*
X00767296Y00590204D01*
X00766467Y00588963D01*
X00766176Y00587500D01*
X00766467Y00586037D01*
X00767296Y00584796D01*
X00768537Y00583968D01*
X00770000Y00583677D01*
X00771463Y00583968D01*
X00772703Y00584796D01*
X00773532Y00586037D01*
X00773823Y00587500D01*
X00773532Y00588963D01*
X00772703Y00590204D01*
X00771463Y00591032D01*
X00770000Y00591323D01*
D02*
G37*
G36*
X00854501Y00434821D02*
X00853038Y00434530D01*
X00851797Y00433701D01*
X00850969Y00432461D01*
X00850678Y00430998D01*
X00850969Y00429534D01*
X00851797Y00428294D01*
X00853038Y00427465D01*
X00853736Y00427327D01*
X00854020Y00427270D01*
Y00425975D01*
X00853736Y00425918D01*
X00853038Y00425780D01*
X00851797Y00424951D01*
X00850969Y00423710D01*
X00850678Y00422247D01*
X00850969Y00420784D01*
X00851797Y00419544D01*
X00853038Y00418715D01*
X00854501Y00418424D01*
X00855964Y00418715D01*
X00857205Y00419544D01*
X00858034Y00420784D01*
X00858325Y00422247D01*
X00858034Y00423710D01*
X00857205Y00424951D01*
X00855964Y00425780D01*
X00855267Y00425918D01*
X00854982Y00425975D01*
Y00427270D01*
X00855267Y00427327D01*
X00855964Y00427465D01*
X00857205Y00428294D01*
X00858034Y00429534D01*
X00858325Y00430998D01*
X00858034Y00432461D01*
X00857205Y00433701D01*
X00855964Y00434530D01*
X00854501Y00434821D01*
D02*
G37*
G36*
X00789500Y00373323D02*
X00788037Y00373032D01*
X00786796Y00372203D01*
X00785704D01*
X00784463Y00373032D01*
X00783000Y00373323D01*
X00781537Y00373032D01*
X00780296Y00372203D01*
X00779204D01*
X00777963Y00373032D01*
X00776500Y00373323D01*
X00775037Y00373032D01*
X00773796Y00372203D01*
X00772704D01*
X00771463Y00373032D01*
X00770000Y00373323D01*
X00768537Y00373032D01*
X00767296Y00372203D01*
X00766468Y00370963D01*
X00766177Y00369500D01*
X00766468Y00368037D01*
X00767296Y00366796D01*
X00768537Y00365968D01*
X00770000Y00365676D01*
X00771463Y00365968D01*
X00772704Y00366796D01*
X00773796D01*
X00775037Y00365968D01*
X00776500Y00365676D01*
X00777963Y00365968D01*
X00779204Y00366796D01*
X00780296D01*
X00781537Y00365968D01*
X00783000Y00365676D01*
X00784463Y00365968D01*
X00785704Y00366796D01*
X00786796D01*
X00788037Y00365968D01*
X00789500Y00365676D01*
X00790963Y00365968D01*
X00792204Y00366796D01*
X00793032Y00368037D01*
X00793324Y00369500D01*
X00793032Y00370963D01*
X00792204Y00372203D01*
X00790963Y00373032D01*
X00789500Y00373323D01*
D02*
G37*
%LPD*%
G36*
X00824988Y00534019D02*
X00824676Y00532293D01*
X00824546Y00532206D01*
X00823717Y00530966D01*
X00823426Y00529502D01*
X00823717Y00528039D01*
X00823302Y00526374D01*
X00823046Y00526203D01*
X00822218Y00524963D01*
X00821927Y00523500D01*
X00822218Y00522037D01*
X00823046Y00520796D01*
X00823931Y00520205D01*
X00823986Y00520024D01*
Y00518975D01*
X00823931Y00518794D01*
X00823046Y00518203D01*
X00822218Y00516963D01*
X00821927Y00515500D01*
X00822218Y00514037D01*
X00823046Y00512796D01*
X00823931Y00512206D01*
X00823986Y00512024D01*
Y00510975D01*
X00823931Y00510794D01*
X00823046Y00510203D01*
X00822218Y00508963D01*
X00821927Y00507500D01*
X00822218Y00506037D01*
X00823046Y00504796D01*
X00823931Y00504206D01*
X00823986Y00504024D01*
Y00502976D01*
X00823931Y00502794D01*
X00823046Y00502203D01*
X00822218Y00500963D01*
X00821927Y00499500D01*
X00822218Y00498037D01*
X00823046Y00496796D01*
X00823931Y00496205D01*
X00823986Y00496024D01*
Y00494976D01*
X00823945Y00494843D01*
X00822801Y00494297D01*
X00821828Y00494666D01*
X00813477Y00503017D01*
X00813573Y00503500D01*
X00813282Y00504963D01*
X00812454Y00506203D01*
X00812365Y00507790D01*
X00812531Y00508038D01*
X00812822Y00509501D01*
X00812531Y00510965D01*
X00811702Y00512205D01*
X00810462Y00513034D01*
X00809480Y00513229D01*
Y00514524D01*
X00810462Y00514720D01*
X00811702Y00515548D01*
X00812531Y00516789D01*
X00812822Y00518252D01*
X00812531Y00519715D01*
X00811702Y00520956D01*
X00810462Y00521784D01*
X00808999Y00522075D01*
X00808293Y00521935D01*
X00807023Y00522853D01*
Y00527317D01*
X00813934Y00534229D01*
X00824838D01*
X00824988Y00534019D01*
D02*
G37*
G36*
X00801072Y00422433D02*
X00801072Y00422433D01*
X00801817Y00421936D01*
X00802695Y00421761D01*
X00802695Y00421761D01*
X00821224D01*
X00821454Y00421576D01*
X00822124Y00420491D01*
X00821927Y00419500D01*
X00822023Y00419017D01*
X00820105Y00417099D01*
X00795395D01*
X00781314Y00431180D01*
Y00440532D01*
X00782487Y00441018D01*
X00801072Y00422433D01*
D02*
G37*
D12*
X00897250Y00370750D02*
X00897688D01*
X00906250Y00379312D01*
Y00410212D01*
X00895750Y00420712D02*
X00906250Y00410212D01*
X00889750Y00390980D02*
X00895750Y00384980D01*
X00889750Y00390980D02*
Y00437044D01*
X00862280Y00492470D02*
X00868000Y00486750D01*
Y00484500D02*
X00909750Y00442750D01*
X00868000Y00484500D02*
Y00486750D01*
X00898750Y00426590D02*
Y00428759D01*
Y00426590D02*
X00909000Y00416340D01*
X00892750Y00402148D02*
Y00438287D01*
Y00402148D02*
X00899702Y00395196D01*
X00877537Y00453500D02*
X00892750Y00438287D01*
X00844683Y00460991D02*
X00852174Y00453500D01*
X00877537D01*
X00844683Y00460991D02*
Y00463899D01*
X00839852Y00468730D02*
X00844683Y00463899D01*
X00825750Y00499500D02*
X00831832Y00505582D01*
X00841418D02*
X00848979Y00498021D01*
X00831832Y00505582D02*
X00841418D01*
X00848979Y00498021D02*
X00856270D01*
X00859280Y00495010D01*
Y00491220D02*
Y00495010D01*
X00850663Y00480930D02*
X00858593D01*
X00865000Y00483007D02*
Y00485500D01*
Y00483007D02*
X00904750Y00443257D01*
X00859280Y00491220D02*
X00865000Y00485500D01*
X00856769Y00489481D02*
X00862000Y00484250D01*
Y00481765D02*
X00901750Y00442015D01*
X00862000Y00481765D02*
Y00484250D01*
X00898750Y00428759D02*
X00898750Y00428759D01*
X00858593Y00480930D02*
X00898750Y00440772D01*
Y00428759D02*
Y00440772D01*
X00851691Y00471902D02*
X00863378D01*
X00895750Y00439530D01*
X00853196Y00536523D02*
X00862280Y00527438D01*
X00812984Y00536523D02*
X00853196D01*
X00804729Y00528268D02*
X00812984Y00536523D01*
X00854438Y00539523D02*
X00865280Y00528681D01*
X00811491Y00539523D02*
X00854438D01*
X00801729Y00529760D02*
X00811491Y00539523D01*
X00857251Y00542523D02*
X00868280Y00531493D01*
X00810249Y00542523D02*
X00857251D01*
X00798729Y00531003D02*
X00810249Y00542523D01*
X00858494Y00545523D02*
X00871280Y00532736D01*
X00809006Y00545523D02*
X00858494D01*
X00795729Y00532245D02*
X00809006Y00545523D01*
X00863963Y00548523D02*
X00874280Y00538205D01*
X00800441Y00548523D02*
X00863963D01*
X00791020Y00539101D02*
X00800441Y00548523D01*
X00865205Y00551523D02*
X00877280Y00539448D01*
X00799199Y00551523D02*
X00865205D01*
X00788020Y00540344D02*
X00799199Y00551523D01*
X00866448Y00554523D02*
X00880280Y00540690D01*
X00797956Y00554523D02*
X00866448D01*
X00785020Y00541586D02*
X00797956Y00554523D01*
X00867691Y00557523D02*
X00883280Y00541933D01*
X00796713Y00557523D02*
X00867691D01*
X00782020Y00542829D02*
X00796713Y00557523D01*
X00868933Y00560523D02*
X00886280Y00543175D01*
X00795471Y00560523D02*
X00868933D01*
X00779020Y00544072D02*
X00795471Y00560523D01*
X00870176Y00563523D02*
X00889280Y00544418D01*
X00794228Y00563523D02*
X00870176D01*
X00776020Y00545314D02*
X00794228Y00563523D01*
X00871418Y00566523D02*
X00892280Y00545661D01*
X00792986Y00566523D02*
X00871418D01*
X00773020Y00546557D02*
X00792986Y00566523D01*
X00872661Y00569523D02*
X00895280Y00546903D01*
X00791743Y00569523D02*
X00872661D01*
X00770020Y00547799D02*
X00791743Y00569523D01*
X00873904Y00572523D02*
X00898280Y00548146D01*
X00790500Y00572523D02*
X00873904D01*
X00767020Y00549042D02*
X00790500Y00572523D01*
X00875146Y00575522D02*
X00901280Y00549388D01*
X00789258Y00575522D02*
X00875146D01*
X00764020Y00550285D02*
X00789258Y00575522D01*
X00876389Y00578522D02*
X00904280Y00550631D01*
X00788015Y00578522D02*
X00876389D01*
X00761020Y00551527D02*
X00788015Y00578522D01*
X00877631Y00581522D02*
X00909750Y00549404D01*
X00786773Y00581522D02*
X00877631D01*
X00758020Y00552770D02*
X00786773Y00581522D01*
X00865280Y00493720D02*
Y00528681D01*
X00862280Y00492470D02*
Y00527438D01*
X00804729Y00463519D02*
Y00528268D01*
X00846093Y00477500D02*
X00851691Y00471902D01*
X00827731Y00468730D02*
X00839852D01*
X00839500Y00460000D02*
X00853250Y00446250D01*
X00880544D02*
X00889750Y00437044D01*
X00853250Y00446250D02*
X00880544D01*
X00831350Y00460000D02*
X00839500D01*
X00817750Y00473601D02*
X00831350Y00460000D01*
X00820750Y00475711D02*
Y00492500D01*
Y00475711D02*
X00827731Y00468730D01*
X00809750Y00503500D02*
X00820750Y00492500D01*
X00828812Y00477500D02*
X00846093D01*
X00829500Y00487250D02*
X00844343D01*
X00830210Y00495959D02*
X00843634D01*
X00852732Y00489481D02*
X00856769D01*
X00852728Y00489485D02*
X00852732Y00489481D01*
X00850108Y00489485D02*
X00852728D01*
X00865280Y00493720D02*
X00909750Y00449250D01*
X00825750Y00491500D02*
X00830210Y00495959D01*
X00825750Y00483500D02*
X00829500Y00487250D01*
X00826500Y00476000D02*
X00827311D01*
X00819225Y00454776D02*
X00827438D01*
X00830480Y00451734D01*
X00816250Y00450000D02*
X00826175D01*
X00806121Y00443894D02*
X00825356D01*
X00795729Y00454286D02*
X00806121Y00443894D01*
X00806272Y00439500D02*
X00809750D01*
X00802450Y00432800D02*
X00823050D01*
X00805694Y00428553D02*
X00805749Y00428498D01*
X00802695Y00424055D02*
X00822305D01*
X00782020Y00444730D02*
X00802695Y00424055D01*
X00808467Y00449500D02*
X00809000D01*
X00794445Y00414805D02*
X00821055D01*
X00794511Y00410497D02*
X00805999D01*
X00794690Y00406075D02*
X00820325D01*
X00794772Y00401750D02*
X00805532D01*
X00825356Y00443894D02*
X00825750Y00443500D01*
X00830480Y00395074D02*
Y00451734D01*
X00809750Y00487500D02*
X00814750Y00482500D01*
X00809750Y00495500D02*
X00809750D01*
X00801729Y00460480D02*
Y00529760D01*
X00798729Y00459238D02*
Y00531003D01*
X00795729Y00454286D02*
Y00532245D01*
X00844343Y00487250D02*
X00850663Y00480930D01*
X00827311Y00476000D02*
X00828812Y00477500D01*
X00843634Y00495959D02*
X00850108Y00489485D01*
X00868280Y00497220D02*
Y00531493D01*
Y00497220D02*
X00909750Y00455750D01*
X00871280Y00500720D02*
Y00532736D01*
Y00500720D02*
X00909750Y00462250D01*
X00874280Y00504220D02*
Y00538205D01*
Y00504220D02*
X00909750Y00468750D01*
X00795476Y00396804D02*
X00819053D01*
X00795505Y00392532D02*
X00804750D01*
X00797044Y00386750D02*
X00817000D01*
X00797302Y00382250D02*
X00806750D01*
X00811271Y00454979D02*
X00816250Y00450000D01*
X00877280Y00507720D02*
X00909750Y00475250D01*
X00877280Y00507720D02*
Y00539448D01*
X00880280Y00511220D02*
X00909750Y00481750D01*
X00880280Y00511220D02*
Y00540690D01*
X00883280Y00514720D02*
X00909750Y00488250D01*
X00883280Y00514720D02*
Y00541933D01*
X00886280Y00524720D02*
Y00543175D01*
Y00524720D02*
X00909750Y00501250D01*
X00889280Y00528220D02*
Y00544418D01*
Y00528220D02*
X00909750Y00507750D01*
X00892280Y00531720D02*
Y00545661D01*
Y00531720D02*
X00909750Y00514250D01*
X00895280Y00535220D02*
Y00546903D01*
Y00535220D02*
X00909750Y00520750D01*
X00895750Y00439530D02*
Y00439530D01*
X00901750Y00430001D02*
Y00442015D01*
X00909750Y00442750D02*
X00909750D01*
X00904750Y00433500D02*
Y00443257D01*
X00830480Y00395074D02*
X00839305Y00386250D01*
X00844250D01*
X00898280Y00538720D02*
Y00548146D01*
Y00538720D02*
X00909750Y00527250D01*
X00901280Y00542220D02*
Y00549388D01*
Y00542220D02*
X00909750Y00533750D01*
X00904280Y00545720D02*
Y00550631D01*
Y00545720D02*
X00909750Y00540250D01*
X00844250Y00386250D02*
X00861000Y00369500D01*
X00791020Y00454752D02*
Y00539101D01*
X00788020Y00447230D02*
Y00540344D01*
X00785020Y00445973D02*
Y00541586D01*
X00782020Y00444730D02*
Y00542829D01*
X00779020Y00430230D02*
Y00544072D01*
X00776020Y00428987D02*
Y00545314D01*
X00773020Y00427745D02*
Y00546557D01*
X00770020Y00426502D02*
Y00547799D01*
X00767020Y00425260D02*
Y00549042D01*
X00764020Y00424017D02*
Y00550285D01*
X00761020Y00422774D02*
Y00551527D01*
X00758020Y00421532D02*
Y00552770D01*
X00804729Y00463519D02*
X00808999Y00459249D01*
X00801729Y00460480D02*
X00807230Y00454979D01*
X00798729Y00459238D02*
X00808467Y00449500D01*
X00909750Y00546750D02*
Y00549404D01*
X00809750Y00495500D02*
X00817750Y00487500D01*
Y00473601D02*
Y00487500D01*
X00814750Y00459251D02*
X00819225Y00454776D01*
X00814750Y00459251D02*
Y00482500D01*
X00807230Y00454979D02*
X00811271D01*
X00820325Y00406075D02*
X00825750Y00411500D01*
X00788020Y00447230D02*
X00802450Y00432800D01*
X00823050D02*
X00825750Y00435500D01*
X00802440Y00428553D02*
X00805694D01*
X00785020Y00445973D02*
X00802440Y00428553D01*
X00822305Y00424055D02*
X00825750Y00427500D01*
X00758020Y00421532D02*
X00797302Y00382250D01*
X00821055Y00414805D02*
X00825750Y00419500D01*
X00779020Y00430230D02*
X00794445Y00414805D01*
X00776020Y00428987D02*
X00794511Y00410497D01*
X00773020Y00427745D02*
X00794690Y00406075D01*
X00770020Y00426502D02*
X00794772Y00401750D01*
X00819053Y00396804D02*
X00825750Y00403500D01*
X00767020Y00425260D02*
X00795476Y00396804D01*
X00764020Y00424017D02*
X00795505Y00392532D01*
X00817000Y00386750D02*
X00825750Y00395500D01*
X00791020Y00454752D02*
X00806272Y00439500D01*
X00908754Y00422997D02*
X00908754D01*
X00901750Y00430001D02*
X00908754Y00422997D01*
X00904750Y00433500D02*
X00908500Y00429750D01*
X00895750Y00420712D02*
Y00439530D01*
X00761020Y00422774D02*
X00797044Y00386750D01*
X00906750Y00585498D02*
X00908250Y00586997D01*
X00911248D01*
X00912748Y00585498D01*
Y00583998D01*
X00911248Y00582499D01*
X00909749D01*
X00911248D01*
X00912748Y00580999D01*
Y00579500D01*
X00911248Y00578000D01*
X00908250D01*
X00906750Y00579500D01*
D22*
X00897250Y00370750D02*
D03*
X00918000Y00377250D02*
D03*
X00895750Y00384980D02*
D03*
X00901250Y00361750D02*
D03*
X00899702Y00395196D02*
D03*
X00825750Y00491500D02*
D03*
Y00483500D02*
D03*
X00826500Y00476000D02*
D03*
X00826175Y00450000D02*
D03*
X00809750Y00439500D02*
D03*
X00805749Y00428498D02*
D03*
X00805750Y00419750D02*
D03*
X00809000Y00449500D02*
D03*
X00805999Y00410497D02*
D03*
X00805532Y00401750D02*
D03*
X00825750Y00443500D02*
D03*
X00809750Y00487500D02*
D03*
Y00495500D02*
D03*
X00825750Y00499500D02*
D03*
X00804750Y00392532D02*
D03*
X00806750Y00382250D02*
D03*
X00867000Y00396500D02*
D03*
X00809500Y00527000D02*
D03*
X00909750Y00540250D02*
D03*
Y00546750D02*
D03*
Y00527250D02*
D03*
Y00507750D02*
D03*
Y00533750D02*
D03*
Y00520750D02*
D03*
Y00514250D02*
D03*
X00825750Y00411500D02*
D03*
X00808999Y00459249D02*
D03*
X00825750Y00419500D02*
D03*
Y00395500D02*
D03*
Y00435500D02*
D03*
Y00427500D02*
D03*
Y00403500D02*
D03*
X00836093Y00395500D02*
D03*
X00909000Y00416340D02*
D03*
X00908754Y00422997D02*
D03*
X00908500Y00429750D02*
D03*
X00861000Y00369500D02*
D03*
X00764250Y00378500D02*
D03*
X00910750Y00593500D02*
D03*
X00765000Y00576750D02*
D03*
X00809750Y00503500D02*
D03*
X00909750Y00468750D02*
D03*
Y00462250D02*
D03*
Y00442750D02*
D03*
Y00449250D02*
D03*
Y00455750D02*
D03*
X00796000Y00369500D02*
D03*
X00753750Y00475250D02*
D03*
X00909750Y00501250D02*
D03*
X00776500Y00587500D02*
D03*
X00909750Y00475250D02*
D03*
Y00481750D02*
D03*
Y00488250D02*
D03*
Y00494750D02*
D03*
M02*
