M48
;Layer_Color=9474304
;FILE_FORMAT=4:4
METRIC
;TYPE=PLATED
T1F00S00C0.2000
%
T01
X00753750Y00384250
Y00390750
X00764250Y00378500
X00770000Y00369500
X00776500
X00783000
X00789500
X00796000
X00802500
X00809000
X00815500
X00822000
X00828500
X00835000
X00841500
X00848000
X00854500
X00861000
X00867500
X00874000
X00880500
X00887000
X00897250Y00370750
X00901250Y00361750
X00895750Y00384980
X00899702Y00395196
X00867000Y00396500
X00836093Y00395500
X00825750
X00804750Y00392532
X00806750Y00382250
X00809750Y00375500
X00837750
X00918000Y00377250
X00909000Y00416340
X00908754Y00422997
X00908500Y00429750
X00909750Y00436250
Y00442750
Y00449250
Y00455750
Y00462250
Y00468750
Y00475250
Y00481750
Y00488250
Y00494750
Y00501250
Y00507750
Y00514250
Y00520750
Y00527250
Y00533750
Y00540250
Y00546750
X00910750Y00593500
X00880500Y00587500
X00809000
X00809500Y00527000
X00808999Y00518252
Y00509501
X00809750Y00503500
Y00495500
Y00487500
Y00479500
Y00471500
X00808999Y00459249
X00809000Y00449500
X00809750Y00439500
X00805749Y00428498
X00805750Y00419750
X00805999Y00410497
X00805532Y00401750
X00825750Y00403500
Y00411500
Y00419500
Y00427500
Y00435500
Y00443500
X00826175Y00450000
X00825750Y00459500
X00837750Y00455500
X00835782Y00449626
X00836094Y00442283
X00836750Y00435748
X00836000Y00429748
X00837750Y00423500
X00836250Y00416250
X00836500Y00410250
X00854501Y00422247
Y00430998
X00854750Y00441500
X00853750Y00459500
Y00467500
X00854713Y00476614
X00854550Y00485200
X00854501Y00493751
X00854653Y00502340
X00854484Y00511109
X00854646Y00519804
Y00526646
X00835000Y00526250
X00837500Y00532253
X00827250Y00529502
X00825750Y00523500
Y00515500
X00833000Y00515502
X00837750Y00519500
Y00511500
X00836063Y00500375
X00836624Y00491595
X00835700Y00482938
X00835250Y00473000
X00836990Y00464382
X00826500Y00476000
X00825750Y00483500
Y00491500
Y00499500
Y00507500
X00753750Y00507750
Y00514250
Y00520750
Y00527250
Y00533750
Y00540250
Y00546750
Y00553250
Y00559750
Y00566250
Y00572750
X00765000Y00576750
X00770000Y00587500
X00776500
X00783000
X00753750Y00501250
Y00494750
Y00488250
Y00481750
Y00475250
Y00468750
Y00462250
Y00455750
Y00449250
Y00442750
Y00436250
Y00429750
Y00423250
Y00416750
Y00410250
Y00403750
Y00397250
M30
