G04*
G04 #@! TF.GenerationSoftware,Altium Limited,Altium Designer,21.7.2 (23)*
G04*
G04 Layer_Physical_Order=2*
G04 Layer_Color=36540*
%FSAX44Y44*%
%MOMM*%
G71*
G04*
G04 #@! TF.SameCoordinates,C9C54BCD-4748-4C39-804F-1EAF98C739E5*
G04*
G04*
G04 #@! TF.FilePolarity,Positive*
G04*
G01*
G75*
%ADD12C,0.1500*%
%ADD22C,0.4500*%
G36*
X00920750Y00589000D02*
X00906816D01*
Y00590008D01*
X00885821D01*
Y00575011D01*
X00906816D01*
Y00576500D01*
X00920750D01*
Y00358500D01*
X00742750D01*
Y00598500D01*
X00920750D01*
Y00589000D01*
D02*
G37*
%LPC*%
G36*
X00809000Y00591323D02*
X00807537Y00591032D01*
X00806597Y00590404D01*
X00805750Y00590282D01*
X00804903Y00590404D01*
X00803963Y00591032D01*
X00802500Y00591323D01*
X00801037Y00591032D01*
X00800097Y00590404D01*
X00799250Y00590282D01*
X00798403Y00590404D01*
X00797463Y00591032D01*
X00796000Y00591323D01*
X00794537Y00591032D01*
X00793597Y00590404D01*
X00792750Y00590282D01*
X00791903Y00590404D01*
X00790963Y00591032D01*
X00789500Y00591323D01*
X00788037Y00591032D01*
X00787097Y00590404D01*
X00786250Y00590282D01*
X00785403Y00590404D01*
X00784463Y00591032D01*
X00783000Y00591323D01*
X00781537Y00591032D01*
X00780296Y00590204D01*
X00779467Y00588963D01*
X00779176Y00587500D01*
X00779467Y00586037D01*
X00780296Y00584796D01*
X00781537Y00583968D01*
X00783000Y00583677D01*
X00784463Y00583968D01*
X00785403Y00584596D01*
X00786250Y00584718D01*
X00787097Y00584596D01*
X00788037Y00583968D01*
X00789500Y00583677D01*
X00790963Y00583968D01*
X00791903Y00584596D01*
X00792750Y00584718D01*
X00793597Y00584596D01*
X00794537Y00583968D01*
X00796000Y00583677D01*
X00797463Y00583968D01*
X00798403Y00584596D01*
X00799250Y00584718D01*
X00800097Y00584596D01*
X00801037Y00583968D01*
X00802500Y00583677D01*
X00803963Y00583968D01*
X00804903Y00584596D01*
X00805750Y00584718D01*
X00806597Y00584596D01*
X00807537Y00583968D01*
X00809000Y00583677D01*
X00810463Y00583968D01*
X00811703Y00584796D01*
X00812532Y00586037D01*
X00812823Y00587500D01*
X00812532Y00588963D01*
X00811703Y00590204D01*
X00810463Y00591032D01*
X00809000Y00591323D01*
D02*
G37*
G36*
X00880500D02*
X00879037Y00591032D01*
X00877796Y00590204D01*
X00876968Y00588963D01*
X00876676Y00587500D01*
X00876968Y00586037D01*
X00877796Y00584796D01*
X00879037Y00583968D01*
X00880500Y00583677D01*
X00881963Y00583968D01*
X00883204Y00584796D01*
X00884032Y00586037D01*
X00884323Y00587500D01*
X00884032Y00588963D01*
X00883204Y00590204D01*
X00881963Y00591032D01*
X00880500Y00591323D01*
D02*
G37*
G36*
X00770000D02*
X00768537Y00591032D01*
X00767296Y00590204D01*
X00766467Y00588963D01*
X00766176Y00587500D01*
X00766467Y00586037D01*
X00767296Y00584796D01*
X00768537Y00583968D01*
X00770000Y00583677D01*
X00771463Y00583968D01*
X00772703Y00584796D01*
X00773532Y00586037D01*
X00773823Y00587500D01*
X00773532Y00588963D01*
X00772703Y00590204D01*
X00771463Y00591032D01*
X00770000Y00591323D01*
D02*
G37*
G36*
X00909750Y00550574D02*
X00908287Y00550283D01*
X00907046Y00549454D01*
X00906218Y00548214D01*
X00905927Y00546750D01*
X00906218Y00545287D01*
X00906846Y00544347D01*
X00906968Y00543500D01*
X00906846Y00542653D01*
X00906218Y00541713D01*
X00905927Y00540250D01*
X00906218Y00538787D01*
X00906846Y00537847D01*
X00906968Y00537000D01*
X00906846Y00536153D01*
X00906218Y00535213D01*
X00905927Y00533750D01*
X00906218Y00532287D01*
X00906846Y00531347D01*
X00906968Y00530500D01*
X00906846Y00529653D01*
X00906218Y00528713D01*
X00905927Y00527250D01*
X00906218Y00525787D01*
X00906846Y00524847D01*
X00906968Y00524000D01*
X00906846Y00523153D01*
X00906218Y00522213D01*
X00905927Y00520750D01*
X00906218Y00519287D01*
X00906846Y00518347D01*
X00906968Y00517500D01*
X00906846Y00516653D01*
X00906218Y00515713D01*
X00905927Y00514250D01*
X00906218Y00512787D01*
X00906846Y00511847D01*
X00906968Y00511000D01*
X00906846Y00510153D01*
X00906218Y00509213D01*
X00905927Y00507750D01*
X00906218Y00506287D01*
X00906846Y00505347D01*
X00906968Y00504500D01*
X00906846Y00503653D01*
X00906218Y00502713D01*
X00905927Y00501250D01*
X00906218Y00499787D01*
X00907046Y00498547D01*
X00908287Y00497718D01*
X00909750Y00497427D01*
X00911213Y00497718D01*
X00912454Y00498547D01*
X00913282Y00499787D01*
X00913573Y00501250D01*
X00913282Y00502713D01*
X00912654Y00503653D01*
X00912532Y00504500D01*
X00912654Y00505347D01*
X00913282Y00506287D01*
X00913573Y00507750D01*
X00913282Y00509213D01*
X00912654Y00510153D01*
X00912532Y00511000D01*
X00912654Y00511847D01*
X00913282Y00512787D01*
X00913573Y00514250D01*
X00913282Y00515713D01*
X00912654Y00516653D01*
X00912532Y00517500D01*
X00912654Y00518347D01*
X00913282Y00519287D01*
X00913573Y00520750D01*
X00913282Y00522213D01*
X00912654Y00523153D01*
X00912532Y00524000D01*
X00912654Y00524847D01*
X00913282Y00525787D01*
X00913573Y00527250D01*
X00913282Y00528713D01*
X00912654Y00529653D01*
X00912532Y00530500D01*
X00912654Y00531347D01*
X00913282Y00532287D01*
X00913573Y00533750D01*
X00913282Y00535213D01*
X00912654Y00536153D01*
X00912532Y00537000D01*
X00912654Y00537847D01*
X00913282Y00538787D01*
X00913573Y00540250D01*
X00913282Y00541713D01*
X00912654Y00542653D01*
X00912532Y00543500D01*
X00912654Y00544347D01*
X00913282Y00545287D01*
X00913573Y00546750D01*
X00913282Y00548214D01*
X00912454Y00549454D01*
X00911213Y00550283D01*
X00909750Y00550574D01*
D02*
G37*
G36*
X00753750Y00576573D02*
X00752287Y00576282D01*
X00751046Y00575454D01*
X00750218Y00574213D01*
X00749927Y00572750D01*
X00750218Y00571287D01*
X00750846Y00570347D01*
X00750968Y00569500D01*
X00750846Y00568653D01*
X00750218Y00567713D01*
X00749927Y00566250D01*
X00750218Y00564787D01*
X00750846Y00563847D01*
X00750968Y00563000D01*
X00750846Y00562153D01*
X00750218Y00561213D01*
X00749927Y00559750D01*
X00750218Y00558287D01*
X00750846Y00557347D01*
X00750968Y00556500D01*
X00750846Y00555653D01*
X00750218Y00554713D01*
X00749927Y00553250D01*
X00750218Y00551787D01*
X00750846Y00550847D01*
X00750968Y00550000D01*
X00750846Y00549153D01*
X00750218Y00548213D01*
X00749927Y00546750D01*
X00750218Y00545287D01*
X00750846Y00544347D01*
X00750968Y00543500D01*
X00750846Y00542653D01*
X00750218Y00541713D01*
X00749927Y00540250D01*
X00750218Y00538787D01*
X00750846Y00537847D01*
X00750968Y00537000D01*
X00750846Y00536153D01*
X00750218Y00535213D01*
X00749927Y00533750D01*
X00750218Y00532287D01*
X00750846Y00531347D01*
X00750968Y00530500D01*
X00750846Y00529653D01*
X00750218Y00528713D01*
X00749927Y00527250D01*
X00750218Y00525787D01*
X00750846Y00524847D01*
X00750968Y00524000D01*
X00750846Y00523153D01*
X00750218Y00522213D01*
X00749927Y00520750D01*
X00750218Y00519287D01*
X00750846Y00518347D01*
X00750968Y00517500D01*
X00750846Y00516653D01*
X00750218Y00515713D01*
X00749927Y00514250D01*
X00750218Y00512787D01*
X00750846Y00511847D01*
X00750968Y00511000D01*
X00750846Y00510153D01*
X00750218Y00509213D01*
X00749927Y00507750D01*
X00750218Y00506287D01*
X00750846Y00505347D01*
X00750968Y00504500D01*
X00750846Y00503653D01*
X00750218Y00502713D01*
X00749927Y00501250D01*
X00750218Y00499787D01*
X00750846Y00498847D01*
X00750968Y00498000D01*
X00750846Y00497153D01*
X00750218Y00496213D01*
X00749927Y00494750D01*
X00750218Y00493287D01*
X00750846Y00492347D01*
X00750968Y00491500D01*
X00750846Y00490653D01*
X00750218Y00489713D01*
X00749927Y00488250D01*
X00750218Y00486787D01*
X00750846Y00485847D01*
X00750968Y00485000D01*
X00750846Y00484153D01*
X00750218Y00483213D01*
X00749927Y00481750D01*
X00750218Y00480287D01*
X00751046Y00479046D01*
X00752287Y00478217D01*
X00753750Y00477926D01*
X00755213Y00478217D01*
X00756454Y00479046D01*
X00757282Y00480287D01*
X00757573Y00481750D01*
X00757282Y00483213D01*
X00756654Y00484153D01*
X00756532Y00485000D01*
X00756654Y00485847D01*
X00757282Y00486787D01*
X00757573Y00488250D01*
X00757282Y00489713D01*
X00756654Y00490653D01*
X00756532Y00491500D01*
X00756654Y00492347D01*
X00757282Y00493287D01*
X00757573Y00494750D01*
X00757282Y00496213D01*
X00756654Y00497153D01*
X00756532Y00498000D01*
X00756654Y00498847D01*
X00757282Y00499787D01*
X00757573Y00501250D01*
X00757282Y00502713D01*
X00756654Y00503653D01*
X00756532Y00504500D01*
X00756654Y00505347D01*
X00757282Y00506287D01*
X00757573Y00507750D01*
X00757282Y00509213D01*
X00756654Y00510153D01*
X00756532Y00511000D01*
X00756654Y00511847D01*
X00757282Y00512787D01*
X00757573Y00514250D01*
X00757282Y00515713D01*
X00756654Y00516653D01*
X00756532Y00517500D01*
X00756654Y00518347D01*
X00757282Y00519287D01*
X00757573Y00520750D01*
X00757282Y00522213D01*
X00756654Y00523153D01*
X00756532Y00524000D01*
X00756654Y00524847D01*
X00757282Y00525787D01*
X00757573Y00527250D01*
X00757282Y00528713D01*
X00756654Y00529653D01*
X00756532Y00530500D01*
X00756654Y00531347D01*
X00757282Y00532287D01*
X00757573Y00533750D01*
X00757282Y00535213D01*
X00756654Y00536153D01*
X00756532Y00537000D01*
X00756654Y00537847D01*
X00757282Y00538787D01*
X00757573Y00540250D01*
X00757282Y00541713D01*
X00756654Y00542653D01*
X00756532Y00543500D01*
X00756654Y00544347D01*
X00757282Y00545287D01*
X00757573Y00546750D01*
X00757282Y00548213D01*
X00756654Y00549153D01*
X00756532Y00550000D01*
X00756654Y00550847D01*
X00757282Y00551787D01*
X00757573Y00553250D01*
X00757282Y00554713D01*
X00756654Y00555653D01*
X00756532Y00556500D01*
X00756654Y00557347D01*
X00757282Y00558287D01*
X00757573Y00559750D01*
X00757282Y00561213D01*
X00756654Y00562153D01*
X00756532Y00563000D01*
X00756654Y00563847D01*
X00757282Y00564787D01*
X00757573Y00566250D01*
X00757282Y00567713D01*
X00756654Y00568653D01*
X00756532Y00569500D01*
X00756654Y00570347D01*
X00757282Y00571287D01*
X00757573Y00572750D01*
X00757282Y00574213D01*
X00756454Y00575454D01*
X00755213Y00576282D01*
X00753750Y00576573D01*
D02*
G37*
G36*
X00909750Y00492074D02*
X00908287Y00491783D01*
X00907046Y00490954D01*
X00906218Y00489713D01*
X00905927Y00488250D01*
X00906218Y00486787D01*
X00906846Y00485847D01*
X00906968Y00485000D01*
X00906846Y00484153D01*
X00906218Y00483213D01*
X00905927Y00481750D01*
X00906218Y00480287D01*
X00906846Y00479347D01*
X00906968Y00478500D01*
X00906846Y00477653D01*
X00906218Y00476713D01*
X00905927Y00475250D01*
X00906218Y00473787D01*
X00906846Y00472847D01*
X00906968Y00472000D01*
X00906846Y00471153D01*
X00906218Y00470213D01*
X00905927Y00468750D01*
X00906218Y00467287D01*
X00906846Y00466347D01*
X00906968Y00465500D01*
X00906846Y00464653D01*
X00906218Y00463713D01*
X00905927Y00462250D01*
X00906218Y00460787D01*
X00906846Y00459847D01*
X00906968Y00459000D01*
X00906846Y00458153D01*
X00906218Y00457213D01*
X00905927Y00455750D01*
X00906218Y00454287D01*
X00906846Y00453347D01*
X00906968Y00452500D01*
X00906846Y00451653D01*
X00906218Y00450713D01*
X00905927Y00449250D01*
X00906218Y00447787D01*
X00906846Y00446847D01*
X00906968Y00446000D01*
X00906846Y00445153D01*
X00906218Y00444213D01*
X00905927Y00442750D01*
X00906218Y00441287D01*
X00906846Y00440347D01*
X00906968Y00439500D01*
X00906846Y00438653D01*
X00906218Y00437713D01*
X00905927Y00436250D01*
X00906218Y00434787D01*
X00907046Y00433546D01*
X00908287Y00432718D01*
X00909750Y00432427D01*
X00911213Y00432718D01*
X00912454Y00433546D01*
X00913282Y00434787D01*
X00913573Y00436250D01*
X00913282Y00437713D01*
X00912654Y00438653D01*
X00912532Y00439500D01*
X00912654Y00440347D01*
X00913282Y00441287D01*
X00913573Y00442750D01*
X00913282Y00444213D01*
X00912654Y00445153D01*
X00912532Y00446000D01*
X00912654Y00446847D01*
X00913282Y00447787D01*
X00913573Y00449250D01*
X00913282Y00450713D01*
X00912654Y00451653D01*
X00912532Y00452500D01*
X00912654Y00453347D01*
X00913282Y00454287D01*
X00913573Y00455750D01*
X00913282Y00457213D01*
X00912654Y00458153D01*
X00912532Y00459000D01*
X00912654Y00459847D01*
X00913282Y00460787D01*
X00913573Y00462250D01*
X00913282Y00463713D01*
X00912654Y00464653D01*
X00912532Y00465500D01*
X00912654Y00466347D01*
X00913282Y00467287D01*
X00913573Y00468750D01*
X00913282Y00470213D01*
X00912654Y00471153D01*
X00912532Y00472000D01*
X00912654Y00472847D01*
X00913282Y00473787D01*
X00913573Y00475250D01*
X00913282Y00476713D01*
X00912654Y00477653D01*
X00912532Y00478500D01*
X00912654Y00479347D01*
X00913282Y00480287D01*
X00913573Y00481750D01*
X00913282Y00483213D01*
X00912654Y00484153D01*
X00912532Y00485000D01*
X00912654Y00485847D01*
X00913282Y00486787D01*
X00913573Y00488250D01*
X00913282Y00489713D01*
X00912454Y00490954D01*
X00911213Y00491783D01*
X00909750Y00492074D01*
D02*
G37*
G36*
X00836000Y00425323D02*
X00834537Y00425032D01*
X00833296Y00424204D01*
X00832468Y00422963D01*
X00832323Y00422235D01*
X00831076Y00422214D01*
X00831026Y00422223D01*
X00830204Y00423454D01*
X00828963Y00424282D01*
X00827500Y00424573D01*
X00826037Y00424282D01*
X00824796Y00423454D01*
X00823968Y00422213D01*
X00823677Y00420750D01*
X00823968Y00419287D01*
X00824796Y00418046D01*
X00826037Y00417218D01*
X00827500Y00416926D01*
X00828963Y00417218D01*
X00830204Y00418046D01*
X00831032Y00419287D01*
X00831177Y00420015D01*
X00832424Y00420036D01*
X00832474Y00420027D01*
X00833296Y00418796D01*
X00834537Y00417968D01*
X00836000Y00417677D01*
X00837463Y00417968D01*
X00838704Y00418796D01*
X00839532Y00420037D01*
X00839823Y00421500D01*
X00839532Y00422963D01*
X00838704Y00424204D01*
X00837463Y00425032D01*
X00836000Y00425323D01*
D02*
G37*
G36*
Y00409573D02*
X00834537Y00409282D01*
X00833296Y00408454D01*
X00832468Y00407213D01*
X00832194Y00405836D01*
X00831000Y00406073D01*
X00829537Y00405782D01*
X00828296Y00404953D01*
X00827468Y00403713D01*
X00827177Y00402250D01*
X00827468Y00400787D01*
X00828296Y00399546D01*
X00829537Y00398718D01*
X00831000Y00398427D01*
X00832463Y00398718D01*
X00833704Y00399546D01*
X00834532Y00400787D01*
X00834806Y00402164D01*
X00836000Y00401927D01*
X00837463Y00402218D01*
X00838704Y00403046D01*
X00839532Y00404287D01*
X00839823Y00405750D01*
X00839532Y00407213D01*
X00838704Y00408454D01*
X00837463Y00409282D01*
X00836000Y00409573D01*
D02*
G37*
G36*
X00854250Y00413323D02*
X00852787Y00413032D01*
X00851546Y00412204D01*
X00850718Y00410963D01*
X00850427Y00409500D01*
X00850718Y00408037D01*
X00851546Y00406796D01*
X00852787Y00405968D01*
X00854250Y00405677D01*
X00855713Y00405968D01*
X00856954Y00406796D01*
X00857782Y00408037D01*
X00858073Y00409500D01*
X00857782Y00410963D01*
X00856954Y00412204D01*
X00855713Y00413032D01*
X00854250Y00413323D01*
D02*
G37*
G36*
X00840918Y00399177D02*
X00839455Y00398886D01*
X00838215Y00398057D01*
X00837386Y00396816D01*
X00837095Y00395353D01*
X00837386Y00393890D01*
X00838215Y00392650D01*
X00839455Y00391821D01*
X00840918Y00391530D01*
X00842381Y00391821D01*
X00843622Y00392650D01*
X00844451Y00393890D01*
X00844742Y00395353D01*
X00844451Y00396816D01*
X00843622Y00398057D01*
X00842381Y00398886D01*
X00840918Y00399177D01*
D02*
G37*
G36*
X00753750Y00472573D02*
X00752287Y00472282D01*
X00751046Y00471453D01*
X00750218Y00470213D01*
X00749927Y00468750D01*
X00750218Y00467287D01*
X00750846Y00466347D01*
X00750968Y00465500D01*
X00750846Y00464653D01*
X00750218Y00463713D01*
X00749927Y00462250D01*
X00750218Y00460787D01*
X00750846Y00459847D01*
X00750968Y00459000D01*
X00750846Y00458153D01*
X00750218Y00457213D01*
X00749927Y00455750D01*
X00750218Y00454287D01*
X00750846Y00453347D01*
X00750968Y00452500D01*
X00750846Y00451653D01*
X00750218Y00450713D01*
X00749927Y00449250D01*
X00750218Y00447787D01*
X00750846Y00446847D01*
X00750968Y00446000D01*
X00750846Y00445153D01*
X00750218Y00444213D01*
X00749927Y00442750D01*
X00750218Y00441287D01*
X00750846Y00440347D01*
X00750968Y00439500D01*
X00750846Y00438653D01*
X00750218Y00437713D01*
X00749927Y00436250D01*
X00750218Y00434787D01*
X00750846Y00433847D01*
X00750968Y00433000D01*
X00750846Y00432153D01*
X00750218Y00431213D01*
X00749927Y00429750D01*
X00750218Y00428287D01*
X00750846Y00427347D01*
X00750968Y00426500D01*
X00750846Y00425653D01*
X00750218Y00424713D01*
X00749927Y00423250D01*
X00750218Y00421786D01*
X00750846Y00420847D01*
X00750968Y00420000D01*
X00750846Y00419153D01*
X00750218Y00418213D01*
X00749927Y00416750D01*
X00750218Y00415286D01*
X00750846Y00414347D01*
X00750968Y00413500D01*
X00750846Y00412653D01*
X00750218Y00411713D01*
X00749927Y00410250D01*
X00750218Y00408787D01*
X00750846Y00407846D01*
X00750968Y00407000D01*
X00750846Y00406153D01*
X00750218Y00405213D01*
X00749927Y00403750D01*
X00750218Y00402286D01*
X00750846Y00401347D01*
X00750968Y00400500D01*
X00750846Y00399653D01*
X00750218Y00398713D01*
X00749927Y00397250D01*
X00750218Y00395787D01*
X00750846Y00394846D01*
X00750968Y00394000D01*
X00750846Y00393153D01*
X00750218Y00392213D01*
X00749927Y00390750D01*
X00750218Y00389286D01*
X00750846Y00388346D01*
X00750968Y00387500D01*
X00750846Y00386653D01*
X00750218Y00385713D01*
X00749927Y00384250D01*
X00750218Y00382786D01*
X00751046Y00381546D01*
X00752287Y00380717D01*
X00753750Y00380426D01*
X00755213Y00380717D01*
X00756454Y00381546D01*
X00757282Y00382786D01*
X00757573Y00384250D01*
X00757282Y00385713D01*
X00756654Y00386653D01*
X00756532Y00387500D01*
X00756654Y00388346D01*
X00757282Y00389286D01*
X00757573Y00390750D01*
X00757282Y00392213D01*
X00756654Y00393153D01*
X00756532Y00394000D01*
X00756654Y00394846D01*
X00757282Y00395787D01*
X00757573Y00397250D01*
X00757282Y00398713D01*
X00756654Y00399653D01*
X00756532Y00400500D01*
X00756654Y00401347D01*
X00757282Y00402286D01*
X00757573Y00403750D01*
X00757282Y00405213D01*
X00756654Y00406153D01*
X00756532Y00407000D01*
X00756654Y00407846D01*
X00757282Y00408787D01*
X00757573Y00410250D01*
X00757282Y00411713D01*
X00756654Y00412653D01*
X00756532Y00413500D01*
X00756654Y00414347D01*
X00757282Y00415286D01*
X00757573Y00416750D01*
X00757282Y00418213D01*
X00756654Y00419153D01*
X00756532Y00420000D01*
X00756654Y00420847D01*
X00757282Y00421786D01*
X00757573Y00423250D01*
X00757282Y00424713D01*
X00756654Y00425653D01*
X00756532Y00426500D01*
X00756654Y00427347D01*
X00757282Y00428287D01*
X00757573Y00429750D01*
X00757282Y00431213D01*
X00756654Y00432153D01*
X00756532Y00433000D01*
X00756654Y00433847D01*
X00757282Y00434787D01*
X00757573Y00436250D01*
X00757282Y00437713D01*
X00756654Y00438653D01*
X00756532Y00439500D01*
X00756654Y00440347D01*
X00757282Y00441287D01*
X00757573Y00442750D01*
X00757282Y00444213D01*
X00756654Y00445153D01*
X00756532Y00446000D01*
X00756654Y00446847D01*
X00757282Y00447787D01*
X00757573Y00449250D01*
X00757282Y00450713D01*
X00756654Y00451653D01*
X00756532Y00452500D01*
X00756654Y00453347D01*
X00757282Y00454287D01*
X00757573Y00455750D01*
X00757282Y00457213D01*
X00756654Y00458153D01*
X00756532Y00459000D01*
X00756654Y00459847D01*
X00757282Y00460787D01*
X00757573Y00462250D01*
X00757282Y00463713D01*
X00756654Y00464653D01*
X00756532Y00465500D01*
X00756654Y00466347D01*
X00757282Y00467287D01*
X00757573Y00468750D01*
X00757282Y00470213D01*
X00756454Y00471453D01*
X00755213Y00472282D01*
X00753750Y00472573D01*
D02*
G37*
G36*
X00887000Y00373323D02*
X00885537Y00373032D01*
X00884297Y00372203D01*
X00883204D01*
X00881963Y00373032D01*
X00880500Y00373323D01*
X00879037Y00373032D01*
X00877797Y00372203D01*
X00876704D01*
X00875463Y00373032D01*
X00874000Y00373323D01*
X00872537Y00373032D01*
X00871297Y00372203D01*
X00870204D01*
X00868963Y00373032D01*
X00867500Y00373323D01*
X00866037Y00373032D01*
X00864797Y00372203D01*
X00863704D01*
X00862463Y00373032D01*
X00861000Y00373323D01*
X00859537Y00373032D01*
X00858297Y00372203D01*
X00857204D01*
X00855963Y00373032D01*
X00854500Y00373323D01*
X00853037Y00373032D01*
X00851797Y00372203D01*
X00850704D01*
X00849463Y00373032D01*
X00848000Y00373323D01*
X00846537Y00373032D01*
X00845297Y00372203D01*
X00844204D01*
X00842963Y00373032D01*
X00841500Y00373323D01*
X00840037Y00373032D01*
X00838797Y00372203D01*
X00837704D01*
X00836463Y00373032D01*
X00835000Y00373323D01*
X00833537Y00373032D01*
X00832297Y00372203D01*
X00831204D01*
X00829963Y00373032D01*
X00828500Y00373323D01*
X00827037Y00373032D01*
X00825797Y00372203D01*
X00824704D01*
X00823463Y00373032D01*
X00822000Y00373323D01*
X00820537Y00373032D01*
X00819297Y00372203D01*
X00818204D01*
X00816963Y00373032D01*
X00815500Y00373323D01*
X00814037Y00373032D01*
X00812796Y00372203D01*
X00811704D01*
X00810463Y00373032D01*
X00809000Y00373323D01*
X00807537Y00373032D01*
X00806296Y00372203D01*
X00805204D01*
X00803963Y00373032D01*
X00802500Y00373323D01*
X00801037Y00373032D01*
X00799797Y00372203D01*
X00798968Y00370963D01*
X00798677Y00369500D01*
X00798968Y00368037D01*
X00799797Y00366796D01*
X00801037Y00365968D01*
X00802500Y00365676D01*
X00803963Y00365968D01*
X00805204Y00366796D01*
X00806296D01*
X00807537Y00365968D01*
X00809000Y00365676D01*
X00810463Y00365968D01*
X00811704Y00366796D01*
X00812796D01*
X00814037Y00365968D01*
X00815500Y00365676D01*
X00816963Y00365968D01*
X00818204Y00366796D01*
X00819297D01*
X00820537Y00365968D01*
X00822000Y00365676D01*
X00823463Y00365968D01*
X00824704Y00366796D01*
X00825797D01*
X00827037Y00365968D01*
X00828500Y00365676D01*
X00829963Y00365968D01*
X00831204Y00366796D01*
X00832297D01*
X00833537Y00365968D01*
X00835000Y00365676D01*
X00836463Y00365968D01*
X00837704Y00366796D01*
X00838797D01*
X00840037Y00365968D01*
X00841500Y00365676D01*
X00842963Y00365968D01*
X00844204Y00366796D01*
X00845297D01*
X00846537Y00365968D01*
X00848000Y00365676D01*
X00849463Y00365968D01*
X00850704Y00366796D01*
X00851797D01*
X00853037Y00365968D01*
X00854500Y00365676D01*
X00855963Y00365968D01*
X00857204Y00366796D01*
X00858297D01*
X00859537Y00365968D01*
X00861000Y00365676D01*
X00862463Y00365968D01*
X00863704Y00366796D01*
X00864797D01*
X00866037Y00365968D01*
X00867500Y00365676D01*
X00868963Y00365968D01*
X00870204Y00366796D01*
X00871297D01*
X00872537Y00365968D01*
X00874000Y00365676D01*
X00875463Y00365968D01*
X00876704Y00366796D01*
X00877797D01*
X00879037Y00365968D01*
X00880500Y00365676D01*
X00881963Y00365968D01*
X00883204Y00366796D01*
X00884297D01*
X00885537Y00365968D01*
X00887000Y00365676D01*
X00888463Y00365968D01*
X00889704Y00366796D01*
X00890533Y00368037D01*
X00890824Y00369500D01*
X00890533Y00370963D01*
X00889704Y00372203D01*
X00888463Y00373032D01*
X00887000Y00373323D01*
D02*
G37*
G36*
X00789500D02*
X00788037Y00373032D01*
X00786796Y00372203D01*
X00785704D01*
X00784463Y00373032D01*
X00783000Y00373323D01*
X00781537Y00373032D01*
X00780296Y00372203D01*
X00779204D01*
X00777963Y00373032D01*
X00776500Y00373323D01*
X00775037Y00373032D01*
X00773796Y00372203D01*
X00772704D01*
X00771463Y00373032D01*
X00770000Y00373323D01*
X00768537Y00373032D01*
X00767296Y00372203D01*
X00766468Y00370963D01*
X00766177Y00369500D01*
X00766468Y00368037D01*
X00767296Y00366796D01*
X00768537Y00365968D01*
X00770000Y00365676D01*
X00771463Y00365968D01*
X00772704Y00366796D01*
X00773796D01*
X00775037Y00365968D01*
X00776500Y00365676D01*
X00777963Y00365968D01*
X00779204Y00366796D01*
X00780296D01*
X00781537Y00365968D01*
X00783000Y00365676D01*
X00784463Y00365968D01*
X00785704Y00366796D01*
X00786796D01*
X00788037Y00365968D01*
X00789500Y00365676D01*
X00790963Y00365968D01*
X00792204Y00366796D01*
X00793032Y00368037D01*
X00793324Y00369500D01*
X00793032Y00370963D01*
X00792204Y00372203D01*
X00790963Y00373032D01*
X00789500Y00373323D01*
D02*
G37*
%LPD*%
D12*
X00903816Y00578011D02*
X00897818D01*
X00903816Y00584009D01*
Y00585508D01*
X00902317Y00587008D01*
X00899318D01*
X00897818Y00585508D01*
D22*
X00761750Y00579500D02*
D03*
X00763000Y00376000D02*
D03*
X00910750Y00593500D02*
D03*
X00902750Y00377500D02*
D03*
X00854250Y00403500D02*
D03*
X00796000Y00369500D02*
D03*
X00753750Y00475250D02*
D03*
X00776500Y00587500D02*
D03*
X00909750Y00494750D02*
D03*
M02*
