G04*
G04 #@! TF.GenerationSoftware,Altium Limited,Altium Designer,21.7.2 (23)*
G04*
G04 Layer_Color=65535*
%FSAX44Y44*%
%MOMM*%
G71*
G04*
G04 #@! TF.SameCoordinates,C9C54BCD-4748-4C39-804F-1EAF98C739E5*
G04*
G04*
G04 #@! TF.FilePolarity,Positive*
G04*
G01*
G75*
%ADD10C,0.2500*%
%ADD11C,0.1524*%
%ADD12C,0.1500*%
D10*
X00809250Y00556750D02*
G03*
X00809250Y00556750I-00001250J00000000D01*
G01*
D11*
X00814250Y00562250D02*
X00849250D01*
X00814250Y00394750D02*
X00849250D01*
D12*
X00777575Y00564126D02*
X00782574Y00569125D01*
X00777574Y00552875D02*
X00787574D01*
X00782574D02*
Y00569125D01*
X00787574Y00564126D01*
X00772888Y00470082D02*
X00771556Y00468749D01*
Y00466083D01*
X00772888Y00464750D01*
X00774221D01*
X00775554Y00466083D01*
Y00468749D01*
X00776887Y00470082D01*
X00778220D01*
X00779553Y00468749D01*
Y00466083D01*
X00778220Y00464750D01*
X00771556Y00472747D02*
X00779553D01*
X00775554D01*
Y00478079D01*
X00771556D01*
X00779553D01*
X00771556Y00480745D02*
X00776887D01*
X00779553Y00483411D01*
X00776887Y00486077D01*
X00771556D01*
X00772888Y00494074D02*
X00771556Y00492741D01*
Y00490075D01*
X00772888Y00488742D01*
X00778220D01*
X00779553Y00490075D01*
Y00492741D01*
X00778220Y00494074D01*
X00775554Y00496740D02*
Y00502071D01*
X00772888Y00510069D02*
X00771556Y00508736D01*
Y00506070D01*
X00772888Y00504737D01*
X00778220D01*
X00779553Y00506070D01*
Y00508736D01*
X00778220Y00510069D01*
X00779553Y00512735D02*
X00771556D01*
Y00516733D01*
X00772888Y00518066D01*
X00775554D01*
X00776887Y00516733D01*
Y00512735D01*
X00771556Y00520732D02*
X00778220D01*
X00779553Y00522065D01*
Y00524731D01*
X00778220Y00526064D01*
X00771556D01*
X00775554Y00528729D02*
Y00534061D01*
X00771556Y00536727D02*
X00779553Y00542058D01*
X00771556D02*
X00779553Y00536727D01*
X00771556Y00544724D02*
X00779553Y00550056D01*
X00771556D02*
X00779553Y00544724D01*
X00786085Y00470082D02*
X00784753Y00468749D01*
Y00466083D01*
X00786085Y00464750D01*
X00787418D01*
X00788751Y00466083D01*
Y00468749D01*
X00790084Y00470082D01*
X00791417D01*
X00792750Y00468749D01*
Y00466083D01*
X00791417Y00464750D01*
X00792750Y00472747D02*
X00784753D01*
X00792750Y00478079D01*
X00784753D01*
X00786085Y00486077D02*
X00784753Y00484744D01*
Y00482078D01*
X00786085Y00480745D01*
X00787418D01*
X00788751Y00482078D01*
Y00484744D01*
X00790084Y00486077D01*
X00791417D01*
X00792750Y00484744D01*
Y00482078D01*
X00791417Y00480745D01*
X00792750Y00488742D02*
X00784753D01*
Y00492741D01*
X00786085Y00494074D01*
X00788751D01*
X00790084Y00492741D01*
Y00488742D01*
X00788751Y00496740D02*
Y00502071D01*
X00786085Y00510069D02*
X00784753Y00508736D01*
Y00506070D01*
X00786085Y00504737D01*
X00791417D01*
X00792750Y00506070D01*
Y00508736D01*
X00791417Y00510069D01*
X00792750Y00512735D02*
X00784753D01*
Y00516733D01*
X00786085Y00518066D01*
X00788751D01*
X00790084Y00516733D01*
Y00512735D01*
X00784753Y00520732D02*
X00791417D01*
X00792750Y00522065D01*
Y00524731D01*
X00791417Y00526064D01*
X00784753D01*
X00788751Y00528729D02*
Y00534061D01*
X00784753Y00536727D02*
X00792750Y00542058D01*
X00784753D02*
X00792750Y00536727D01*
X00784753Y00544724D02*
X00792750Y00550056D01*
X00784753D02*
X00792750Y00544724D01*
X00869108Y00415520D02*
X00867608Y00414021D01*
Y00411022D01*
X00869108Y00409522D01*
X00870607D01*
X00872107Y00411022D01*
Y00414021D01*
X00873606Y00415520D01*
X00875106D01*
X00876606Y00414021D01*
Y00411022D01*
X00875106Y00409522D01*
X00876606Y00418519D02*
X00867608D01*
X00876606Y00424518D01*
X00867608D01*
Y00433515D02*
Y00427517D01*
X00876606D01*
Y00433515D01*
X00872107Y00427517D02*
Y00430516D01*
X00869108Y00442512D02*
X00867608Y00441012D01*
Y00438013D01*
X00869108Y00436514D01*
X00870607D01*
X00872107Y00438013D01*
Y00441012D01*
X00873606Y00442512D01*
X00875106D01*
X00876606Y00441012D01*
Y00438013D01*
X00875106Y00436514D01*
X00867608Y00454508D02*
Y00460506D01*
Y00457507D01*
X00876606D01*
X00869108Y00469503D02*
X00867608Y00468003D01*
Y00465004D01*
X00869108Y00463505D01*
X00870607D01*
X00872107Y00465004D01*
Y00468003D01*
X00873606Y00469503D01*
X00875106D01*
X00876606Y00468003D01*
Y00465004D01*
X00875106Y00463505D01*
X00867608Y00472502D02*
Y00478500D01*
Y00475501D01*
X00876606D01*
Y00490496D02*
X00870607D01*
X00867608Y00493495D01*
X00870607Y00496494D01*
X00876606D01*
X00872107D01*
Y00490496D01*
X00867608Y00505491D02*
X00876606D01*
Y00500993D01*
X00875106Y00499493D01*
X00872107D01*
X00870607Y00500993D01*
Y00505491D01*
Y00509990D02*
Y00512989D01*
X00872107Y00514488D01*
X00876606D01*
Y00509990D01*
X00875106Y00508490D01*
X00873606Y00509990D01*
Y00514488D01*
X00879604Y00517487D02*
X00870607D01*
Y00521986D01*
X00872107Y00523485D01*
X00875106D01*
X00876606Y00521986D01*
Y00517487D01*
X00869108Y00527984D02*
X00870607D01*
Y00526484D01*
Y00529483D01*
Y00527984D01*
X00875106D01*
X00876606Y00529483D01*
Y00538481D02*
Y00535481D01*
X00875106Y00533982D01*
X00872107D01*
X00870607Y00535481D01*
Y00538481D01*
X00872107Y00539980D01*
X00873606D01*
Y00533982D01*
X00870607Y00542979D02*
X00876606D01*
X00873606D01*
X00872107Y00544479D01*
X00870607Y00545978D01*
Y00547478D01*
X00885004Y00426017D02*
Y00432015D01*
Y00429016D01*
X00894001D01*
X00888003Y00435014D02*
X00892501D01*
X00894001Y00436514D01*
Y00441012D01*
X00895500D01*
X00897000Y00439513D01*
Y00438013D01*
X00894001Y00441012D02*
X00888003D01*
X00897000Y00444011D02*
X00888003D01*
Y00448510D01*
X00889502Y00450009D01*
X00892501D01*
X00894001Y00448510D01*
Y00444011D01*
Y00457507D02*
Y00454508D01*
X00892501Y00453008D01*
X00889502D01*
X00888003Y00454508D01*
Y00457507D01*
X00889502Y00459006D01*
X00891002D01*
Y00453008D01*
X00894001Y00471002D02*
X00888003D01*
X00885004Y00474001D01*
X00888003Y00477001D01*
X00894001D01*
X00889502D01*
Y00471002D01*
X00894001Y00488997D02*
X00885004D01*
Y00493495D01*
X00886503Y00494995D01*
X00889502D01*
X00891002Y00493495D01*
Y00488997D01*
Y00491996D02*
X00894001Y00494995D01*
Y00502492D02*
Y00499493D01*
X00892501Y00497994D01*
X00889502D01*
X00888003Y00499493D01*
Y00502492D01*
X00889502Y00503992D01*
X00891002D01*
Y00497994D01*
X00888003Y00506991D02*
X00894001Y00509990D01*
X00888003Y00512989D01*
X00886503Y00524985D02*
X00885004Y00526484D01*
Y00529483D01*
X00886503Y00530983D01*
X00892501D01*
X00894001Y00529483D01*
Y00526484D01*
X00892501Y00524985D01*
X00886503D01*
M02*
