G04*
G04 #@! TF.GenerationSoftware,Altium Limited,Altium Designer,21.7.2 (23)*
G04*
G04 Layer_Physical_Order=4*
G04 Layer_Color=16711680*
%FSAX44Y44*%
%MOMM*%
G71*
G04*
G04 #@! TF.SameCoordinates,1C098217-63CA-4160-87A2-FAF5BDA99962*
G04*
G04*
G04 #@! TF.FilePolarity,Positive*
G04*
G01*
G75*
%ADD12C,0.1500*%
%ADD14R,1.8000X0.3500*%
%ADD15R,0.3500X1.8000*%
%ADD21C,0.2000*%
%ADD22C,0.4500*%
G36*
X00920750Y00589997D02*
X00912252D01*
Y00589000D01*
X00898020Y00589000D01*
X00896750Y00590270D01*
Y00598500D01*
X00920750D01*
Y00589997D01*
D02*
G37*
G36*
X00777500Y00588500D02*
X00778374D01*
X00779180Y00587518D01*
X00779176Y00587500D01*
X00779467Y00586037D01*
X00780296Y00584796D01*
X00781537Y00583968D01*
X00783000Y00583677D01*
X00784463Y00583968D01*
X00785703Y00584796D01*
X00786532Y00586037D01*
X00786823Y00587500D01*
X00786777Y00587730D01*
X00787820Y00589000D01*
X00791480D01*
X00792750Y00589000D01*
Y00589000D01*
X00792750D01*
Y00589000D01*
X00797980D01*
X00799250Y00589000D01*
Y00589000D01*
X00799250D01*
Y00589000D01*
X00804180D01*
X00805222Y00587730D01*
X00805176Y00587500D01*
X00805467Y00586037D01*
X00806296Y00584796D01*
X00807537Y00583968D01*
X00809000Y00583677D01*
X00810463Y00583968D01*
X00811703Y00584796D01*
X00812532Y00586037D01*
X00812823Y00587500D01*
X00812777Y00587730D01*
X00813820Y00589000D01*
X00817480D01*
X00818750Y00589000D01*
Y00589000D01*
X00818750D01*
Y00589000D01*
X00823980D01*
X00825250Y00589000D01*
Y00589000D01*
X00825250D01*
Y00589000D01*
X00830480D01*
X00831750Y00589000D01*
Y00589000D01*
X00831750D01*
Y00589000D01*
X00836980D01*
X00838250Y00589000D01*
Y00589000D01*
X00838250D01*
Y00589000D01*
X00843480D01*
X00844750Y00589000D01*
Y00589000D01*
X00844750D01*
Y00589000D01*
X00849980D01*
X00851250Y00589000D01*
Y00589000D01*
X00851250D01*
Y00589000D01*
X00856480D01*
X00857750Y00589000D01*
Y00589000D01*
X00857750D01*
Y00589000D01*
X00862980D01*
X00864250Y00589000D01*
Y00589000D01*
X00864250D01*
Y00589000D01*
X00869480D01*
X00870750Y00589000D01*
Y00589000D01*
X00870750D01*
Y00589000D01*
X00875680D01*
X00876722Y00587730D01*
X00876676Y00587500D01*
X00876968Y00586037D01*
X00877796Y00584796D01*
X00879037Y00583968D01*
X00880500Y00583677D01*
X00881963Y00583968D01*
X00883204Y00584796D01*
X00884032Y00586037D01*
X00884323Y00587500D01*
X00884278Y00587730D01*
X00885320Y00589000D01*
X00886761D01*
X00888031Y00587730D01*
X00888031Y00576500D01*
X00910187Y00576500D01*
X00911250Y00575230D01*
Y00570770D01*
X00911250Y00569500D01*
X00911250D01*
Y00569500D01*
X00911250D01*
Y00564270D01*
X00911250Y00563000D01*
X00911250D01*
Y00563000D01*
X00911250D01*
Y00557770D01*
X00911250Y00556500D01*
X00911250D01*
Y00556500D01*
X00911250D01*
Y00551570D01*
X00909980Y00550528D01*
X00909750Y00550574D01*
X00908287Y00550283D01*
X00907046Y00549454D01*
X00906218Y00548214D01*
X00905927Y00546750D01*
X00906218Y00545287D01*
X00906846Y00544347D01*
X00906968Y00543500D01*
X00906846Y00542653D01*
X00906218Y00541713D01*
X00905927Y00540250D01*
X00906218Y00538787D01*
X00906846Y00537847D01*
X00906968Y00537000D01*
X00906846Y00536153D01*
X00906218Y00535213D01*
X00905927Y00533750D01*
X00906218Y00532287D01*
X00906846Y00531347D01*
X00906968Y00530500D01*
X00906846Y00529653D01*
X00906218Y00528713D01*
X00905927Y00527250D01*
X00906218Y00525787D01*
X00906846Y00524847D01*
X00906968Y00524000D01*
X00906846Y00523153D01*
X00906218Y00522213D01*
X00905927Y00520750D01*
X00906218Y00519287D01*
X00906846Y00518347D01*
X00906968Y00517500D01*
X00906846Y00516653D01*
X00906218Y00515713D01*
X00905927Y00514250D01*
X00906218Y00512787D01*
X00906846Y00511847D01*
X00906968Y00511000D01*
X00906846Y00510153D01*
X00906218Y00509213D01*
X00905927Y00507750D01*
X00906218Y00506287D01*
X00906846Y00505347D01*
X00906968Y00504500D01*
X00906846Y00503653D01*
X00906218Y00502713D01*
X00905927Y00501250D01*
X00906218Y00499787D01*
X00907046Y00498547D01*
X00908287Y00497718D01*
X00909750Y00497427D01*
X00909768Y00497430D01*
X00910750Y00496625D01*
Y00495750D01*
X00921750D01*
Y00493750D01*
X00910750D01*
Y00492876D01*
X00909768Y00492070D01*
X00909750Y00492074D01*
X00908287Y00491783D01*
X00907046Y00490954D01*
X00906218Y00489713D01*
X00905927Y00488250D01*
X00906218Y00486787D01*
X00906846Y00485847D01*
X00906968Y00485000D01*
X00906846Y00484153D01*
X00906218Y00483213D01*
X00905927Y00481750D01*
X00906218Y00480287D01*
X00906846Y00479347D01*
X00906968Y00478500D01*
X00906846Y00477653D01*
X00906218Y00476713D01*
X00905927Y00475250D01*
X00906218Y00473787D01*
X00906846Y00472847D01*
X00906968Y00472000D01*
X00906846Y00471153D01*
X00906218Y00470213D01*
X00905927Y00468750D01*
X00906218Y00467287D01*
X00906846Y00466347D01*
X00906968Y00465500D01*
X00906846Y00464653D01*
X00906218Y00463713D01*
X00905927Y00462250D01*
X00906218Y00460787D01*
X00906846Y00459847D01*
X00906968Y00459000D01*
X00906846Y00458153D01*
X00906218Y00457213D01*
X00905927Y00455750D01*
X00906218Y00454287D01*
X00906846Y00453347D01*
X00906968Y00452500D01*
X00906846Y00451653D01*
X00906218Y00450713D01*
X00905927Y00449250D01*
X00906218Y00447787D01*
X00906846Y00446847D01*
X00906968Y00446000D01*
X00906846Y00445153D01*
X00906218Y00444213D01*
X00905927Y00442750D01*
X00906218Y00441287D01*
X00906846Y00440347D01*
X00906968Y00439500D01*
X00906846Y00438653D01*
X00906218Y00437713D01*
X00905927Y00436250D01*
X00906218Y00434787D01*
X00906514Y00434344D01*
X00906952Y00433455D01*
X00906190Y00432716D01*
X00905796Y00432454D01*
X00904968Y00431213D01*
X00904677Y00429750D01*
X00904773Y00429267D01*
X00899862Y00424356D01*
X00899364Y00423612D01*
X00899190Y00422734D01*
Y00412266D01*
X00899364Y00411388D01*
X00899862Y00410644D01*
X00901678Y00408828D01*
Y00399797D01*
X00900408Y00398879D01*
X00899702Y00399020D01*
X00898239Y00398729D01*
X00896998Y00397900D01*
X00896724Y00397490D01*
X00873664D01*
X00872786Y00397316D01*
X00872042Y00396818D01*
X00864518Y00389294D01*
X00842750D01*
X00841872Y00389119D01*
X00841128Y00388622D01*
X00834304Y00381798D01*
X00833890Y00381872D01*
X00833064Y00382354D01*
Y00406531D01*
X00834334Y00407187D01*
X00835037Y00406718D01*
X00836500Y00406427D01*
X00837963Y00406718D01*
X00839204Y00407546D01*
X00840032Y00408787D01*
X00840323Y00410250D01*
X00840032Y00411713D01*
X00839558Y00412423D01*
X00839222Y00413048D01*
X00839463Y00414308D01*
X00839782Y00414787D01*
X00840073Y00416250D01*
X00839782Y00417713D01*
X00839150Y00418660D01*
X00839190Y00419499D01*
X00839467Y00420138D01*
X00840454Y00420797D01*
X00841282Y00422037D01*
X00841573Y00423500D01*
X00841282Y00424963D01*
X00840454Y00426204D01*
X00840869Y00427453D01*
X00842414D01*
X00844762Y00425106D01*
X00845506Y00424608D01*
X00846384Y00424434D01*
X00850041D01*
X00850860Y00423164D01*
X00850678Y00422247D01*
X00850969Y00420784D01*
X00851797Y00419544D01*
X00853038Y00418715D01*
X00854501Y00418424D01*
X00855964Y00418715D01*
X00857205Y00419544D01*
X00858034Y00420784D01*
X00858325Y00422247D01*
X00858034Y00423710D01*
X00858683Y00425024D01*
X00858805Y00425106D01*
X00884122Y00450422D01*
X00884619Y00451166D01*
X00884794Y00452044D01*
Y00543691D01*
X00884794Y00543691D01*
X00884619Y00544569D01*
X00884122Y00545313D01*
X00884122Y00545313D01*
X00865313Y00564122D01*
X00864569Y00564619D01*
X00863691Y00564794D01*
X00789037D01*
X00788159Y00564619D01*
X00787415Y00564122D01*
X00787239Y00563946D01*
X00787128Y00563872D01*
X00758477Y00535221D01*
X00757038Y00535578D01*
X00756654Y00536153D01*
X00756532Y00537000D01*
X00756654Y00537847D01*
X00757282Y00538787D01*
X00757573Y00540250D01*
X00757282Y00541713D01*
X00756654Y00542653D01*
X00756532Y00543500D01*
X00756654Y00544347D01*
X00757282Y00545287D01*
X00757573Y00546750D01*
X00757282Y00548213D01*
X00756654Y00549153D01*
X00756532Y00550000D01*
X00756654Y00550847D01*
X00757282Y00551787D01*
X00757573Y00553250D01*
X00757282Y00554713D01*
X00756654Y00555653D01*
X00756532Y00556500D01*
X00756654Y00557347D01*
X00757282Y00558287D01*
X00757573Y00559750D01*
X00757282Y00561213D01*
X00756654Y00562153D01*
X00756532Y00563000D01*
X00756654Y00563847D01*
X00757282Y00564787D01*
X00757573Y00566250D01*
X00757282Y00567713D01*
X00756654Y00568653D01*
X00756532Y00569500D01*
X00756654Y00570347D01*
X00757282Y00571287D01*
X00757573Y00572750D01*
X00757282Y00574213D01*
X00756454Y00575454D01*
X00755213Y00576282D01*
X00753750Y00576573D01*
X00752287Y00576282D01*
X00751864Y00576000D01*
X00742750D01*
Y00598500D01*
X00766750D01*
Y00589386D01*
X00766467Y00588963D01*
X00766176Y00587500D01*
X00766467Y00586037D01*
X00767296Y00584796D01*
X00768537Y00583968D01*
X00770000Y00583677D01*
X00771463Y00583968D01*
X00772703Y00584796D01*
X00773532Y00586037D01*
X00773823Y00587500D01*
X00773820Y00587518D01*
X00774625Y00588500D01*
X00775500D01*
Y00599500D01*
X00777500D01*
Y00588500D01*
D02*
G37*
G36*
X00850919Y00527129D02*
X00850823Y00526646D01*
X00851114Y00525183D01*
X00851943Y00523942D01*
X00852066Y00523860D01*
Y00522590D01*
X00851943Y00522507D01*
X00851114Y00521267D01*
X00850823Y00519804D01*
X00851114Y00518341D01*
X00851943Y00517100D01*
X00853183Y00516271D01*
X00853944Y00516120D01*
Y00514825D01*
X00853021Y00514641D01*
X00851781Y00513813D01*
X00850952Y00512572D01*
X00850661Y00511109D01*
X00850952Y00509646D01*
X00851781Y00508405D01*
X00853021Y00507577D01*
X00854136Y00507355D01*
Y00506060D01*
X00853190Y00505872D01*
X00851950Y00505043D01*
X00851121Y00503803D01*
X00850830Y00502340D01*
X00851121Y00500877D01*
X00851950Y00499636D01*
X00853190Y00498807D01*
X00853690Y00498708D01*
Y00497413D01*
X00853038Y00497283D01*
X00851797Y00496454D01*
X00850969Y00495214D01*
X00850678Y00493751D01*
X00850969Y00492288D01*
X00851797Y00491047D01*
X00853038Y00490218D01*
X00853544Y00490118D01*
Y00488823D01*
X00853087Y00488732D01*
X00851847Y00487903D01*
X00851018Y00486663D01*
X00850727Y00485200D01*
X00851018Y00483736D01*
X00851847Y00482496D01*
X00853087Y00481667D01*
X00853738Y00481538D01*
Y00480243D01*
X00853250Y00480146D01*
X00852010Y00479317D01*
X00851181Y00478077D01*
X00850890Y00476614D01*
X00851181Y00475150D01*
X00852010Y00473910D01*
X00853250Y00473081D01*
X00854713Y00472790D01*
X00856176Y00473081D01*
X00857417Y00473910D01*
X00857936Y00474687D01*
X00859206Y00474302D01*
Y00468994D01*
X00858657Y00468563D01*
X00857338Y00468947D01*
X00857223Y00469053D01*
X00856454Y00470204D01*
X00855213Y00471032D01*
X00853750Y00471323D01*
X00852287Y00471032D01*
X00851046Y00470204D01*
X00850218Y00468963D01*
X00849927Y00467500D01*
X00850218Y00466037D01*
X00851046Y00464796D01*
X00851931Y00464206D01*
X00851986Y00464024D01*
Y00462976D01*
X00851931Y00462794D01*
X00851046Y00462203D01*
X00850218Y00460963D01*
X00849927Y00459500D01*
X00850127Y00458490D01*
X00849352Y00457220D01*
X00841111D01*
X00840454Y00458204D01*
X00839213Y00459032D01*
X00837750Y00459323D01*
X00836287Y00459032D01*
X00835046Y00458204D01*
X00834334Y00457137D01*
X00833630Y00457159D01*
X00833064Y00457348D01*
Y00468540D01*
X00834334Y00469359D01*
X00835250Y00469177D01*
X00836713Y00469468D01*
X00837954Y00470296D01*
X00838782Y00471537D01*
X00839073Y00473000D01*
X00838782Y00474463D01*
X00837954Y00475704D01*
X00836713Y00476532D01*
X00835250Y00476823D01*
X00834334Y00476641D01*
X00833064Y00477461D01*
Y00478843D01*
X00834039Y00479364D01*
X00834334Y00479386D01*
X00835700Y00479115D01*
X00837163Y00479406D01*
X00838404Y00480235D01*
X00839232Y00481475D01*
X00839523Y00482938D01*
X00839232Y00484401D01*
X00838404Y00485642D01*
X00837163Y00486471D01*
X00836879Y00486527D01*
Y00487822D01*
X00838087Y00488062D01*
X00839328Y00488891D01*
X00840156Y00490132D01*
X00840447Y00491595D01*
X00840156Y00493058D01*
X00839328Y00494298D01*
X00838087Y00495127D01*
X00836624Y00495418D01*
X00836502Y00496639D01*
X00837526Y00496842D01*
X00838766Y00497671D01*
X00839595Y00498912D01*
X00839886Y00500375D01*
X00839595Y00501838D01*
X00838766Y00503078D01*
X00837526Y00503907D01*
X00836063Y00504198D01*
X00834600Y00503907D01*
X00834136Y00503598D01*
X00833956Y00503563D01*
X00832512Y00503923D01*
X00832512Y00503923D01*
X00832392Y00504102D01*
X00829477Y00507017D01*
X00829573Y00507500D01*
X00829282Y00508963D01*
X00828454Y00510203D01*
X00827569Y00510794D01*
X00827514Y00510975D01*
Y00512024D01*
X00827569Y00512206D01*
X00828454Y00512796D01*
X00828612Y00513033D01*
X00830139D01*
X00830296Y00512798D01*
X00831537Y00511969D01*
X00833000Y00511678D01*
X00833004Y00511679D01*
X00833927Y00511500D01*
X00834218Y00510037D01*
X00835046Y00508796D01*
X00836287Y00507967D01*
X00837750Y00507676D01*
X00839213Y00507967D01*
X00840454Y00508796D01*
X00841282Y00510037D01*
X00841573Y00511500D01*
X00841282Y00512963D01*
X00840454Y00514203D01*
X00839569Y00514794D01*
X00839514Y00514975D01*
Y00516024D01*
X00839569Y00516205D01*
X00840454Y00516796D01*
X00841282Y00518037D01*
X00841573Y00519500D01*
X00841282Y00520963D01*
X00840454Y00522203D01*
X00839213Y00523032D01*
X00838926Y00523089D01*
X00838341Y00524501D01*
X00838532Y00524787D01*
X00838823Y00526250D01*
X00838532Y00527713D01*
X00839256Y00528916D01*
X00840204Y00529549D01*
X00841033Y00530789D01*
X00841324Y00532253D01*
X00841033Y00533716D01*
X00840204Y00534956D01*
X00840619Y00536206D01*
X00841842D01*
X00850919Y00527129D01*
D02*
G37*
G36*
X00781206Y00504302D02*
Y00383950D01*
X00770483Y00373227D01*
X00770000Y00373323D01*
X00768537Y00373032D01*
X00767296Y00372203D01*
X00766468Y00370963D01*
X00766177Y00369500D01*
X00766468Y00368037D01*
X00766750Y00367614D01*
Y00358500D01*
X00742750D01*
Y00381000D01*
X00751864D01*
X00752287Y00380717D01*
X00753750Y00380426D01*
X00755213Y00380717D01*
X00756454Y00381546D01*
X00757282Y00382786D01*
X00757573Y00384250D01*
X00757282Y00385713D01*
X00756654Y00386653D01*
X00756532Y00387500D01*
X00756654Y00388346D01*
X00757282Y00389286D01*
X00757573Y00390750D01*
X00757282Y00392213D01*
X00756654Y00393153D01*
X00756532Y00394000D01*
X00756654Y00394846D01*
X00757282Y00395787D01*
X00757573Y00397250D01*
X00757282Y00398713D01*
X00756654Y00399653D01*
X00756532Y00400500D01*
X00756654Y00401347D01*
X00757282Y00402286D01*
X00757573Y00403750D01*
X00757282Y00405213D01*
X00756654Y00406153D01*
X00756532Y00407000D01*
X00756654Y00407846D01*
X00757282Y00408787D01*
X00757573Y00410250D01*
X00757282Y00411713D01*
X00756654Y00412653D01*
X00756532Y00413500D01*
X00756654Y00414347D01*
X00757282Y00415286D01*
X00757573Y00416750D01*
X00757282Y00418213D01*
X00756654Y00419153D01*
X00756532Y00420000D01*
X00756654Y00420847D01*
X00757282Y00421786D01*
X00757573Y00423250D01*
X00757282Y00424713D01*
X00756654Y00425653D01*
X00756532Y00426500D01*
X00756654Y00427347D01*
X00757282Y00428287D01*
X00757573Y00429750D01*
X00757282Y00431213D01*
X00756654Y00432153D01*
X00756532Y00433000D01*
X00756654Y00433847D01*
X00757282Y00434787D01*
X00757573Y00436250D01*
X00757282Y00437713D01*
X00756654Y00438653D01*
X00756532Y00439500D01*
X00756654Y00440347D01*
X00757282Y00441287D01*
X00757573Y00442750D01*
X00757282Y00444213D01*
X00756654Y00445153D01*
X00756532Y00446000D01*
X00756654Y00446847D01*
X00757282Y00447787D01*
X00757573Y00449250D01*
X00757282Y00450713D01*
X00756654Y00451653D01*
X00756532Y00452500D01*
X00756654Y00453347D01*
X00757282Y00454287D01*
X00757573Y00455750D01*
X00757282Y00457213D01*
X00756654Y00458153D01*
X00756532Y00459000D01*
X00756654Y00459847D01*
X00757282Y00460787D01*
X00757573Y00462250D01*
X00757282Y00463713D01*
X00756654Y00464653D01*
X00756532Y00465500D01*
X00756654Y00466347D01*
X00757282Y00467287D01*
X00757573Y00468750D01*
X00757282Y00470213D01*
X00756454Y00471453D01*
X00755213Y00472282D01*
X00753750Y00472573D01*
X00753732Y00472570D01*
X00752750Y00473375D01*
Y00474250D01*
X00741750D01*
Y00476250D01*
X00752750D01*
Y00477124D01*
X00753732Y00477930D01*
X00753750Y00477926D01*
X00755213Y00478217D01*
X00756454Y00479046D01*
X00757282Y00480287D01*
X00757573Y00481750D01*
X00757477Y00482233D01*
X00780033Y00504788D01*
X00781206Y00504302D01*
D02*
G37*
G36*
X00807143Y00463900D02*
X00806894Y00462352D01*
X00806295Y00461953D01*
X00805467Y00460712D01*
X00805175Y00459249D01*
X00805467Y00457786D01*
X00806295Y00456545D01*
X00807536Y00455717D01*
X00808999Y00455426D01*
X00810462Y00455717D01*
X00811702Y00456545D01*
X00811936Y00456895D01*
X00813206Y00456510D01*
Y00452241D01*
X00811936Y00451856D01*
X00811704Y00452204D01*
X00810463Y00453032D01*
X00809000Y00453323D01*
X00807537Y00453032D01*
X00806296Y00452204D01*
X00805468Y00450963D01*
X00805177Y00449500D01*
X00805468Y00448037D01*
X00806296Y00446796D01*
X00807537Y00445968D01*
X00809000Y00445677D01*
X00810463Y00445968D01*
X00811704Y00446796D01*
X00811936Y00447144D01*
X00813206Y00446759D01*
Y00443189D01*
X00811936Y00442549D01*
X00811213Y00443032D01*
X00809750Y00443323D01*
X00808287Y00443032D01*
X00807046Y00442204D01*
X00806218Y00440963D01*
X00805927Y00439500D01*
X00806218Y00438037D01*
X00807046Y00436796D01*
X00808287Y00435968D01*
X00809750Y00435677D01*
X00811213Y00435968D01*
X00811936Y00436451D01*
X00813206Y00435811D01*
Y00379189D01*
X00811936Y00378549D01*
X00811213Y00379033D01*
X00810705Y00379134D01*
X00810121Y00380545D01*
X00810282Y00380787D01*
X00810573Y00382250D01*
X00810282Y00383713D01*
X00809454Y00384954D01*
X00808213Y00385782D01*
X00806750Y00386073D01*
X00805287Y00385782D01*
X00804046Y00384954D01*
X00804044Y00384950D01*
X00802774Y00385335D01*
Y00387931D01*
X00804044Y00388849D01*
X00804750Y00388709D01*
X00806213Y00389000D01*
X00807454Y00389829D01*
X00808282Y00391069D01*
X00808573Y00392532D01*
X00808282Y00393995D01*
X00807454Y00395236D01*
X00806213Y00396065D01*
X00804750Y00396356D01*
X00803784Y00397224D01*
X00804921Y00398048D01*
X00805532Y00397926D01*
X00806995Y00398218D01*
X00808236Y00399046D01*
X00809065Y00400287D01*
X00809356Y00401750D01*
X00809065Y00403213D01*
X00808236Y00404454D01*
X00806995Y00405282D01*
X00806256Y00405429D01*
Y00406724D01*
X00807462Y00406964D01*
X00808702Y00407793D01*
X00809531Y00409034D01*
X00809822Y00410497D01*
X00809531Y00411960D01*
X00808702Y00413200D01*
X00807462Y00414029D01*
X00805999Y00414320D01*
X00804536Y00414029D01*
X00804044Y00413701D01*
X00802774Y00414380D01*
Y00424448D01*
X00804044Y00425126D01*
X00804286Y00424965D01*
X00805749Y00424674D01*
X00807212Y00424965D01*
X00808452Y00425794D01*
X00809281Y00427034D01*
X00809572Y00428498D01*
X00809281Y00429961D01*
X00808452Y00431201D01*
X00807212Y00432030D01*
X00805749Y00432321D01*
X00804286Y00432030D01*
X00804044Y00431869D01*
X00802774Y00432547D01*
Y00466472D01*
X00804044Y00466998D01*
X00807143Y00463900D01*
D02*
G37*
G36*
X00911250Y00384846D02*
Y00381000D01*
X00920750D01*
Y00358500D01*
X00896750D01*
Y00366516D01*
X00897250Y00366926D01*
X00898713Y00367218D01*
X00899954Y00368046D01*
X00900782Y00369287D01*
X00901073Y00370750D01*
X00900782Y00372213D01*
X00899954Y00373454D01*
X00899654Y00373654D01*
X00899586Y00373954D01*
X00899741Y00375123D01*
X00900122Y00375378D01*
X00910077Y00385332D01*
X00911250Y00384846D01*
D02*
G37*
G36*
X00823646Y00527754D02*
X00823302Y00526374D01*
X00823046Y00526203D01*
X00822218Y00524963D01*
X00822193Y00524839D01*
X00804545D01*
X00803667Y00524664D01*
X00802923Y00524167D01*
X00795858Y00517102D01*
X00795361Y00516358D01*
X00795186Y00515480D01*
Y00374520D01*
X00795361Y00373642D01*
X00795858Y00372898D01*
X00798773Y00369983D01*
X00798677Y00369500D01*
X00798680Y00369482D01*
X00797875Y00368500D01*
X00797000D01*
Y00357500D01*
X00795000D01*
Y00368500D01*
X00794126D01*
X00793320Y00369482D01*
X00793324Y00369500D01*
X00793032Y00370963D01*
X00792204Y00372203D01*
X00791794Y00372477D01*
Y00519314D01*
X00801456Y00528976D01*
X00822951D01*
X00823646Y00527754D01*
D02*
G37*
D12*
X00894000Y00374000D02*
X00897250Y00370750D01*
X00885000Y00374000D02*
X00894000D01*
X00867642Y00374750D02*
X00873085Y00380193D01*
X00867500Y00369500D02*
X00875000Y00377000D01*
X00873085Y00380193D02*
X00897450D01*
X00898500Y00377000D02*
X00909972Y00388472D01*
X00897450Y00380193D02*
X00906972Y00389714D01*
X00875000Y00377000D02*
X00898500D01*
X00909972Y00388472D02*
Y00415368D01*
X00906972Y00389714D02*
Y00411778D01*
X00865533Y00377750D02*
X00872763Y00384980D01*
X00895750D01*
X00866606Y00383500D02*
X00872356Y00389250D01*
X00899794D01*
X00903972Y00393428D01*
X00835782Y00449626D02*
X00858868D01*
X00844533Y00442283D02*
X00848020Y00445770D01*
X00859255D01*
X00870500Y00457015D01*
X00858868Y00449626D02*
X00867500Y00458257D01*
X00836094Y00442283D02*
X00844533D01*
X00854646Y00526646D02*
Y00526646D01*
X00798993Y00538500D02*
X00842792D01*
X00854646Y00526646D01*
X00843364Y00429748D02*
X00846384Y00426728D01*
X00854474D01*
X00836000Y00429748D02*
X00843364D01*
X00836000Y00429748D02*
X00836000Y00429748D01*
X00859750Y00374750D02*
X00867642D01*
X00856250Y00377750D02*
X00865533D01*
X00852093Y00383500D02*
X00866606D01*
X00842750Y00387000D02*
X00865468D01*
X00873664Y00395196D02*
X00899702D01*
X00865468Y00387000D02*
X00873664Y00395196D01*
X00880500Y00369500D02*
X00885000Y00374000D01*
X00903972Y00393428D02*
Y00409778D01*
X00901484Y00412266D02*
X00903972Y00409778D01*
X00901484Y00412266D02*
Y00422734D01*
X00904484Y00414266D02*
X00906972Y00411778D01*
X00909000Y00416340D02*
X00909972Y00415368D01*
X00861500Y00467250D02*
Y00534993D01*
X00853750Y00459500D02*
X00861500Y00467250D01*
X00837750Y00455500D02*
X00838324Y00454926D01*
X00859926D02*
X00864500Y00459500D01*
X00838324Y00454926D02*
X00859926D01*
X00837500Y00532253D02*
Y00532253D01*
X00834253Y00535500D02*
X00837500Y00532253D01*
X00800235Y00535500D02*
X00834253D01*
X00859200Y00437230D02*
X00859201D01*
X00836750Y00435748D02*
X00857718D01*
X00859200Y00437230D01*
X00859201D02*
X00876500Y00454529D01*
X00857211Y00430998D02*
X00860443Y00434230D01*
X00854501Y00430998D02*
X00857211D01*
X00860443Y00434230D02*
X00860443D01*
X00879500Y00453287D01*
X00863958Y00446230D02*
X00863958D01*
X00859802Y00442074D02*
X00863958Y00446230D01*
X00855324Y00442074D02*
X00859802D01*
X00854474Y00426728D02*
X00857183D01*
X00873500Y00455772D02*
Y00539963D01*
X00879500Y00453287D02*
Y00542448D01*
X00870500Y00457015D02*
Y00538720D01*
X00876500Y00454529D02*
Y00541206D01*
X00867500Y00458257D02*
Y00537478D01*
X00854750Y00441500D02*
X00855324Y00442074D01*
X00863958Y00446230D02*
X00873500Y00455772D01*
X00854474Y00426728D02*
X00854474Y00426728D01*
X00857183D02*
X00882500Y00452044D01*
Y00543691D01*
X00864500Y00459500D02*
Y00536235D01*
X00830770Y00382020D02*
Y00502480D01*
X00800480Y00378020D02*
Y00511264D01*
X00797480Y00374520D02*
Y00515480D01*
X00804729Y00469558D02*
Y00511270D01*
X00825750Y00507500D02*
X00830770Y00502480D01*
X00828500Y00379750D02*
X00830770Y00382020D01*
X00821426Y00370074D02*
Y00499824D01*
X00813750Y00507500D02*
X00821426Y00499824D01*
X00811748Y00509501D02*
X00813750Y00507500D01*
X00821426Y00370074D02*
X00822000Y00369500D01*
X00808999Y00509501D02*
X00811748D01*
X00797750Y00541500D02*
X00854993D01*
X00796507Y00544500D02*
X00856235D01*
X00795250Y00547500D02*
X00857478D01*
X00794007Y00550500D02*
X00858720D01*
X00792765Y00553500D02*
X00859963D01*
X00791522Y00556500D02*
X00861206D01*
X00790280Y00559500D02*
X00862448D01*
X00789037Y00562500D02*
X00863691D01*
X00828500Y00369500D02*
Y00379750D01*
X00825100Y00515500D02*
X00825750D01*
X00863691Y00562500D02*
X00882500Y00543691D01*
X00862448Y00559500D02*
X00879500Y00542448D01*
X00861206Y00556500D02*
X00876500Y00541206D01*
X00859963Y00553500D02*
X00873500Y00539963D01*
X00858720Y00550500D02*
X00870500Y00538720D01*
X00857478Y00547500D02*
X00867500Y00537478D01*
X00856235Y00544500D02*
X00864500Y00536235D01*
X00854993Y00541500D02*
X00861500Y00534993D01*
X00904484Y00414266D02*
Y00417862D01*
X00833480Y00377730D02*
X00842750Y00387000D01*
X00833480Y00371832D02*
Y00377730D01*
X00841500Y00372907D02*
X00852093Y00383500D01*
X00841500Y00369500D02*
Y00372907D01*
X00848000Y00369500D02*
X00856250Y00377750D01*
X00854500Y00369500D02*
X00859750Y00374750D01*
X00904484Y00417862D02*
X00908754Y00422132D01*
X00901484Y00422734D02*
X00908500Y00429750D01*
X00825482Y00531270D02*
X00827250Y00529502D01*
X00800505Y00531270D02*
X00825482D01*
X00789500Y00520265D02*
X00800505Y00531270D01*
X00797480Y00515480D02*
X00804545Y00522545D01*
X00823166D02*
X00823547Y00522926D01*
X00804545Y00522545D02*
X00823166D01*
X00825176Y00522926D02*
X00825750Y00523500D01*
X00823547Y00522926D02*
X00825176D01*
X00807468Y00518252D02*
X00808999D01*
X00800480Y00511264D02*
X00807468Y00518252D01*
X00807230Y00513772D02*
X00823371D01*
X00804729Y00511270D02*
X00807230Y00513772D01*
X00823371D02*
X00825100Y00515500D01*
X00804729Y00469558D02*
X00815500Y00458787D01*
X00783500Y00523007D02*
X00798993Y00538500D01*
X00797500Y00541250D02*
X00797750Y00541500D01*
X00797485Y00541250D02*
X00797500D01*
X00780250Y00524015D02*
X00797485Y00541250D01*
X00796257Y00544250D02*
X00796507Y00544500D01*
X00796243Y00544250D02*
X00796257D01*
X00777250Y00525257D02*
X00796243Y00544250D01*
X00774250Y00526500D02*
X00795250Y00547500D01*
X00793750Y00550243D02*
X00794007Y00550500D01*
X00793713Y00550243D02*
X00793750D01*
X00771250Y00527779D02*
X00793713Y00550243D01*
X00792508Y00553243D02*
X00792765Y00553500D01*
X00792471Y00553243D02*
X00792508D01*
X00768250Y00529022D02*
X00792471Y00553243D01*
X00791265Y00556243D02*
X00791522Y00556500D01*
X00791228Y00556243D02*
X00791265D01*
X00765250Y00530265D02*
X00791228Y00556243D01*
X00790030Y00559250D02*
X00790280Y00559500D01*
X00789993Y00559250D02*
X00790030D01*
X00762250Y00531507D02*
X00789993Y00559250D01*
X00788787Y00562250D02*
X00789037Y00562500D01*
X00788750Y00562250D02*
X00788787D01*
X00753750Y00527250D02*
X00788750Y00562250D01*
X00753750Y00507750D02*
X00768250Y00522250D01*
X00753750Y00514250D02*
X00765250Y00525750D01*
X00753750Y00520750D02*
X00762250Y00529250D01*
X00753750Y00501250D02*
X00771250Y00518750D01*
X00753750Y00494750D02*
X00774250Y00515250D01*
X00771250Y00518750D02*
Y00527779D01*
X00786500Y00521765D02*
X00800235Y00535500D01*
X00768250Y00522250D02*
Y00529022D01*
X00765250Y00525750D02*
Y00530265D01*
X00762250Y00529250D02*
Y00531507D01*
X00815500Y00369500D02*
Y00458787D01*
X00797480Y00374520D02*
X00802500Y00369500D01*
X00800480Y00378020D02*
X00809000Y00369500D01*
X00833480Y00371832D02*
X00835000Y00370312D01*
X00908754Y00422132D02*
Y00422997D01*
X00786500Y00373000D02*
Y00521765D01*
X00783500Y00383000D02*
Y00523007D01*
X00789500Y00369500D02*
Y00520265D01*
X00780250Y00508250D02*
Y00524015D01*
X00753750Y00481750D02*
X00780250Y00508250D01*
X00774250Y00515250D02*
Y00526500D01*
X00777250Y00511750D02*
Y00525257D01*
X00753750Y00488250D02*
X00777250Y00511750D01*
X00770000Y00369500D02*
X00783500Y00383000D01*
X00783000Y00369500D02*
X00786500Y00373000D01*
X00796000Y00369500D02*
X00796000Y00369500D01*
X00835000D02*
Y00370312D01*
X00916751Y00578000D02*
Y00586997D01*
X00921250Y00582499D01*
X00915252D01*
D14*
X00741750Y00566250D02*
D03*
Y00572750D02*
D03*
Y00559750D02*
D03*
Y00546750D02*
D03*
Y00553250D02*
D03*
Y00533750D02*
D03*
Y00540250D02*
D03*
Y00520750D02*
D03*
Y00527250D02*
D03*
Y00507750D02*
D03*
Y00514250D02*
D03*
Y00494750D02*
D03*
Y00501250D02*
D03*
Y00481750D02*
D03*
Y00488250D02*
D03*
Y00397250D02*
D03*
Y00390750D02*
D03*
Y00410250D02*
D03*
Y00403750D02*
D03*
Y00423250D02*
D03*
Y00416750D02*
D03*
Y00436250D02*
D03*
Y00429750D02*
D03*
Y00449250D02*
D03*
Y00442750D02*
D03*
Y00462250D02*
D03*
Y00455750D02*
D03*
Y00468750D02*
D03*
Y00475250D02*
D03*
Y00384250D02*
D03*
X00921750Y00572750D02*
D03*
Y00481750D02*
D03*
Y00488250D02*
D03*
Y00501250D02*
D03*
Y00494750D02*
D03*
Y00514250D02*
D03*
Y00507750D02*
D03*
Y00527250D02*
D03*
Y00520750D02*
D03*
Y00540250D02*
D03*
Y00533750D02*
D03*
Y00553250D02*
D03*
Y00546750D02*
D03*
Y00566250D02*
D03*
Y00559750D02*
D03*
Y00468750D02*
D03*
Y00475250D02*
D03*
Y00455750D02*
D03*
Y00462250D02*
D03*
Y00442750D02*
D03*
Y00449250D02*
D03*
Y00429750D02*
D03*
Y00436250D02*
D03*
Y00416750D02*
D03*
Y00423250D02*
D03*
Y00403750D02*
D03*
Y00410250D02*
D03*
Y00397250D02*
D03*
Y00384250D02*
D03*
Y00390750D02*
D03*
D15*
X00867500Y00357500D02*
D03*
X00874000D02*
D03*
X00887000D02*
D03*
X00880500D02*
D03*
X00893500D02*
D03*
X00854500D02*
D03*
X00861000D02*
D03*
X00841500D02*
D03*
X00848000D02*
D03*
X00828500D02*
D03*
X00835000D02*
D03*
X00815500D02*
D03*
X00822000D02*
D03*
X00802500D02*
D03*
X00809000D02*
D03*
X00789500D02*
D03*
X00796000D02*
D03*
X00783000D02*
D03*
X00770000D02*
D03*
X00776500D02*
D03*
X00887000Y00599500D02*
D03*
X00893500D02*
D03*
X00880500D02*
D03*
X00867500D02*
D03*
X00874000D02*
D03*
X00854500D02*
D03*
X00861000D02*
D03*
X00841500D02*
D03*
X00848000D02*
D03*
X00828500D02*
D03*
X00835000D02*
D03*
X00815500D02*
D03*
X00822000D02*
D03*
X00802500D02*
D03*
X00809000D02*
D03*
X00770000D02*
D03*
X00783000D02*
D03*
X00776500D02*
D03*
X00789500D02*
D03*
X00796000D02*
D03*
D21*
X00909750Y00546750D02*
X00921750D01*
X00809000Y00587500D02*
Y00599500D01*
X00741750Y00546750D02*
X00753750D01*
X00741750Y00527250D02*
X00753750D01*
X00741750Y00507750D02*
X00753750D01*
X00741750Y00533750D02*
X00753750D01*
X00741750Y00540250D02*
X00753750D01*
X00741750Y00514250D02*
X00753750D01*
X00741750Y00520750D02*
X00753750D01*
X00741750Y00501250D02*
X00753750D01*
X00741750Y00494750D02*
X00753750D01*
X00861000Y00357500D02*
Y00369500D01*
X00874000Y00357500D02*
Y00369500D01*
X00880500Y00587500D02*
Y00599500D01*
X00789500Y00357500D02*
Y00369500D01*
X00741750Y00488250D02*
X00753750D01*
X00741750Y00481750D02*
X00753750D01*
X00854500Y00357500D02*
Y00369500D01*
X00867500Y00357500D02*
Y00369500D01*
X00835000Y00357500D02*
Y00369500D01*
X00880500Y00357500D02*
Y00369500D01*
X00741750Y00468750D02*
X00753750D01*
X00741750Y00462250D02*
X00753750D01*
X00741750Y00455750D02*
X00753750D01*
X00741750Y00449250D02*
X00753750D01*
X00741750Y00442750D02*
X00753750D01*
X00741750Y00436250D02*
X00753750D01*
X00741750Y00429750D02*
X00753750D01*
X00741750Y00423250D02*
X00753750D01*
X00741750Y00416750D02*
X00753750D01*
X00741750Y00410250D02*
X00753750D01*
X00909750Y00533750D02*
X00921750D01*
X00909750Y00501250D02*
X00921750D01*
X00909750Y00442750D02*
X00921750D01*
X00909750Y00481750D02*
X00921750D01*
X00909750Y00462250D02*
X00921750D01*
X00909750Y00514250D02*
X00921750D01*
X00909750Y00468750D02*
X00921750D01*
X00909750Y00455750D02*
X00921750D01*
X00909750Y00449250D02*
X00921750D01*
X00909750Y00488250D02*
X00921750D01*
X00909750Y00475250D02*
X00921750D01*
X00909750Y00507750D02*
X00921750D01*
X00909750Y00520750D02*
X00921750D01*
X00909750Y00527250D02*
X00921750D01*
X00909750Y00540250D02*
X00921989D01*
X00783000Y00587500D02*
Y00599500D01*
X00776500Y00587500D02*
Y00599500D01*
X00770000Y00587500D02*
Y00599500D01*
X00909750Y00494750D02*
X00921750D01*
X00909750Y00436250D02*
X00921750D01*
X00887000Y00357500D02*
Y00369500D01*
X00848000Y00357500D02*
Y00369500D01*
X00822000Y00357500D02*
Y00369500D01*
X00828500Y00357500D02*
Y00369500D01*
X00841500Y00357500D02*
Y00369500D01*
X00796000Y00357500D02*
Y00369500D01*
X00802500Y00357500D02*
Y00369500D01*
X00809000Y00357500D02*
Y00369500D01*
X00815500Y00357500D02*
Y00369500D01*
X00770000Y00357500D02*
Y00369500D01*
X00776500Y00357500D02*
Y00369500D01*
X00783000Y00357500D02*
Y00369500D01*
X00741750Y00390750D02*
X00753750D01*
X00741750Y00384250D02*
X00753750D01*
X00741750Y00403750D02*
X00753750D01*
X00741750Y00397250D02*
X00753750D01*
X00741750Y00475250D02*
X00753750D01*
X00741750Y00553250D02*
X00753750D01*
X00741750Y00559750D02*
X00753750D01*
X00741750Y00566250D02*
X00753750D01*
X00741750Y00572750D02*
X00753750D01*
D22*
X00897250Y00370750D02*
D03*
X00918000Y00377250D02*
D03*
X00895750Y00384980D02*
D03*
X00901250Y00361750D02*
D03*
X00835782Y00449626D02*
D03*
X00854646Y00526646D02*
D03*
X00899702Y00395196D02*
D03*
X00837500Y00532253D02*
D03*
X00835000Y00526250D02*
D03*
X00836990Y00464382D02*
D03*
X00837750Y00455500D02*
D03*
X00853750Y00467500D02*
D03*
X00854713Y00476614D02*
D03*
X00854550Y00485200D02*
D03*
X00854501Y00493751D02*
D03*
X00837750Y00511500D02*
D03*
X00836063Y00500375D02*
D03*
X00836624Y00491595D02*
D03*
X00825750Y00491500D02*
D03*
Y00483500D02*
D03*
X00826500Y00476000D02*
D03*
X00835250Y00473000D02*
D03*
X00825750Y00459500D02*
D03*
X00826175Y00450000D02*
D03*
X00809750Y00439500D02*
D03*
X00805749Y00428498D02*
D03*
X00805750Y00419750D02*
D03*
X00809000Y00449500D02*
D03*
X00805999Y00410497D02*
D03*
X00805532Y00401750D02*
D03*
X00835700Y00482938D02*
D03*
X00825750Y00443500D02*
D03*
X00854750Y00441500D02*
D03*
X00809750Y00479500D02*
D03*
Y00487500D02*
D03*
Y00495500D02*
D03*
X00825750Y00499500D02*
D03*
X00854653Y00502340D02*
D03*
X00854484Y00511109D02*
D03*
X00854646Y00519804D02*
D03*
X00853750Y00459500D02*
D03*
X00804750Y00392532D02*
D03*
X00806750Y00382250D02*
D03*
X00836094Y00442283D02*
D03*
X00837750Y00519500D02*
D03*
X00854501Y00430998D02*
D03*
Y00422247D02*
D03*
X00836750Y00435748D02*
D03*
X00836000Y00429748D02*
D03*
X00833000Y00515502D02*
D03*
X00825750Y00507500D02*
D03*
Y00515500D02*
D03*
X00837750Y00423500D02*
D03*
X00836250Y00416250D02*
D03*
X00867000Y00396500D02*
D03*
X00827250Y00529502D02*
D03*
X00809500Y00527000D02*
D03*
X00808999Y00518252D02*
D03*
Y00509501D02*
D03*
X00909750Y00540250D02*
D03*
Y00546750D02*
D03*
X00809000Y00587500D02*
D03*
X00753750Y00546750D02*
D03*
Y00527250D02*
D03*
Y00507750D02*
D03*
Y00533750D02*
D03*
Y00540250D02*
D03*
Y00514250D02*
D03*
Y00520750D02*
D03*
Y00501250D02*
D03*
Y00494750D02*
D03*
X00825750Y00523500D02*
D03*
X00836500Y00410250D02*
D03*
X00909750Y00527250D02*
D03*
Y00507750D02*
D03*
Y00533750D02*
D03*
Y00520750D02*
D03*
Y00514250D02*
D03*
X00825750Y00411500D02*
D03*
X00808999Y00459249D02*
D03*
X00825750Y00419500D02*
D03*
Y00395500D02*
D03*
Y00435500D02*
D03*
Y00427500D02*
D03*
Y00403500D02*
D03*
X00836093Y00395500D02*
D03*
X00909000Y00416340D02*
D03*
X00908754Y00422997D02*
D03*
X00908500Y00429750D02*
D03*
X00809750Y00471500D02*
D03*
X00861000Y00369500D02*
D03*
X00764250Y00378500D02*
D03*
X00910750Y00593500D02*
D03*
X00765000Y00576750D02*
D03*
X00874000Y00369500D02*
D03*
X00753750Y00488250D02*
D03*
Y00481750D02*
D03*
X00854500Y00369500D02*
D03*
X00867500D02*
D03*
X00809750Y00503500D02*
D03*
X00880500Y00369500D02*
D03*
X00753750Y00468750D02*
D03*
Y00462250D02*
D03*
Y00455750D02*
D03*
Y00449250D02*
D03*
Y00442750D02*
D03*
Y00436250D02*
D03*
Y00429750D02*
D03*
Y00423250D02*
D03*
Y00416750D02*
D03*
Y00410250D02*
D03*
X00909750Y00468750D02*
D03*
Y00462250D02*
D03*
Y00442750D02*
D03*
Y00449250D02*
D03*
Y00455750D02*
D03*
X00809750Y00375500D02*
D03*
X00837750D02*
D03*
X00789500Y00369500D02*
D03*
X00828500D02*
D03*
X00835000D02*
D03*
X00822000D02*
D03*
X00841500D02*
D03*
X00796000D02*
D03*
X00783000D02*
D03*
X00848000D02*
D03*
X00753750Y00403750D02*
D03*
Y00397250D02*
D03*
Y00390750D02*
D03*
Y00384250D02*
D03*
Y00475250D02*
D03*
Y00553250D02*
D03*
X00909750Y00501250D02*
D03*
X00753750Y00559750D02*
D03*
Y00566250D02*
D03*
Y00572750D02*
D03*
X00783000Y00587500D02*
D03*
X00776500D02*
D03*
X00770000D02*
D03*
X00880500D02*
D03*
X00770000Y00369500D02*
D03*
X00776500D02*
D03*
X00815500D02*
D03*
X00809000D02*
D03*
X00802500D02*
D03*
X00887000D02*
D03*
X00909750Y00475250D02*
D03*
Y00481750D02*
D03*
Y00488250D02*
D03*
Y00494750D02*
D03*
Y00436250D02*
D03*
M02*
