G04*
G04 #@! TF.GenerationSoftware,Altium Limited,Altium Designer,21.7.2 (23)*
G04*
G04 Layer_Physical_Order=1*
G04 Layer_Color=255*
%FSAX44Y44*%
%MOMM*%
G71*
G04*
G04 #@! TF.SameCoordinates,8073F22B-F9D6-4515-8FA4-32CADCE011FE*
G04*
G04*
G04 #@! TF.FilePolarity,Positive*
G04*
G01*
G75*
%ADD12C,0.1500*%
%ADD13C,0.3000*%
%ADD14R,0.9500X0.2000*%
%ADD19R,1.8000X0.3500*%
%ADD20R,0.3500X1.8000*%
%ADD21C,0.2000*%
%ADD22C,0.4500*%
G36*
X00920750Y00589000D02*
X00898070Y00589000D01*
Y00590008D01*
X00896750D01*
Y00598500D01*
X00920750D01*
Y00589000D01*
D02*
G37*
G36*
X00886761Y00589000D02*
X00888031Y00587730D01*
X00888031Y00576500D01*
X00889071D01*
Y00575011D01*
X00898070D01*
Y00576500D01*
X00910187Y00576500D01*
X00911250Y00575230D01*
Y00570770D01*
X00911250Y00569500D01*
X00911250D01*
Y00569500D01*
X00911250D01*
Y00564270D01*
X00911250Y00563000D01*
X00911250D01*
Y00563000D01*
X00911250D01*
Y00557770D01*
X00911250Y00556500D01*
X00911250D01*
Y00556500D01*
X00911250D01*
Y00551570D01*
X00909980Y00550528D01*
X00909750Y00550574D01*
X00908287Y00550283D01*
X00907046Y00549454D01*
X00906218Y00548214D01*
X00905927Y00546750D01*
X00906218Y00545287D01*
X00906846Y00544347D01*
X00906968Y00543500D01*
X00906846Y00542653D01*
X00906218Y00541713D01*
X00905927Y00540250D01*
X00906218Y00538787D01*
X00906846Y00537847D01*
X00906968Y00537000D01*
X00906846Y00536153D01*
X00906218Y00535213D01*
X00905927Y00533750D01*
X00906218Y00532287D01*
X00906846Y00531347D01*
X00906968Y00530500D01*
X00906846Y00529653D01*
X00906218Y00528713D01*
X00905927Y00527250D01*
X00906218Y00525787D01*
X00906846Y00524847D01*
X00906968Y00524000D01*
X00906846Y00523153D01*
X00906218Y00522213D01*
X00905927Y00520750D01*
X00906218Y00519287D01*
X00906846Y00518347D01*
X00906968Y00517500D01*
X00906846Y00516653D01*
X00906218Y00515713D01*
X00905927Y00514250D01*
X00906218Y00512787D01*
X00906846Y00511847D01*
X00906968Y00511000D01*
X00906846Y00510153D01*
X00906218Y00509213D01*
X00905927Y00507750D01*
X00906218Y00506287D01*
X00906846Y00505347D01*
X00906968Y00504500D01*
X00906846Y00503653D01*
X00906218Y00502713D01*
X00905927Y00501250D01*
X00906218Y00499787D01*
X00907046Y00498547D01*
X00908287Y00497718D01*
X00909750Y00497427D01*
X00909768Y00497430D01*
X00910750Y00496625D01*
Y00495750D01*
X00921750D01*
Y00493750D01*
X00910750D01*
Y00492876D01*
X00909768Y00492070D01*
X00909750Y00492074D01*
X00908287Y00491783D01*
X00907046Y00490954D01*
X00906218Y00489713D01*
X00905927Y00488250D01*
X00906218Y00486787D01*
X00906846Y00485847D01*
X00906968Y00485000D01*
X00906846Y00484153D01*
X00906218Y00483213D01*
X00905927Y00481750D01*
X00906218Y00480287D01*
X00906846Y00479347D01*
X00906968Y00478500D01*
X00906846Y00477653D01*
X00906218Y00476713D01*
X00905927Y00475250D01*
X00906218Y00473787D01*
X00906846Y00472847D01*
X00906968Y00472000D01*
X00906846Y00471153D01*
X00906218Y00470213D01*
X00905927Y00468750D01*
X00906218Y00467287D01*
X00906846Y00466347D01*
X00906968Y00465500D01*
X00906846Y00464653D01*
X00906218Y00463713D01*
X00905927Y00462250D01*
X00906218Y00460787D01*
X00906846Y00459847D01*
X00906968Y00459000D01*
X00906846Y00458153D01*
X00906218Y00457213D01*
X00905927Y00455750D01*
X00906218Y00454287D01*
X00906846Y00453347D01*
X00906968Y00452500D01*
X00906846Y00451653D01*
X00906218Y00450713D01*
X00905927Y00449250D01*
X00906218Y00447787D01*
X00906846Y00446847D01*
X00906968Y00446000D01*
X00906846Y00445153D01*
X00906218Y00444213D01*
X00905927Y00442750D01*
X00906218Y00441287D01*
X00906846Y00440347D01*
X00906968Y00439500D01*
X00906846Y00438653D01*
X00906218Y00437713D01*
X00905927Y00436250D01*
X00906218Y00434787D01*
X00906514Y00434344D01*
X00906952Y00433455D01*
X00906190Y00432716D01*
X00905796Y00432454D01*
X00904968Y00431213D01*
X00904677Y00429750D01*
X00904968Y00428287D01*
X00905791Y00427055D01*
X00906050Y00426650D01*
Y00425701D01*
X00905221Y00424460D01*
X00904930Y00422997D01*
X00905221Y00421534D01*
X00906050Y00420294D01*
X00906061Y00420287D01*
X00906092Y00418738D01*
X00905468Y00417803D01*
X00905177Y00416340D01*
X00905468Y00414877D01*
X00906296Y00413636D01*
X00907537Y00412808D01*
X00909000Y00412516D01*
X00909980Y00412711D01*
X00911250Y00411922D01*
Y00408270D01*
X00911250Y00407000D01*
X00911250D01*
Y00407000D01*
X00911250D01*
Y00401770D01*
X00911250Y00400500D01*
X00911250D01*
Y00400500D01*
X00911250D01*
Y00395270D01*
X00911250Y00394000D01*
X00911250D01*
Y00394000D01*
X00911250D01*
Y00388770D01*
X00911250Y00387500D01*
X00911250D01*
Y00387500D01*
X00911250D01*
Y00381000D01*
X00920750D01*
Y00358500D01*
X00896750D01*
Y00366516D01*
X00897250Y00366926D01*
X00898713Y00367218D01*
X00899954Y00368046D01*
X00900782Y00369287D01*
X00901073Y00370750D01*
X00900782Y00372213D01*
X00899954Y00373454D01*
X00898713Y00374282D01*
X00897250Y00374573D01*
X00895787Y00374282D01*
X00894546Y00373454D01*
X00893718Y00372213D01*
X00893427Y00370750D01*
X00893718Y00369287D01*
X00893729Y00369270D01*
X00893050Y00368000D01*
X00891820D01*
X00890778Y00369270D01*
X00890824Y00369500D01*
X00890533Y00370963D01*
X00889704Y00372203D01*
X00888463Y00373032D01*
X00887000Y00373323D01*
X00885537Y00373032D01*
X00884597Y00372404D01*
X00883750Y00372282D01*
X00882903Y00372404D01*
X00881963Y00373032D01*
X00880500Y00373323D01*
X00879037Y00373032D01*
X00877797Y00372203D01*
X00876704D01*
X00875463Y00373032D01*
X00874000Y00373323D01*
X00872537Y00373032D01*
X00871297Y00372203D01*
X00870204D01*
X00868963Y00373032D01*
X00867500Y00373323D01*
X00866037Y00373032D01*
X00864797Y00372203D01*
X00863704D01*
X00862463Y00373032D01*
X00861000Y00373323D01*
X00859537Y00373032D01*
X00858297Y00372203D01*
X00857204D01*
X00855963Y00373032D01*
X00854500Y00373323D01*
X00853420Y00373109D01*
X00852398Y00373706D01*
X00852150Y00373967D01*
Y00376951D01*
X00854050D01*
X00854050Y00376951D01*
X00869000D01*
X00869976Y00377145D01*
X00870803Y00377698D01*
X00894052Y00400948D01*
X00894605Y00401774D01*
X00894799Y00402750D01*
Y00552519D01*
X00894605Y00553494D01*
X00894052Y00554321D01*
X00865305Y00583069D01*
X00864478Y00583622D01*
X00863502Y00583816D01*
X00812459D01*
X00812252Y00584084D01*
X00811897Y00585086D01*
X00812532Y00586037D01*
X00812823Y00587500D01*
X00812777Y00587730D01*
X00813820Y00589000D01*
X00817480D01*
X00818750Y00589000D01*
Y00589000D01*
X00818750D01*
Y00589000D01*
X00823980D01*
X00825250Y00589000D01*
Y00589000D01*
X00825250D01*
Y00589000D01*
X00830480D01*
X00831750Y00589000D01*
Y00589000D01*
X00831750D01*
Y00589000D01*
X00836980D01*
X00838250Y00589000D01*
Y00589000D01*
X00838250D01*
Y00589000D01*
X00843480D01*
X00844750Y00589000D01*
Y00589000D01*
X00844750D01*
Y00589000D01*
X00849980D01*
X00851250Y00589000D01*
Y00589000D01*
X00851250D01*
Y00589000D01*
X00856480D01*
X00857750Y00589000D01*
Y00589000D01*
X00857750D01*
Y00589000D01*
X00862980D01*
X00864250Y00589000D01*
Y00589000D01*
X00864250D01*
Y00589000D01*
X00869480D01*
X00870750Y00589000D01*
Y00589000D01*
X00870750D01*
Y00589000D01*
X00875680D01*
X00876722Y00587730D01*
X00876676Y00587500D01*
X00876968Y00586037D01*
X00877796Y00584796D01*
X00879037Y00583968D01*
X00880500Y00583677D01*
X00881963Y00583968D01*
X00883204Y00584796D01*
X00884032Y00586037D01*
X00884323Y00587500D01*
X00884278Y00587730D01*
X00885320Y00589000D01*
X00886761D01*
D02*
G37*
G36*
X00766750Y00589386D02*
X00766467Y00588963D01*
X00766176Y00587500D01*
X00766467Y00586037D01*
X00767296Y00584796D01*
X00768537Y00583968D01*
X00770000Y00583677D01*
X00770483Y00583773D01*
X00796538Y00557717D01*
X00796052Y00556544D01*
X00773200D01*
X00757477Y00572267D01*
X00757573Y00572750D01*
X00757282Y00574213D01*
X00756454Y00575454D01*
X00755213Y00576282D01*
X00753750Y00576573D01*
X00752287Y00576282D01*
X00751864Y00576000D01*
X00742750D01*
Y00598500D01*
X00766750D01*
Y00589386D01*
D02*
G37*
G36*
X00766128Y00537628D02*
X00766872Y00537131D01*
X00767750Y00536956D01*
X00767750Y00536956D01*
X00834930D01*
X00835132Y00536707D01*
X00834875Y00535009D01*
X00834797Y00534956D01*
X00833968Y00533716D01*
X00833677Y00532253D01*
X00833945Y00530904D01*
X00833537Y00529782D01*
X00832296Y00528954D01*
X00832243Y00528874D01*
X00831047Y00529369D01*
X00831073Y00529502D01*
X00830782Y00530966D01*
X00829953Y00532206D01*
X00828713Y00533035D01*
X00827250Y00533326D01*
X00827067Y00533290D01*
X00827055Y00533302D01*
X00826228Y00533855D01*
X00825252Y00534049D01*
X00817600D01*
X00817354Y00534000D01*
X00811350D01*
Y00530500D01*
X00810850D01*
Y00528500D01*
X00817600D01*
Y00526500D01*
X00810850D01*
Y00524500D01*
X00811350D01*
Y00522049D01*
X00809450D01*
X00809291Y00522017D01*
X00808999Y00522075D01*
X00807536Y00521784D01*
X00806295Y00520956D01*
X00805467Y00519715D01*
X00805175Y00518252D01*
X00805467Y00516789D01*
X00806295Y00515548D01*
X00807536Y00514720D01*
X00807763Y00513379D01*
X00807647Y00513302D01*
X00807414Y00512952D01*
X00806295Y00512205D01*
X00805467Y00510965D01*
X00805175Y00509501D01*
X00805467Y00508038D01*
X00806295Y00506798D01*
X00806384Y00505211D01*
X00806218Y00504963D01*
X00805927Y00503500D01*
X00806218Y00502037D01*
X00807046Y00500796D01*
X00807931Y00500205D01*
X00807986Y00500024D01*
Y00498975D01*
X00807931Y00498794D01*
X00807046Y00498204D01*
X00806218Y00496963D01*
X00805927Y00495500D01*
X00806218Y00494037D01*
X00807046Y00492796D01*
X00807931Y00492206D01*
X00807986Y00492024D01*
Y00490975D01*
X00807931Y00490794D01*
X00807046Y00490204D01*
X00806218Y00488963D01*
X00805927Y00487500D01*
X00806218Y00486037D01*
X00807046Y00484796D01*
X00807931Y00484206D01*
X00807986Y00484024D01*
Y00482976D01*
X00807931Y00482794D01*
X00807046Y00482203D01*
X00806218Y00480963D01*
X00805927Y00479500D01*
X00806218Y00478037D01*
X00807046Y00476796D01*
X00807931Y00476205D01*
X00807986Y00476024D01*
Y00474976D01*
X00807931Y00474794D01*
X00807046Y00474203D01*
X00806218Y00472963D01*
X00805927Y00471500D01*
X00806218Y00470037D01*
X00807046Y00468796D01*
X00808287Y00467967D01*
X00809750Y00467677D01*
X00810080Y00467742D01*
X00811350Y00466700D01*
Y00463599D01*
X00810080Y00462857D01*
X00808999Y00463073D01*
X00807536Y00462781D01*
X00806295Y00461953D01*
X00805467Y00460712D01*
X00805175Y00459249D01*
X00805467Y00457786D01*
X00806295Y00456545D01*
X00807536Y00455717D01*
X00808650Y00455495D01*
X00809658Y00454487D01*
X00809032Y00453317D01*
X00809000Y00453323D01*
X00807537Y00453032D01*
X00806296Y00452204D01*
X00805468Y00450963D01*
X00805177Y00449500D01*
X00805468Y00448037D01*
X00806296Y00446796D01*
X00807537Y00445968D01*
X00809000Y00445677D01*
X00809534Y00445783D01*
X00809619Y00445698D01*
X00810446Y00445145D01*
X00810624Y00444305D01*
X00809883Y00443473D01*
X00809646Y00443303D01*
X00808287Y00443032D01*
X00807046Y00442204D01*
X00806218Y00440963D01*
X00805927Y00439500D01*
X00806218Y00438037D01*
X00807046Y00436796D01*
X00808287Y00435968D01*
X00809400Y00435746D01*
X00810136Y00434844D01*
X00810299Y00434491D01*
X00810141Y00434049D01*
X00808751D01*
X00807776Y00433855D01*
X00806949Y00433302D01*
X00805931Y00432285D01*
X00805749Y00432321D01*
X00804286Y00432030D01*
X00803045Y00431201D01*
X00802216Y00429961D01*
X00801925Y00428498D01*
X00802216Y00427034D01*
X00803045Y00425794D01*
X00804286Y00424965D01*
X00805749Y00424674D01*
X00807212Y00424965D01*
X00808452Y00425794D01*
X00809281Y00427034D01*
X00809398Y00427622D01*
X00810813Y00428228D01*
X00811350Y00427889D01*
Y00426500D01*
X00810850D01*
Y00424500D01*
X00817600D01*
Y00422500D01*
X00810850D01*
Y00420500D01*
X00811350D01*
Y00418049D01*
X00811002D01*
X00810027Y00417855D01*
X00809200Y00417302D01*
X00806181Y00414284D01*
X00805999Y00414320D01*
X00804536Y00414029D01*
X00803295Y00413200D01*
X00802466Y00411960D01*
X00802175Y00410497D01*
X00802466Y00409034D01*
X00803295Y00407793D01*
X00804536Y00406964D01*
X00805275Y00406817D01*
Y00405522D01*
X00804069Y00405282D01*
X00802829Y00404454D01*
X00802000Y00403213D01*
X00801709Y00401750D01*
X00802000Y00400287D01*
X00802829Y00399046D01*
X00804069Y00398218D01*
X00804088Y00398200D01*
X00804567Y00396824D01*
X00804145Y00396235D01*
X00803287Y00396065D01*
X00802046Y00395236D01*
X00801218Y00393995D01*
X00800927Y00392532D01*
X00801218Y00391069D01*
X00802046Y00389829D01*
X00803287Y00389000D01*
X00803644Y00388929D01*
X00804148Y00388149D01*
X00804341Y00387495D01*
X00804201Y00386791D01*
Y00385057D01*
X00804046Y00384954D01*
X00803218Y00383713D01*
X00802927Y00382250D01*
X00803218Y00380787D01*
X00804046Y00379546D01*
X00805287Y00378718D01*
X00805795Y00378616D01*
X00806379Y00377205D01*
X00806218Y00376963D01*
X00805927Y00375500D01*
X00806218Y00374037D01*
X00806360Y00373824D01*
X00806077Y00372583D01*
X00805031Y00372319D01*
X00803963Y00373032D01*
X00802500Y00373323D01*
X00801037Y00373032D01*
X00799797Y00372203D01*
X00798968Y00370963D01*
X00798677Y00369500D01*
X00798680Y00369482D01*
X00797875Y00368500D01*
X00797000D01*
Y00357500D01*
X00795000D01*
Y00368500D01*
X00794126D01*
X00793320Y00369482D01*
X00793324Y00369500D01*
X00793032Y00370963D01*
X00792204Y00372203D01*
X00790963Y00373032D01*
X00789500Y00373323D01*
X00788037Y00373032D01*
X00786796Y00372203D01*
X00785704D01*
X00784463Y00373032D01*
X00783000Y00373323D01*
X00781537Y00373032D01*
X00780296Y00372203D01*
X00779204D01*
X00777963Y00373032D01*
X00776500Y00373323D01*
X00775037Y00373032D01*
X00773796Y00372203D01*
X00772704D01*
X00771463Y00373032D01*
X00770000Y00373323D01*
X00768537Y00373032D01*
X00767296Y00372203D01*
X00766468Y00370963D01*
X00766177Y00369500D01*
X00766468Y00368037D01*
X00766750Y00367614D01*
Y00358500D01*
X00742750D01*
Y00381000D01*
X00751864D01*
X00752287Y00380717D01*
X00753750Y00380426D01*
X00755213Y00380717D01*
X00756454Y00381546D01*
X00757282Y00382786D01*
X00757573Y00384250D01*
X00757282Y00385713D01*
X00756654Y00386653D01*
X00756532Y00387500D01*
X00756654Y00388346D01*
X00757282Y00389286D01*
X00757573Y00390750D01*
X00757282Y00392213D01*
X00756654Y00393153D01*
X00756532Y00394000D01*
X00756654Y00394846D01*
X00757282Y00395787D01*
X00757573Y00397250D01*
X00757282Y00398713D01*
X00756654Y00399653D01*
X00756532Y00400500D01*
X00756654Y00401347D01*
X00757282Y00402286D01*
X00757573Y00403750D01*
X00757282Y00405213D01*
X00756654Y00406153D01*
X00756532Y00407000D01*
X00756654Y00407846D01*
X00757282Y00408787D01*
X00757573Y00410250D01*
X00757282Y00411713D01*
X00756654Y00412653D01*
X00756532Y00413500D01*
X00756654Y00414347D01*
X00757282Y00415286D01*
X00757573Y00416750D01*
X00757282Y00418213D01*
X00756654Y00419153D01*
X00756532Y00420000D01*
X00756654Y00420847D01*
X00757282Y00421786D01*
X00757573Y00423250D01*
X00757282Y00424713D01*
X00756654Y00425653D01*
X00756532Y00426500D01*
X00756654Y00427347D01*
X00757282Y00428287D01*
X00757573Y00429750D01*
X00757282Y00431213D01*
X00756654Y00432153D01*
X00756532Y00433000D01*
X00756654Y00433847D01*
X00757282Y00434787D01*
X00757573Y00436250D01*
X00757282Y00437713D01*
X00756654Y00438653D01*
X00756532Y00439500D01*
X00756654Y00440347D01*
X00757282Y00441287D01*
X00757573Y00442750D01*
X00757282Y00444213D01*
X00756654Y00445153D01*
X00756532Y00446000D01*
X00756654Y00446847D01*
X00757282Y00447787D01*
X00757573Y00449250D01*
X00757282Y00450713D01*
X00756654Y00451653D01*
X00756532Y00452500D01*
X00756654Y00453347D01*
X00757282Y00454287D01*
X00757573Y00455750D01*
X00757282Y00457213D01*
X00756654Y00458153D01*
X00756532Y00459000D01*
X00756654Y00459847D01*
X00757282Y00460787D01*
X00757573Y00462250D01*
X00757282Y00463713D01*
X00756654Y00464653D01*
X00756532Y00465500D01*
X00756654Y00466347D01*
X00757282Y00467287D01*
X00757573Y00468750D01*
X00757282Y00470213D01*
X00756454Y00471453D01*
X00755213Y00472282D01*
X00753750Y00472573D01*
X00753732Y00472570D01*
X00752750Y00473375D01*
Y00474250D01*
X00741750D01*
Y00476250D01*
X00752750D01*
Y00477124D01*
X00753732Y00477930D01*
X00753750Y00477926D01*
X00755213Y00478217D01*
X00756454Y00479046D01*
X00757282Y00480287D01*
X00757573Y00481750D01*
X00757282Y00483213D01*
X00756654Y00484153D01*
X00756532Y00485000D01*
X00756654Y00485847D01*
X00757282Y00486787D01*
X00757573Y00488250D01*
X00757282Y00489713D01*
X00756654Y00490653D01*
X00756532Y00491500D01*
X00756654Y00492347D01*
X00757282Y00493287D01*
X00757573Y00494750D01*
X00757282Y00496213D01*
X00756654Y00497153D01*
X00756532Y00498000D01*
X00756654Y00498847D01*
X00757282Y00499787D01*
X00757573Y00501250D01*
X00757282Y00502713D01*
X00756654Y00503653D01*
X00756532Y00504500D01*
X00756654Y00505347D01*
X00757282Y00506287D01*
X00757573Y00507750D01*
X00757282Y00509213D01*
X00756654Y00510153D01*
X00756532Y00511000D01*
X00756654Y00511847D01*
X00757282Y00512787D01*
X00757573Y00514250D01*
X00757282Y00515713D01*
X00756654Y00516653D01*
X00756532Y00517500D01*
X00756654Y00518347D01*
X00757282Y00519287D01*
X00757573Y00520750D01*
X00757282Y00522213D01*
X00756654Y00523153D01*
X00756532Y00524000D01*
X00756654Y00524847D01*
X00757282Y00525787D01*
X00757573Y00527250D01*
X00757282Y00528713D01*
X00756654Y00529653D01*
X00756532Y00530500D01*
X00756654Y00531347D01*
X00757282Y00532287D01*
X00757573Y00533750D01*
X00757282Y00535213D01*
X00756654Y00536153D01*
X00756532Y00537000D01*
X00756654Y00537847D01*
X00757282Y00538787D01*
X00757573Y00540250D01*
X00757282Y00541713D01*
X00756654Y00542653D01*
X00756532Y00543500D01*
X00756654Y00544347D01*
X00757038Y00544921D01*
X00758477Y00545279D01*
X00766128Y00537628D01*
D02*
G37*
G36*
X00829727Y00512624D02*
X00830451Y00511892D01*
Y00509858D01*
X00830645Y00508882D01*
X00831198Y00508055D01*
X00834224Y00505029D01*
X00833970Y00503487D01*
X00833359Y00503078D01*
X00832530Y00501838D01*
X00832239Y00500375D01*
X00832530Y00498912D01*
X00833359Y00497671D01*
X00834599Y00496842D01*
X00834870Y00496344D01*
X00835161Y00495127D01*
X00833920Y00494298D01*
X00833092Y00493058D01*
X00832801Y00491595D01*
X00833092Y00490132D01*
X00833920Y00488891D01*
X00835161Y00488062D01*
X00835445Y00488006D01*
Y00486711D01*
X00834237Y00486471D01*
X00832997Y00485642D01*
X00832168Y00484401D01*
X00831877Y00482938D01*
X00832168Y00481475D01*
X00832997Y00480235D01*
X00834237Y00479406D01*
X00835700Y00479115D01*
X00835882Y00479151D01*
X00837336Y00477697D01*
X00838163Y00477145D01*
X00839138Y00476951D01*
X00839650D01*
Y00475451D01*
X00838380Y00475065D01*
X00837954Y00475704D01*
X00836713Y00476532D01*
X00835250Y00476823D01*
X00833787Y00476532D01*
X00832546Y00475704D01*
X00831718Y00474463D01*
X00831427Y00473000D01*
X00831718Y00471537D01*
X00832546Y00470296D01*
X00833787Y00469468D01*
X00835250Y00469177D01*
X00835618Y00469250D01*
X00835775Y00469145D01*
X00836750Y00468951D01*
X00839650D01*
Y00466500D01*
X00839150D01*
Y00464500D01*
X00845900D01*
Y00462500D01*
X00839150D01*
Y00460500D01*
X00839150Y00460500D01*
Y00460500D01*
X00838681Y00459424D01*
X00838380Y00459198D01*
X00837750Y00459323D01*
X00836287Y00459032D01*
X00835046Y00458204D01*
X00834218Y00456963D01*
X00833927Y00455500D01*
X00834142Y00454418D01*
X00834318Y00453158D01*
X00833078Y00452329D01*
X00832249Y00451089D01*
X00831958Y00449626D01*
X00832249Y00448163D01*
X00833078Y00446922D01*
X00833540Y00446614D01*
Y00445086D01*
X00833390Y00444986D01*
X00832562Y00443746D01*
X00832271Y00442283D01*
X00832562Y00440820D01*
X00833390Y00439579D01*
X00833506Y00439502D01*
X00833660Y00437872D01*
X00833218Y00437211D01*
X00832927Y00435748D01*
X00833218Y00434285D01*
X00833384Y00434037D01*
X00833297Y00432451D01*
X00832468Y00431211D01*
X00832177Y00429748D01*
X00832468Y00428284D01*
X00833297Y00427044D01*
X00833839Y00426682D01*
X00834288Y00425068D01*
X00834218Y00424963D01*
X00833927Y00423500D01*
X00834218Y00422037D01*
X00834850Y00421090D01*
X00834810Y00420251D01*
X00834532Y00419612D01*
X00833546Y00418954D01*
X00832718Y00417713D01*
X00832427Y00416250D01*
X00832718Y00414787D01*
X00833192Y00414077D01*
X00833528Y00413452D01*
X00833288Y00412192D01*
X00832968Y00411713D01*
X00832677Y00410250D01*
X00832968Y00408787D01*
X00833796Y00407546D01*
X00835037Y00406718D01*
X00836500Y00406427D01*
X00837963Y00406718D01*
X00838380Y00406996D01*
X00839650Y00406317D01*
Y00398500D01*
X00839150D01*
Y00396500D01*
X00845900D01*
Y00394500D01*
X00839150D01*
Y00392500D01*
X00839650D01*
Y00380152D01*
X00838380Y00379198D01*
X00837750Y00379324D01*
X00836287Y00379033D01*
X00835046Y00378204D01*
X00834218Y00376963D01*
X00833927Y00375500D01*
X00834218Y00374037D01*
X00834094Y00373739D01*
X00833416Y00372951D01*
X00832297Y00372203D01*
X00831204D01*
X00829963Y00373032D01*
X00828500Y00373323D01*
X00827037Y00373032D01*
X00825862Y00372248D01*
X00825184Y00372258D01*
X00824325Y00372595D01*
X00824212Y00372686D01*
X00823850Y00373746D01*
Y00381000D01*
Y00390848D01*
X00825120Y00391802D01*
X00825750Y00391677D01*
X00827213Y00391968D01*
X00828454Y00392797D01*
X00829282Y00394037D01*
X00829573Y00395500D01*
X00829282Y00396963D01*
X00828454Y00398204D01*
X00827569Y00398795D01*
X00827514Y00398976D01*
Y00400024D01*
X00827569Y00400206D01*
X00828454Y00400797D01*
X00829282Y00402037D01*
X00829573Y00403500D01*
X00829282Y00404963D01*
X00828454Y00406204D01*
X00827569Y00406795D01*
X00827514Y00406976D01*
Y00408024D01*
X00827569Y00408206D01*
X00828454Y00408797D01*
X00829282Y00410037D01*
X00829573Y00411500D01*
X00829282Y00412963D01*
X00828454Y00414204D01*
X00827569Y00414795D01*
X00827514Y00414976D01*
Y00416025D01*
X00827569Y00416206D01*
X00828454Y00416796D01*
X00829282Y00418037D01*
X00829573Y00419500D01*
X00829282Y00420963D01*
X00828454Y00422204D01*
X00827569Y00422794D01*
X00827514Y00422976D01*
Y00424025D01*
X00827569Y00424206D01*
X00828454Y00424796D01*
X00829282Y00426037D01*
X00829573Y00427500D01*
X00829282Y00428963D01*
X00828454Y00430204D01*
X00827569Y00430794D01*
X00827514Y00430976D01*
Y00432024D01*
X00827569Y00432206D01*
X00828454Y00432796D01*
X00829282Y00434037D01*
X00829573Y00435500D01*
X00829282Y00436963D01*
X00828454Y00438204D01*
X00827569Y00438794D01*
X00827514Y00438976D01*
Y00440024D01*
X00827569Y00440206D01*
X00828454Y00440796D01*
X00829282Y00442037D01*
X00829573Y00443500D01*
X00829282Y00444963D01*
X00828454Y00446204D01*
X00828948Y00447400D01*
X00829708Y00448537D01*
X00829999Y00450000D01*
X00829708Y00451463D01*
X00828879Y00452704D01*
X00827638Y00453532D01*
X00826175Y00453823D01*
X00825286Y00453647D01*
X00824974Y00453855D01*
X00824712Y00453907D01*
X00824509Y00454799D01*
X00825515Y00455723D01*
X00825750Y00455676D01*
X00827213Y00455968D01*
X00828454Y00456796D01*
X00829282Y00458037D01*
X00829573Y00459500D01*
X00829282Y00460963D01*
X00828454Y00462203D01*
X00827213Y00463032D01*
X00825750Y00463323D01*
X00825120Y00463198D01*
X00823850Y00464152D01*
Y00471733D01*
X00825005Y00472448D01*
X00825120Y00472451D01*
X00826500Y00472176D01*
X00827963Y00472467D01*
X00829203Y00473296D01*
X00830032Y00474537D01*
X00830323Y00476000D01*
X00830032Y00477463D01*
X00829203Y00478703D01*
X00828405Y00479237D01*
X00828274Y00480559D01*
X00828318Y00480706D01*
X00828454Y00480796D01*
X00829282Y00482037D01*
X00829573Y00483500D01*
X00829282Y00484963D01*
X00828454Y00486203D01*
X00827569Y00486794D01*
X00827514Y00486976D01*
Y00488024D01*
X00827569Y00488205D01*
X00828454Y00488796D01*
X00829282Y00490037D01*
X00829573Y00491500D01*
X00829282Y00492963D01*
X00828454Y00494203D01*
X00827569Y00494794D01*
X00827514Y00494976D01*
Y00496024D01*
X00827569Y00496205D01*
X00828454Y00496796D01*
X00829282Y00498037D01*
X00829573Y00499500D01*
X00829282Y00500963D01*
X00828454Y00502203D01*
X00827569Y00502794D01*
X00827514Y00502976D01*
Y00504024D01*
X00827569Y00504206D01*
X00828454Y00504796D01*
X00829282Y00506037D01*
X00829573Y00507500D01*
X00829282Y00508963D01*
X00828454Y00510203D01*
X00827569Y00510794D01*
X00827514Y00510975D01*
Y00512024D01*
X00827569Y00512206D01*
X00828454Y00512796D01*
X00829727Y00512624D01*
D02*
G37*
G36*
X00787086Y00583319D02*
X00787145Y00583025D01*
X00787697Y00582198D01*
X00802448Y00567448D01*
X00803275Y00566895D01*
X00804250Y00566701D01*
X00857500D01*
X00877701Y00546500D01*
Y00403306D01*
X00864444Y00390049D01*
X00858859D01*
X00858373Y00391222D01*
X00875642Y00408491D01*
X00875642Y00408491D01*
X00876139Y00409235D01*
X00876314Y00410113D01*
Y00542572D01*
X00876139Y00543450D01*
X00875642Y00544194D01*
X00857964Y00561872D01*
X00857220Y00562369D01*
X00856342Y00562544D01*
X00802443D01*
X00785294Y00579693D01*
Y00583597D01*
X00785721Y00583903D01*
X00785758Y00583906D01*
X00787086Y00583319D01*
D02*
G37*
%LPC*%
G36*
X00899702Y00399020D02*
X00898239Y00398729D01*
X00896998Y00397900D01*
X00896169Y00396660D01*
X00895878Y00395196D01*
X00896169Y00393733D01*
X00896998Y00392493D01*
X00898239Y00391664D01*
X00899702Y00391373D01*
X00901165Y00391664D01*
X00902405Y00392493D01*
X00903234Y00393733D01*
X00903525Y00395196D01*
X00903234Y00396660D01*
X00902405Y00397900D01*
X00901165Y00398729D01*
X00899702Y00399020D01*
D02*
G37*
G36*
X00895750Y00388803D02*
X00894287Y00388512D01*
X00893046Y00387684D01*
X00892218Y00386443D01*
X00891927Y00384980D01*
X00892218Y00383517D01*
X00893046Y00382276D01*
X00894287Y00381448D01*
X00895750Y00381157D01*
X00897213Y00381448D01*
X00898454Y00382276D01*
X00899282Y00383517D01*
X00899573Y00384980D01*
X00899282Y00386443D01*
X00898454Y00387684D01*
X00897213Y00388512D01*
X00895750Y00388803D01*
D02*
G37*
G36*
X00910750Y00376317D02*
X00908727Y00376050D01*
X00906842Y00375270D01*
X00905223Y00374027D01*
X00903980Y00372408D01*
X00903199Y00370523D01*
X00902933Y00368500D01*
X00903199Y00366477D01*
X00903980Y00364591D01*
X00905223Y00362973D01*
X00906842Y00361730D01*
X00908727Y00360950D01*
X00910750Y00360683D01*
X00912773Y00360950D01*
X00914658Y00361730D01*
X00916277Y00362973D01*
X00917520Y00364591D01*
X00918300Y00366477D01*
X00918567Y00368500D01*
X00918300Y00370523D01*
X00917520Y00372408D01*
X00916277Y00374027D01*
X00914658Y00375270D01*
X00912773Y00376050D01*
X00910750Y00376317D01*
D02*
G37*
G36*
X00752750Y00596317D02*
X00750727Y00596050D01*
X00748842Y00595270D01*
X00747223Y00594027D01*
X00745980Y00592408D01*
X00745200Y00590523D01*
X00744933Y00588500D01*
X00745200Y00586477D01*
X00745980Y00584592D01*
X00747223Y00582973D01*
X00748842Y00581730D01*
X00750727Y00580950D01*
X00752750Y00580683D01*
X00754773Y00580950D01*
X00756658Y00581730D01*
X00758277Y00582973D01*
X00759520Y00584592D01*
X00760301Y00586477D01*
X00760567Y00588500D01*
X00760301Y00590523D01*
X00759520Y00592408D01*
X00758277Y00594027D01*
X00756658Y00595270D01*
X00754773Y00596050D01*
X00752750Y00596317D01*
D02*
G37*
%LPD*%
D12*
X00859020Y00420728D02*
Y00530698D01*
X00862020Y00419485D02*
Y00531941D01*
X00865020Y00418242D02*
Y00538844D01*
X00868020Y00412598D02*
Y00540087D01*
X00871020Y00411356D02*
Y00541329D01*
X00874020Y00410113D02*
Y00542572D01*
X00855347Y00391440D02*
X00874020Y00410113D01*
X00856342Y00560250D02*
X00874020Y00542572D01*
X00859164Y00399500D02*
X00871020Y00411356D01*
X00855099Y00557250D02*
X00871020Y00541329D01*
X00858922Y00403500D02*
X00868020Y00412598D01*
X00853857Y00554250D02*
X00868020Y00540087D01*
X00854278Y00407500D02*
X00865020Y00418242D01*
X00852614Y00551250D02*
X00865020Y00538844D01*
X00854035Y00411500D02*
X00862020Y00419485D01*
X00848711Y00545250D02*
X00862020Y00531941D01*
X00853793Y00415500D02*
X00859020Y00420728D01*
X00850469Y00539250D02*
X00859020Y00530698D01*
X00845900Y00407500D02*
X00854278D01*
X00768250Y00545250D02*
X00848711D01*
X00845900Y00411500D02*
X00854035D01*
X00767750Y00539250D02*
X00850469D01*
X00845900Y00415500D02*
X00853793D01*
X00845960Y00391440D02*
X00855347D01*
X00845900Y00403500D02*
X00858922D01*
X00845900Y00399500D02*
X00859164D01*
X00845900Y00391500D02*
X00845960Y00391440D01*
X00770000Y00587500D02*
X00800250Y00557250D01*
X00855099D01*
X00783000Y00578743D02*
Y00587500D01*
Y00578743D02*
X00801492Y00560250D01*
X00856342D01*
X00753750Y00572750D02*
X00772250Y00554250D01*
X00853857D01*
X00753750Y00559750D02*
X00768250Y00545250D01*
X00753750Y00566250D02*
X00768750Y00551250D01*
X00852614D01*
X00817600Y00423500D02*
X00817600Y00423500D01*
X00753750Y00553250D02*
X00767750Y00539250D01*
X00892071Y00578011D02*
X00895070D01*
X00893570D01*
Y00587008D01*
X00892071Y00585508D01*
D13*
X00912250Y00368500D02*
G03*
X00912250Y00368500I-00001500J00000000D01*
G01*
X00754250Y00588500D02*
G03*
X00754250Y00588500I-00001500J00000000D01*
G01*
D14*
X00817600Y00515500D02*
D03*
Y00511500D02*
D03*
Y00507500D02*
D03*
Y00531500D02*
D03*
Y00527500D02*
D03*
Y00523500D02*
D03*
Y00519500D02*
D03*
X00845900Y00515500D02*
D03*
Y00511500D02*
D03*
Y00507500D02*
D03*
Y00531500D02*
D03*
Y00527500D02*
D03*
Y00523500D02*
D03*
Y00519500D02*
D03*
Y00491500D02*
D03*
X00817600D02*
D03*
Y00495500D02*
D03*
X00845900D02*
D03*
X00817600Y00499500D02*
D03*
X00845900D02*
D03*
X00817600Y00503500D02*
D03*
X00845900D02*
D03*
Y00475500D02*
D03*
X00817600D02*
D03*
Y00479500D02*
D03*
X00845900D02*
D03*
X00817600Y00483500D02*
D03*
X00845900D02*
D03*
X00817600Y00487500D02*
D03*
X00845900D02*
D03*
Y00459500D02*
D03*
X00817600D02*
D03*
Y00463500D02*
D03*
X00845900D02*
D03*
X00817600Y00467500D02*
D03*
X00845900D02*
D03*
X00817600Y00471500D02*
D03*
X00845900D02*
D03*
Y00443500D02*
D03*
X00817600D02*
D03*
Y00447500D02*
D03*
X00845900D02*
D03*
X00817600Y00451500D02*
D03*
X00845900D02*
D03*
X00817600Y00455500D02*
D03*
X00845900D02*
D03*
Y00427500D02*
D03*
X00817600D02*
D03*
Y00431500D02*
D03*
X00845900D02*
D03*
X00817600Y00435500D02*
D03*
X00845900D02*
D03*
X00817600Y00439500D02*
D03*
X00845900D02*
D03*
Y00411500D02*
D03*
X00817600D02*
D03*
Y00415500D02*
D03*
X00845900D02*
D03*
X00817600Y00419500D02*
D03*
X00845900D02*
D03*
X00817600Y00423500D02*
D03*
X00845900D02*
D03*
Y00395500D02*
D03*
X00817600D02*
D03*
Y00399500D02*
D03*
X00845900D02*
D03*
X00817600Y00403500D02*
D03*
X00845900D02*
D03*
X00817600Y00407500D02*
D03*
X00845900D02*
D03*
Y00391500D02*
D03*
X00817600D02*
D03*
X00845900Y00387500D02*
D03*
X00817600D02*
D03*
X00845900Y00383500D02*
D03*
X00817600D02*
D03*
X00845900Y00375500D02*
D03*
X00817600Y00379500D02*
D03*
Y00375500D02*
D03*
X00845900Y00379500D02*
D03*
D19*
X00741750Y00566250D02*
D03*
Y00572750D02*
D03*
Y00559750D02*
D03*
Y00546750D02*
D03*
Y00553250D02*
D03*
Y00533750D02*
D03*
Y00540250D02*
D03*
Y00520750D02*
D03*
Y00527250D02*
D03*
Y00507750D02*
D03*
Y00514250D02*
D03*
Y00494750D02*
D03*
Y00501250D02*
D03*
Y00481750D02*
D03*
Y00488250D02*
D03*
Y00397250D02*
D03*
Y00390750D02*
D03*
Y00410250D02*
D03*
Y00403750D02*
D03*
Y00423250D02*
D03*
Y00416750D02*
D03*
Y00436250D02*
D03*
Y00429750D02*
D03*
Y00449250D02*
D03*
Y00442750D02*
D03*
Y00462250D02*
D03*
Y00455750D02*
D03*
Y00468750D02*
D03*
Y00475250D02*
D03*
Y00384250D02*
D03*
X00921750Y00572750D02*
D03*
Y00481750D02*
D03*
Y00488250D02*
D03*
Y00501250D02*
D03*
Y00494750D02*
D03*
Y00514250D02*
D03*
Y00507750D02*
D03*
Y00527250D02*
D03*
Y00520750D02*
D03*
Y00540250D02*
D03*
Y00533750D02*
D03*
Y00553250D02*
D03*
Y00546750D02*
D03*
Y00566250D02*
D03*
Y00559750D02*
D03*
Y00468750D02*
D03*
Y00475250D02*
D03*
Y00455750D02*
D03*
Y00462250D02*
D03*
Y00442750D02*
D03*
Y00449250D02*
D03*
Y00429750D02*
D03*
Y00436250D02*
D03*
Y00416750D02*
D03*
Y00423250D02*
D03*
Y00403750D02*
D03*
Y00410250D02*
D03*
Y00397250D02*
D03*
Y00384250D02*
D03*
Y00390750D02*
D03*
D20*
X00867500Y00357500D02*
D03*
X00874000D02*
D03*
X00887000D02*
D03*
X00880500D02*
D03*
X00893500D02*
D03*
X00854500D02*
D03*
X00861000D02*
D03*
X00841500D02*
D03*
X00848000D02*
D03*
X00828500D02*
D03*
X00835000D02*
D03*
X00815500D02*
D03*
X00822000D02*
D03*
X00802500D02*
D03*
X00809000D02*
D03*
X00789500D02*
D03*
X00796000D02*
D03*
X00783000D02*
D03*
X00770000D02*
D03*
X00776500D02*
D03*
X00887000Y00599500D02*
D03*
X00893500D02*
D03*
X00880500D02*
D03*
X00867500D02*
D03*
X00874000D02*
D03*
X00854500D02*
D03*
X00861000D02*
D03*
X00841500D02*
D03*
X00848000D02*
D03*
X00828500D02*
D03*
X00835000D02*
D03*
X00815500D02*
D03*
X00822000D02*
D03*
X00802500D02*
D03*
X00809000D02*
D03*
X00770000D02*
D03*
X00783000D02*
D03*
X00776500D02*
D03*
X00789500D02*
D03*
X00796000D02*
D03*
D21*
X00845894Y00403495D02*
X00845900Y00403500D01*
X00835782Y00449626D02*
X00836458D01*
X00836500Y00443500D02*
X00840500Y00447500D01*
X00845900D01*
X00836458Y00449626D02*
X00837812Y00450980D01*
X00839622D01*
X00808751Y00431500D02*
X00817600D01*
X00805749Y00428498D02*
X00808751Y00431500D01*
X00806750Y00382250D02*
Y00386791D01*
X00811459Y00391500D02*
X00817600D01*
X00806750Y00386791D02*
X00811459Y00391500D01*
X00835000Y00526250D02*
X00836250Y00527500D01*
X00839065Y00531500D02*
X00845900D01*
X00838312Y00532253D02*
X00839065Y00531500D01*
X00837500Y00532253D02*
X00838312D01*
X00837667Y00464382D02*
X00838549Y00463500D01*
X00845900D01*
X00836990Y00464382D02*
X00837667D01*
X00809450Y00503500D02*
X00817600D01*
X00853600Y00475500D02*
X00854713Y00476614D01*
X00854072Y00484721D02*
X00854550Y00485200D01*
X00852250Y00491500D02*
X00854501Y00493751D01*
X00839358Y00503500D02*
X00845900D01*
X00833000Y00509858D02*
X00839358Y00503500D01*
X00836063Y00499813D02*
Y00500375D01*
X00817600Y00491500D02*
X00825750D01*
X00817600Y00483500D02*
X00825750D01*
X00826000Y00475500D02*
X00826500Y00476000D01*
X00835250Y00473000D02*
X00836750Y00471500D01*
X00817600Y00459500D02*
X00825750D01*
X00825499Y00450000D02*
X00826175D01*
X00805750Y00419750D02*
X00809500Y00423500D01*
X00809000Y00449500D02*
X00809422D01*
X00805999Y00410497D02*
X00811002Y00415500D01*
X00805532Y00401750D02*
X00806564D01*
X00835700Y00482938D02*
X00839138Y00479500D01*
X00817600Y00443500D02*
X00825750D01*
X00836750Y00471500D02*
X00845900D01*
X00854328Y00441500D02*
X00854750D01*
X00809750Y00479500D02*
X00817600D01*
X00809450D02*
X00809750D01*
Y00487500D02*
X00817600D01*
X00809750Y00495500D02*
X00817600D01*
X00809450D02*
X00809750D01*
X00817600Y00499500D02*
X00825750D01*
X00851814D02*
X00854653Y00502340D01*
X00851500Y00523500D02*
X00854646Y00526646D01*
X00845900Y00523500D02*
X00851500D01*
X00817600Y00475500D02*
X00826000D01*
X00804750Y00392532D02*
X00811718Y00399500D01*
X00823999Y00451500D02*
X00825499Y00450000D01*
X00817600Y00451500D02*
X00823999D01*
X00852407Y00484721D02*
X00854072D01*
X00851186Y00483500D02*
X00852407Y00484721D01*
X00845900Y00483500D02*
X00851186D01*
X00880250Y00402250D02*
Y00547556D01*
X00839622Y00450980D02*
X00840142Y00451500D01*
X00845900Y00499500D02*
X00851814D01*
X00845900Y00443500D02*
X00852328D01*
X00854328Y00441500D01*
X00840142Y00451500D02*
X00845900D01*
X00851250Y00515500D02*
X00854750Y00519000D01*
X00845900Y00515500D02*
X00851250D01*
X00854023Y00422726D02*
Y00424663D01*
X00851186Y00427500D02*
X00854023Y00424663D01*
X00845900Y00427500D02*
X00851186D01*
X00854023Y00422726D02*
X00854501Y00422247D01*
X00836750Y00435748D02*
X00840502Y00439500D01*
X00837142Y00429748D02*
X00838895Y00431500D01*
X00836401Y00429748D02*
X00837142D01*
X00838895Y00431500D02*
X00845900D01*
X00836500Y00491500D02*
X00840500Y00487500D01*
X00886000Y00402603D02*
Y00549961D01*
X00854023Y00431476D02*
Y00432665D01*
X00845900Y00435500D02*
X00851188D01*
X00854023Y00432665D01*
X00840375Y00495500D02*
X00845900D01*
X00836063Y00499813D02*
X00840375Y00495500D01*
X00833000Y00509858D02*
Y00515502D01*
X00817600Y00507500D02*
X00825750D01*
X00817600Y00515500D02*
X00825750D01*
X00865500Y00387500D02*
X00880250Y00402250D01*
X00866897Y00383500D02*
X00886000Y00402603D01*
X00869000Y00379500D02*
X00892250Y00402750D01*
X00840177Y00419500D02*
X00845900D01*
X00836926Y00416250D02*
X00840177Y00419500D01*
X00836250Y00416250D02*
X00836926D01*
X00851250Y00507500D02*
X00854500Y00510750D01*
X00858556Y00569250D02*
X00880250Y00547556D01*
X00853750Y00387500D02*
X00865500D01*
X00825252Y00531500D02*
X00827250Y00529502D01*
X00817600Y00531500D02*
X00825252D01*
X00809750Y00527500D02*
X00817600D01*
X00809750Y00375500D02*
X00817600D01*
X00809450D02*
X00809750D01*
X00909750Y00540250D02*
X00921750D01*
X00909750Y00546750D02*
X00921750D01*
X00809000Y00587500D02*
Y00599500D01*
X00741750Y00546750D02*
X00753750D01*
X00741750Y00527250D02*
X00753750D01*
X00741750Y00507750D02*
X00753750D01*
X00741750Y00533750D02*
X00753750D01*
X00741750Y00540250D02*
X00753750D01*
X00741750Y00514250D02*
X00753750D01*
X00741750Y00520750D02*
X00753750D01*
X00741750Y00501250D02*
X00753750D01*
X00741750Y00494750D02*
X00753750D01*
X00817600Y00523500D02*
X00825750D01*
X00838427Y00411500D02*
X00845900D01*
X00837177Y00410250D02*
X00838427Y00411500D01*
X00836500Y00410250D02*
X00837177D01*
X00909750Y00527250D02*
X00921750D01*
X00909750Y00507750D02*
X00921750D01*
X00909750Y00533750D02*
X00921750D01*
X00909750Y00520750D02*
X00921750D01*
X00909750Y00514250D02*
X00921750D01*
X00817600Y00411500D02*
X00825750D01*
X00811422Y00447500D02*
X00817600D01*
X00809422Y00449500D02*
X00811422Y00447500D01*
X00845900Y00459500D02*
X00854050D01*
X00812250Y00455500D02*
X00817600D01*
X00809000Y00458750D02*
X00812250Y00455500D01*
X00811718Y00399500D02*
X00817600D01*
X00812315Y00407500D02*
X00817600D01*
X00806564Y00401750D02*
X00812315Y00407500D01*
X00817600Y00419500D02*
X00825750D01*
X00817600Y00395500D02*
X00825750D01*
X00817600Y00435500D02*
X00825750D01*
X00817600Y00427500D02*
X00825750D01*
X00817600Y00403500D02*
X00825750D01*
X00806735Y00575015D02*
X00860945D01*
X00796000Y00585751D02*
Y00599500D01*
Y00585751D02*
X00806735Y00575015D01*
X00804250Y00569250D02*
X00858556D01*
X00789500Y00584000D02*
X00804250Y00569250D01*
X00789500Y00584000D02*
Y00599500D01*
X00845900Y00383500D02*
X00866897D01*
X00853750Y00379500D02*
X00869000D01*
X00861000Y00357500D02*
Y00369500D01*
X00892250Y00402750D02*
Y00552519D01*
X00845900Y00379500D02*
X00854050D01*
X00845900Y00387500D02*
X00854050D01*
X00809450Y00471500D02*
X00817600D01*
X00808733Y00581267D02*
X00863502D01*
X00892250Y00552519D01*
X00802500Y00587500D02*
X00808733Y00581267D01*
X00874000Y00357500D02*
Y00369500D01*
X00880500Y00587500D02*
Y00599500D01*
X00809500Y00423500D02*
X00817600D01*
X00836093Y00395500D02*
X00845900D01*
X00837750Y00423500D02*
X00845900D01*
X00840502Y00439500D02*
X00845900D01*
X00840500Y00487500D02*
X00845900D01*
Y00467500D02*
X00854050D01*
X00845900Y00475500D02*
X00853600D01*
X00839138Y00479500D02*
X00845900D01*
X00845900Y00491500D02*
X00852250D01*
X00837750Y00455500D02*
X00845900D01*
X00836250Y00527500D02*
X00845900D01*
Y00507500D02*
X00851250D01*
X00837750Y00511500D02*
X00845900D01*
X00837750Y00519500D02*
X00845900D01*
X00837750Y00375500D02*
X00845900D01*
X00811002Y00415500D02*
X00817600D01*
X00809450Y00439500D02*
X00817600D01*
X00809450Y00519500D02*
X00817600D01*
X00809450Y00511500D02*
X00817600D01*
X00741750Y00488250D02*
X00753750D01*
X00741750Y00481750D02*
X00753750D01*
X00854500Y00357500D02*
Y00369500D01*
X00867500Y00357500D02*
Y00369500D01*
X00880500Y00357500D02*
Y00369500D01*
X00802500Y00587500D02*
Y00599500D01*
X00860945Y00575015D02*
X00886000Y00549961D01*
X00741750Y00553250D02*
X00753750D01*
X00741750Y00566250D02*
X00753750D01*
X00741750Y00559750D02*
X00753750D01*
X00741750Y00572750D02*
X00753750D01*
X00741750Y00468750D02*
X00753750D01*
X00741750Y00462250D02*
X00753750D01*
X00741750Y00455750D02*
X00753750D01*
X00741750Y00449250D02*
X00753750D01*
X00741750Y00442750D02*
X00753750D01*
X00741750Y00436250D02*
X00753750D01*
X00741750Y00429750D02*
X00753750D01*
X00741750Y00423250D02*
X00753750D01*
X00741750Y00416750D02*
X00753750D01*
X00741750Y00410250D02*
X00753750D01*
X00909750Y00468750D02*
X00921750D01*
X00909750Y00462250D02*
X00921750D01*
X00909750Y00442750D02*
X00921750D01*
X00909750Y00449250D02*
X00921750D01*
X00909750Y00455750D02*
X00921750D01*
X00822000Y00357500D02*
Y00369500D01*
X00909750Y00436250D02*
X00921750D01*
X00909750Y00481750D02*
X00921750D01*
X00909750Y00475250D02*
X00921750D01*
X00909750Y00494750D02*
X00921750D01*
X00909750Y00488250D02*
X00921750D01*
X00909750Y00501250D02*
X00921750D01*
X00887000Y00357500D02*
Y00369500D01*
X00841500Y00357500D02*
Y00369500D01*
X00848000Y00357500D02*
Y00369500D01*
X00828500Y00357500D02*
Y00369500D01*
X00835000Y00357500D02*
Y00369500D01*
X00809000Y00357500D02*
Y00369500D01*
X00815500Y00357500D02*
Y00369500D01*
X00796000Y00357500D02*
Y00369500D01*
X00802500Y00357500D02*
Y00369500D01*
X00783000Y00357500D02*
Y00369500D01*
X00789500Y00357500D02*
Y00369500D01*
X00776500Y00357500D02*
Y00369500D01*
X00770000Y00357500D02*
Y00369500D01*
X00741750Y00390750D02*
X00753750D01*
X00741750Y00384250D02*
X00753750D01*
X00741750Y00397250D02*
X00753750D01*
X00741750Y00403750D02*
X00753750D01*
X00741750Y00475250D02*
X00753750D01*
X00783000Y00587500D02*
Y00599500D01*
X00776500Y00587500D02*
Y00599500D01*
X00770000Y00587500D02*
Y00599500D01*
D22*
X00897250Y00370750D02*
D03*
X00918000Y00377250D02*
D03*
X00895750Y00384980D02*
D03*
X00901250Y00361750D02*
D03*
X00835782Y00449626D02*
D03*
X00854646Y00526646D02*
D03*
X00899702Y00395196D02*
D03*
X00837500Y00532253D02*
D03*
X00835000Y00526250D02*
D03*
X00836990Y00464382D02*
D03*
X00837750Y00455500D02*
D03*
X00853750Y00467500D02*
D03*
X00854713Y00476614D02*
D03*
X00854550Y00485200D02*
D03*
X00854501Y00493751D02*
D03*
X00837750Y00511500D02*
D03*
X00836063Y00500375D02*
D03*
X00836624Y00491595D02*
D03*
X00825750Y00491500D02*
D03*
Y00483500D02*
D03*
X00826500Y00476000D02*
D03*
X00835250Y00473000D02*
D03*
X00825750Y00459500D02*
D03*
X00826175Y00450000D02*
D03*
X00809750Y00439500D02*
D03*
X00805749Y00428498D02*
D03*
X00805750Y00419750D02*
D03*
X00809000Y00449500D02*
D03*
X00805999Y00410497D02*
D03*
X00805532Y00401750D02*
D03*
X00835700Y00482938D02*
D03*
X00825750Y00443500D02*
D03*
X00854750Y00441500D02*
D03*
X00809750Y00479500D02*
D03*
Y00487500D02*
D03*
Y00495500D02*
D03*
X00825750Y00499500D02*
D03*
X00854653Y00502340D02*
D03*
X00854484Y00511109D02*
D03*
X00854646Y00519804D02*
D03*
X00853750Y00459500D02*
D03*
X00804750Y00392532D02*
D03*
X00806750Y00382250D02*
D03*
X00836094Y00442283D02*
D03*
X00837750Y00519500D02*
D03*
X00854501Y00430998D02*
D03*
Y00422247D02*
D03*
X00836750Y00435748D02*
D03*
X00836000Y00429748D02*
D03*
X00833000Y00515502D02*
D03*
X00825750Y00507500D02*
D03*
Y00515500D02*
D03*
X00837750Y00423500D02*
D03*
X00836250Y00416250D02*
D03*
X00867000Y00396500D02*
D03*
X00827250Y00529502D02*
D03*
X00809500Y00527000D02*
D03*
X00808999Y00518252D02*
D03*
Y00509501D02*
D03*
X00909750Y00540250D02*
D03*
Y00546750D02*
D03*
X00809000Y00587500D02*
D03*
X00753750Y00546750D02*
D03*
Y00527250D02*
D03*
Y00507750D02*
D03*
Y00533750D02*
D03*
Y00540250D02*
D03*
Y00514250D02*
D03*
Y00520750D02*
D03*
Y00501250D02*
D03*
Y00494750D02*
D03*
X00825750Y00523500D02*
D03*
X00836500Y00410250D02*
D03*
X00909750Y00527250D02*
D03*
Y00507750D02*
D03*
Y00533750D02*
D03*
Y00520750D02*
D03*
Y00514250D02*
D03*
X00825750Y00411500D02*
D03*
X00808999Y00459249D02*
D03*
X00825750Y00419500D02*
D03*
Y00395500D02*
D03*
Y00435500D02*
D03*
Y00427500D02*
D03*
Y00403500D02*
D03*
X00836093Y00395500D02*
D03*
X00909000Y00416340D02*
D03*
X00908754Y00422997D02*
D03*
X00908500Y00429750D02*
D03*
X00809750Y00471500D02*
D03*
X00861000Y00369500D02*
D03*
X00764250Y00378500D02*
D03*
X00910750Y00593500D02*
D03*
X00765000Y00576750D02*
D03*
X00874000Y00369500D02*
D03*
X00753750Y00488250D02*
D03*
Y00481750D02*
D03*
X00854500Y00369500D02*
D03*
X00867500D02*
D03*
X00809750Y00503500D02*
D03*
X00880500Y00369500D02*
D03*
X00753750Y00468750D02*
D03*
Y00462250D02*
D03*
Y00455750D02*
D03*
Y00449250D02*
D03*
Y00442750D02*
D03*
Y00436250D02*
D03*
Y00429750D02*
D03*
Y00423250D02*
D03*
Y00416750D02*
D03*
Y00410250D02*
D03*
X00909750Y00468750D02*
D03*
Y00462250D02*
D03*
Y00442750D02*
D03*
Y00449250D02*
D03*
Y00455750D02*
D03*
X00809750Y00375500D02*
D03*
X00837750D02*
D03*
X00789500Y00369500D02*
D03*
X00828500D02*
D03*
X00835000D02*
D03*
X00822000D02*
D03*
X00841500D02*
D03*
X00796000D02*
D03*
X00783000D02*
D03*
X00848000D02*
D03*
X00753750Y00403750D02*
D03*
Y00397250D02*
D03*
Y00390750D02*
D03*
Y00384250D02*
D03*
Y00475250D02*
D03*
Y00553250D02*
D03*
X00909750Y00501250D02*
D03*
X00753750Y00559750D02*
D03*
Y00566250D02*
D03*
Y00572750D02*
D03*
X00783000Y00587500D02*
D03*
X00776500D02*
D03*
X00770000D02*
D03*
X00880500D02*
D03*
X00770000Y00369500D02*
D03*
X00776500D02*
D03*
X00815500D02*
D03*
X00809000D02*
D03*
X00802500D02*
D03*
X00887000D02*
D03*
X00909750Y00475250D02*
D03*
Y00481750D02*
D03*
Y00488250D02*
D03*
Y00494750D02*
D03*
Y00436250D02*
D03*
M02*
