G04*
G04 #@! TF.GenerationSoftware,Altium Limited,Altium Designer,21.7.2 (23)*
G04*
G04 Layer_Color=8421504*
%FSAX44Y44*%
%MOMM*%
G71*
G04*
G04 #@! TF.SameCoordinates,8073F22B-F9D6-4515-8FA4-32CADCE011FE*
G04*
G04*
G04 #@! TF.FilePolarity,Positive*
G04*
G01*
G75*
%ADD13C,0.3000*%
%ADD14R,0.9500X0.2000*%
D13*
X00912250Y00368500D02*
G03*
X00912250Y00368500I-00001500J00000000D01*
G01*
X00754250Y00588500D02*
G03*
X00754250Y00588500I-00001500J00000000D01*
G01*
D14*
X00817600Y00515500D02*
D03*
Y00511500D02*
D03*
Y00507500D02*
D03*
Y00531500D02*
D03*
Y00527500D02*
D03*
Y00523500D02*
D03*
Y00519500D02*
D03*
X00845900Y00515500D02*
D03*
Y00511500D02*
D03*
Y00507500D02*
D03*
Y00531500D02*
D03*
Y00527500D02*
D03*
Y00523500D02*
D03*
Y00519500D02*
D03*
Y00491500D02*
D03*
X00817600D02*
D03*
Y00495500D02*
D03*
X00845900D02*
D03*
X00817600Y00499500D02*
D03*
X00845900D02*
D03*
X00817600Y00503500D02*
D03*
X00845900D02*
D03*
Y00475500D02*
D03*
X00817600D02*
D03*
Y00479500D02*
D03*
X00845900D02*
D03*
X00817600Y00483500D02*
D03*
X00845900D02*
D03*
X00817600Y00487500D02*
D03*
X00845900D02*
D03*
Y00459500D02*
D03*
X00817600D02*
D03*
Y00463500D02*
D03*
X00845900D02*
D03*
X00817600Y00467500D02*
D03*
X00845900D02*
D03*
X00817600Y00471500D02*
D03*
X00845900D02*
D03*
Y00443500D02*
D03*
X00817600D02*
D03*
Y00447500D02*
D03*
X00845900D02*
D03*
X00817600Y00451500D02*
D03*
X00845900D02*
D03*
X00817600Y00455500D02*
D03*
X00845900D02*
D03*
Y00427500D02*
D03*
X00817600D02*
D03*
Y00431500D02*
D03*
X00845900D02*
D03*
X00817600Y00435500D02*
D03*
X00845900D02*
D03*
X00817600Y00439500D02*
D03*
X00845900D02*
D03*
Y00411500D02*
D03*
X00817600D02*
D03*
Y00415500D02*
D03*
X00845900D02*
D03*
X00817600Y00419500D02*
D03*
X00845900D02*
D03*
X00817600Y00423500D02*
D03*
X00845900D02*
D03*
Y00395500D02*
D03*
X00817600D02*
D03*
Y00399500D02*
D03*
X00845900D02*
D03*
X00817600Y00403500D02*
D03*
X00845900D02*
D03*
X00817600Y00407500D02*
D03*
X00845900D02*
D03*
Y00391500D02*
D03*
X00817600D02*
D03*
X00845900Y00387500D02*
D03*
X00817600D02*
D03*
X00845900Y00383500D02*
D03*
X00817600D02*
D03*
X00845900Y00375500D02*
D03*
X00817600Y00379500D02*
D03*
Y00375500D02*
D03*
X00845900Y00379500D02*
D03*
M02*
