G04*
G04 #@! TF.GenerationSoftware,Altium Limited,Altium Designer,21.7.2 (23)*
G04*
G04 Layer_Color=128*
%FSAX44Y44*%
%MOMM*%
G71*
G04*
G04 #@! TF.SameCoordinates,1C098217-63CA-4160-87A2-FAF5BDA99962*
G04*
G04*
G04 #@! TF.FilePolarity,Positive*
G04*
G01*
G75*
%ADD14R,1.8000X0.3500*%
%ADD15R,0.3500X1.8000*%
D14*
X00741750Y00566250D02*
D03*
Y00572750D02*
D03*
Y00559750D02*
D03*
Y00546750D02*
D03*
Y00553250D02*
D03*
Y00533750D02*
D03*
Y00540250D02*
D03*
Y00520750D02*
D03*
Y00527250D02*
D03*
Y00507750D02*
D03*
Y00514250D02*
D03*
Y00494750D02*
D03*
Y00501250D02*
D03*
Y00481750D02*
D03*
Y00488250D02*
D03*
Y00397250D02*
D03*
Y00390750D02*
D03*
Y00410250D02*
D03*
Y00403750D02*
D03*
Y00423250D02*
D03*
Y00416750D02*
D03*
Y00436250D02*
D03*
Y00429750D02*
D03*
Y00449250D02*
D03*
Y00442750D02*
D03*
Y00462250D02*
D03*
Y00455750D02*
D03*
Y00468750D02*
D03*
Y00475250D02*
D03*
Y00384250D02*
D03*
X00921750Y00572750D02*
D03*
Y00481750D02*
D03*
Y00488250D02*
D03*
Y00501250D02*
D03*
Y00494750D02*
D03*
Y00514250D02*
D03*
Y00507750D02*
D03*
Y00527250D02*
D03*
Y00520750D02*
D03*
Y00540250D02*
D03*
Y00533750D02*
D03*
Y00553250D02*
D03*
Y00546750D02*
D03*
Y00566250D02*
D03*
Y00559750D02*
D03*
Y00468750D02*
D03*
Y00475250D02*
D03*
Y00455750D02*
D03*
Y00462250D02*
D03*
Y00442750D02*
D03*
Y00449250D02*
D03*
Y00429750D02*
D03*
Y00436250D02*
D03*
Y00416750D02*
D03*
Y00423250D02*
D03*
Y00403750D02*
D03*
Y00410250D02*
D03*
Y00397250D02*
D03*
Y00384250D02*
D03*
Y00390750D02*
D03*
D15*
X00867500Y00357500D02*
D03*
X00874000D02*
D03*
X00887000D02*
D03*
X00880500D02*
D03*
X00893500D02*
D03*
X00854500D02*
D03*
X00861000D02*
D03*
X00841500D02*
D03*
X00848000D02*
D03*
X00828500D02*
D03*
X00835000D02*
D03*
X00815500D02*
D03*
X00822000D02*
D03*
X00802500D02*
D03*
X00809000D02*
D03*
X00789500D02*
D03*
X00796000D02*
D03*
X00783000D02*
D03*
X00770000D02*
D03*
X00776500D02*
D03*
X00887000Y00599500D02*
D03*
X00893500D02*
D03*
X00880500D02*
D03*
X00867500D02*
D03*
X00874000D02*
D03*
X00854500D02*
D03*
X00861000D02*
D03*
X00841500D02*
D03*
X00848000D02*
D03*
X00828500D02*
D03*
X00835000D02*
D03*
X00815500D02*
D03*
X00822000D02*
D03*
X00802500D02*
D03*
X00809000D02*
D03*
X00770000D02*
D03*
X00783000D02*
D03*
X00776500D02*
D03*
X00789500D02*
D03*
X00796000D02*
D03*
M02*
