G04*
G04 #@! TF.GenerationSoftware,Altium Limited,Altium Designer,21.7.2 (23)*
G04*
G04 Layer_Physical_Order=2*
G04 Layer_Color=36540*
%FSAX44Y44*%
%MOMM*%
G71*
G04*
G04 #@! TF.SameCoordinates,1C098217-63CA-4160-87A2-FAF5BDA99962*
G04*
G04*
G04 #@! TF.FilePolarity,Positive*
G04*
G01*
G75*
%ADD12C,0.1500*%
%ADD22C,0.4500*%
G36*
X00910280Y00597230D02*
X00909287Y00597032D01*
X00908046Y00596204D01*
X00907218Y00594963D01*
X00906927Y00593500D01*
X00907218Y00592037D01*
X00908046Y00590796D01*
X00908834Y00590270D01*
X00908449Y00589000D01*
X00906816D01*
Y00590008D01*
X00885821D01*
Y00575011D01*
X00906816D01*
Y00576500D01*
X00920750D01*
Y00381450D01*
X00919480Y00380771D01*
X00919463Y00380782D01*
X00918000Y00381073D01*
X00916537Y00380782D01*
X00915296Y00379954D01*
X00914468Y00378713D01*
X00914177Y00377250D01*
X00914468Y00375787D01*
X00915296Y00374546D01*
X00916537Y00373718D01*
X00918000Y00373427D01*
X00919463Y00373718D01*
X00919480Y00373729D01*
X00920750Y00373050D01*
Y00358500D01*
X00905116D01*
X00904437Y00359770D01*
X00904782Y00360287D01*
X00905073Y00361750D01*
X00904782Y00363213D01*
X00903954Y00364454D01*
X00902713Y00365282D01*
X00901250Y00365573D01*
X00899787Y00365282D01*
X00898546Y00364454D01*
X00897718Y00363213D01*
X00897427Y00361750D01*
X00897718Y00360287D01*
X00898063Y00359770D01*
X00897384Y00358500D01*
X00742750D01*
Y00598500D01*
X00910155D01*
X00910280Y00597230D01*
D02*
G37*
%LPC*%
G36*
X00783000Y00591323D02*
X00781537Y00591032D01*
X00780597Y00590404D01*
X00779750Y00590282D01*
X00778903Y00590404D01*
X00777963Y00591032D01*
X00776500Y00591323D01*
X00775037Y00591032D01*
X00774097Y00590404D01*
X00773250Y00590282D01*
X00772403Y00590404D01*
X00771463Y00591032D01*
X00770000Y00591323D01*
X00768537Y00591032D01*
X00767296Y00590204D01*
X00766467Y00588963D01*
X00766176Y00587500D01*
X00766467Y00586037D01*
X00767296Y00584796D01*
X00768537Y00583968D01*
X00770000Y00583677D01*
X00771463Y00583968D01*
X00772403Y00584596D01*
X00773250Y00584718D01*
X00774097Y00584596D01*
X00775037Y00583968D01*
X00776500Y00583677D01*
X00777963Y00583968D01*
X00778903Y00584596D01*
X00779750Y00584718D01*
X00780597Y00584596D01*
X00781537Y00583968D01*
X00783000Y00583677D01*
X00784463Y00583968D01*
X00785703Y00584796D01*
X00786532Y00586037D01*
X00786823Y00587500D01*
X00786532Y00588963D01*
X00785703Y00590204D01*
X00784463Y00591032D01*
X00783000Y00591323D01*
D02*
G37*
G36*
X00765000Y00580573D02*
X00763537Y00580282D01*
X00762296Y00579454D01*
X00761468Y00578213D01*
X00761177Y00576750D01*
X00761468Y00575287D01*
X00762296Y00574046D01*
X00763537Y00573218D01*
X00765000Y00572926D01*
X00766463Y00573218D01*
X00767704Y00574046D01*
X00768532Y00575287D01*
X00768823Y00576750D01*
X00768532Y00578213D01*
X00767704Y00579454D01*
X00766463Y00580282D01*
X00765000Y00580573D01*
D02*
G37*
G36*
X00872639Y00585044D02*
X00790067D01*
X00789189Y00584869D01*
X00788444Y00584372D01*
X00763579Y00559506D01*
X00763378Y00559372D01*
X00758601Y00554595D01*
X00758095Y00554640D01*
X00757138Y00554929D01*
X00756654Y00555653D01*
X00756532Y00556500D01*
X00756654Y00557347D01*
X00757282Y00558287D01*
X00757573Y00559750D01*
X00757282Y00561213D01*
X00756654Y00562153D01*
X00756532Y00563000D01*
X00756654Y00563847D01*
X00757282Y00564787D01*
X00757573Y00566250D01*
X00757282Y00567713D01*
X00756654Y00568653D01*
X00756532Y00569500D01*
X00756654Y00570347D01*
X00757282Y00571287D01*
X00757573Y00572750D01*
X00757282Y00574213D01*
X00756454Y00575454D01*
X00755213Y00576282D01*
X00753750Y00576573D01*
X00752287Y00576282D01*
X00751046Y00575454D01*
X00750218Y00574213D01*
X00749927Y00572750D01*
X00750218Y00571287D01*
X00750846Y00570347D01*
X00750968Y00569500D01*
X00750846Y00568653D01*
X00750218Y00567713D01*
X00749927Y00566250D01*
X00750218Y00564787D01*
X00750846Y00563847D01*
X00750968Y00563000D01*
X00750846Y00562153D01*
X00750218Y00561213D01*
X00749927Y00559750D01*
X00750218Y00558287D01*
X00750846Y00557347D01*
X00750968Y00556500D01*
X00750846Y00555653D01*
X00750218Y00554713D01*
X00749927Y00553250D01*
X00750218Y00551787D01*
X00751046Y00550546D01*
X00752287Y00549717D01*
X00753750Y00549426D01*
X00755213Y00549717D01*
X00755686Y00550033D01*
X00756956Y00549355D01*
Y00546700D01*
X00754233Y00543977D01*
X00753750Y00544073D01*
X00752287Y00543782D01*
X00751046Y00542953D01*
X00750218Y00541713D01*
X00749927Y00540250D01*
X00750218Y00538787D01*
X00750846Y00537847D01*
X00750968Y00537000D01*
X00750846Y00536153D01*
X00750218Y00535213D01*
X00749927Y00533750D01*
X00750218Y00532287D01*
X00750846Y00531347D01*
X00750968Y00530500D01*
X00750846Y00529653D01*
X00750218Y00528713D01*
X00749927Y00527250D01*
X00750218Y00525787D01*
X00750846Y00524847D01*
X00750968Y00524000D01*
X00750846Y00523153D01*
X00750218Y00522213D01*
X00749927Y00520750D01*
X00750218Y00519287D01*
X00750846Y00518347D01*
X00750968Y00517500D01*
X00750846Y00516653D01*
X00750218Y00515713D01*
X00749927Y00514250D01*
X00750218Y00512787D01*
X00750846Y00511847D01*
X00750968Y00511000D01*
X00750846Y00510153D01*
X00750218Y00509213D01*
X00749927Y00507750D01*
X00750218Y00506287D01*
X00750846Y00505347D01*
X00750968Y00504500D01*
X00750846Y00503653D01*
X00750218Y00502713D01*
X00749927Y00501250D01*
X00750218Y00499787D01*
X00750846Y00498847D01*
X00750968Y00498000D01*
X00750846Y00497153D01*
X00750218Y00496213D01*
X00749927Y00494750D01*
X00750218Y00493287D01*
X00750846Y00492347D01*
X00750968Y00491500D01*
X00750846Y00490653D01*
X00750218Y00489713D01*
X00749927Y00488250D01*
X00750218Y00486787D01*
X00750846Y00485847D01*
X00750968Y00485000D01*
X00750846Y00484153D01*
X00750218Y00483213D01*
X00749927Y00481750D01*
X00750218Y00480287D01*
X00750846Y00479347D01*
X00750968Y00478500D01*
X00750846Y00477653D01*
X00750218Y00476713D01*
X00749927Y00475250D01*
X00750218Y00473787D01*
X00750846Y00472847D01*
X00750968Y00472000D01*
X00750846Y00471153D01*
X00750218Y00470213D01*
X00749927Y00468750D01*
X00750218Y00467287D01*
X00750846Y00466347D01*
X00750968Y00465500D01*
X00750846Y00464653D01*
X00750218Y00463713D01*
X00749927Y00462250D01*
X00750218Y00460787D01*
X00750846Y00459847D01*
X00750968Y00459000D01*
X00750846Y00458153D01*
X00750218Y00457213D01*
X00749927Y00455750D01*
X00750218Y00454287D01*
X00750846Y00453347D01*
X00750968Y00452500D01*
X00750846Y00451653D01*
X00750218Y00450713D01*
X00749927Y00449250D01*
X00750218Y00447787D01*
X00750846Y00446847D01*
X00750968Y00446000D01*
X00750846Y00445153D01*
X00750218Y00444213D01*
X00749927Y00442750D01*
X00750218Y00441287D01*
X00750846Y00440347D01*
X00750968Y00439500D01*
X00750846Y00438653D01*
X00750218Y00437713D01*
X00749927Y00436250D01*
X00750218Y00434787D01*
X00750846Y00433847D01*
X00750968Y00433000D01*
X00750846Y00432153D01*
X00750218Y00431213D01*
X00749927Y00429750D01*
X00750218Y00428287D01*
X00750846Y00427347D01*
X00750968Y00426500D01*
X00750846Y00425653D01*
X00750218Y00424713D01*
X00749927Y00423250D01*
X00750218Y00421786D01*
X00750846Y00420847D01*
X00750968Y00420000D01*
X00750846Y00419153D01*
X00750218Y00418213D01*
X00749927Y00416750D01*
X00750218Y00415286D01*
X00750846Y00414347D01*
X00750968Y00413500D01*
X00750846Y00412653D01*
X00750218Y00411713D01*
X00749927Y00410250D01*
X00750218Y00408787D01*
X00750846Y00407846D01*
X00750968Y00407000D01*
X00750846Y00406153D01*
X00750218Y00405213D01*
X00749927Y00403750D01*
X00750218Y00402286D01*
X00750846Y00401347D01*
X00750968Y00400500D01*
X00750846Y00399653D01*
X00750218Y00398713D01*
X00749927Y00397250D01*
X00750218Y00395787D01*
X00750846Y00394846D01*
X00750968Y00394000D01*
X00750846Y00393153D01*
X00750218Y00392213D01*
X00749927Y00390750D01*
X00750218Y00389286D01*
X00750846Y00388346D01*
X00750968Y00387500D01*
X00750846Y00386653D01*
X00750218Y00385713D01*
X00749927Y00384250D01*
X00750218Y00382786D01*
X00751046Y00381546D01*
X00752287Y00380717D01*
X00753750Y00380426D01*
X00755213Y00380717D01*
X00756454Y00381546D01*
X00757282Y00382786D01*
X00757573Y00384250D01*
X00757457Y00384837D01*
X00800711Y00428092D01*
X00802089Y00427674D01*
X00802216Y00427034D01*
X00803045Y00425794D01*
X00804286Y00424965D01*
X00804990Y00424825D01*
X00805261Y00424771D01*
Y00423476D01*
X00804990Y00423422D01*
X00804287Y00423282D01*
X00803046Y00422454D01*
X00802218Y00421213D01*
X00801927Y00419750D01*
X00802218Y00418287D01*
X00803046Y00417046D01*
X00804287Y00416218D01*
X00805750Y00415927D01*
X00807213Y00416218D01*
X00808454Y00417046D01*
X00809282Y00418287D01*
X00809573Y00419750D01*
X00809282Y00421213D01*
X00808454Y00422454D01*
X00807213Y00423282D01*
X00806509Y00423423D01*
X00806238Y00423476D01*
Y00424771D01*
X00806509Y00424825D01*
X00807212Y00424965D01*
X00808452Y00425794D01*
X00809281Y00427034D01*
X00809572Y00428498D01*
X00809281Y00429961D01*
X00808452Y00431201D01*
X00807212Y00432030D01*
X00806573Y00432157D01*
X00806305Y00432575D01*
X00806072Y00433552D01*
X00806369Y00433997D01*
X00806544Y00434875D01*
X00806544Y00434875D01*
Y00435605D01*
X00807814Y00436284D01*
X00808287Y00435968D01*
X00809750Y00435677D01*
X00810737Y00435873D01*
X00812007Y00435087D01*
Y00393699D01*
X00812182Y00392821D01*
X00812679Y00392077D01*
X00822878Y00381878D01*
X00822878Y00381878D01*
X00823622Y00381381D01*
X00824500Y00381206D01*
X00884706D01*
Y00372477D01*
X00884597Y00372404D01*
X00883204Y00372203D01*
X00881963Y00373032D01*
X00880500Y00373323D01*
X00879037Y00373032D01*
X00877797Y00372203D01*
X00876704D01*
X00875463Y00373032D01*
X00874000Y00373323D01*
X00872537Y00373032D01*
X00871297Y00372203D01*
X00870204D01*
X00868963Y00373032D01*
X00867500Y00373323D01*
X00866037Y00373032D01*
X00864797Y00372203D01*
X00863704D01*
X00862463Y00373032D01*
X00861000Y00373323D01*
X00859537Y00373032D01*
X00858297Y00372203D01*
X00857204D01*
X00855963Y00373032D01*
X00854500Y00373323D01*
X00853037Y00373032D01*
X00851797Y00372203D01*
X00850704D01*
X00849463Y00373032D01*
X00848000Y00373323D01*
X00846537Y00373032D01*
X00845297Y00372203D01*
X00844204D01*
X00842963Y00373032D01*
X00841500Y00373323D01*
X00840037Y00373032D01*
X00838797Y00372203D01*
X00837704D01*
X00836463Y00373032D01*
X00835000Y00373323D01*
X00833537Y00373032D01*
X00832297Y00372203D01*
X00831204D01*
X00829963Y00373032D01*
X00828500Y00373323D01*
X00827037Y00373032D01*
X00825797Y00372203D01*
X00824704D01*
X00823463Y00373032D01*
X00822000Y00373323D01*
X00820537Y00373032D01*
X00819297Y00372203D01*
X00818204D01*
X00816963Y00373032D01*
X00815500Y00373323D01*
X00814037Y00373032D01*
X00812796Y00372203D01*
X00811704D01*
X00810463Y00373032D01*
X00809000Y00373323D01*
X00807537Y00373032D01*
X00806296Y00372203D01*
X00805204D01*
X00803963Y00373032D01*
X00802500Y00373323D01*
X00801037Y00373032D01*
X00799797Y00372203D01*
X00798704D01*
X00797463Y00373032D01*
X00796000Y00373323D01*
X00794537Y00373032D01*
X00793297Y00372203D01*
X00792204D01*
X00790963Y00373032D01*
X00789500Y00373323D01*
X00788037Y00373032D01*
X00786796Y00372203D01*
X00785704D01*
X00784463Y00373032D01*
X00783000Y00373323D01*
X00781537Y00373032D01*
X00780296Y00372203D01*
X00779468Y00370963D01*
X00779177Y00369500D01*
X00779468Y00368037D01*
X00780296Y00366796D01*
X00781537Y00365968D01*
X00783000Y00365676D01*
X00784463Y00365968D01*
X00785704Y00366796D01*
X00786796D01*
X00788037Y00365968D01*
X00789500Y00365676D01*
X00790963Y00365968D01*
X00792204Y00366796D01*
X00793297D01*
X00794537Y00365968D01*
X00796000Y00365676D01*
X00797463Y00365968D01*
X00798704Y00366796D01*
X00799797D01*
X00801037Y00365968D01*
X00802500Y00365676D01*
X00803963Y00365968D01*
X00805204Y00366796D01*
X00806296D01*
X00807537Y00365968D01*
X00809000Y00365676D01*
X00810463Y00365968D01*
X00811704Y00366796D01*
X00812796D01*
X00814037Y00365968D01*
X00815500Y00365676D01*
X00816963Y00365968D01*
X00818204Y00366796D01*
X00819297D01*
X00820537Y00365968D01*
X00822000Y00365676D01*
X00823463Y00365968D01*
X00824704Y00366796D01*
X00825797D01*
X00827037Y00365968D01*
X00828500Y00365676D01*
X00829963Y00365968D01*
X00831204Y00366796D01*
X00832297D01*
X00833537Y00365968D01*
X00835000Y00365676D01*
X00836463Y00365968D01*
X00837704Y00366796D01*
X00838797D01*
X00840037Y00365968D01*
X00841500Y00365676D01*
X00842963Y00365968D01*
X00844204Y00366796D01*
X00845297D01*
X00846537Y00365968D01*
X00848000Y00365676D01*
X00849463Y00365968D01*
X00850704Y00366796D01*
X00851797D01*
X00853037Y00365968D01*
X00854500Y00365676D01*
X00855963Y00365968D01*
X00857204Y00366796D01*
X00858297D01*
X00859537Y00365968D01*
X00861000Y00365676D01*
X00862463Y00365968D01*
X00863704Y00366796D01*
X00864797D01*
X00866037Y00365968D01*
X00867500Y00365676D01*
X00868963Y00365968D01*
X00870204Y00366796D01*
X00871297D01*
X00872537Y00365968D01*
X00874000Y00365676D01*
X00874483Y00365773D01*
X00876648Y00363608D01*
X00876648Y00363608D01*
X00877392Y00363111D01*
X00878270Y00362936D01*
X00888769D01*
X00889647Y00363111D01*
X00890391Y00363608D01*
X00892892Y00366109D01*
X00892892Y00366109D01*
X00893390Y00366853D01*
X00893487Y00367345D01*
X00893917Y00367630D01*
X00894408Y00367813D01*
X00894834Y00367854D01*
X00895787Y00367218D01*
X00897250Y00366926D01*
X00898713Y00367218D01*
X00899954Y00368046D01*
X00900782Y00369287D01*
X00901073Y00370750D01*
X00900782Y00372213D01*
X00899954Y00373454D01*
X00898713Y00374282D01*
X00897250Y00374573D01*
X00895787Y00374282D01*
X00894834Y00373646D01*
X00893837Y00373999D01*
X00893564Y00374208D01*
Y00380519D01*
X00894834Y00381339D01*
X00895750Y00381157D01*
X00897213Y00381448D01*
X00898454Y00382276D01*
X00899282Y00383517D01*
X00899573Y00384980D01*
X00899282Y00386443D01*
X00898454Y00387684D01*
X00897213Y00388512D01*
X00895750Y00388803D01*
X00894287Y00388512D01*
X00893046Y00387684D01*
X00892315Y00386589D01*
X00891602Y00386256D01*
X00891027Y00386082D01*
X00888986Y00388122D01*
X00888242Y00388619D01*
X00887364Y00388794D01*
X00827450D01*
X00825767Y00390477D01*
X00826262Y00391778D01*
X00827213Y00391968D01*
X00828454Y00392797D01*
X00829282Y00394037D01*
X00829573Y00395500D01*
X00829282Y00396963D01*
X00828454Y00398204D01*
X00827569Y00398795D01*
X00827514Y00398976D01*
Y00400024D01*
X00827569Y00400206D01*
X00828454Y00400797D01*
X00829282Y00402037D01*
X00829573Y00403500D01*
X00829282Y00404963D01*
X00828454Y00406204D01*
X00827569Y00406795D01*
X00827514Y00406976D01*
Y00408024D01*
X00827569Y00408206D01*
X00828454Y00408797D01*
X00829282Y00410037D01*
X00829573Y00411500D01*
X00829282Y00412963D01*
X00828454Y00414204D01*
X00827569Y00414795D01*
X00827514Y00414976D01*
Y00416025D01*
X00827569Y00416206D01*
X00828454Y00416796D01*
X00829282Y00418037D01*
X00829573Y00419500D01*
X00829282Y00420963D01*
X00828454Y00422204D01*
X00827569Y00422794D01*
X00827514Y00422976D01*
Y00424025D01*
X00827569Y00424206D01*
X00828454Y00424796D01*
X00829282Y00426037D01*
X00829573Y00427500D01*
X00829282Y00428963D01*
X00828454Y00430204D01*
X00827569Y00430794D01*
X00827514Y00430976D01*
Y00432024D01*
X00827569Y00432206D01*
X00828454Y00432796D01*
X00829282Y00434037D01*
X00829573Y00435500D01*
X00829282Y00436963D01*
X00828454Y00438204D01*
X00827569Y00438794D01*
X00827514Y00438976D01*
Y00440024D01*
X00827569Y00440206D01*
X00828454Y00440796D01*
X00829282Y00442037D01*
X00829573Y00443500D01*
X00829282Y00444963D01*
X00828454Y00446204D01*
X00828948Y00447400D01*
X00829708Y00448537D01*
X00829999Y00450000D01*
X00829708Y00451463D01*
X00828879Y00452704D01*
X00827638Y00453532D01*
X00826175Y00453823D01*
X00824712Y00453532D01*
X00823472Y00452704D01*
X00823314Y00452468D01*
X00822044Y00452853D01*
Y00469500D01*
X00821869Y00470378D01*
X00821372Y00471122D01*
X00813477Y00479017D01*
X00813573Y00479500D01*
X00813282Y00480963D01*
X00812454Y00482203D01*
X00811569Y00482794D01*
X00811514Y00482976D01*
Y00484024D01*
X00811569Y00484206D01*
X00812454Y00484796D01*
X00813282Y00486037D01*
X00813573Y00487500D01*
X00813282Y00488963D01*
X00812454Y00490204D01*
X00811569Y00490794D01*
X00811514Y00490975D01*
Y00492024D01*
X00811569Y00492206D01*
X00812454Y00492796D01*
X00813282Y00494037D01*
X00813573Y00495500D01*
X00813282Y00496963D01*
X00812454Y00498204D01*
X00811569Y00498794D01*
X00811514Y00498975D01*
Y00500024D01*
X00811569Y00500205D01*
X00812454Y00500796D01*
X00813282Y00502037D01*
X00813573Y00503500D01*
X00813282Y00504963D01*
X00812454Y00506203D01*
X00812365Y00507790D01*
X00812531Y00508038D01*
X00812822Y00509501D01*
X00812531Y00510965D01*
X00811702Y00512205D01*
X00810462Y00513034D01*
X00809764Y00513173D01*
X00809480Y00513229D01*
Y00514524D01*
X00809764Y00514581D01*
X00810462Y00514720D01*
X00811702Y00515548D01*
X00812531Y00516789D01*
X00812822Y00518252D01*
X00812531Y00519715D01*
X00811702Y00520956D01*
X00810462Y00521784D01*
X00809489Y00521978D01*
X00809500Y00523176D01*
X00810963Y00523468D01*
X00812204Y00524296D01*
X00813032Y00525537D01*
X00813323Y00527000D01*
X00813032Y00528463D01*
X00812204Y00529704D01*
X00810963Y00530532D01*
X00809500Y00530823D01*
X00808037Y00530532D01*
X00807814Y00530383D01*
X00806544Y00531062D01*
Y00532344D01*
X00809656Y00535456D01*
X00833603D01*
X00834282Y00534186D01*
X00833968Y00533716D01*
X00833677Y00532253D01*
X00833968Y00530789D01*
X00834797Y00529549D01*
X00836037Y00528720D01*
X00837500Y00528429D01*
X00838963Y00528720D01*
X00840204Y00529549D01*
X00840436Y00529896D01*
X00841706Y00529511D01*
Y00526700D01*
X00838233Y00523227D01*
X00837750Y00523323D01*
X00836287Y00523032D01*
X00835046Y00522203D01*
X00834218Y00520963D01*
X00834106Y00520400D01*
X00833000Y00519325D01*
X00831537Y00519034D01*
X00830296Y00518205D01*
X00830138Y00517968D01*
X00828611D01*
X00828454Y00518203D01*
X00827569Y00518794D01*
X00827514Y00518975D01*
Y00520024D01*
X00827569Y00520205D01*
X00828454Y00520796D01*
X00829282Y00522037D01*
X00829573Y00523500D01*
X00829282Y00524963D01*
X00829697Y00526628D01*
X00829953Y00526799D01*
X00830782Y00528039D01*
X00831073Y00529502D01*
X00830782Y00530966D01*
X00829953Y00532206D01*
X00828713Y00533035D01*
X00827250Y00533326D01*
X00825787Y00533035D01*
X00824546Y00532206D01*
X00823717Y00530966D01*
X00823426Y00529502D01*
X00823717Y00528039D01*
X00823302Y00526374D01*
X00823046Y00526203D01*
X00822218Y00524963D01*
X00821927Y00523500D01*
X00822218Y00522037D01*
X00823046Y00520796D01*
X00823931Y00520205D01*
X00823986Y00520024D01*
Y00518975D01*
X00823931Y00518794D01*
X00823046Y00518203D01*
X00822218Y00516963D01*
X00821927Y00515500D01*
X00822218Y00514037D01*
X00823046Y00512796D01*
X00823931Y00512206D01*
X00823986Y00512024D01*
Y00510975D01*
X00823931Y00510794D01*
X00823046Y00510203D01*
X00822218Y00508963D01*
X00821927Y00507500D01*
X00822218Y00506037D01*
X00823046Y00504796D01*
X00823931Y00504206D01*
X00823986Y00504024D01*
Y00502976D01*
X00823931Y00502794D01*
X00823046Y00502203D01*
X00822218Y00500963D01*
X00821927Y00499500D01*
X00822218Y00498037D01*
X00823046Y00496796D01*
X00823931Y00496205D01*
X00823986Y00496024D01*
Y00494976D01*
X00823931Y00494794D01*
X00823046Y00494203D01*
X00822218Y00492963D01*
X00821927Y00491500D01*
X00822218Y00490037D01*
X00823046Y00488796D01*
X00823931Y00488205D01*
X00823986Y00488024D01*
Y00486976D01*
X00823931Y00486794D01*
X00823046Y00486203D01*
X00822218Y00484963D01*
X00821927Y00483500D01*
X00822218Y00482037D01*
X00823046Y00480796D01*
X00823844Y00480263D01*
X00823976Y00478941D01*
X00823931Y00478794D01*
X00823796Y00478703D01*
X00822967Y00477463D01*
X00822676Y00476000D01*
X00822967Y00474537D01*
X00823796Y00473296D01*
X00825037Y00472467D01*
X00826500Y00472176D01*
X00827963Y00472467D01*
X00829203Y00473296D01*
X00830032Y00474537D01*
X00830323Y00476000D01*
X00830032Y00477463D01*
X00829203Y00478703D01*
X00828405Y00479237D01*
X00828274Y00480559D01*
X00828318Y00480706D01*
X00828454Y00480796D01*
X00829282Y00482037D01*
X00829573Y00483500D01*
X00829282Y00484963D01*
X00828454Y00486203D01*
X00827569Y00486794D01*
X00827514Y00486976D01*
Y00488024D01*
X00827569Y00488205D01*
X00828454Y00488796D01*
X00829282Y00490037D01*
X00829573Y00491500D01*
X00829282Y00492963D01*
X00828454Y00494203D01*
X00827569Y00494794D01*
X00827514Y00494976D01*
Y00496024D01*
X00827569Y00496205D01*
X00828454Y00496796D01*
X00829282Y00498037D01*
X00829573Y00499500D01*
X00829282Y00500963D01*
X00828454Y00502203D01*
X00827569Y00502794D01*
X00827514Y00502976D01*
Y00504024D01*
X00827569Y00504206D01*
X00828454Y00504796D01*
X00829282Y00506037D01*
X00829573Y00507500D01*
X00829282Y00508963D01*
X00828454Y00510203D01*
X00827569Y00510794D01*
X00827514Y00510975D01*
Y00512024D01*
X00827569Y00512206D01*
X00828454Y00512796D01*
X00828465Y00512813D01*
X00829782Y00512901D01*
X00830706Y00511998D01*
Y00510211D01*
X00830881Y00509333D01*
X00831378Y00508589D01*
X00834750Y00505217D01*
X00834750Y00505217D01*
X00834659Y00504421D01*
X00834512Y00503849D01*
X00833359Y00503078D01*
X00832530Y00501838D01*
X00832239Y00500375D01*
X00832530Y00498912D01*
X00833359Y00497671D01*
X00834600Y00496842D01*
X00835808Y00496602D01*
X00835823Y00496554D01*
X00835161Y00495127D01*
X00833920Y00494298D01*
X00833092Y00493058D01*
X00832801Y00491595D01*
X00833092Y00490132D01*
X00833920Y00488891D01*
X00835161Y00488062D01*
X00835445Y00488006D01*
Y00486711D01*
X00834237Y00486471D01*
X00832997Y00485642D01*
X00832168Y00484401D01*
X00831877Y00482938D01*
X00832168Y00481475D01*
X00832997Y00480235D01*
X00834237Y00479406D01*
X00835700Y00479115D01*
X00836505Y00479275D01*
X00837201Y00478810D01*
X00838079Y00478636D01*
X00850143D01*
X00851039Y00477366D01*
X00850890Y00476614D01*
X00851030Y00475908D01*
X00850112Y00474638D01*
X00838666D01*
X00837954Y00475704D01*
X00836713Y00476532D01*
X00835250Y00476823D01*
X00833787Y00476532D01*
X00832546Y00475704D01*
X00831718Y00474463D01*
X00831427Y00473000D01*
X00831718Y00471537D01*
X00832546Y00470296D01*
X00833787Y00469468D01*
X00835250Y00469177D01*
X00836713Y00469468D01*
X00837584Y00470050D01*
X00849637D01*
X00849753Y00469832D01*
X00850181Y00468779D01*
X00849927Y00467500D01*
X00850218Y00466037D01*
X00851046Y00464796D01*
X00851931Y00464206D01*
X00851986Y00464024D01*
Y00462976D01*
X00851931Y00462794D01*
X00851046Y00462203D01*
X00850218Y00460963D01*
X00849927Y00459500D01*
X00850218Y00458037D01*
X00851046Y00456796D01*
X00852287Y00455968D01*
X00853750Y00455676D01*
X00855213Y00455968D01*
X00856454Y00456796D01*
X00857282Y00458037D01*
X00857573Y00459500D01*
X00857282Y00460963D01*
X00856454Y00462203D01*
X00855569Y00462794D01*
X00855514Y00462976D01*
Y00464024D01*
X00855569Y00464206D01*
X00856454Y00464796D01*
X00856727Y00465206D01*
X00860183D01*
X00861061Y00465381D01*
X00861686Y00465798D01*
X00862449Y00465611D01*
X00862956Y00465401D01*
Y00433946D01*
X00859523Y00430513D01*
X00858672Y00430857D01*
X00858306Y00431092D01*
X00858034Y00432461D01*
X00857205Y00433701D01*
X00855964Y00434530D01*
X00854501Y00434821D01*
X00853038Y00434530D01*
X00851797Y00433701D01*
X00850969Y00432461D01*
X00850678Y00430998D01*
X00850969Y00429534D01*
X00851797Y00428294D01*
X00853038Y00427465D01*
X00854020Y00427270D01*
Y00425975D01*
X00853038Y00425780D01*
X00851797Y00424951D01*
X00850969Y00423710D01*
X00850678Y00422247D01*
X00850863Y00421314D01*
X00850052Y00420044D01*
X00844450D01*
X00841477Y00423017D01*
X00841573Y00423500D01*
X00841282Y00424963D01*
X00840454Y00426204D01*
X00839912Y00426566D01*
X00839462Y00428179D01*
X00839533Y00428284D01*
X00839824Y00429748D01*
X00839533Y00431211D01*
X00839367Y00431459D01*
X00839454Y00433044D01*
X00840283Y00434285D01*
X00840574Y00435748D01*
X00840283Y00437211D01*
X00839454Y00438451D01*
X00839338Y00438529D01*
X00839185Y00440159D01*
X00839626Y00440820D01*
X00839917Y00442283D01*
X00839626Y00443746D01*
X00838798Y00444986D01*
X00838336Y00445295D01*
Y00446822D01*
X00838485Y00446922D01*
X00839314Y00448163D01*
X00839605Y00449626D01*
X00839390Y00450708D01*
X00839213Y00451968D01*
X00840454Y00452796D01*
X00841282Y00454037D01*
X00841573Y00455500D01*
X00841282Y00456963D01*
X00840454Y00458204D01*
X00839213Y00459032D01*
X00837750Y00459323D01*
X00836287Y00459032D01*
X00835046Y00458204D01*
X00834218Y00456963D01*
X00833927Y00455500D01*
X00834142Y00454418D01*
X00834318Y00453158D01*
X00833078Y00452329D01*
X00832249Y00451089D01*
X00831958Y00449626D01*
X00832249Y00448163D01*
X00833078Y00446922D01*
X00833540Y00446614D01*
Y00445086D01*
X00833390Y00444986D01*
X00832562Y00443746D01*
X00832271Y00442283D01*
X00832562Y00440820D01*
X00833390Y00439579D01*
X00833506Y00439502D01*
X00833660Y00437872D01*
X00833218Y00437211D01*
X00832927Y00435748D01*
X00833218Y00434285D01*
X00833384Y00434037D01*
X00833297Y00432451D01*
X00832468Y00431211D01*
X00832177Y00429748D01*
X00832468Y00428284D01*
X00833297Y00427044D01*
X00833839Y00426682D01*
X00834288Y00425068D01*
X00834218Y00424963D01*
X00833927Y00423500D01*
X00834218Y00422037D01*
X00835046Y00420797D01*
X00836287Y00419968D01*
X00837750Y00419677D01*
X00838233Y00419773D01*
X00841878Y00416128D01*
X00842622Y00415631D01*
X00843500Y00415456D01*
X00843500Y00415456D01*
X00860371D01*
X00861249Y00415631D01*
X00861993Y00416128D01*
X00869872Y00424007D01*
X00870369Y00424751D01*
X00870544Y00425629D01*
Y00466131D01*
X00904372Y00499959D01*
X00904372Y00499959D01*
X00904770Y00500555D01*
X00905367Y00500588D01*
X00906092Y00500420D01*
X00906218Y00499787D01*
X00906846Y00498847D01*
X00906968Y00498000D01*
X00906846Y00497153D01*
X00906218Y00496213D01*
X00905927Y00494750D01*
X00906218Y00493287D01*
X00906846Y00492347D01*
X00906968Y00491500D01*
X00906846Y00490653D01*
X00906218Y00489713D01*
X00905927Y00488250D01*
X00906218Y00486787D01*
X00906846Y00485847D01*
X00906968Y00485000D01*
X00906846Y00484153D01*
X00906218Y00483213D01*
X00905927Y00481750D01*
X00906218Y00480287D01*
X00906846Y00479347D01*
X00906968Y00478500D01*
X00906846Y00477653D01*
X00906218Y00476713D01*
X00905927Y00475250D01*
X00906218Y00473787D01*
X00906846Y00472847D01*
X00906968Y00472000D01*
X00906846Y00471153D01*
X00906218Y00470213D01*
X00905927Y00468750D01*
X00906218Y00467287D01*
X00906846Y00466347D01*
X00906968Y00465500D01*
X00906846Y00464653D01*
X00906218Y00463713D01*
X00905927Y00462250D01*
X00906218Y00460787D01*
X00906846Y00459847D01*
X00906968Y00459000D01*
X00906846Y00458153D01*
X00906218Y00457213D01*
X00905927Y00455750D01*
X00906218Y00454287D01*
X00906846Y00453347D01*
X00906968Y00452500D01*
X00906846Y00451653D01*
X00906218Y00450713D01*
X00905927Y00449250D01*
X00906218Y00447787D01*
X00906846Y00446847D01*
X00906968Y00446000D01*
X00906846Y00445153D01*
X00906218Y00444213D01*
X00905927Y00442750D01*
X00906218Y00441287D01*
X00907046Y00440047D01*
X00908287Y00439218D01*
X00909750Y00438927D01*
X00911213Y00439218D01*
X00912454Y00440047D01*
X00913282Y00441287D01*
X00913573Y00442750D01*
X00913282Y00444213D01*
X00912654Y00445153D01*
X00912532Y00446000D01*
X00912654Y00446847D01*
X00913282Y00447787D01*
X00913573Y00449250D01*
X00913282Y00450713D01*
X00912654Y00451653D01*
X00912532Y00452500D01*
X00912654Y00453347D01*
X00913282Y00454287D01*
X00913573Y00455750D01*
X00913282Y00457213D01*
X00912654Y00458153D01*
X00912532Y00459000D01*
X00912654Y00459847D01*
X00913282Y00460787D01*
X00913573Y00462250D01*
X00913282Y00463713D01*
X00912654Y00464653D01*
X00912532Y00465500D01*
X00912654Y00466347D01*
X00913282Y00467287D01*
X00913573Y00468750D01*
X00913282Y00470213D01*
X00912654Y00471153D01*
X00912532Y00472000D01*
X00912654Y00472847D01*
X00913282Y00473787D01*
X00913573Y00475250D01*
X00913282Y00476713D01*
X00912654Y00477653D01*
X00912532Y00478500D01*
X00912654Y00479347D01*
X00913282Y00480287D01*
X00913573Y00481750D01*
X00913282Y00483213D01*
X00912654Y00484153D01*
X00912532Y00485000D01*
X00912654Y00485847D01*
X00913282Y00486787D01*
X00913573Y00488250D01*
X00913282Y00489713D01*
X00912654Y00490653D01*
X00912532Y00491500D01*
X00912654Y00492347D01*
X00913282Y00493287D01*
X00913573Y00494750D01*
X00913282Y00496213D01*
X00912654Y00497153D01*
X00912532Y00498000D01*
X00912654Y00498847D01*
X00913282Y00499787D01*
X00913573Y00501250D01*
X00913282Y00502713D01*
X00912654Y00503653D01*
X00912532Y00504500D01*
X00912654Y00505347D01*
X00913282Y00506287D01*
X00913573Y00507750D01*
X00913282Y00509213D01*
X00912654Y00510153D01*
X00912532Y00511000D01*
X00912654Y00511847D01*
X00913282Y00512787D01*
X00913573Y00514250D01*
X00913282Y00515713D01*
X00912654Y00516653D01*
X00912532Y00517500D01*
X00912654Y00518347D01*
X00913282Y00519287D01*
X00913573Y00520750D01*
X00913282Y00522213D01*
X00912654Y00523153D01*
X00912532Y00524000D01*
X00912654Y00524847D01*
X00913282Y00525787D01*
X00913573Y00527250D01*
X00913282Y00528713D01*
X00912654Y00529653D01*
X00912532Y00530500D01*
X00912654Y00531347D01*
X00913282Y00532287D01*
X00913573Y00533750D01*
X00913282Y00535213D01*
X00912654Y00536153D01*
X00912532Y00537000D01*
X00912654Y00537847D01*
X00913282Y00538787D01*
X00913573Y00540250D01*
X00913282Y00541713D01*
X00912654Y00542653D01*
X00912532Y00543500D01*
X00912654Y00544347D01*
X00913282Y00545287D01*
X00913573Y00546750D01*
X00913282Y00548214D01*
X00912454Y00549454D01*
X00911213Y00550283D01*
X00909750Y00550574D01*
X00908287Y00550283D01*
X00907046Y00549454D01*
X00906991Y00549370D01*
X00905287Y00549107D01*
X00905044Y00549302D01*
Y00552639D01*
X00905044Y00552639D01*
X00904869Y00553517D01*
X00904372Y00554261D01*
X00874261Y00584372D01*
X00873517Y00584869D01*
X00872639Y00585044D01*
D02*
G37*
G36*
X00836990Y00468205D02*
X00835527Y00467914D01*
X00834287Y00467085D01*
X00833458Y00465845D01*
X00833167Y00464382D01*
X00833458Y00462919D01*
X00834287Y00461678D01*
X00835527Y00460849D01*
X00836990Y00460559D01*
X00838453Y00460849D01*
X00839694Y00461678D01*
X00840523Y00462919D01*
X00840814Y00464382D01*
X00840523Y00465845D01*
X00839694Y00467085D01*
X00838453Y00467914D01*
X00836990Y00468205D01*
D02*
G37*
G36*
X00854750Y00445323D02*
X00853287Y00445032D01*
X00852046Y00444204D01*
X00851218Y00442963D01*
X00850927Y00441500D01*
X00851218Y00440037D01*
X00852046Y00438796D01*
X00853287Y00437968D01*
X00854750Y00437677D01*
X00856213Y00437968D01*
X00857454Y00438796D01*
X00858282Y00440037D01*
X00858573Y00441500D01*
X00858282Y00442963D01*
X00857454Y00444204D01*
X00856213Y00445032D01*
X00854750Y00445323D01*
D02*
G37*
G36*
X00908500Y00433573D02*
X00907037Y00433282D01*
X00905796Y00432454D01*
X00904968Y00431213D01*
X00904677Y00429750D01*
X00904968Y00428287D01*
X00905791Y00427055D01*
X00906050Y00426650D01*
Y00425701D01*
X00905221Y00424460D01*
X00904930Y00422997D01*
X00905221Y00421534D01*
X00906050Y00420294D01*
X00906061Y00420287D01*
X00906092Y00418738D01*
X00905468Y00417803D01*
X00905177Y00416340D01*
X00905468Y00414877D01*
X00906296Y00413636D01*
X00907537Y00412808D01*
X00909000Y00412516D01*
X00910463Y00412808D01*
X00911704Y00413636D01*
X00912532Y00414877D01*
X00912823Y00416340D01*
X00912532Y00417803D01*
X00911704Y00419043D01*
X00911693Y00419050D01*
X00911661Y00420599D01*
X00912286Y00421534D01*
X00912577Y00422997D01*
X00912286Y00424460D01*
X00911463Y00425692D01*
X00911204Y00426097D01*
Y00427046D01*
X00912032Y00428287D01*
X00912323Y00429750D01*
X00912032Y00431213D01*
X00911204Y00432454D01*
X00909963Y00433282D01*
X00908500Y00433573D01*
D02*
G37*
G36*
X00836500Y00414073D02*
X00835037Y00413782D01*
X00833796Y00412954D01*
X00832968Y00411713D01*
X00832677Y00410250D01*
X00832968Y00408787D01*
X00833796Y00407546D01*
X00835037Y00406718D01*
X00836500Y00406427D01*
X00837963Y00406718D01*
X00839204Y00407546D01*
X00840032Y00408787D01*
X00840323Y00410250D01*
X00840032Y00411713D01*
X00839204Y00412954D01*
X00837963Y00413782D01*
X00836500Y00414073D01*
D02*
G37*
G36*
X00805999Y00414320D02*
X00804536Y00414029D01*
X00803295Y00413200D01*
X00802466Y00411960D01*
X00802175Y00410497D01*
X00802466Y00409034D01*
X00803295Y00407793D01*
X00804536Y00406964D01*
X00805043Y00406863D01*
X00805275Y00406817D01*
Y00405522D01*
X00804986Y00405465D01*
X00804069Y00405282D01*
X00802829Y00404454D01*
X00802000Y00403213D01*
X00801709Y00401750D01*
X00802000Y00400287D01*
X00802829Y00399046D01*
X00804069Y00398218D01*
X00805532Y00397926D01*
X00806995Y00398218D01*
X00808236Y00399046D01*
X00809065Y00400287D01*
X00809356Y00401750D01*
X00809065Y00403213D01*
X00808236Y00404454D01*
X00806995Y00405282D01*
X00806488Y00405383D01*
X00806256Y00405429D01*
Y00406724D01*
X00806545Y00406782D01*
X00807462Y00406964D01*
X00808702Y00407793D01*
X00809531Y00409034D01*
X00809822Y00410497D01*
X00809531Y00411960D01*
X00808702Y00413200D01*
X00807462Y00414029D01*
X00805999Y00414320D01*
D02*
G37*
G36*
X00867000Y00400323D02*
X00865537Y00400032D01*
X00864296Y00399204D01*
X00863468Y00397963D01*
X00863177Y00396500D01*
X00863468Y00395037D01*
X00864296Y00393796D01*
X00865537Y00392968D01*
X00867000Y00392677D01*
X00868463Y00392968D01*
X00869704Y00393796D01*
X00870532Y00395037D01*
X00870823Y00396500D01*
X00870532Y00397963D01*
X00869704Y00399204D01*
X00868463Y00400032D01*
X00867000Y00400323D01*
D02*
G37*
G36*
X00836093Y00399324D02*
X00834630Y00399033D01*
X00833390Y00398204D01*
X00832561Y00396963D01*
X00832270Y00395500D01*
X00832561Y00394037D01*
X00833390Y00392797D01*
X00834630Y00391968D01*
X00836093Y00391677D01*
X00837556Y00391968D01*
X00838797Y00392797D01*
X00839625Y00394037D01*
X00839917Y00395500D01*
X00839625Y00396963D01*
X00838797Y00398204D01*
X00837556Y00399033D01*
X00836093Y00399324D01*
D02*
G37*
G36*
X00899702Y00399020D02*
X00898239Y00398729D01*
X00896998Y00397900D01*
X00896169Y00396660D01*
X00895878Y00395196D01*
X00896169Y00393733D01*
X00896998Y00392493D01*
X00898239Y00391664D01*
X00899702Y00391373D01*
X00901165Y00391664D01*
X00902405Y00392493D01*
X00903234Y00393733D01*
X00903525Y00395196D01*
X00903234Y00396660D01*
X00902405Y00397900D01*
X00901165Y00398729D01*
X00899702Y00399020D01*
D02*
G37*
G36*
X00804750Y00396356D02*
X00803287Y00396065D01*
X00802046Y00395236D01*
X00801218Y00393995D01*
X00800927Y00392532D01*
X00801218Y00391069D01*
X00802046Y00389829D01*
X00803287Y00389000D01*
X00804750Y00388709D01*
X00806213Y00389000D01*
X00807454Y00389829D01*
X00808282Y00391069D01*
X00808573Y00392532D01*
X00808282Y00393995D01*
X00807454Y00395236D01*
X00806213Y00396065D01*
X00804750Y00396356D01*
D02*
G37*
G36*
X00806750Y00386073D02*
X00805287Y00385782D01*
X00804046Y00384954D01*
X00803218Y00383713D01*
X00802927Y00382250D01*
X00803218Y00380787D01*
X00804046Y00379546D01*
X00805287Y00378718D01*
X00806750Y00378427D01*
X00808213Y00378718D01*
X00809454Y00379546D01*
X00810282Y00380787D01*
X00810573Y00382250D01*
X00810282Y00383713D01*
X00809454Y00384954D01*
X00808213Y00385782D01*
X00806750Y00386073D01*
D02*
G37*
G36*
X00764250Y00382323D02*
X00762787Y00382032D01*
X00761546Y00381204D01*
X00760718Y00379963D01*
X00760427Y00378500D01*
X00760718Y00377037D01*
X00761546Y00375796D01*
X00762787Y00374968D01*
X00764250Y00374677D01*
X00765713Y00374968D01*
X00766954Y00375796D01*
X00767782Y00377037D01*
X00768073Y00378500D01*
X00767782Y00379963D01*
X00766954Y00381204D01*
X00765713Y00382032D01*
X00764250Y00382323D01*
D02*
G37*
G36*
X00770000Y00373323D02*
X00768537Y00373032D01*
X00767296Y00372203D01*
X00766468Y00370963D01*
X00766177Y00369500D01*
X00766468Y00368037D01*
X00767296Y00366796D01*
X00768537Y00365968D01*
X00770000Y00365676D01*
X00771463Y00365968D01*
X00772704Y00366796D01*
X00773532Y00368037D01*
X00773823Y00369500D01*
X00773532Y00370963D01*
X00772704Y00372203D01*
X00771463Y00373032D01*
X00770000Y00373323D01*
D02*
G37*
%LPD*%
D12*
X00808706Y00537750D02*
X00841000D01*
X00844000Y00525750D02*
Y00534750D01*
X00841000Y00537750D02*
X00844000Y00534750D01*
X00804250Y00533294D02*
X00808706Y00537750D01*
X00837750Y00519500D02*
X00844000Y00525750D01*
X00804250Y00434875D02*
Y00533294D01*
X00836063Y00500375D02*
X00836063D01*
X00838368Y00498070D02*
X00861055D01*
X00836063Y00500375D02*
X00838368Y00498070D01*
X00836624Y00491595D02*
X00836889D01*
X00839003Y00489481D01*
X00860951D01*
X00835700Y00482938D02*
X00836070D01*
X00838079Y00480930D01*
X00860885D01*
X00835021Y00471582D02*
X00835783Y00472343D01*
X00860785D01*
X00853750Y00467500D02*
X00860183D01*
X00854713Y00476614D02*
X00860812D01*
X00854550Y00485200D02*
X00860913D01*
X00854501Y00493751D02*
X00856257D01*
X00837750Y00511500D02*
X00841750Y00515500D01*
X00836372Y00506839D02*
X00861181D01*
X00833000Y00510211D02*
X00836372Y00506839D01*
X00801250Y00438250D02*
Y00534537D01*
X00753750Y00397250D02*
X00798250Y00441750D01*
Y00535779D01*
X00753750Y00403750D02*
X00795250Y00445250D01*
Y00537022D01*
X00753750Y00410250D02*
X00792250Y00448750D01*
Y00538265D01*
X00753750Y00416750D02*
X00789250Y00452250D01*
Y00539507D01*
X00753750Y00423250D02*
X00786250Y00455750D01*
Y00540750D01*
X00809750Y00479500D02*
X00819750Y00469500D01*
X00783250Y00459250D02*
Y00541992D01*
X00780250Y00462750D02*
Y00543235D01*
X00777250Y00466250D02*
Y00544478D01*
X00774250Y00469750D02*
Y00545720D01*
X00771250Y00473250D02*
Y00546963D01*
X00753750Y00462250D02*
X00768250Y00476750D01*
Y00548205D01*
X00753750Y00468750D02*
X00765250Y00480250D01*
Y00549448D01*
X00854653Y00502340D02*
X00861082D01*
X00854484Y00511109D02*
X00861208D01*
X00841750Y00515500D02*
X00861357D01*
X00854646Y00519804D02*
X00859871D01*
X00860785Y00472343D02*
X00893750Y00505309D01*
X00860812Y00476614D02*
X00890750Y00506552D01*
X00860885Y00480930D02*
X00887750Y00507794D01*
X00859871Y00519804D02*
X00860750Y00520682D01*
Y00535243D01*
X00855243Y00540750D02*
X00860750Y00535243D01*
X00807463Y00540750D02*
X00855243D01*
X00861357Y00515500D02*
X00863750Y00517893D01*
Y00536485D01*
X00856485Y00543750D02*
X00863750Y00536485D01*
X00806221Y00543750D02*
X00856485D01*
X00861208Y00511109D02*
X00866750Y00516651D01*
Y00537728D01*
X00861181Y00506839D02*
X00869750Y00515408D01*
Y00538970D01*
X00861082Y00502340D02*
X00872750Y00514007D01*
Y00540213D01*
X00861055Y00498070D02*
X00875750Y00512765D01*
Y00541456D01*
X00856257Y00493751D02*
X00856367Y00493860D01*
X00861088D01*
X00878750Y00511522D01*
Y00542698D01*
X00860951Y00489481D02*
X00881750Y00510280D01*
Y00543941D01*
X00860913Y00485200D02*
X00884750Y00509037D01*
Y00545183D01*
X00887750Y00507794D02*
Y00546426D01*
X00890750Y00506552D02*
Y00547669D01*
X00860183Y00467500D02*
X00896750Y00504067D01*
X00854501Y00422247D02*
X00865250Y00432996D01*
X00843500Y00417750D02*
X00860371D01*
X00857728Y00546750D02*
X00866750Y00537728D01*
X00858970Y00549750D02*
X00869750Y00538970D01*
X00860213Y00552750D02*
X00872750Y00540213D01*
X00861456Y00555750D02*
X00875750Y00541456D01*
X00862698Y00558750D02*
X00878750Y00542698D01*
X00863941Y00561750D02*
X00881750Y00543941D01*
X00865183Y00564750D02*
X00884750Y00545183D01*
X00866426Y00567750D02*
X00887750Y00546426D01*
X00867669Y00570750D02*
X00890750Y00547669D01*
X00868911Y00573750D02*
X00893750Y00548911D01*
X00870154Y00576750D02*
X00896750Y00550154D01*
X00871397Y00579750D02*
X00899750Y00551397D01*
X00872639Y00582750D02*
X00902750Y00552639D01*
X00833000Y00510211D02*
Y00515502D01*
X00819750Y00393250D02*
Y00469500D01*
X00826500Y00386500D02*
X00887364D01*
X00819750Y00393250D02*
X00826500Y00386500D01*
X00887364D02*
X00891270Y00382594D01*
X00814301Y00393699D02*
X00824500Y00383500D01*
X00886122D01*
X00814301Y00393699D02*
Y00466949D01*
X00860371Y00417750D02*
X00868250Y00425629D01*
X00837750Y00423500D02*
X00843500Y00417750D01*
X00865250Y00468324D02*
X00899750Y00502824D01*
X00865250Y00432996D02*
Y00468324D01*
X00868250Y00467081D02*
X00902750Y00501581D01*
X00868250Y00425629D02*
Y00467081D01*
X00893750Y00505309D02*
Y00548911D01*
X00896750Y00504067D02*
Y00550154D01*
X00899750Y00502824D02*
Y00551397D01*
X00902750Y00501581D02*
Y00552639D01*
X00878270Y00365230D02*
X00888769D01*
X00891270Y00367731D01*
X00874000Y00369500D02*
X00878270Y00365230D01*
X00891270Y00367731D02*
Y00382594D01*
X00886122Y00383500D02*
X00887000Y00382621D01*
Y00369500D02*
Y00382621D01*
X00762250Y00542250D02*
Y00550691D01*
X00753750Y00533750D02*
X00762250Y00542250D01*
X00759250Y00545750D02*
Y00552000D01*
X00753750Y00540250D02*
X00759250Y00545750D01*
X00804978Y00546750D02*
X00857728D01*
X00803735Y00549750D02*
X00858970D01*
X00802493Y00552750D02*
X00860213D01*
X00801250Y00555750D02*
X00861456D01*
X00800007Y00558750D02*
X00862698D01*
X00798765Y00561750D02*
X00863941D01*
X00797522Y00564750D02*
X00865183D01*
X00796280Y00567750D02*
X00866426D01*
X00795037Y00570750D02*
X00867669D01*
X00793794Y00573750D02*
X00868911D01*
X00792552Y00576750D02*
X00870154D01*
X00791309Y00579750D02*
X00871397D01*
X00790067Y00582750D02*
X00872639D01*
X00801250Y00534537D02*
X00807463Y00540750D01*
X00798250Y00535779D02*
X00806221Y00543750D01*
X00795250Y00537022D02*
X00804978Y00546750D01*
X00792250Y00538265D02*
X00803735Y00549750D01*
X00789250Y00539507D02*
X00802493Y00552750D01*
X00786250Y00540750D02*
X00801250Y00555750D01*
X00783250Y00541992D02*
X00800007Y00558750D01*
X00780250Y00543235D02*
X00798765Y00561750D01*
X00777250Y00544478D02*
X00797522Y00564750D01*
X00774250Y00545720D02*
X00796280Y00567750D01*
X00771250Y00546963D02*
X00795037Y00570750D01*
X00768250Y00548205D02*
X00793794Y00573750D01*
X00765250Y00549448D02*
X00792552Y00576750D01*
X00762250Y00550691D02*
X00791309Y00579750D01*
X00765067Y00557750D02*
X00790067Y00582750D01*
X00765000Y00557750D02*
X00765067D01*
X00759250Y00552000D02*
X00765000Y00557750D01*
X00809750Y00471500D02*
X00814301Y00466949D01*
X00753750Y00429750D02*
X00783250Y00459250D01*
X00753750Y00436250D02*
X00780250Y00462750D01*
X00753750Y00390750D02*
X00801250Y00438250D01*
X00753750Y00384375D02*
X00804250Y00434875D01*
X00753750Y00442750D02*
X00777250Y00466250D01*
X00753750Y00449250D02*
X00774250Y00469750D01*
X00753750Y00455750D02*
X00771250Y00473250D01*
X00753750Y00384250D02*
Y00384375D01*
X00903816Y00578011D02*
X00897818D01*
X00903816Y00584009D01*
Y00585508D01*
X00902317Y00587008D01*
X00899318D01*
X00897818Y00585508D01*
D22*
X00835000Y00526250D02*
D03*
X00853750Y00467500D02*
D03*
X00854713Y00476614D02*
D03*
X00854550Y00485200D02*
D03*
X00854501Y00493751D02*
D03*
X00837750Y00511500D02*
D03*
X00836063Y00500375D02*
D03*
X00836624Y00491595D02*
D03*
X00835250Y00473000D02*
D03*
X00825750Y00459500D02*
D03*
X00835700Y00482938D02*
D03*
X00809750Y00479500D02*
D03*
X00854653Y00502340D02*
D03*
X00854484Y00511109D02*
D03*
X00854646Y00519804D02*
D03*
X00837750Y00519500D02*
D03*
X00854501Y00422247D02*
D03*
X00833000Y00515502D02*
D03*
X00837750Y00423500D02*
D03*
X00836250Y00416250D02*
D03*
X00809000Y00587500D02*
D03*
X00753750Y00546750D02*
D03*
Y00533750D02*
D03*
Y00540250D02*
D03*
X00809750Y00471500D02*
D03*
X00874000Y00369500D02*
D03*
X00753750Y00468750D02*
D03*
Y00462250D02*
D03*
Y00455750D02*
D03*
Y00449250D02*
D03*
Y00442750D02*
D03*
Y00436250D02*
D03*
Y00429750D02*
D03*
Y00423250D02*
D03*
Y00416750D02*
D03*
Y00410250D02*
D03*
X00809750Y00375500D02*
D03*
X00837750D02*
D03*
X00753750Y00403750D02*
D03*
Y00397250D02*
D03*
Y00390750D02*
D03*
Y00384250D02*
D03*
X00880500Y00587500D02*
D03*
X00776500Y00369500D02*
D03*
X00887000D02*
D03*
X00909750Y00436250D02*
D03*
M02*
