M48
;Layer_Color=9474304
;FILE_FORMAT=4:4
METRIC
;TYPE=PLATED
T1F00S00C0.2000
T2F00S00C0.3000
T3F00S00C1.0000
T4F00S00C2.0000
%
T01
X00822270Y00626851
X00846500Y00623350
X00843613Y00663615
X00828685Y00663600
X00838113Y00676841
X00832020Y00684604
X00840521Y00690927
X00839271Y00702105
X00840271Y00711606
X00855500Y00711850
X00855416Y00719066
X00856467Y00726067
X00858772Y00731607
X00864772Y00732106
X00864500Y00726100
X00865000Y00719167
Y00713140
Y00707140
Y00698600
Y00691850
X00855224Y00689041
X00855250Y00696263
Y00704350
X00885500Y00699533
X00884125Y00693692
X00884500Y00717100
X00883273Y00733606
X00884500Y00743121
X00883523Y00753607
X00888023Y00765608
X00882071Y00774750
X00886500Y00784600
X00885000Y00793600
X00866772Y00793609
X00867941Y00787600
X00868000Y00781350
X00862094Y00786252
X00860750Y00792100
X00856272Y00778109
X00861250Y00773350
X00861772Y00766358
X00867772Y00766608
X00855750Y00764600
X00855785Y00749611
X00861022Y00746107
X00862000Y00752600
X00867941Y00747600
Y00739600
X00861250Y00738350
X00841521Y00728106
X00834844Y00747995
X00837891Y00753379
X00834250Y00767100
X00827250Y00762850
X00797750Y00764100
X00794000Y00750600
X00796269Y00670603
X00803769Y00670854
X00805158Y00664550
X00824750Y00695850
X00969250Y00690600
X00970750Y00682600
X00972250Y00674600
X00973750Y00666600
X00967750Y00660350
X00965750Y00651350
X00958413Y00651263
X00969250Y00705600
X00970750Y00713600
X00972250Y00721600
X00973750Y00729600
X00985250Y00753600
X00791268Y00762608
X00784000Y00768100
X00743629Y00761350
Y00751350
X00743473Y00741600
X00743629Y00731350
X00744500Y00723850
X00743629Y00711350
Y00701350
Y00691350
Y00681350
X00747714Y00676886
X00758500Y00680600
X00762750Y00666254
X00775518Y00667353
X00782518Y00666824
X00788519Y00664919
X00784500Y00704600
X00723015Y00706355
X00719515Y00711350
X00711500Y00715100
X00706750Y00726100
X00722802Y00726350
Y00736350
Y00746350
Y00756350
Y00766350
X00719250Y00771350
X00709000Y00780600
X00702500
X00681750Y00779350
X00669000Y00760850
X00655500Y00763100
X00655000Y00791350
X00720750Y00789600
X00742516Y00786609
X00695500Y00741100
X00685000Y00744600
X00681500Y00699350
X00690257Y00697125
X00696750Y00697350
X00708000Y00695350
X00706343Y00703725
X00722802Y00696350
Y00686350
X00716765Y00687354
X00708875Y00663600
X00686750Y00665850
X00679263Y00664603
X00674387Y00668100
X00673263Y00662103
X00682263Y00670854
X00688864Y00679204
X00680500Y00684100
X00672100Y00679104
X00669750Y00688850
X00669000Y00694818
X00663750Y00687600
X00662000Y00681600
X00657262Y00685354
X00651451Y00686850
X00645261Y00685104
X00639250Y00686350
X00632511Y00687875
X00614594Y00689444
X00609844Y00684665
X00602750Y00684350
X00614750Y00674850
X00614500Y00699600
X00615750Y00710100
X00615250Y00726600
X00624000Y00727100
X00611000Y00731850
X00649566Y00704317
X00637750Y00629850
X00629250Y00625600
X00610250
X00591000
X00600500Y00641600
X00616250
X00584000Y00667100
X00579000Y00662548
X00574000Y00667100
X00569000Y00662548
X00559000
X00549000Y00662548
X00540000Y00663100
X00509750Y00662600
X00509500Y00706100
X00509005Y00714856
X00509371Y00721350
Y00731350
Y00746350
X00507250Y00761100
X00503250Y00766350
X00509371Y00776350
Y00786350
X00505755Y00791359
X00530199Y00781350
X00542750Y00775350
X00542500Y00768600
X00530199Y00741350
Y00726350
Y00716350
X00530250Y00703600
X00530500Y00696600
X00530199Y00686350
X00564000Y00671850
X00465500Y00700100
X00452750Y00699600
X00432750Y00722850
X00488000Y00733100
X00486750Y00770850
X00667250Y00625600
X00686250
X00705250
X00724500
X00724163Y00635756
X00723843Y00642100
X00729512Y00644350
X00741500Y00628850
X00744766Y00811860
X00744250Y00819850
X00719184Y00816350
X00722802Y00811350
Y00801350
X00719015Y00795610
X00709500Y00816350
X00716750Y00829861
X00722250Y00834350
X00728250Y00860100
X00738250
X00752984Y00866366
X00784500Y00834526
X00789500Y00820100
X00693750Y00803350
X00681750Y00814850
X00636839Y00823100
X00622510Y00837862
X00616559Y00837100
X00613936Y00831703
X00606500Y00824350
X00609418Y00818472
X00605750Y00813724
X00609250Y00795600
X00617500Y00794100
X00626510Y00842362
X00633041Y00853923
X00638985Y00854736
X00644761Y00853112
X00650762Y00852862
X00642201Y00847686
X00617004Y00944345
X00590250Y00940850
X00593704Y00955894
X00575000Y00926100
X00566000Y00916350
X00549750Y00906100
X00547250Y00900350
X00545750Y00892850
X00527500Y00901350
X00530000Y00875600
X00523500Y00873100
X00516250Y00865350
X00510500Y00861350
X00507500Y00879350
X00529250Y00858850
X00530000Y00833600
Y00821350
Y00811350
Y00801350
X00509750Y00806600
Y00816350
X00509500Y00826350
Y00834100
X00498000Y00825850
X00487250
X00475000Y00835350
X00524000Y00993350
X00543750Y01024100
X00567000Y01006100
X00637250Y00985350
X00646500Y00991850
X00658500Y00990678
X00668500
X00678500
X00695500Y00991350
X00689493Y00969577
X00683500Y00969850
X00673500
X00663500
X00653500
X00647009Y00969401
X00713000Y00970350
X00720750Y00972600
X00723578Y00960600
Y00950600
Y00940600
Y00930600
Y00920600
X00729750Y00909100
X00702750Y00915600
Y00925600
Y00935600
Y00945600
Y00955600
X00755849Y00961827
X00775768Y00923116
X00783115Y00926638
X00789250Y01010850
X00819500Y00979850
X00827888Y00967630
X00835750Y00967850
X00829000Y00953600
X00824250Y00947600
X00810750Y00944600
X00804019Y00944363
X00842500Y00943350
X00861750Y00947350
X00880750Y00947600
X00881273Y00966118
X00887500Y00966850
X00892266Y00978866
X00891000Y00985100
X00904750Y00970350
X00925500Y00969600
X00934750Y00986600
X00957406Y00964100
X00952524Y00959100
X00964012Y00969100
X00976250Y00973850
X01004750Y00977850
X01016018Y00969082
X01019587Y00964059
X01016018Y00959082
X01019677Y00954069
X01016018Y00949078
X01019768Y00944078
X01016018Y00939078
X01002809Y00926634
X01003500Y00914350
X01016009Y00905591
X01019578Y00900567
X01016009Y00895590
X01019668Y00890577
X01016009Y00885587
X01019759Y00880586
X01016009Y00875586
X01015750Y00867850
X01012000Y00863100
X00997250Y00845350
X01001750Y00838850
X01006250Y00832350
X01010750Y00825850
X01019750Y00826350
X01015250Y00819350
X01019750Y00812850
X00987750Y00814350
Y00820850
Y00827350
Y00833850
X00987750Y00840350
X00987750Y00846850
X00983000Y00857350
X00936250Y00856850
X00931000Y00867850
X00946500Y00869850
X00916000Y00864850
X00902000Y00871850
X00898000Y00877600
X00880500Y00872350
X00861234Y00855757
X00854168Y00847964
X00867500Y00832600
X00841508Y00830350
X00836000Y00832729
X00836000Y00820660
X00839417Y00815729
X00840250Y00809600
X00856196Y00807169
X00855250Y00813600
X00863750Y00806850
X00862615Y00798203
X00868000Y00800850
X00812250Y00819600
X00797500Y00827850
X00828457Y00859600
X00833500Y00862850
X00825053Y00864600
X00818500Y00875600
X00845500Y00902710
X00852000Y00902710
X00858609Y00902601
X00865109Y00902601
X00897500Y00938850
X00934750Y00934100
X00944457Y00934429
X00980875Y00923750
X00982750Y00915850
X00987750Y00807850
Y00801350
X00794000Y00911100
X00844000Y00984201
X00844250Y00991600
X00861000Y00979600
T02
X00802750Y00681600
X00817750Y00692350
X00861000Y00759850
X00884000Y00760350
X00891250Y00759350
X00928750Y00786600
X00967250Y00780100
X00974000Y00772850
X00987691Y00778659
X00974500Y00742350
X00937313Y00722537
X00938250Y00715600
X00931250Y00715100
X01016000Y00700600
X01013750Y00675850
X01009750Y00655350
X00982000Y00657850
X00981250Y00633350
X00990250
X00999250
X00876250Y00614850
X00747000Y00627350
X00755750Y00669350
X00769017Y00666603
X00712265Y00721606
X00714500Y00728850
X00702000Y00756350
X00686250Y00755850
X00674250Y00756350
X00656250Y00743350
X00665250Y00726350
X00638000
X00652500Y00777850
X00637000Y00793600
X00720500Y00778100
X00500500Y00775100
X00495500Y00756600
Y00749350
Y00742100
X00505250Y00736600
X00478750Y00734350
X00470750Y00765350
X00469000Y00783850
X00448000Y00790600
X00446500Y00756600
Y00749350
Y00742100
X00427250Y00747350
X00428000Y00663850
X00462500Y00667100
X00488500Y00676600
X00507250Y00681350
X00507750Y00698350
X00523250Y00662100
X00533376Y00671226
X00588500Y00632600
X00522250Y00851350
X00495250Y00864600
X00487750
X00472250Y00866600
Y00873850
X00474500Y00850350
X00478500Y00823600
X00466500Y00806350
X00448000Y00804100
Y00797350
X00442500Y00876600
X00454750Y00904100
Y00916100
X00456750Y00946350
X00442500
X00441750Y00974350
X00456500Y00975350
X00444000Y00997100
X00493500Y00992100
X00504250Y00977850
X00495750Y00964350
Y00943350
X00513250Y00936100
X00505250Y00923600
X00503750Y00912600
X00489250Y00914100
X00500250Y00872600
X00539000Y00889850
X00547442Y00912618
X00556250Y00908100
X00562000Y00932600
X00550500
X00542750Y00934100
X00556000Y00939600
X00578750Y00933100
X00594250Y00979100
X00593000Y00992850
X00577250Y00995100
X00539500Y00986600
X00512250Y01001421
X00623250Y00998100
X00622250Y00986850
X00621250Y00972350
X00705250Y00988350
X00733000Y00986100
X00750500Y00976600
X00752000Y00950350
X00751500Y00929600
X00731750Y00927600
X00730750Y00935850
X00771500Y00947100
X00782750Y00946850
X00785750Y00973850
X00742000Y01007850
X00720750Y00869850
X00720500Y00861100
X00710250Y00830600
X00692000Y00825600
X00688000Y00819350
X00858000Y00834350
X00883500Y00847600
X00884986Y00855086
X00896500Y00846850
X00910163Y00855937
X00903500Y00863850
X00933500Y00876723
X00931500Y00816850
X01014500Y00835600
X01003143Y00861710
X01017500Y00930600
X00925750Y00978850
X00926250Y00987600
X00915750Y00985100
X00908500Y00988600
X00901500
X00811750Y01017600
X00797500Y00946100
T03
X00892650Y00612600
X00918050
X00943450
X00968850
X00994250
X01019650
T04
X00626500Y00758850
M30
