G04*
G04 #@! TF.GenerationSoftware,Altium Limited,Altium Designer,21.7.2 (23)*
G04*
G04 Layer_Color=128*
%FSAX44Y44*%
%MOMM*%
G71*
G04*
G04 #@! TF.SameCoordinates,9FC8B08E-5A0B-468E-A9A2-6B38CBE9F6CB*
G04*
G04*
G04 #@! TF.FilePolarity,Positive*
G04*
G01*
G75*
%ADD30R,0.6500X1.0000*%
%ADD31R,1.0000X0.6500*%
%ADD36R,0.9000X0.2500*%
%ADD37R,0.2500X0.9000*%
%ADD38R,1.0000X3.0000*%
%ADD40R,0.6000X0.5000*%
%ADD41R,0.9000X0.8000*%
%ADD42R,0.5000X0.6000*%
%ADD86R,1.0000X0.6000*%
%ADD87R,0.6600X0.3500*%
%ADD88R,0.6600X0.2300*%
%ADD89R,0.4500X0.9500*%
%ADD90R,1.4000X0.4000*%
%ADD91R,3.0000X1.0000*%
D30*
X00907500Y00880850D02*
D03*
X00923000D02*
D03*
X00678750Y00708100D02*
D03*
X00694250D02*
D03*
X00678750Y00721100D02*
D03*
X00694250D02*
D03*
X00782500Y00676100D02*
D03*
X00767000D02*
D03*
X00782500Y00688850D02*
D03*
X00767000D02*
D03*
X00923000Y00867850D02*
D03*
X00938500D02*
D03*
D31*
X00712750Y00738350D02*
D03*
Y00753850D02*
D03*
D36*
X00615350Y00664930D02*
D03*
Y00659930D02*
D03*
X00660350D02*
D03*
Y00664930D02*
D03*
X00817250Y00769350D02*
D03*
Y00832850D02*
D03*
Y00837850D02*
D03*
Y00842850D02*
D03*
Y00847850D02*
D03*
Y00852850D02*
D03*
Y00857850D02*
D03*
Y00862850D02*
D03*
Y00867850D02*
D03*
X00792250D02*
D03*
Y00862850D02*
D03*
Y00857850D02*
D03*
Y00852850D02*
D03*
Y00847850D02*
D03*
Y00842850D02*
D03*
Y00837850D02*
D03*
Y00832850D02*
D03*
X00817250Y00774350D02*
D03*
Y00779350D02*
D03*
Y00784350D02*
D03*
Y00789350D02*
D03*
Y00794350D02*
D03*
Y00799350D02*
D03*
Y00804350D02*
D03*
X00792250D02*
D03*
Y00799350D02*
D03*
Y00794350D02*
D03*
Y00789350D02*
D03*
Y00784350D02*
D03*
Y00779350D02*
D03*
Y00774350D02*
D03*
Y00769350D02*
D03*
X00817250Y00705850D02*
D03*
Y00710850D02*
D03*
Y00715850D02*
D03*
Y00720850D02*
D03*
Y00725850D02*
D03*
Y00730850D02*
D03*
Y00735850D02*
D03*
Y00740850D02*
D03*
X00792250D02*
D03*
Y00735850D02*
D03*
Y00730850D02*
D03*
Y00725850D02*
D03*
Y00720850D02*
D03*
Y00715850D02*
D03*
Y00710850D02*
D03*
Y00705850D02*
D03*
X00935570Y00709250D02*
D03*
Y00704250D02*
D03*
Y00699250D02*
D03*
Y00694250D02*
D03*
Y00689250D02*
D03*
Y00684250D02*
D03*
Y00679250D02*
D03*
Y00674250D02*
D03*
X00910570D02*
D03*
Y00679250D02*
D03*
Y00684250D02*
D03*
Y00689250D02*
D03*
Y00694250D02*
D03*
Y00699250D02*
D03*
Y00704250D02*
D03*
Y00709250D02*
D03*
D37*
X00620350Y00649930D02*
D03*
X00625350D02*
D03*
X00630350D02*
D03*
X00635350D02*
D03*
X00640350D02*
D03*
X00645350D02*
D03*
X00650350D02*
D03*
X00655350D02*
D03*
Y00674930D02*
D03*
X00650350D02*
D03*
X00645350D02*
D03*
X00640350D02*
D03*
X00635350D02*
D03*
X00630350D02*
D03*
X00625350D02*
D03*
X00620350D02*
D03*
X00807250Y00764350D02*
D03*
X00802250Y00827850D02*
D03*
X00807250D02*
D03*
Y00872850D02*
D03*
X00802250D02*
D03*
Y00764350D02*
D03*
X00807250Y00809350D02*
D03*
X00802250D02*
D03*
Y00700850D02*
D03*
X00807250D02*
D03*
Y00745850D02*
D03*
X00802250D02*
D03*
X00925570Y00669250D02*
D03*
X00920570D02*
D03*
Y00714250D02*
D03*
X00925570D02*
D03*
D38*
X00804750Y00850350D02*
D03*
Y00786850D02*
D03*
Y00723350D02*
D03*
X00923070Y00691750D02*
D03*
D40*
X00598250Y00678350D02*
D03*
Y00667350D02*
D03*
X00636750Y00695350D02*
D03*
Y00706350D02*
D03*
X00783000Y00761850D02*
D03*
X00774250D02*
D03*
X00897250Y00705350D02*
D03*
Y00716350D02*
D03*
X00774250Y00825850D02*
D03*
Y00814850D02*
D03*
Y00750850D02*
D03*
X00795250Y00675850D02*
D03*
Y00686850D02*
D03*
X00669750Y00808600D02*
D03*
Y00797600D02*
D03*
X00662250Y00706350D02*
D03*
Y00695350D02*
D03*
X00598250Y00648850D02*
D03*
Y00659850D02*
D03*
X00783000Y00814850D02*
D03*
Y00825850D02*
D03*
Y00750850D02*
D03*
X00810000Y00686850D02*
D03*
Y00675850D02*
D03*
X00824750D02*
D03*
Y00686850D02*
D03*
X00669750Y00788600D02*
D03*
Y00777600D02*
D03*
D41*
X00676250Y00744600D02*
D03*
X00656250Y00754100D02*
D03*
Y00735100D02*
D03*
D42*
X00697750Y00681100D02*
D03*
X00708750D02*
D03*
X00891250Y00880850D02*
D03*
X00880250D02*
D03*
X00667250Y00618100D02*
D03*
X00656250D02*
D03*
X00686250D02*
D03*
X00675250D02*
D03*
X00694000Y00763600D02*
D03*
X00683000D02*
D03*
X00663500Y00767600D02*
D03*
X00674500D02*
D03*
X00712750Y00763600D02*
D03*
X00701750D02*
D03*
X00683000Y00772600D02*
D03*
X00694000D02*
D03*
X00931500Y00740350D02*
D03*
X00920500D02*
D03*
X00933500Y00772850D02*
D03*
X00944500D02*
D03*
X00701750Y00772600D02*
D03*
X00712750D02*
D03*
X00638500Y00785600D02*
D03*
X00649500D02*
D03*
X00613000Y00785850D02*
D03*
X00624000D02*
D03*
X00920500Y00731350D02*
D03*
X00931500D02*
D03*
X00920500Y00772850D02*
D03*
X00909500D02*
D03*
D86*
X00709480Y00788740D02*
D03*
Y00807740D02*
D03*
X00681980D02*
D03*
Y00798240D02*
D03*
Y00788740D02*
D03*
X00709480Y00798240D02*
D03*
D87*
X00875300Y00686850D02*
D03*
X00848200D02*
D03*
X00875300Y00852350D02*
D03*
X00848200D02*
D03*
D88*
Y00847600D02*
D03*
Y00707600D02*
D03*
Y00711600D02*
D03*
Y00715600D02*
D03*
Y00691600D02*
D03*
Y00695600D02*
D03*
Y00699600D02*
D03*
Y00703600D02*
D03*
X00875300Y00707600D02*
D03*
Y00711600D02*
D03*
Y00715600D02*
D03*
Y00691600D02*
D03*
Y00695600D02*
D03*
Y00699600D02*
D03*
Y00703600D02*
D03*
Y00731600D02*
D03*
X00848200D02*
D03*
Y00727600D02*
D03*
X00875300D02*
D03*
X00848200Y00723600D02*
D03*
X00875300D02*
D03*
X00848200Y00719600D02*
D03*
X00875300D02*
D03*
Y00747600D02*
D03*
X00848200D02*
D03*
Y00743600D02*
D03*
X00875300D02*
D03*
X00848200Y00739600D02*
D03*
X00875300D02*
D03*
X00848200Y00735600D02*
D03*
X00875300D02*
D03*
Y00763600D02*
D03*
X00848200D02*
D03*
Y00759600D02*
D03*
X00875300D02*
D03*
X00848200Y00755600D02*
D03*
X00875300D02*
D03*
X00848200Y00751600D02*
D03*
X00875300D02*
D03*
Y00779600D02*
D03*
X00848200D02*
D03*
Y00775600D02*
D03*
X00875300D02*
D03*
X00848200Y00771600D02*
D03*
X00875300D02*
D03*
X00848200Y00767600D02*
D03*
X00875300D02*
D03*
Y00795600D02*
D03*
X00848200D02*
D03*
Y00791600D02*
D03*
X00875300D02*
D03*
X00848200Y00787600D02*
D03*
X00875300D02*
D03*
X00848200Y00783600D02*
D03*
X00875300D02*
D03*
Y00811600D02*
D03*
X00848200D02*
D03*
Y00807600D02*
D03*
X00875300D02*
D03*
X00848200Y00803600D02*
D03*
X00875300D02*
D03*
X00848200Y00799600D02*
D03*
X00875300D02*
D03*
Y00827600D02*
D03*
X00848200D02*
D03*
Y00823600D02*
D03*
X00875300D02*
D03*
X00848200Y00819600D02*
D03*
X00875300D02*
D03*
X00848200Y00815600D02*
D03*
X00875300D02*
D03*
Y00831600D02*
D03*
X00848200D02*
D03*
X00875300Y00835600D02*
D03*
X00848200D02*
D03*
X00875300Y00839600D02*
D03*
X00848200D02*
D03*
X00875300Y00847600D02*
D03*
X00848200Y00843600D02*
D03*
X00875300D02*
D03*
D89*
X00649500Y00797850D02*
D03*
Y00819350D02*
D03*
X00624000D02*
D03*
Y00797850D02*
D03*
X00649500Y00695350D02*
D03*
Y00716850D02*
D03*
X00624000Y00716850D02*
D03*
Y00695350D02*
D03*
D90*
X00968500Y00846850D02*
D03*
Y00840350D02*
D03*
Y00833850D02*
D03*
Y00827350D02*
D03*
Y00820850D02*
D03*
Y00814350D02*
D03*
Y00807850D02*
D03*
Y00801350D02*
D03*
Y00794850D02*
D03*
Y00788350D02*
D03*
X00909500Y00846850D02*
D03*
Y00840350D02*
D03*
Y00833850D02*
D03*
Y00827350D02*
D03*
Y00820850D02*
D03*
Y00814350D02*
D03*
Y00807850D02*
D03*
Y00801350D02*
D03*
Y00794850D02*
D03*
Y00788350D02*
D03*
D91*
X00637850Y00662430D02*
D03*
M02*
