G04*
G04 #@! TF.GenerationSoftware,Altium Limited,Altium Designer,21.7.2 (23)*
G04*
G04 Layer_Color=32896*
%FSAX44Y44*%
%MOMM*%
G71*
G04*
G04 #@! TF.SameCoordinates,9FC8B08E-5A0B-468E-A9A2-6B38CBE9F6CB*
G04*
G04*
G04 #@! TF.FilePolarity,Positive*
G04*
G01*
G75*
%ADD10C,0.2500*%
%ADD11C,0.2000*%
%ADD12C,0.1000*%
%ADD14C,0.1500*%
%ADD15C,0.1524*%
%ADD16C,0.0500*%
%ADD98C,0.6000*%
D10*
X00683230Y00780240D02*
G03*
X00683230Y00780240I-00001250J00000000D01*
G01*
X00884250Y00858350D02*
G03*
X00884250Y00858350I-00001250J00000000D01*
G01*
X00910750Y00780600D02*
G03*
X00910750Y00780600I-00001250J00000000D01*
G01*
X00655500Y00726600D02*
G03*
X00655500Y00726600I-00001250J00000000D01*
G01*
X00606600Y00664930D02*
G03*
X00606600Y00664930I-00001250J00000000D01*
G01*
X00803500Y00817850D02*
G03*
X00803500Y00817850I-00001250J00000000D01*
G01*
Y00754350D02*
G03*
X00803500Y00754350I-00001250J00000000D01*
G01*
Y00690850D02*
G03*
X00803500Y00690850I-00001250J00000000D01*
G01*
X00926820Y00724250D02*
G03*
X00926820Y00724250I-00001250J00000000D01*
G01*
D11*
X00700730Y00782740D02*
Y00813740D01*
X00690730Y00782740D02*
Y00813740D01*
X00700730D01*
X00690730Y00782740D02*
X00700730D01*
X00654750Y00799600D02*
X00656500D01*
X00654750Y00817600D02*
X00656500D01*
X00642500Y00799600D02*
X00644250D01*
X00642500Y00817600D02*
X00644250D01*
X00656500Y00799600D02*
Y00817600D01*
X00642500Y00799600D02*
Y00817600D01*
X00920500Y00850600D02*
X00957500D01*
X00920500Y00784600D02*
X00957500D01*
Y00850600D01*
X00920500Y00784600D02*
Y00850600D01*
X00673250Y00751600D02*
Y00759600D01*
X00663250D02*
X00673250D01*
Y00729600D02*
Y00737600D01*
X00663250Y00729600D02*
X00673250D01*
X00629250Y00817600D02*
X00631000D01*
Y00799600D02*
Y00817600D01*
X00629250Y00799600D02*
X00631000D01*
X00617000Y00817600D02*
X00618750D01*
X00617000Y00799600D02*
X00618750D01*
X00617000D02*
Y00817600D01*
X00662350Y00670180D02*
Y00676930D01*
X00660600D02*
X00662350D01*
Y00647930D02*
Y00654680D01*
X00660600Y00647930D02*
X00662350D01*
X00613350D02*
X00615100D01*
X00613350D02*
Y00654680D01*
Y00670180D02*
Y00676930D01*
X00615100D01*
X00654750Y00697100D02*
X00656500D01*
X00654750Y00715100D02*
X00656500D01*
X00642500Y00697100D02*
X00644250D01*
X00642500Y00715100D02*
X00644250D01*
X00656500Y00697100D02*
Y00715100D01*
X00642500Y00697100D02*
Y00715100D01*
X00617000Y00697100D02*
Y00715100D01*
X00631000Y00697100D02*
Y00715100D01*
X00617000D02*
X00618750D01*
X00617000Y00697100D02*
X00618750D01*
X00629250Y00715100D02*
X00631000D01*
X00629250Y00697100D02*
X00631000D01*
X00790250Y00874850D02*
X00797000D01*
X00790250Y00873100D02*
Y00874850D01*
X00812500D02*
X00819250D01*
Y00873100D02*
Y00874850D01*
Y00825850D02*
Y00827600D01*
X00812500Y00825850D02*
X00819250D01*
X00790250D02*
X00797000D01*
X00790250D02*
Y00827600D01*
Y00811350D02*
X00797000D01*
X00790250Y00809600D02*
Y00811350D01*
X00812500D02*
X00819250D01*
Y00809600D02*
Y00811350D01*
Y00762350D02*
Y00764100D01*
X00812500Y00762350D02*
X00819250D01*
X00790250D02*
X00797000D01*
X00790250D02*
Y00764100D01*
Y00747850D02*
X00797000D01*
X00790250Y00746100D02*
Y00747850D01*
X00812500D02*
X00819250D01*
Y00746100D02*
Y00747850D01*
Y00698850D02*
Y00700600D01*
X00812500Y00698850D02*
X00819250D01*
X00790250D02*
X00797000D01*
X00790250D02*
Y00700600D01*
X00937570Y00714500D02*
Y00716250D01*
X00930820D02*
X00937570D01*
X00908570D02*
X00915320D01*
X00908570Y00714500D02*
Y00716250D01*
Y00667250D02*
Y00669000D01*
Y00667250D02*
X00915320D01*
X00937570D02*
Y00669000D01*
X00930820Y00667250D02*
X00937570D01*
D12*
X00644750Y00823100D02*
G03*
X00644750Y00823100I-00000500J00000000D01*
G01*
X00619250D02*
G03*
X00619250Y00823100I-00000500J00000000D01*
G01*
X00644750Y00720600D02*
G03*
X00644750Y00720600I-00000500J00000000D01*
G01*
X00619250Y00720600D02*
G03*
X00619250Y00720600I-00000500J00000000D01*
G01*
D14*
X00545751Y00663349D02*
X00550750Y00658350D01*
X00545750Y00674600D02*
X00555750D01*
X00437521Y00966099D02*
Y00982349D01*
X00550750Y00658350D02*
Y00674600D01*
Y00658350D02*
X00555749Y00663349D01*
X00432522Y00977350D02*
X00437521Y00982349D01*
X00442520Y00977350D01*
X00432521Y00966099D02*
X00442521D01*
X00439082Y00659041D02*
X00437749Y00657708D01*
X00435083D01*
X00433750Y00659041D01*
Y00660374D01*
X00435083Y00661707D01*
X00437749D01*
X00439082Y00663040D01*
Y00664373D01*
X00437749Y00665705D01*
X00435083D01*
X00433750Y00664373D01*
X00441748Y00665705D02*
Y00657708D01*
X00447079Y00665705D01*
Y00657708D01*
X00455077Y00659041D02*
X00453744Y00657708D01*
X00451078D01*
X00449745Y00659041D01*
Y00660374D01*
X00451078Y00661707D01*
X00453744D01*
X00455077Y00663040D01*
Y00664373D01*
X00453744Y00665705D01*
X00451078D01*
X00449745Y00664373D01*
X00457742Y00661707D02*
X00463074D01*
X00471072Y00659041D02*
X00469739Y00657708D01*
X00467073D01*
X00465740Y00659041D01*
Y00664373D01*
X00467073Y00665705D01*
X00469739D01*
X00471072Y00664373D01*
X00473737Y00665705D02*
Y00657708D01*
X00477736D01*
X00479069Y00659041D01*
Y00661707D01*
X00477736Y00663040D01*
X00473737D01*
X00481735Y00657708D02*
Y00664373D01*
X00483068Y00665705D01*
X00485733D01*
X00487066Y00664373D01*
Y00657708D01*
X00489732Y00661707D02*
X00495064D01*
X00503061Y00659041D02*
X00501728Y00657708D01*
X00499062D01*
X00497729Y00659041D01*
Y00664373D01*
X00499062Y00665705D01*
X00501728D01*
X00503061Y00664373D01*
Y00661707D01*
X00500395D01*
X00505727Y00665705D02*
Y00657708D01*
X00509726D01*
X00511059Y00659041D01*
Y00661707D01*
X00509726Y00663040D01*
X00505727D01*
X00513724Y00665705D02*
Y00657708D01*
X00516390Y00660374D01*
X00519056Y00657708D01*
Y00665705D01*
X00521722Y00661707D02*
X00527053D01*
X00529719Y00657708D02*
X00535051Y00665705D01*
Y00657708D02*
X00529719Y00665705D01*
X00537717Y00657708D02*
X00543048Y00665705D01*
Y00657708D02*
X00537717Y00665705D01*
X00439082Y00672238D02*
X00437749Y00670905D01*
X00435083D01*
X00433750Y00672238D01*
Y00673571D01*
X00435083Y00674904D01*
X00437749D01*
X00439082Y00676236D01*
Y00677569D01*
X00437749Y00678902D01*
X00435083D01*
X00433750Y00677569D01*
X00441748Y00678902D02*
Y00670905D01*
X00447079Y00678902D01*
Y00670905D01*
X00455077Y00672238D02*
X00453744Y00670905D01*
X00451078D01*
X00449745Y00672238D01*
Y00673571D01*
X00451078Y00674904D01*
X00453744D01*
X00455077Y00676236D01*
Y00677569D01*
X00453744Y00678902D01*
X00451078D01*
X00449745Y00677569D01*
X00457742Y00674904D02*
X00463074D01*
X00471072Y00672238D02*
X00469739Y00670905D01*
X00467073D01*
X00465740Y00672238D01*
Y00677569D01*
X00467073Y00678902D01*
X00469739D01*
X00471072Y00677569D01*
X00473737Y00678902D02*
Y00670905D01*
X00477736D01*
X00479069Y00672238D01*
Y00674904D01*
X00477736Y00676236D01*
X00473737D01*
X00481735Y00670905D02*
Y00677569D01*
X00483068Y00678902D01*
X00485733D01*
X00487066Y00677569D01*
Y00670905D01*
X00489732Y00674904D02*
X00495064D01*
X00497729Y00678902D02*
Y00670905D01*
X00501728D01*
X00503061Y00672238D01*
Y00674904D01*
X00501728Y00676236D01*
X00497729D01*
X00500395D02*
X00503061Y00678902D01*
X00511059Y00672238D02*
X00509726Y00670905D01*
X00507060D01*
X00505727Y00672238D01*
Y00677569D01*
X00507060Y00678902D01*
X00509726D01*
X00511059Y00677569D01*
Y00674904D01*
X00508393D01*
X00513724Y00670905D02*
Y00678902D01*
X00517723D01*
X00519056Y00677569D01*
Y00676236D01*
X00517723Y00674904D01*
X00513724D01*
X00517723D01*
X00519056Y00673571D01*
Y00672238D01*
X00517723Y00670905D01*
X00513724D01*
X00521722Y00674904D02*
X00527053D01*
X00529719Y00670905D02*
X00535051Y00678902D01*
Y00670905D02*
X00529719Y00678902D01*
X00537717Y00670905D02*
X00543048Y00678902D01*
Y00670905D02*
X00537717Y00678902D01*
X00439082Y00685435D02*
X00437749Y00684102D01*
X00435083D01*
X00433750Y00685435D01*
Y00686768D01*
X00435083Y00688100D01*
X00437749D01*
X00439082Y00689433D01*
Y00690766D01*
X00437749Y00692099D01*
X00435083D01*
X00433750Y00690766D01*
X00441748Y00692099D02*
Y00684102D01*
X00447079Y00692099D01*
Y00684102D01*
X00455077Y00685435D02*
X00453744Y00684102D01*
X00451078D01*
X00449745Y00685435D01*
Y00686768D01*
X00451078Y00688100D01*
X00453744D01*
X00455077Y00689433D01*
Y00690766D01*
X00453744Y00692099D01*
X00451078D01*
X00449745Y00690766D01*
X00457742Y00688100D02*
X00463074D01*
X00471072Y00685435D02*
X00469739Y00684102D01*
X00467073D01*
X00465740Y00685435D01*
Y00690766D01*
X00467073Y00692099D01*
X00469739D01*
X00471072Y00690766D01*
X00473737Y00692099D02*
Y00684102D01*
X00477736D01*
X00479069Y00685435D01*
Y00688100D01*
X00477736Y00689433D01*
X00473737D01*
X00481735Y00684102D02*
Y00690766D01*
X00483068Y00692099D01*
X00485733D01*
X00487066Y00690766D01*
Y00684102D01*
X00489732Y00688100D02*
X00495064D01*
X00497729Y00692099D02*
Y00686768D01*
X00500395Y00684102D01*
X00503061Y00686768D01*
Y00692099D01*
Y00688100D01*
X00497729D01*
X00505727Y00692099D02*
Y00684102D01*
X00509726D01*
X00511059Y00685435D01*
Y00688100D01*
X00509726Y00689433D01*
X00505727D01*
X00513724Y00684102D02*
Y00690766D01*
X00515057Y00692099D01*
X00517723D01*
X00519056Y00690766D01*
Y00684102D01*
X00521722Y00688100D02*
X00527053D01*
X00529719Y00684102D02*
X00535051Y00692099D01*
Y00684102D02*
X00529719Y00692099D01*
X00537717Y00684102D02*
X00543048Y00692099D01*
Y00684102D02*
X00537717Y00692099D01*
X00525168Y00981961D02*
X00526501Y00983294D01*
X00529167D01*
X00530500Y00981961D01*
Y00980628D01*
X00529167Y00979296D01*
X00526501D01*
X00525168Y00977963D01*
Y00976630D01*
X00526501Y00975297D01*
X00529167D01*
X00530500Y00976630D01*
X00522503Y00983294D02*
Y00975297D01*
Y00979296D01*
X00517171D01*
Y00983294D01*
Y00975297D01*
X00514505Y00983294D02*
Y00977963D01*
X00511839Y00975297D01*
X00509174Y00977963D01*
Y00983294D01*
X00501176Y00981961D02*
X00502509Y00983294D01*
X00505175D01*
X00506508Y00981961D01*
Y00976630D01*
X00505175Y00975297D01*
X00502509D01*
X00501176Y00976630D01*
X00498510Y00979296D02*
X00493179D01*
X00485181Y00981961D02*
X00486514Y00983294D01*
X00489180D01*
X00490513Y00981961D01*
Y00976630D01*
X00489180Y00975297D01*
X00486514D01*
X00485181Y00976630D01*
X00482515Y00975297D02*
Y00983294D01*
X00478517D01*
X00477184Y00981961D01*
Y00979296D01*
X00478517Y00977963D01*
X00482515D01*
X00474518Y00983294D02*
Y00976630D01*
X00473185Y00975297D01*
X00470519D01*
X00469187Y00976630D01*
Y00983294D01*
X00466521Y00979296D02*
X00461189D01*
X00458523Y00983294D02*
X00453192Y00975297D01*
Y00983294D02*
X00458523Y00975297D01*
X00450526Y00983294D02*
X00445194Y00975297D01*
Y00983294D02*
X00450526Y00975297D01*
X00525168Y00968764D02*
X00526501Y00970097D01*
X00529167D01*
X00530500Y00968764D01*
Y00967432D01*
X00529167Y00966099D01*
X00526501D01*
X00525168Y00964766D01*
Y00963433D01*
X00526501Y00962100D01*
X00529167D01*
X00530500Y00963433D01*
X00522503Y00962100D02*
Y00970097D01*
X00517171Y00962100D01*
Y00970097D01*
X00509174Y00968764D02*
X00510507Y00970097D01*
X00513172D01*
X00514505Y00968764D01*
Y00967432D01*
X00513172Y00966099D01*
X00510507D01*
X00509174Y00964766D01*
Y00963433D01*
X00510507Y00962100D01*
X00513172D01*
X00514505Y00963433D01*
X00506508Y00962100D02*
Y00970097D01*
X00502509D01*
X00501176Y00968764D01*
Y00966099D01*
X00502509Y00964766D01*
X00506508D01*
X00498510Y00966099D02*
X00493179D01*
X00485181Y00968764D02*
X00486514Y00970097D01*
X00489180D01*
X00490513Y00968764D01*
Y00963433D01*
X00489180Y00962100D01*
X00486514D01*
X00485181Y00963433D01*
X00482515Y00962100D02*
Y00970097D01*
X00478517D01*
X00477184Y00968764D01*
Y00966099D01*
X00478517Y00964766D01*
X00482515D01*
X00474518Y00970097D02*
Y00963433D01*
X00473185Y00962100D01*
X00470519D01*
X00469187Y00963433D01*
Y00970097D01*
X00466521Y00966099D02*
X00461189D01*
X00458523Y00970097D02*
X00453192Y00962100D01*
Y00970097D02*
X00458523Y00962100D01*
X00450526Y00970097D02*
X00445194Y00962100D01*
Y00970097D02*
X00450526Y00962100D01*
D15*
X00845500Y00680850D02*
X00878000D01*
X00845500Y00858350D02*
X00878000D01*
D16*
X00702250Y00684600D02*
X00704250D01*
X00702250Y00677600D02*
X00704250D01*
X00884750Y00877350D02*
X00886750D01*
X00884750Y00884350D02*
X00886750D01*
X00601750Y00671850D02*
Y00673850D01*
X00594750Y00671850D02*
Y00673850D01*
X00913250Y00875850D02*
X00917250D01*
X00913250Y00885850D02*
X00917250D01*
X00633250Y00699850D02*
Y00701850D01*
X00640250Y00699850D02*
Y00701850D01*
X00660750Y00614600D02*
X00662750D01*
X00660750Y00621600D02*
X00662750D01*
X00679750Y00614600D02*
X00681750D01*
X00679750Y00621600D02*
X00681750D01*
X00687500Y00760100D02*
X00689500D01*
X00687500Y00767100D02*
X00689500D01*
X00684500Y00703100D02*
X00688500D01*
X00684500Y00713100D02*
X00688500D01*
X00684500Y00716100D02*
X00688500D01*
X00684500Y00726100D02*
X00688500D01*
X00668000Y00771100D02*
X00670000D01*
X00668000Y00764100D02*
X00670000D01*
X00893750Y00709850D02*
Y00711850D01*
X00900750Y00709850D02*
Y00711850D01*
X00706250Y00760100D02*
X00708250D01*
X00706250Y00767100D02*
X00708250D01*
X00687500Y00776100D02*
X00689500D01*
X00687500Y00769100D02*
X00689500D01*
X00772750Y00681100D02*
X00776750D01*
X00772750Y00671100D02*
X00776750D01*
X00772750Y00693850D02*
X00776750D01*
X00772750Y00683850D02*
X00776750D01*
X00928750Y00862850D02*
X00932750D01*
X00928750Y00872850D02*
X00932750D01*
X00717750Y00744100D02*
Y00748100D01*
X00707750Y00744100D02*
Y00748100D01*
X00925000Y00736850D02*
X00927000D01*
X00925000Y00743850D02*
X00927000D01*
X00777750Y00819350D02*
Y00821350D01*
X00770750Y00819350D02*
Y00821350D01*
Y00755350D02*
Y00757350D01*
X00777750Y00755350D02*
Y00757350D01*
X00791750Y00680350D02*
Y00682350D01*
X00798750Y00680350D02*
Y00682350D01*
X00938000Y00776350D02*
X00940000D01*
X00938000Y00769350D02*
X00940000D01*
X00673250Y00802100D02*
Y00804100D01*
X00666250Y00802100D02*
Y00804100D01*
X00706250Y00776100D02*
X00708250D01*
X00706250Y00769100D02*
X00708250D01*
X00643000Y00789100D02*
X00645000D01*
X00643000Y00782100D02*
X00645000D01*
X00617500Y00789350D02*
X00619500D01*
X00617500Y00782350D02*
X00619500D01*
X00665750Y00699850D02*
Y00701850D01*
X00658750Y00699850D02*
Y00701850D01*
X00925000Y00734850D02*
X00927000D01*
X00925000Y00727850D02*
X00927000D01*
X00594750Y00653350D02*
Y00655350D01*
X00601750Y00653350D02*
Y00655350D01*
X00779500Y00819350D02*
Y00821350D01*
X00786500Y00819350D02*
Y00821350D01*
Y00755350D02*
Y00757350D01*
X00779500Y00755350D02*
Y00757350D01*
X00813500Y00680350D02*
Y00682350D01*
X00806500Y00680350D02*
Y00682350D01*
X00821250Y00680350D02*
Y00682350D01*
X00828250Y00680350D02*
Y00682350D01*
X00914000Y00769350D02*
X00916000D01*
X00914000Y00776350D02*
X00916000D01*
X00673250Y00782100D02*
Y00784100D01*
X00666250Y00782100D02*
Y00784100D01*
D98*
X00933500Y00794600D02*
G03*
X00933500Y00794600I-00003000J00000000D01*
G01*
M02*
