G04*
G04 #@! TF.GenerationSoftware,Altium Limited,Altium Designer,21.7.2 (23)*
G04*
G04 Layer_Color=65535*
%FSAX44Y44*%
%MOMM*%
G71*
G04*
G04 #@! TF.SameCoordinates,B5B927FB-FC6E-4532-AB5B-D5DFAA1904DE*
G04*
G04*
G04 #@! TF.FilePolarity,Positive*
G04*
G01*
G75*
%ADD10C,0.2500*%
%ADD11C,0.2000*%
%ADD12C,0.1000*%
%ADD13C,0.2540*%
%ADD14C,0.1500*%
%ADD15C,0.1524*%
%ADD16C,0.0500*%
G36*
X00510478Y00703255D02*
X00507938D01*
Y00699445D01*
X00510478D01*
Y00703255D01*
D02*
G37*
G36*
Y00753255D02*
X00507938D01*
Y00749445D01*
X00510478D01*
Y00753255D01*
D02*
G37*
G36*
Y00803255D02*
X00507938D01*
Y00799445D01*
X00510478D01*
Y00803255D01*
D02*
G37*
G36*
X00555905Y00642828D02*
X00552095D01*
Y00640288D01*
X00555905D01*
Y00642828D01*
D02*
G37*
G36*
X00605905D02*
X00602095D01*
Y00640288D01*
X00605905D01*
Y00642828D01*
D02*
G37*
G36*
X00655905D02*
X00652095D01*
Y00640288D01*
X00655905D01*
Y00642828D01*
D02*
G37*
G36*
X00705905D02*
X00702095D01*
Y00640288D01*
X00705905D01*
Y00642828D01*
D02*
G37*
G36*
X00665405Y00990114D02*
X00661595D01*
Y00992654D01*
X00665405D01*
Y00990114D01*
D02*
G37*
G36*
X00618986Y00938695D02*
X00616446D01*
Y00942505D01*
X00618986D01*
Y00938695D01*
D02*
G37*
G36*
X00660405Y00883546D02*
X00656595D01*
Y00886086D01*
X00660405D01*
Y00883546D01*
D02*
G37*
G36*
X00710905Y00874872D02*
X00707095D01*
Y00877412D01*
X00710905D01*
Y00874872D01*
D02*
G37*
G36*
X00660905D02*
X00657095D01*
Y00877412D01*
X00660905D01*
Y00874872D01*
D02*
G37*
G36*
X00610905D02*
X00607095D01*
Y00877412D01*
X00610905D01*
Y00874872D01*
D02*
G37*
G36*
X00560905D02*
X00557095D01*
Y00877412D01*
X00560905D01*
Y00874872D01*
D02*
G37*
G36*
X00759444Y00677255D02*
X00756904D01*
Y00673445D01*
X00759444D01*
Y00677255D01*
D02*
G37*
G36*
X00742522Y00708255D02*
X00745062D01*
Y00704445D01*
X00742522D01*
Y00708255D01*
D02*
G37*
G36*
X00759444Y00742255D02*
X00756904D01*
Y00738445D01*
X00759444D01*
Y00742255D01*
D02*
G37*
G36*
X00742522Y00758255D02*
X00745062D01*
Y00754445D01*
X00742522D01*
Y00758255D01*
D02*
G37*
G36*
X00856595Y00636293D02*
Y00633753D01*
X00860405D01*
Y00636293D01*
X00856595D01*
D02*
G37*
G36*
X00921595D02*
Y00633753D01*
X00925405D01*
Y00636293D01*
X00921595D01*
D02*
G37*
G36*
X00964056Y00731945D02*
X00966597D01*
Y00735755D01*
X00964056D01*
Y00731945D01*
D02*
G37*
G36*
X00742522Y00808255D02*
X00745062D01*
Y00804445D01*
X00742522D01*
Y00808255D01*
D02*
G37*
G36*
X00759444Y00807255D02*
X00756904D01*
Y00803445D01*
X00759444D01*
Y00807255D01*
D02*
G37*
G36*
X00723014Y00953695D02*
X00725554D01*
Y00957505D01*
X00723014D01*
Y00953695D01*
D02*
G37*
G36*
X00801905Y00902906D02*
Y00905446D01*
X00798095D01*
Y00902906D01*
X00801905D01*
D02*
G37*
G36*
X00964056Y00796945D02*
X00966597D01*
Y00800755D01*
X00964056D01*
Y00796945D01*
D02*
G37*
G36*
Y00861945D02*
X00966597D01*
Y00865755D01*
X00964056D01*
Y00861945D01*
D02*
G37*
G36*
X00866905Y00902906D02*
Y00905446D01*
X00863095D01*
Y00902906D01*
X00866905D01*
D02*
G37*
D10*
X00766466Y00872100D02*
G03*
X00766466Y00872100I-00001250J00000000D01*
G01*
X00988750Y00772100D02*
G03*
X00988750Y00772100I-00001250J00000000D01*
G01*
X01012750Y00772100D02*
G03*
X01012750Y00772100I-00001250J00000000D01*
G01*
X00845500Y00956600D02*
G03*
X00845500Y00956600I-00001250J00000000D01*
G01*
X00751250Y00933850D02*
G03*
X00751250Y00933850I-00001250J00000000D01*
G01*
X00581500Y00939850D02*
G03*
X00581500Y00939850I-00001250J00000000D01*
G01*
X00721750Y00901850D02*
G03*
X00721750Y00901850I-00001250J00000000D01*
G01*
X00431500Y00830850D02*
G03*
X00431500Y00830850I-00001250J00000000D01*
G01*
X00514500Y00854600D02*
G03*
X00514500Y00854600I-00001250J00000000D01*
G01*
X00998500Y00919100D02*
G03*
X00998500Y00919100I-00001250J00000000D01*
G01*
X00823000Y00977850D02*
G03*
X00823000Y00977850I-00001250J00000000D01*
G01*
X00998500Y00855600D02*
G03*
X00998500Y00855600I-00001250J00000000D01*
G01*
D11*
X01029700Y00621650D02*
G03*
X01029700Y00621650I-00001000J00000000D01*
G01*
X00996500Y00769100D02*
X01006500D01*
Y00761100D02*
Y00769100D01*
X00996500Y00739100D02*
X01006500D01*
Y00747100D01*
X00992500Y00775100D02*
X01002500D01*
X00992500D02*
Y00783100D01*
Y00805100D02*
X01002500D01*
X00992500Y00797100D02*
Y00805100D01*
X00890250Y00965600D02*
Y00978600D01*
X00847250Y00965600D02*
Y00978600D01*
X00890250D01*
X00847250Y00965600D02*
X00890250D01*
X00752250Y00944350D02*
X00783250D01*
X00752250Y00967350D02*
X00783250D01*
X00752250Y00944350D02*
Y00967350D01*
X00783250Y00944350D02*
Y00967350D01*
X00534500Y00992100D02*
X00568500D01*
X00534500Y00941100D02*
X00568500D01*
X00534500D02*
Y00992100D01*
X00568500Y00941100D02*
Y00992100D01*
X00444000Y00763850D02*
X00475000D01*
X00444000D02*
Y00830850D01*
X00475000Y00763850D02*
Y00830850D01*
X00444000D02*
X00475000D01*
X01002500Y00976100D02*
X01009250D01*
Y00974350D02*
Y00976100D01*
X00980250D02*
X00987000D01*
X00980250Y00974350D02*
Y00976100D01*
Y00927100D02*
Y00928850D01*
Y00927100D02*
X00987000D01*
X01002500D02*
X01009250D01*
Y00928850D01*
X00788500Y00967350D02*
X00819500D01*
X00788500Y00944350D02*
X00819500D01*
Y00967350D01*
X00788500Y00944350D02*
Y00967350D01*
X01002500Y00912600D02*
X01009250D01*
Y00910850D02*
Y00912600D01*
X00980250D02*
X00987000D01*
X00980250Y00910850D02*
Y00912600D01*
Y00863600D02*
Y00865350D01*
Y00863600D02*
X00987000D01*
X01002500D02*
X01009250D01*
Y00865350D01*
D12*
X01011250Y00660100D02*
G03*
X01011250Y00660100I-00000500J00000000D01*
G01*
Y00699100D02*
G03*
X01011250Y00699100I-00000500J00000000D01*
G01*
X00976750Y01002600D02*
G03*
X00976750Y01002600I-00000500J00000000D01*
G01*
X00793000Y00882100D02*
X00794250D01*
X00631750Y00623600D02*
X00634250Y00626100D01*
X00646750Y00603600D02*
X00649250Y00606100D01*
X00646750Y00626100D02*
X00649250Y00623600D01*
X00631750Y00606100D02*
X00634250Y00603600D01*
X00854000Y00623600D02*
X00856500Y00626100D01*
X00869000Y00603600D02*
X00871500Y00606100D01*
X00869000Y00626100D02*
X00871500Y00623600D01*
X00854000Y00606100D02*
X00856500Y00603600D01*
X00436250Y00874350D02*
X00438750Y00871850D01*
X00416250Y00859350D02*
X00418750Y00856850D01*
X00436250D02*
X00438750Y00859350D01*
X00416250Y00871850D02*
X00418750Y00874350D01*
X00436250Y00854350D02*
X00438750Y00851850D01*
X00416250Y00839350D02*
X00418750Y00836850D01*
X00436250D02*
X00438750Y00839350D01*
X00416250Y00851850D02*
X00418750Y00854350D01*
X00436500Y00916850D02*
X00439000Y00914350D01*
X00416500Y00901850D02*
X00419000Y00899350D01*
X00436500D02*
X00439000Y00901850D01*
X00416500Y00914350D02*
X00419000Y00916850D01*
X00436500Y00993850D02*
X00439000Y00991350D01*
X00416500Y00978850D02*
X00419000Y00976350D01*
X00436500D02*
X00439000Y00978850D01*
X00416500Y00991350D02*
X00419000Y00993850D01*
X00436500Y00965350D02*
X00439000Y00962850D01*
X00416500Y00950350D02*
X00419000Y00947850D01*
X00436500D02*
X00439000Y00950350D01*
X00416500Y00962850D02*
X00419000Y00965350D01*
X00436500Y00936850D02*
X00439000Y00934350D01*
X00416500Y00921850D02*
X00419000Y00919350D01*
X00436500D02*
X00439000Y00921850D01*
X00416500Y00934350D02*
X00419000Y00936850D01*
X00436500Y00896850D02*
X00439000Y00894350D01*
X00416500Y00881850D02*
X00419000Y00879350D01*
X00436500D02*
X00439000Y00881850D01*
X00416500Y00894350D02*
X00419000Y00896850D01*
X00803750Y00623600D02*
X00806250Y00626100D01*
X00818750Y00603600D02*
X00821250Y00606100D01*
X00818750Y00626100D02*
X00821250Y00623600D01*
X00803750Y00606100D02*
X00806250Y00603600D01*
X00707500Y00623600D02*
X00710000Y00626100D01*
X00722500Y00603600D02*
X00725000Y00606100D01*
X00722500Y00626100D02*
X00725000Y00623600D01*
X00707500Y00606100D02*
X00710000Y00603600D01*
X00688250Y00623600D02*
X00690750Y00626100D01*
X00703250Y00603600D02*
X00705750Y00606100D01*
X00703250Y00626100D02*
X00705750Y00623600D01*
X00688250Y00606100D02*
X00690750Y00603600D01*
X00669250Y00623600D02*
X00671750Y00626100D01*
X00684250Y00603600D02*
X00686750Y00606100D01*
X00684250Y00626100D02*
X00686750Y00623600D01*
X00669250Y00606100D02*
X00671750Y00603600D01*
X00650250Y00623600D02*
X00652750Y00626100D01*
X00665250Y00603600D02*
X00667750Y00606100D01*
X00665250Y00626100D02*
X00667750Y00623600D01*
X00650250Y00606100D02*
X00652750Y00603600D01*
X00612250Y00623600D02*
X00614750Y00626100D01*
X00627250Y00603600D02*
X00629750Y00606100D01*
X00627250Y00626100D02*
X00629750Y00623600D01*
X00612250Y00606100D02*
X00614750Y00603600D01*
X00593250Y00623600D02*
X00595750Y00626100D01*
X00608250Y00603600D02*
X00610750Y00606100D01*
X00608250Y00626100D02*
X00610750Y00623600D01*
X00593250Y00606100D02*
X00595750Y00603600D01*
X00574000Y00623600D02*
X00576500Y00626100D01*
X00589000Y00603600D02*
X00591500Y00606100D01*
X00589000Y00626100D02*
X00591500Y00623600D01*
X00574000Y00606100D02*
X00576500Y00603600D01*
X00746000Y00623600D02*
X00748500Y00626100D01*
X00761000Y00603600D02*
X00763500Y00606100D01*
X00761000Y00626100D02*
X00763500Y00623600D01*
X00746000Y00606100D02*
X00748500Y00603600D01*
X00765250Y00623600D02*
X00767750Y00626100D01*
X00780250Y00603600D02*
X00782750Y00606100D01*
X00780250Y00626100D02*
X00782750Y00623600D01*
X00765250Y00606100D02*
X00767750Y00603600D01*
X00784500Y00623600D02*
X00787000Y00626100D01*
X00799500Y00603600D02*
X00802000Y00606100D01*
X00799500Y00626100D02*
X00802000Y00623600D01*
X00784500Y00606100D02*
X00787000Y00603600D01*
X00726750Y00623600D02*
X00729250Y00626100D01*
X00741750Y00603600D02*
X00744250Y00606100D01*
X00741750Y00626100D02*
X00744250Y00623600D01*
X00726750Y00606100D02*
X00729250Y00603600D01*
X01032350Y00599900D02*
Y00625300D01*
X00880200D02*
X01032350D01*
X00880200Y00599900D02*
Y00625300D01*
Y00599900D02*
X01032350D01*
X00990750Y00661100D02*
X00998750D01*
X00990750Y00696100D02*
X00998750D01*
X00467250Y00757350D02*
X00474750D01*
X00467250Y00741350D02*
X00474750D01*
X00468250Y00859100D02*
X00485250D01*
X00468250Y00839100D02*
X00485250D01*
X00450750Y00879850D02*
X00465750D01*
X00449750Y00978850D02*
X00459750D01*
X00449750Y00950350D02*
X00459750D01*
X00449750Y00921850D02*
X00459750D01*
X00474250Y00885350D02*
X00484250D01*
X00492750Y00896350D02*
Y00906350D01*
X00990750Y00700100D02*
X00998750D01*
X00990750Y00735100D02*
X00998750D01*
X00975250Y00982600D02*
Y00990600D01*
X00940250Y00982600D02*
Y00990600D01*
D13*
X00424750Y00663100D02*
G03*
X00424750Y00663100I-00001250J00000000D01*
G01*
X00451000Y00646100D02*
X00460500D01*
X00451000Y00694600D02*
X00460500D01*
D14*
X00883000Y00777850D02*
X00900750Y00795600D01*
X00879875Y00784725D02*
X00900750Y00805600D01*
X00822750Y00737600D02*
X00851000Y00765850D01*
X00869750Y00784600D02*
X00900750Y00815600D01*
X00939750Y00854600D01*
X00900750Y00805600D02*
X00939750Y00844600D01*
X00900750Y00795600D02*
X00939750Y00834600D01*
X00783750Y00698600D02*
X00822750Y00737600D01*
Y00727600D02*
X00860747Y00765597D01*
X00822750Y00717600D02*
X00871000Y00765850D01*
X00783750Y00688600D02*
X00822750Y00727600D01*
X00783750Y00678600D02*
X00822750Y00717600D01*
X00859750Y00784600D02*
X00900750Y00825600D01*
X00939750Y00864600D01*
X00783750Y00708600D02*
X00822750Y00747600D01*
X00850000Y00784850D02*
X00860750Y00795600D01*
X00783750Y00718600D02*
X00822750Y00757600D01*
X00900750Y00835600D02*
X00939750Y00874600D01*
X00860750Y00795600D02*
X00900750Y00835600D01*
X00822750Y00757600D02*
X00834500Y00769350D01*
X00837750Y00772600D01*
X00837755D01*
X00840379Y00775225D01*
X00860750Y00795600D02*
X00860750D01*
X00795750Y00660600D02*
X00939750Y00804600D01*
X00805750Y00660600D02*
X00939750Y00794600D01*
X00815750Y00660600D02*
X00939750Y00784600D01*
X00845750Y00660600D02*
X00939750Y00754600D01*
X00835750Y00660600D02*
X00939750Y00764600D01*
X00825750Y00660600D02*
X00939750Y00774600D01*
X00855750Y00660600D02*
X00939750Y00744600D01*
X00783750Y00728600D02*
X00933750Y00878600D01*
X00783750Y00748600D02*
X00913750Y00878600D01*
X00783750Y00858600D02*
X00803750Y00878600D01*
X00783750Y00868600D02*
X00793750Y00878600D01*
X00780500Y00869600D02*
Y00882100D01*
X00929250D02*
X00943000D01*
Y00869600D02*
Y00882100D01*
X00780500Y00657100D02*
X00794250D01*
X00780500D02*
Y00669600D01*
X00929250Y00657100D02*
X00943000D01*
Y00669600D01*
X00780500Y00882100D02*
X00794250D01*
X00783750Y00828600D02*
X00833750Y00878600D01*
X00783750Y00838600D02*
X00823750Y00878600D01*
X00783750Y00848600D02*
X00813750Y00878600D01*
X00783750Y00818600D02*
X00843750Y00878600D01*
X00783750Y00808600D02*
X00853750Y00878600D01*
X00783750Y00778600D02*
X00883750Y00878600D01*
X00783750Y00788600D02*
X00873750Y00878600D01*
X00783750Y00798600D02*
X00863750Y00878600D01*
X00783750Y00768600D02*
X00893750Y00878600D01*
X00783750Y00758600D02*
X00903750Y00878600D01*
X00783750Y00738600D02*
X00923750Y00878600D01*
X00785750Y00660600D02*
X00939750Y00814600D01*
X00865750Y00660600D02*
X00939750Y00734600D01*
X00875750Y00660600D02*
X00939750Y00724600D01*
X00885750Y00660600D02*
X00939750Y00714600D01*
X00915750Y00660600D02*
X00939750Y00684600D01*
X00905750Y00660600D02*
X00939750Y00694600D01*
X00925750Y00660600D02*
X00939750Y00674600D01*
X00935750Y00660600D02*
X00939750Y00664600D01*
X00895750Y00660600D02*
X00939750Y00704600D01*
X00900750Y00785600D02*
X00939750Y00824600D01*
X00783750Y00668600D02*
X00822750Y00707600D01*
X00862750Y00747600D01*
X00862750D01*
X00881000Y00765850D01*
X00883000Y00767850D02*
X00900750Y00785600D01*
X00822750Y00747600D02*
X00841000Y00765850D01*
X00840500D02*
Y00784601D01*
X00883001Y00765850D02*
Y00784601D01*
X00840500D02*
X00883001D01*
X00840500Y00765850D02*
X00883001D01*
X00451875Y00992600D02*
X00457125D01*
X00845255Y00771100D02*
Y00780097D01*
X00849754D01*
X00851253Y00778597D01*
Y00775598D01*
X00849754Y00774099D01*
X00845255D01*
X00854252Y00771100D02*
Y00780097D01*
X00858751D01*
X00860250Y00778597D01*
Y00775598D01*
X00858751Y00774099D01*
X00854252D01*
X00863249Y00780097D02*
Y00772599D01*
X00864749Y00771100D01*
X00867748D01*
X00869247Y00772599D01*
Y00780097D01*
X00878244Y00771100D02*
X00872246D01*
X00878244Y00777098D01*
Y00778597D01*
X00876745Y00780097D01*
X00873746D01*
X00872246Y00778597D01*
X00782917Y00879765D02*
X00787583Y00875100D01*
X00782917D02*
X00787583Y00879765D01*
X00782917Y00877432D02*
X00787583D01*
X00785250Y00875100D02*
Y00879765D01*
X00850266Y00944390D02*
X00848767Y00945890D01*
X00845768D01*
X00844268Y00944390D01*
Y00942891D01*
X00845768Y00941391D01*
X00848767D01*
X00850266Y00939892D01*
Y00938392D01*
X00848767Y00936893D01*
X00845768D01*
X00844268Y00938392D01*
X00853265Y00936893D02*
Y00945890D01*
X00859263Y00936893D01*
Y00945890D01*
X00868260D02*
X00862262D01*
Y00936893D01*
X00868260D01*
X00862262Y00941391D02*
X00865261D01*
X00877258Y00944390D02*
X00875758Y00945890D01*
X00872759D01*
X00871260Y00944390D01*
Y00942891D01*
X00872759Y00941391D01*
X00875758D01*
X00877258Y00939892D01*
Y00938392D01*
X00875758Y00936893D01*
X00872759D01*
X00871260Y00938392D01*
X00889254Y00945890D02*
X00895252D01*
X00892253D01*
Y00936893D01*
X00904249Y00944390D02*
X00902749Y00945890D01*
X00899750D01*
X00898251Y00944390D01*
Y00942891D01*
X00899750Y00941391D01*
X00902749D01*
X00904249Y00939892D01*
Y00938392D01*
X00902749Y00936893D01*
X00899750D01*
X00898251Y00938392D01*
X00907248Y00945890D02*
X00913246D01*
X00910247D01*
Y00936893D01*
X00925242D02*
Y00945890D01*
X00928241Y00942891D01*
X00931240Y00945890D01*
Y00936893D01*
X00935739Y00942891D02*
X00938738D01*
X00940237Y00941391D01*
Y00936893D01*
X00935739D01*
X00934239Y00938392D01*
X00935739Y00939892D01*
X00940237D01*
X00943236Y00936893D02*
X00946235D01*
X00944736D01*
Y00942891D01*
X00943236D01*
X00950734Y00936893D02*
Y00942891D01*
X00955232D01*
X00956732Y00941391D01*
Y00936893D01*
X00879507Y00922496D02*
Y00931494D01*
X00884005D01*
X00885505Y00929994D01*
Y00926995D01*
X00884005Y00925495D01*
X00879507D01*
X00882506D02*
X00885505Y00922496D01*
X00893002D02*
X00890003D01*
X00888504Y00923996D01*
Y00926995D01*
X00890003Y00928494D01*
X00893002D01*
X00894502Y00926995D01*
Y00925495D01*
X00888504D01*
X00897501Y00928494D02*
X00900500Y00922496D01*
X00903499Y00928494D01*
X00915495Y00929994D02*
X00916995Y00931494D01*
X00919994D01*
X00921493Y00929994D01*
Y00923996D01*
X00919994Y00922496D01*
X00916995D01*
X00915495Y00923996D01*
Y00929994D01*
X00865261Y00908100D02*
X00859263D01*
X00865261Y00914098D01*
Y00915598D01*
X00863762Y00917097D01*
X00860763D01*
X00859263Y00915598D01*
X00868260D02*
X00869760Y00917097D01*
X00872759D01*
X00874258Y00915598D01*
Y00909600D01*
X00872759Y00908100D01*
X00869760D01*
X00868260Y00909600D01*
Y00915598D01*
X00883256Y00908100D02*
X00877258D01*
X00883256Y00914098D01*
Y00915598D01*
X00881756Y00917097D01*
X00878757D01*
X00877258Y00915598D01*
X00886255Y00908100D02*
X00889254D01*
X00887754D01*
Y00917097D01*
X00886255Y00915598D01*
X00893752Y00912598D02*
X00899750D01*
X00902749Y00908100D02*
X00905748D01*
X00904249D01*
Y00917097D01*
X00902749Y00915598D01*
X00910247D02*
X00911746Y00917097D01*
X00914745D01*
X00916245Y00915598D01*
Y00909600D01*
X00914745Y00908100D01*
X00911746D01*
X00910247Y00909600D01*
Y00915598D01*
X00919244Y00912598D02*
X00925242D01*
X00928241Y00908100D02*
X00931240D01*
X00929741D01*
Y00917097D01*
X00928241Y00915598D01*
X00935739Y00909600D02*
X00937238Y00908100D01*
X00940237D01*
X00941737Y00909600D01*
Y00915598D01*
X00940237Y00917097D01*
X00937238D01*
X00935739Y00915598D01*
Y00914098D01*
X00937238Y00912598D01*
X00941737D01*
X00497000Y00908850D02*
X00499333D01*
X00498166D01*
Y00915848D01*
X00497000Y00914681D01*
X00445831Y00912685D02*
X00446998Y00913851D01*
Y00916184D01*
X00445831Y00917350D01*
X00441166D01*
X00440000Y00916184D01*
Y00913851D01*
X00441166Y00912685D01*
X00443499D01*
Y00915017D01*
X00440000Y00910352D02*
X00446998D01*
X00440000Y00905687D01*
X00446998D01*
Y00903355D02*
X00440000D01*
Y00899856D01*
X00441166Y00898689D01*
X00445831D01*
X00446998Y00899856D01*
Y00903355D01*
X00445831Y00957935D02*
X00446998Y00959101D01*
Y00961434D01*
X00445831Y00962600D01*
X00441166D01*
X00440000Y00961434D01*
Y00959101D01*
X00441166Y00957935D01*
X00443499D01*
Y00960267D01*
X00456857Y01002348D02*
X00452192D01*
Y00998849D01*
X00454524Y01000015D01*
X00455690D01*
X00456857Y00998849D01*
Y00996516D01*
X00455690Y00995350D01*
X00453358D01*
X00452192Y00996516D01*
X00446998Y00991100D02*
X00440000D01*
Y00987601D01*
X00441166Y00986435D01*
X00442333D01*
X00443499Y00987601D01*
Y00991100D01*
Y00987601D01*
X00444665Y00986435D01*
X00445831D01*
X00446998Y00987601D01*
Y00991100D01*
X00858165Y00632931D02*
X00856999Y00634098D01*
X00854666D01*
X00853500Y00632931D01*
Y00628266D01*
X00854666Y00627100D01*
X00856999D01*
X00858165Y00628266D01*
Y00630599D01*
X00855833D01*
X00860498Y00627100D02*
Y00634098D01*
X00865163Y00627100D01*
Y00634098D01*
X00867495D02*
Y00627100D01*
X00870994D01*
X00872161Y00628266D01*
Y00632931D01*
X00870994Y00634098D01*
X00867495D01*
X00639165Y00632931D02*
X00637999Y00634098D01*
X00635666D01*
X00634500Y00632931D01*
Y00628266D01*
X00635666Y00627100D01*
X00637999D01*
X00639165Y00628266D01*
Y00630599D01*
X00636833D01*
X00641498Y00634098D02*
Y00627100D01*
X00644997D01*
X00646163Y00628266D01*
Y00632931D01*
X00644997Y00634098D01*
X00641498D01*
X00729500Y00627100D02*
Y00634098D01*
X00731833Y00631765D01*
X00734165Y00634098D01*
Y00627100D01*
X00741163Y00632931D02*
X00739997Y00634098D01*
X00737664D01*
X00736498Y00632931D01*
Y00628266D01*
X00737664Y00627100D01*
X00739997D01*
X00741163Y00628266D01*
X00657665Y00632931D02*
X00656499Y00634098D01*
X00654166D01*
X00653000Y00632931D01*
Y00628266D01*
X00654166Y00627100D01*
X00656499D01*
X00657665Y00628266D01*
X00659998Y00632931D02*
X00661164Y00634098D01*
X00663497D01*
X00664663Y00632931D01*
Y00628266D01*
X00663497Y00627100D01*
X00661164D01*
X00659998Y00628266D01*
Y00632931D01*
X00676665D02*
X00675499Y00634098D01*
X00673166D01*
X00672000Y00632931D01*
Y00628266D01*
X00673166Y00627100D01*
X00675499D01*
X00676665Y00628266D01*
X00678998Y00627100D02*
X00681330D01*
X00680164D01*
Y00634098D01*
X00678998Y00632931D01*
X00695665D02*
X00694499Y00634098D01*
X00692166D01*
X00691000Y00632931D01*
Y00628266D01*
X00692166Y00627100D01*
X00694499D01*
X00695665Y00628266D01*
X00702663Y00627100D02*
X00697998D01*
X00702663Y00631765D01*
Y00632931D01*
X00701497Y00634098D01*
X00699164D01*
X00697998Y00632931D01*
X00714915D02*
X00713749Y00634098D01*
X00711416D01*
X00710250Y00632931D01*
Y00628266D01*
X00711416Y00627100D01*
X00713749D01*
X00714915Y00628266D01*
X00717248Y00632931D02*
X00718414Y00634098D01*
X00720747D01*
X00721913Y00632931D01*
Y00631765D01*
X00720747Y00630599D01*
X00719581D01*
X00720747D01*
X00721913Y00629433D01*
Y00628266D01*
X00720747Y00627100D01*
X00718414D01*
X00717248Y00628266D01*
X00460232Y00890098D02*
X00457899Y00888931D01*
X00455566Y00886599D01*
Y00884266D01*
X00456733Y00883100D01*
X00459065D01*
X00460232Y00884266D01*
Y00885433D01*
X00459065Y00886599D01*
X00455566D01*
X00471415Y00889100D02*
X00466750D01*
X00471415Y00893765D01*
Y00894931D01*
X00470249Y00896098D01*
X00467916D01*
X00466750Y00894931D01*
X00452500Y00941681D02*
X00453666Y00942848D01*
X00455999D01*
X00457165Y00941681D01*
Y00940515D01*
X00455999Y00939349D01*
X00454833D01*
X00455999D01*
X00457165Y00938182D01*
Y00937016D01*
X00455999Y00935850D01*
X00453666D01*
X00452500Y00937016D01*
X00455999Y00964350D02*
Y00971348D01*
X00452500Y00967849D01*
X00457165D01*
X00905900Y00634098D02*
X00910565D01*
X00908233D01*
Y00627100D01*
X00912898Y00634098D02*
Y00627100D01*
X00916397D01*
X00917563Y00628266D01*
Y00632931D01*
X00916397Y00634098D01*
X00912898D01*
X00919895D02*
X00922228D01*
X00921062D01*
Y00627100D01*
X00919895D01*
X00922228D01*
X01007500Y00634098D02*
Y00629433D01*
X01009833Y00627100D01*
X01012165Y00629433D01*
Y00634098D01*
X01019163Y00631765D02*
X01015664D01*
X01014498Y00630599D01*
Y00628266D01*
X01015664Y00627100D01*
X01019163D01*
X01026161Y00631765D02*
X01022662D01*
X01021496Y00630599D01*
Y00628266D01*
X01022662Y00627100D01*
X01026161D01*
X00986765Y00632931D02*
X00985599Y00634098D01*
X00983266D01*
X00982100Y00632931D01*
Y00628266D01*
X00983266Y00627100D01*
X00985599D01*
X00986765Y00628266D01*
Y00630599D01*
X00984433D01*
X00989098Y00627100D02*
Y00634098D01*
X00993763Y00627100D01*
Y00634098D01*
X00996096D02*
Y00627100D01*
X00999594D01*
X01000761Y00628266D01*
Y00632931D01*
X00999594Y00634098D01*
X00996096D01*
X00956700D02*
X00961365D01*
X00959033D01*
Y00627100D01*
X00968363Y00632931D02*
X00967197Y00634098D01*
X00964864D01*
X00963698Y00632931D01*
Y00628266D01*
X00964864Y00627100D01*
X00967197D01*
X00968363Y00628266D01*
X00970695Y00634098D02*
Y00627100D01*
Y00629433D01*
X00975361Y00634098D01*
X00971862Y00630599D01*
X00975361Y00627100D01*
X00931300Y00634098D02*
X00935965D01*
X00933633D01*
Y00627100D01*
X00938298D02*
Y00634098D01*
X00940630Y00631765D01*
X00942963Y00634098D01*
Y00627100D01*
X00949961Y00632931D02*
X00948794Y00634098D01*
X00946462D01*
X00945295Y00632931D01*
Y00631765D01*
X00946462Y00630599D01*
X00948794D01*
X00949961Y00629433D01*
Y00628266D01*
X00948794Y00627100D01*
X00946462D01*
X00945295Y00628266D01*
X00880500Y00634098D02*
X00885165D01*
X00882833D01*
Y00627100D01*
X00887498Y00634098D02*
Y00627100D01*
X00890997D01*
X00892163Y00628266D01*
Y00632931D01*
X00890997Y00634098D01*
X00887498D01*
X00897994D02*
X00895662D01*
X00894495Y00632931D01*
Y00628266D01*
X00895662Y00627100D01*
X00897994D01*
X00899161Y00628266D01*
Y00632931D01*
X00897994Y00634098D01*
X00440000Y00934100D02*
X00446998D01*
Y00930601D01*
X00445831Y00929435D01*
X00443499D01*
X00442333Y00930601D01*
Y00934100D01*
Y00931767D02*
X00440000Y00929435D01*
X00445831Y00889685D02*
X00446998Y00890851D01*
Y00893184D01*
X00445831Y00894350D01*
X00441166D01*
X00440000Y00893184D01*
Y00890851D01*
X00441166Y00889685D01*
X00445831Y00882687D02*
X00446998Y00883853D01*
Y00886186D01*
X00445831Y00887352D01*
X00444665D01*
X00443499Y00886186D01*
Y00883853D01*
X00442333Y00882687D01*
X00441166D01*
X00440000Y00883853D01*
Y00886186D01*
X00441166Y00887352D01*
X00445581Y00869935D02*
X00446748Y00871101D01*
Y00873434D01*
X00445581Y00874600D01*
X00440916D01*
X00439750Y00873434D01*
Y00871101D01*
X00440916Y00869935D01*
X00443249D01*
Y00872267D01*
X00439750Y00867602D02*
X00446748D01*
X00439750Y00862937D01*
X00446748D01*
Y00860604D02*
X00439750D01*
Y00857106D01*
X00440916Y00855939D01*
X00445581D01*
X00446748Y00857106D01*
Y00860604D01*
X00446748Y00850350D02*
X00442083D01*
X00439750Y00848017D01*
X00442083Y00845685D01*
X00446748D01*
Y00843352D02*
Y00841020D01*
Y00842186D01*
X00439750D01*
Y00843352D01*
Y00841020D01*
X00581415Y00632931D02*
X00580249Y00634098D01*
X00577916D01*
X00576750Y00632931D01*
Y00628266D01*
X00577916Y00627100D01*
X00580249D01*
X00581415Y00628266D01*
Y00630599D01*
X00579083D01*
X00583748Y00634098D02*
Y00627100D01*
X00588413D01*
X00600665Y00632931D02*
X00599499Y00634098D01*
X00597166D01*
X00596000Y00632931D01*
Y00628266D01*
X00597166Y00627100D01*
X00599499D01*
X00600665Y00628266D01*
Y00630599D01*
X00598333D01*
X00606497Y00634098D02*
X00604164D01*
X00602998Y00632931D01*
Y00628266D01*
X00604164Y00627100D01*
X00606497D01*
X00607663Y00628266D01*
Y00632931D01*
X00606497Y00634098D01*
X00619665Y00632931D02*
X00618499Y00634098D01*
X00616166D01*
X00615000Y00632931D01*
Y00628266D01*
X00616166Y00627100D01*
X00618499D01*
X00619665Y00628266D01*
Y00630599D01*
X00617333D01*
X00626663Y00632931D02*
X00625497Y00634098D01*
X00623164D01*
X00621998Y00632931D01*
Y00628266D01*
X00623164Y00627100D01*
X00625497D01*
X00626663Y00628266D01*
X00806500Y00627100D02*
Y00634098D01*
X00809999D01*
X00811165Y00632931D01*
Y00630599D01*
X00809999Y00629433D01*
X00806500D01*
X00808833D02*
X00811165Y00627100D01*
X00818163Y00632931D02*
X00816997Y00634098D01*
X00814664D01*
X00813498Y00632931D01*
Y00628266D01*
X00814664Y00627100D01*
X00816997D01*
X00818163Y00628266D01*
Y00630599D01*
X00815830D01*
X00787250Y00634098D02*
Y00627100D01*
X00791915D01*
X00794248Y00632931D02*
X00795414Y00634098D01*
X00797747D01*
X00798913Y00632931D01*
Y00631765D01*
X00797747Y00630599D01*
X00796580D01*
X00797747D01*
X00798913Y00629433D01*
Y00628266D01*
X00797747Y00627100D01*
X00795414D01*
X00794248Y00628266D01*
X00768000Y00634098D02*
Y00627100D01*
X00772665D01*
X00779663D02*
X00774998D01*
X00779663Y00631765D01*
Y00632931D01*
X00778497Y00634098D01*
X00776164D01*
X00774998Y00632931D01*
X00748750Y00634098D02*
Y00627100D01*
X00753415D01*
X00755748D02*
X00758080D01*
X00756914D01*
Y00634098D01*
X00755748Y00632931D01*
D15*
X00633789Y00900889D02*
Y00905876D01*
Y00900889D02*
X00638775D01*
X00633789Y00970324D02*
Y00975311D01*
X00638775D01*
X00703224Y00900889D02*
X00708211D01*
Y00905876D01*
X00703224Y00975311D02*
X00708211D01*
Y00970324D02*
Y00975311D01*
X00525281Y00657631D02*
Y00666626D01*
Y00657631D02*
X00534276D01*
X00525281Y00851074D02*
Y00860069D01*
X00534276D01*
X00718724Y00657631D02*
X00727719D01*
Y00666626D01*
X00718724Y00860069D02*
X00727719D01*
Y00851074D02*
Y00860069D01*
D16*
X00473250Y00900850D02*
X00477250D01*
X00473250Y00910850D02*
X00477250D01*
X00498500Y00991600D02*
Y00995600D01*
X00508500Y00991600D02*
Y00995600D01*
X00436250Y00710350D02*
Y00712350D01*
X00429250Y00710350D02*
Y00712350D01*
X00739500Y00880350D02*
Y00882350D01*
X00732500Y00880350D02*
Y00882350D01*
X00748500Y00880350D02*
Y00882350D01*
X00741500Y00880350D02*
Y00882350D01*
X00928250Y00993100D02*
X00930250D01*
X00928250Y01000100D02*
X00930250D01*
X00445250Y00710350D02*
Y00712350D01*
X00438250Y00710350D02*
Y00712350D01*
X00718500Y00879600D02*
X00720500D01*
X00718500Y00886600D02*
X00720500D01*
X00623500Y00879100D02*
X00625500D01*
X00623500Y00886100D02*
X00625500D01*
X01016500Y00843850D02*
X01018500D01*
X01016500Y00850850D02*
X01018500D01*
X00830000Y00936600D02*
X00832000D01*
X00830000Y00943600D02*
X00832000D01*
X00604750Y00896600D02*
X00606750D01*
X00604750Y00903600D02*
X00606750D01*
X00604750Y00905350D02*
X00606750D01*
X00604750Y00912350D02*
X00606750D01*
X00605750Y00991350D02*
X00607750D01*
X00605750Y00998350D02*
X00607750D01*
X00605750Y00982100D02*
X00607750D01*
X00605750Y00989100D02*
X00607750D01*
X00491500Y00829100D02*
X00493500D01*
X00491500Y00836100D02*
X00493500D01*
X00718500Y00888350D02*
X00720500D01*
X00718500Y00895350D02*
X00720500D01*
X01016500Y00852600D02*
X01018500D01*
X01016500Y00859600D02*
X01018500D01*
X00968250Y00920100D02*
X00970250D01*
X00968250Y00927100D02*
X00970250D01*
X00786750Y00915600D02*
X00788750D01*
X00786750Y00922600D02*
X00788750D01*
X00812500Y00989100D02*
X00814500D01*
X00812500Y00996100D02*
X00814500D01*
X00782750Y00989100D02*
X00784750D01*
X00782750Y00996100D02*
X00784750D01*
X00763250Y00997850D02*
X00765250D01*
X00763250Y01004850D02*
X00765250D01*
X00763250Y00989100D02*
X00765250D01*
X00763250Y00996100D02*
X00765250D01*
X00775750Y00906850D02*
X00777750D01*
X00775750Y00913850D02*
X00777750D01*
X00456750Y00704850D02*
X00460750D01*
X00456750Y00714850D02*
X00460750D01*
X00456750Y00718100D02*
X00460750D01*
X00456750Y00728100D02*
X00460750D01*
X00483750Y00704850D02*
X00487750D01*
X00483750Y00714850D02*
X00487750D01*
X00483750Y00718100D02*
X00487750D01*
X00483750Y00728100D02*
X00487750D01*
X00604750Y00887850D02*
X00606750D01*
X00604750Y00894850D02*
X00606750D01*
X00536250Y00929100D02*
X00538250D01*
X00536250Y00922100D02*
X00538250D01*
X01024000Y00793100D02*
Y00795100D01*
X01017000Y00793100D02*
Y00795100D01*
X00774637Y01005640D02*
Y01007640D01*
X00781637Y01005640D02*
Y01007640D01*
X00909250Y01000100D02*
X00911250D01*
X00909250Y00993100D02*
X00911250D01*
X00909250Y00973850D02*
X00911250D01*
X00909250Y00980850D02*
X00911250D01*
X00532750Y00886350D02*
X00534750D01*
X00532750Y00879350D02*
X00534750D01*
X00805500Y00915600D02*
X00807500D01*
X00805500Y00922600D02*
X00807500D01*
X00473250Y00930100D02*
X00477250D01*
X00473250Y00920100D02*
X00477250D01*
X00473250Y00942600D02*
X00477250D01*
X00473250Y00932600D02*
X00477250D01*
X00473250Y00958600D02*
X00477250D01*
X00473250Y00948600D02*
X00477250D01*
X00473250Y00971100D02*
X00477250D01*
X00473250Y00961100D02*
X00477250D01*
X00473250Y00987100D02*
X00477250D01*
X00473250Y00977100D02*
X00477250D01*
X00473250Y00999600D02*
X00477250D01*
X00473250Y00989600D02*
X00477250D01*
X00803750Y01014100D02*
Y01016100D01*
X00796750Y01014100D02*
Y01016100D01*
X00833750Y00611350D02*
X00835750D01*
X00833750Y00618350D02*
X00835750D01*
X00833750Y00620100D02*
X00835750D01*
X00833750Y00627100D02*
X00835750D01*
X00982000Y00755350D02*
Y00757350D01*
X00975000Y00755350D02*
Y00757350D01*
X00587750Y00924100D02*
Y00926100D01*
X00594750Y00924100D02*
Y00926100D01*
X00597000Y00924100D02*
Y00926100D01*
X00604000Y00924100D02*
Y00926100D01*
X00603750Y00946600D02*
Y00948600D01*
X00596750Y00946600D02*
Y00948600D01*
X00613250Y00946600D02*
Y00948600D01*
X00606250Y00946600D02*
Y00948600D01*
X00603750Y00968850D02*
Y00970850D01*
X00596750Y00968850D02*
Y00970850D01*
X00613250Y00968850D02*
Y00970850D01*
X00606250Y00968850D02*
Y00970850D01*
X00591969Y00886459D02*
Y00888459D01*
X00584969Y00886459D02*
Y00888459D01*
X00968750Y00644850D02*
Y00646850D01*
X00975750Y00644850D02*
Y00646850D01*
X00754000Y00996600D02*
Y00998600D01*
X00747000Y00996600D02*
Y00998600D01*
X00756750Y00915600D02*
X00758750D01*
X00756750Y00922600D02*
X00758750D01*
X00756750Y00906850D02*
X00758750D01*
X00756750Y00913850D02*
X00758750D01*
X00581750Y01000100D02*
X00583750D01*
X00581750Y01007100D02*
X00583750D01*
X00561000Y01003350D02*
Y01005350D01*
X00554000Y01003350D02*
Y01005350D01*
X00552750Y00919100D02*
Y00921100D01*
X00559750Y00919100D02*
Y00921100D01*
X00744250Y00913600D02*
Y00915600D01*
X00737250Y00913600D02*
Y00915600D01*
X00542500Y01003350D02*
Y01005350D01*
X00549500Y01003350D02*
Y01005350D01*
X00497750Y00883350D02*
X00501750D01*
X00497750Y00893350D02*
X00501750D01*
X00525250Y00997850D02*
X00527250D01*
X00525250Y01004850D02*
X00527250D01*
X00727000Y00986600D02*
Y00988600D01*
X00720000Y00986600D02*
Y00988600D01*
X00718000Y00986600D02*
Y00988600D01*
X00711000Y00986600D02*
Y00988600D01*
X00831500Y00981350D02*
X00833500D01*
X00831500Y00988350D02*
X00833500D01*
X00949250Y00920100D02*
X00951250D01*
X00949250Y00927100D02*
X00951250D01*
X00420250Y00710350D02*
Y00712350D01*
X00427250Y00710350D02*
Y00712350D01*
X00496000Y00685850D02*
Y00687850D01*
X00503000Y00685850D02*
Y00687850D01*
X00751250Y00653600D02*
Y00655600D01*
X00744250Y00653600D02*
Y00655600D01*
X00503000Y00664850D02*
Y00666850D01*
X00496000Y00664850D02*
Y00666850D01*
X00727240Y00966520D02*
Y00968520D01*
X00734240Y00966520D02*
Y00968520D01*
X00623500Y00894850D02*
X00625500D01*
X00623500Y00887850D02*
X00625500D01*
X00727250Y00947850D02*
Y00949850D01*
X00734250Y00947850D02*
Y00949850D01*
X00812500Y01004850D02*
X00814500D01*
X00812500Y00997850D02*
X00814500D01*
X00793750Y01004850D02*
X00795750D01*
X00793750Y00997850D02*
X00795750D01*
X00571250Y00886350D02*
Y00888350D01*
X00578250Y00886350D02*
Y00888350D01*
X01002750Y00644850D02*
Y00646850D01*
X00995750Y00644850D02*
Y00646850D01*
X00986750Y00644850D02*
Y00646850D01*
X00993750Y00644850D02*
Y00646850D01*
X00977750Y00644850D02*
Y00646850D01*
X00984750Y00644850D02*
Y00646850D01*
X00431750Y00757600D02*
X00433750D01*
X00431750Y00750600D02*
X00433750D01*
M02*
