G04*
G04 #@! TF.GenerationSoftware,Altium Limited,Altium Designer,21.7.2 (23)*
G04*
G04 Layer_Physical_Order=4*
G04 Layer_Color=16711680*
%FSAX44Y44*%
%MOMM*%
G71*
G04*
G04 #@! TF.SameCoordinates,B5B927FB-FC6E-4532-AB5B-D5DFAA1904DE*
G04*
G04*
G04 #@! TF.FilePolarity,Positive*
G04*
G01*
G75*
%ADD10C,0.2500*%
%ADD11C,0.2000*%
%ADD13C,0.2540*%
%ADD14C,0.1500*%
%ADD17C,0.3000*%
%ADD18R,0.9000X0.8000*%
%ADD30R,0.6500X1.0000*%
%ADD31R,1.0000X0.6500*%
%ADD36R,0.9000X0.2500*%
%ADD37R,0.2500X0.9000*%
%ADD38R,1.0000X3.0000*%
%ADD39R,0.6000X0.5000*%
%ADD40R,0.5000X0.6000*%
%ADD80C,0.5000*%
%ADD82C,1.5000*%
%ADD83C,3.0000*%
%ADD84C,0.4500*%
%ADD85C,0.5500*%
%ADD86R,1.0000X0.6000*%
%ADD87R,0.6600X0.2300*%
%ADD88R,0.6600X0.3500*%
%ADD89R,0.4500X0.9500*%
%ADD90R,1.4000X0.4000*%
%ADD91R,3.0000X1.0000*%
G36*
X00814691Y01019600D02*
X00814706Y01019525D01*
X00814695Y01019450D01*
X00814743Y01018470D01*
X00814798Y01018250D01*
Y01018023D01*
X00815181Y01016100D01*
X00815296Y01015822D01*
X00815355Y01015527D01*
X00816105Y01013716D01*
X00816272Y01013465D01*
X00816388Y01013187D01*
X00817477Y01011557D01*
X00817690Y01011344D01*
X00817857Y01011093D01*
X00819243Y01009707D01*
X00819494Y01009540D01*
X00819707Y01009327D01*
X00821337Y01008238D01*
X00821615Y01008122D01*
X00821866Y01007955D01*
X00823677Y01007205D01*
X00823972Y01007146D01*
X00824250Y01007031D01*
X00826173Y01006648D01*
X00826400D01*
X00826620Y01006593D01*
X00827600Y01006545D01*
X00827675Y01006556D01*
X00827750Y01006541D01*
X00978531Y01006541D01*
Y00987110D01*
X01014052Y00987110D01*
X01014072Y00987090D01*
Y00987090D01*
X01016480D01*
X01017106Y00985820D01*
X01016294Y00984761D01*
X01015462Y00982754D01*
X01015179Y00980600D01*
X01015462Y00978446D01*
X01016294Y00976439D01*
X01017616Y00974716D01*
X01018359Y00974146D01*
X01017676Y00973086D01*
X01016018Y00973416D01*
X01014359Y00973086D01*
X01012953Y00972146D01*
X01012014Y00970741D01*
X01011684Y00969082D01*
X01012014Y00967424D01*
X01012953Y00966018D01*
X01014359Y00965079D01*
X01015415Y00964869D01*
X01015254Y00964059D01*
X01015406Y00963293D01*
X01014359Y00963085D01*
X01012953Y00962146D01*
X01012014Y00960740D01*
X01011684Y00959082D01*
X01012014Y00957424D01*
X01012953Y00956018D01*
X01014359Y00955079D01*
X01015500Y00954852D01*
X01015344Y00954069D01*
X01015495Y00953308D01*
X01014359Y00953082D01*
X01012953Y00952142D01*
X01012014Y00950736D01*
X01011684Y00949078D01*
X01012014Y00947420D01*
X01012953Y00946014D01*
X01014359Y00945075D01*
X01015584Y00944831D01*
X01015434Y00944078D01*
X01015584Y00943325D01*
X01014359Y00943081D01*
X01012953Y00942142D01*
X01012014Y00940736D01*
X01011684Y00939078D01*
X01012014Y00937420D01*
X01012953Y00936014D01*
X01013860Y00935408D01*
X01014061Y00934116D01*
X01013996Y00933906D01*
X01013026Y00932453D01*
X01012657Y00930600D01*
X01013026Y00928747D01*
X01014075Y00927175D01*
X01015647Y00926126D01*
X01017500Y00925757D01*
X01019353Y00926126D01*
X01020925Y00927175D01*
X01021974Y00928747D01*
X01022343Y00930600D01*
X01021974Y00932453D01*
X01020925Y00934025D01*
X01019658Y00934871D01*
X01019524Y00935136D01*
X01019332Y00935990D01*
X01019323Y00936375D01*
X01020021Y00937420D01*
X01020351Y00939078D01*
X01020201Y00939831D01*
X01021426Y00940075D01*
X01022832Y00941014D01*
X01023771Y00942420D01*
X01024101Y00944078D01*
X01023771Y00945736D01*
X01022832Y00947142D01*
X01021426Y00948081D01*
X01020201Y00948325D01*
X01020351Y00949078D01*
X01020199Y00949839D01*
X01021336Y00950065D01*
X01022741Y00951004D01*
X01023681Y00952410D01*
X01024010Y00954069D01*
X01023681Y00955727D01*
X01022741Y00957133D01*
X01021336Y00958072D01*
X01020195Y00958299D01*
X01020351Y00959082D01*
X01020199Y00959847D01*
X01021245Y00960056D01*
X01022651Y00960995D01*
X01023590Y00962401D01*
X01023920Y00964059D01*
X01023590Y00965717D01*
X01022651Y00967123D01*
X01021245Y00968062D01*
X01020190Y00968272D01*
X01020351Y00969082D01*
X01020021Y00970741D01*
X01019082Y00972146D01*
X01019764Y00973218D01*
X01021346Y00972562D01*
X01023500Y00972279D01*
X01025654Y00972562D01*
X01027661Y00973394D01*
X01028421Y00973977D01*
X01029691Y00973351D01*
Y00616502D01*
X01028421Y00616249D01*
X01027948Y00617391D01*
X01026425Y00619375D01*
X01024441Y00620898D01*
X01022130Y00621855D01*
X01019650Y00622182D01*
X01017170Y00621855D01*
X01014859Y00620898D01*
X01012875Y00619375D01*
X01011352Y00617391D01*
X01010395Y00615080D01*
X01010068Y00612600D01*
X01010395Y00610120D01*
X01011352Y00607809D01*
X01012875Y00605825D01*
X01014859Y00604302D01*
X01015760Y00603929D01*
X01015507Y00602659D01*
X00998393D01*
X00998140Y00603929D01*
X00999041Y00604302D01*
X01001025Y00605825D01*
X01002548Y00607809D01*
X01003505Y00610120D01*
X01003700Y00611600D01*
X00994250D01*
Y00613600D01*
X01003700D01*
X01003505Y00615080D01*
X01002548Y00617391D01*
X01001025Y00619375D01*
X00999041Y00620898D01*
X00996730Y00621855D01*
X00994250Y00622182D01*
X00994087Y00622160D01*
X00993525Y00623299D01*
X00998819Y00628593D01*
X00999250Y00628507D01*
X01001103Y00628876D01*
X01002675Y00629925D01*
X01003724Y00631497D01*
X01004093Y00633350D01*
X01003724Y00635203D01*
X01002675Y00636774D01*
X01001103Y00637824D01*
X00999250Y00638193D01*
X00997397Y00637824D01*
X00995826Y00636774D01*
X00995514Y00636308D01*
X00993986D01*
X00993675Y00636774D01*
X00992103Y00637824D01*
X00990250Y00638193D01*
X00988397Y00637824D01*
X00986825Y00636774D01*
X00986514Y00636308D01*
X00984986D01*
X00984675Y00636774D01*
X00983103Y00637824D01*
X00981250Y00638193D01*
X00979397Y00637824D01*
X00977825Y00636774D01*
X00976776Y00635203D01*
X00976407Y00633350D01*
X00976493Y00632919D01*
X00974233Y00630659D01*
X00944154D01*
X00943668Y00631832D01*
X00958853Y00647017D01*
X00960071Y00647259D01*
X00961477Y00648199D01*
X00962946Y00648112D01*
X00964092Y00647347D01*
X00965750Y00647017D01*
X00967408Y00647347D01*
X00968814Y00648286D01*
X00969753Y00649692D01*
X00970083Y00651350D01*
X00969753Y00653008D01*
X00968814Y00654414D01*
X00967408Y00655353D01*
X00965750Y00655683D01*
X00964092Y00655353D01*
X00962686Y00654414D01*
X00961216Y00654501D01*
X00960071Y00655266D01*
X00959209Y00655437D01*
X00958791Y00656815D01*
X00962413Y00660437D01*
X00963076Y00661429D01*
X00963309Y00662600D01*
X00963309Y00662600D01*
Y00686600D01*
X00963309Y00686600D01*
X00963076Y00687771D01*
X00962413Y00688763D01*
X00944763Y00706413D01*
X00943771Y00707076D01*
X00942600Y00707309D01*
X00942070Y00708366D01*
Y00712500D01*
X00942070Y00712500D01*
X00942070D01*
X00942596Y00713554D01*
X00942724Y00713747D01*
X00943093Y00715600D01*
X00942724Y00717453D01*
X00941674Y00719025D01*
X00940986Y00719484D01*
X00941787Y00720684D01*
X00942156Y00722537D01*
X00941787Y00724390D01*
X00940738Y00725962D01*
X00939867Y00726543D01*
X00939800Y00726879D01*
X00939082Y00727954D01*
X00936000Y00731036D01*
Y00735350D01*
Y00739350D01*
X00927000D01*
Y00735350D01*
Y00726350D01*
X00931314D01*
X00933013Y00724651D01*
X00932839Y00724390D01*
X00932470Y00722537D01*
X00932839Y00720684D01*
X00933888Y00719112D01*
X00934577Y00718652D01*
X00933776Y00717453D01*
X00933407Y00715600D01*
X00933776Y00713747D01*
X00933860Y00713620D01*
X00933262Y00712500D01*
X00929070D01*
X00928909Y00713250D01*
X00925570D01*
Y00714250D01*
X00924570D01*
Y00720750D01*
X00923594D01*
Y00726350D01*
X00925000D01*
Y00735350D01*
Y00745350D01*
X00916000D01*
Y00735350D01*
Y00726350D01*
X00917476D01*
Y00720750D01*
X00917320D01*
Y00717309D01*
X00911742D01*
X00911742Y00717309D01*
X00910571Y00717076D01*
X00909579Y00716413D01*
X00909579Y00716413D01*
X00908407Y00715241D01*
X00907899Y00714481D01*
X00906766Y00714637D01*
X00906629Y00714692D01*
Y00765155D01*
X00909324Y00767850D01*
X00914000D01*
Y00777850D01*
X00912559D01*
Y00784350D01*
X00918500D01*
Y00790850D01*
Y00797350D01*
Y00803850D01*
Y00810350D01*
Y00816850D01*
Y00823350D01*
Y00829850D01*
Y00836350D01*
Y00842850D01*
Y00845850D01*
X00909500D01*
X00900500D01*
Y00843409D01*
X00891000D01*
X00889829Y00843176D01*
X00888837Y00842513D01*
X00888837Y00842513D01*
X00881870Y00835546D01*
X00880600Y00836072D01*
Y00842414D01*
X00881870Y00843081D01*
X00883500Y00842757D01*
X00885354Y00843126D01*
X00886925Y00844175D01*
X00887975Y00845747D01*
X00888343Y00847600D01*
X00887975Y00849453D01*
X00886925Y00851025D01*
X00885354Y00852074D01*
X00883500Y00852443D01*
X00881870Y00852119D01*
X00880600Y00852786D01*
Y00856100D01*
X00870000D01*
X00869043Y00856855D01*
Y00859366D01*
X00869043Y00859366D01*
X00868810Y00860536D01*
X00868147Y00861529D01*
X00868147Y00861529D01*
X00863059Y00866617D01*
Y00875850D01*
X00862826Y00877020D01*
X00862163Y00878013D01*
X00839559Y00900617D01*
Y00912583D01*
X00883436Y00956460D01*
X00883436Y00956460D01*
X00884099Y00957452D01*
X00884332Y00958623D01*
X00884332Y00958623D01*
Y00963050D01*
X00884337Y00963054D01*
X00885276Y00964460D01*
X00885606Y00966118D01*
X00885276Y00967776D01*
X00884337Y00969182D01*
X00882931Y00970121D01*
X00881273Y00970451D01*
X00879615Y00970121D01*
X00878209Y00969182D01*
X00877270Y00967776D01*
X00876940Y00966118D01*
X00877270Y00964460D01*
X00878209Y00963054D01*
X00878214Y00963050D01*
Y00959890D01*
X00834337Y00916013D01*
X00833674Y00915021D01*
X00833441Y00913850D01*
X00833441Y00913850D01*
Y00899350D01*
X00833441Y00899350D01*
X00833674Y00898179D01*
X00834337Y00897187D01*
X00856941Y00874583D01*
Y00865350D01*
X00856941Y00865350D01*
X00857174Y00864180D01*
X00857837Y00863187D01*
X00862925Y00858099D01*
Y00853351D01*
X00861845Y00852953D01*
X00861655Y00852944D01*
X00852617Y00861982D01*
Y00874791D01*
X00852385Y00875962D01*
X00851722Y00876954D01*
X00851722Y00876954D01*
X00831170Y00897506D01*
Y00915935D01*
X00853663Y00938428D01*
X00854326Y00939421D01*
X00854559Y00940591D01*
Y00947583D01*
X00888581Y00981605D01*
X00889342Y00981097D01*
X00891000Y00980767D01*
X00892658Y00981097D01*
X00894064Y00982036D01*
X00895003Y00983442D01*
X00895333Y00985100D01*
X00895003Y00986758D01*
X00894064Y00988164D01*
X00892658Y00989103D01*
X00891000Y00989433D01*
X00889342Y00989103D01*
X00887936Y00988164D01*
X00887874Y00988072D01*
X00887663D01*
X00886492Y00987839D01*
X00885500Y00987176D01*
X00885500Y00987176D01*
X00849337Y00951013D01*
X00848674Y00950021D01*
X00848441Y00948850D01*
X00848441Y00948850D01*
Y00941858D01*
X00825948Y00919365D01*
X00825285Y00918372D01*
X00825052Y00917202D01*
X00825052Y00917202D01*
Y00896239D01*
X00825052Y00896239D01*
X00825285Y00895069D01*
X00825948Y00894076D01*
X00846500Y00873524D01*
Y00860715D01*
X00846500Y00860715D01*
X00846733Y00859544D01*
X00847396Y00858552D01*
X00848675Y00857273D01*
X00848189Y00856100D01*
X00842900D01*
Y00844050D01*
X00842869Y00843998D01*
X00841630Y00843441D01*
X00841559Y00843504D01*
Y00874159D01*
X00841559Y00874159D01*
X00841326Y00875330D01*
X00840663Y00876322D01*
X00823144Y00893841D01*
Y00920668D01*
X00837913Y00935437D01*
X00838576Y00936430D01*
X00838809Y00937600D01*
X00838809Y00937600D01*
Y00964782D01*
X00838814Y00964786D01*
X00839753Y00966192D01*
X00840083Y00967850D01*
X00839753Y00969508D01*
X00838814Y00970914D01*
X00837408Y00971853D01*
X00835750Y00972183D01*
X00834092Y00971853D01*
X00832686Y00970914D01*
X00831747Y00969508D01*
X00831417Y00967850D01*
X00831747Y00966192D01*
X00832686Y00964786D01*
X00832691Y00964782D01*
Y00938867D01*
X00817922Y00924098D01*
X00817259Y00923105D01*
X00817026Y00921935D01*
X00817026Y00921935D01*
Y00892574D01*
X00817026Y00892574D01*
X00817259Y00891404D01*
X00817922Y00890411D01*
X00835441Y00872892D01*
Y00845644D01*
X00834268Y00845158D01*
X00825905Y00853521D01*
X00825952Y00853999D01*
X00826364Y00854858D01*
X00827201Y00855024D01*
X00827769Y00855403D01*
X00828457Y00855267D01*
X00830115Y00855596D01*
X00831521Y00856536D01*
X00832460Y00857942D01*
X00832790Y00859600D01*
X00832460Y00861258D01*
X00831521Y00862664D01*
X00830115Y00863603D01*
X00829224Y00863781D01*
X00829387Y00864600D01*
X00829057Y00866258D01*
X00828118Y00867664D01*
X00827110Y00868337D01*
X00826765Y00869789D01*
X00827663Y00870687D01*
X00827663Y00870687D01*
X00828326Y00871679D01*
X00828559Y00872850D01*
X00828559Y00872850D01*
Y00876338D01*
X00828326Y00877508D01*
X00827663Y00878501D01*
X00827663Y00878501D01*
X00813559Y00892605D01*
Y00936301D01*
X00821551Y00944292D01*
X00822592Y00943597D01*
X00824250Y00943267D01*
X00825908Y00943597D01*
X00827314Y00944536D01*
X00828253Y00945942D01*
X00828583Y00947600D01*
X00828253Y00949258D01*
X00827314Y00950664D01*
X00825908Y00951603D01*
X00824250Y00951933D01*
X00822592Y00951603D01*
X00821186Y00950664D01*
X00821182Y00950659D01*
X00820533D01*
X00820533Y00950659D01*
X00819362Y00950426D01*
X00818370Y00949763D01*
X00818370Y00949763D01*
X00815714Y00947107D01*
X00814079Y00947268D01*
X00813814Y00947664D01*
X00812408Y00948603D01*
X00810750Y00948933D01*
X00809092Y00948603D01*
X00808216Y00948018D01*
X00807083Y00947427D01*
X00805677Y00948367D01*
X00804019Y00948697D01*
X00802361Y00948367D01*
X00800955Y00947427D01*
X00800016Y00946022D01*
X00799686Y00944363D01*
X00800016Y00942705D01*
X00800955Y00941299D01*
X00800960Y00941296D01*
Y00890482D01*
X00797387Y00886909D01*
X00695750D01*
X00695750Y00886909D01*
X00694579Y00886676D01*
X00693587Y00886013D01*
X00638483Y00830909D01*
X00631794D01*
X00631308Y00832082D01*
X00635204Y00835978D01*
X00635204Y00835978D01*
X00635867Y00836970D01*
X00636100Y00838141D01*
X00636100Y00838141D01*
Y00849229D01*
X00637341Y00850095D01*
X00638123Y00849844D01*
X00638201Y00849655D01*
X00638182Y00849268D01*
X00637868Y00847686D01*
X00638197Y00846028D01*
X00639137Y00844622D01*
X00640543Y00843683D01*
X00642201Y00843353D01*
X00643859Y00843683D01*
X00645265Y00844622D01*
X00646204Y00846028D01*
X00646534Y00847686D01*
X00646257Y00849077D01*
X00646420Y00849109D01*
X00647622Y00849912D01*
X00647698Y00849798D01*
X00649103Y00848859D01*
X00650762Y00848529D01*
X00652420Y00848859D01*
X00653826Y00849798D01*
X00654765Y00851204D01*
X00655095Y00852862D01*
X00654765Y00854521D01*
X00653826Y00855926D01*
X00652420Y00856866D01*
X00650762Y00857196D01*
X00649103Y00856866D01*
X00647901Y00856063D01*
X00647825Y00856176D01*
X00646420Y00857116D01*
X00644761Y00857446D01*
X00643103Y00857116D01*
X00642691Y00856840D01*
X00642049Y00857801D01*
X00640644Y00858740D01*
X00638985Y00859070D01*
X00637327Y00858740D01*
X00637131Y00858609D01*
X00636322Y00859596D01*
X00637267Y00860541D01*
X00650750D01*
X00650750Y00860541D01*
X00651921Y00860774D01*
X00652913Y00861437D01*
X00702744Y00911268D01*
X00702750Y00911267D01*
X00704408Y00911597D01*
X00705814Y00912536D01*
X00706753Y00913942D01*
X00707083Y00915600D01*
X00706950Y00916271D01*
X00707975Y00917541D01*
X00720510D01*
X00720514Y00917536D01*
X00721920Y00916597D01*
X00723578Y00916267D01*
X00725236Y00916597D01*
X00726642Y00917536D01*
X00727581Y00918942D01*
X00727911Y00920600D01*
X00727581Y00922258D01*
X00726642Y00923664D01*
X00725236Y00924604D01*
X00723578Y00924933D01*
X00721920Y00924604D01*
X00720514Y00923664D01*
X00720510Y00923659D01*
X00707976D01*
X00706950Y00924929D01*
X00707083Y00925600D01*
X00706950Y00926271D01*
X00707975Y00927541D01*
X00720510D01*
X00720514Y00927536D01*
X00721920Y00926597D01*
X00723578Y00926267D01*
X00725236Y00926597D01*
X00726642Y00927536D01*
X00727581Y00928942D01*
X00727911Y00930600D01*
X00727906Y00930626D01*
X00729058Y00931344D01*
X00730750Y00931007D01*
X00732603Y00931376D01*
X00734175Y00932425D01*
X00735224Y00933997D01*
X00735593Y00935850D01*
X00735224Y00937703D01*
X00734175Y00939275D01*
X00732603Y00940324D01*
X00730750Y00940693D01*
X00729152Y00940375D01*
X00728954Y00940411D01*
X00728355Y00940722D01*
X00727807Y00941124D01*
X00727581Y00942258D01*
X00726642Y00943664D01*
X00725236Y00944604D01*
X00723578Y00944933D01*
X00721920Y00944604D01*
X00720514Y00943664D01*
X00720510Y00943659D01*
X00707976D01*
X00706950Y00944929D01*
X00707083Y00945600D01*
X00706950Y00946271D01*
X00707975Y00947541D01*
X00720510D01*
X00720514Y00947536D01*
X00721920Y00946597D01*
X00723578Y00946267D01*
X00725236Y00946597D01*
X00726642Y00947536D01*
X00727581Y00948942D01*
X00727911Y00950600D01*
X00727581Y00952258D01*
X00726642Y00953664D01*
X00725236Y00954604D01*
X00723578Y00954933D01*
X00721920Y00954604D01*
X00720514Y00953664D01*
X00720510Y00953659D01*
X00707976D01*
X00706950Y00954929D01*
X00707083Y00955600D01*
X00706950Y00956271D01*
X00707975Y00957541D01*
X00720510D01*
X00720514Y00957536D01*
X00721920Y00956597D01*
X00723578Y00956267D01*
X00725236Y00956597D01*
X00726642Y00957536D01*
X00727581Y00958942D01*
X00727911Y00960600D01*
X00727581Y00962258D01*
X00726642Y00963664D01*
X00725236Y00964603D01*
X00723578Y00964933D01*
X00721920Y00964603D01*
X00720514Y00963664D01*
X00720510Y00963659D01*
X00712294D01*
X00711808Y00964832D01*
X00712994Y00966018D01*
X00713000Y00966017D01*
X00714658Y00966347D01*
X00716064Y00967286D01*
X00717003Y00968692D01*
X00717333Y00970350D01*
X00717003Y00972008D01*
X00716064Y00973414D01*
X00714658Y00974353D01*
X00713000Y00974683D01*
X00711342Y00974353D01*
X00709936Y00973414D01*
X00708997Y00972008D01*
X00708667Y00970350D01*
X00708668Y00970344D01*
X00705483Y00967159D01*
X00694516D01*
X00694296Y00967323D01*
X00693598Y00968429D01*
X00693827Y00969577D01*
X00693497Y00971236D01*
X00692558Y00972642D01*
X00691152Y00973581D01*
X00689493Y00973911D01*
X00687835Y00973581D01*
X00686648Y00972788D01*
X00686564Y00972914D01*
X00685158Y00973854D01*
X00683500Y00974183D01*
X00682829Y00974050D01*
X00681559Y00975076D01*
Y00987611D01*
X00681564Y00987614D01*
X00682503Y00989020D01*
X00682833Y00990678D01*
X00682503Y00992337D01*
X00681879Y00993271D01*
X00682480Y00994541D01*
X00900511D01*
X00900636Y00993271D01*
X00899647Y00993074D01*
X00898075Y00992025D01*
X00897026Y00990453D01*
X00896657Y00988600D01*
X00897026Y00986747D01*
X00898075Y00985175D01*
X00899647Y00984126D01*
X00901500Y00983757D01*
X00903353Y00984126D01*
X00903973Y00984540D01*
X00905000Y00985132D01*
X00906027Y00984540D01*
X00906647Y00984126D01*
X00908500Y00983757D01*
X00909827Y00984021D01*
X00911195Y00983353D01*
X00911291Y00983224D01*
X00912326Y00981675D01*
X00913897Y00980626D01*
X00915750Y00980257D01*
X00917603Y00980626D01*
X00919175Y00981675D01*
X00920224Y00983247D01*
X00920593Y00985100D01*
X00920224Y00986953D01*
X00919175Y00988524D01*
X00917603Y00989574D01*
X00915750Y00989943D01*
X00914423Y00989679D01*
X00913055Y00990347D01*
X00912960Y00990476D01*
X00911925Y00992025D01*
X00910353Y00993074D01*
X00909364Y00993271D01*
X00909489Y00994541D01*
X00959233D01*
X00974702Y00979072D01*
X00974312Y00977667D01*
X00973552Y00977159D01*
X00943051D01*
X00943050Y00977159D01*
X00941880Y00976926D01*
X00940888Y00976263D01*
X00938920Y00974295D01*
X00937747Y00974781D01*
Y00983491D01*
X00937814Y00983536D01*
X00938753Y00984942D01*
X00939083Y00986600D01*
X00938753Y00988258D01*
X00937814Y00989664D01*
X00936408Y00990603D01*
X00934750Y00990933D01*
X00933092Y00990603D01*
X00931686Y00989664D01*
X00930747Y00988258D01*
X00930417Y00986600D01*
X00930747Y00984942D01*
X00931629Y00983621D01*
Y00967004D01*
X00882783Y00918159D01*
X00856533D01*
X00855362Y00917926D01*
X00854370Y00917263D01*
X00843776Y00906669D01*
X00842436Y00905774D01*
X00841497Y00904368D01*
X00841167Y00902710D01*
X00841497Y00901052D01*
X00842436Y00899646D01*
X00843842Y00898707D01*
X00845500Y00898377D01*
X00847158Y00898707D01*
X00848564Y00899646D01*
X00849735Y00899112D01*
X00850342Y00898706D01*
X00852000Y00898376D01*
X00853658Y00898706D01*
X00854290Y00899129D01*
X00855391Y00899487D01*
X00856218Y00899087D01*
X00856951Y00898598D01*
X00858609Y00898268D01*
X00860267Y00898598D01*
X00860945Y00899051D01*
X00862045Y00899537D01*
X00863451Y00898598D01*
X00865109Y00898268D01*
X00866767Y00898598D01*
X00868173Y00899537D01*
X00868177Y00899542D01*
X00896024D01*
X00896025Y00899542D01*
X00897195Y00899775D01*
X00898187Y00900438D01*
X00952518Y00954768D01*
X00952524Y00954767D01*
X00954182Y00955097D01*
X00955588Y00956036D01*
X00956527Y00957442D01*
X00956857Y00959100D01*
X00957815Y00959848D01*
X00959064Y00960097D01*
X00960470Y00961036D01*
X00961409Y00962442D01*
X00961724Y00964026D01*
X00961794Y00964144D01*
X00962856Y00964997D01*
X00964012Y00964767D01*
X00965670Y00965097D01*
X00967076Y00966036D01*
X00968015Y00967442D01*
X00968345Y00969100D01*
X00968212Y00969771D01*
X00969238Y00971041D01*
X00973016D01*
X00973186Y00970786D01*
X00974592Y00969847D01*
X00976250Y00969517D01*
X00977908Y00969847D01*
X00979314Y00970786D01*
X00980066Y00971912D01*
X00981472Y00972303D01*
X00987191Y00966583D01*
Y00865867D01*
X00983006Y00861682D01*
X00983000Y00861683D01*
X00981342Y00861353D01*
X00979936Y00860414D01*
X00978997Y00859008D01*
X00978667Y00857350D01*
X00978997Y00855692D01*
X00979936Y00854286D01*
X00981342Y00853347D01*
X00983000Y00853017D01*
X00984658Y00853347D01*
X00986064Y00854286D01*
X00987003Y00855692D01*
X00987333Y00857350D01*
X00987332Y00857356D01*
X00992413Y00862437D01*
X00992413Y00862437D01*
X00993076Y00863429D01*
X00993309Y00864600D01*
Y00967850D01*
X00993309Y00967850D01*
X00993076Y00969021D01*
X00992413Y00970013D01*
X00962663Y00999763D01*
X00961671Y01000426D01*
X00960500Y01000659D01*
X00960500Y01000659D01*
X00639250D01*
X00639250Y01000659D01*
X00638079Y01000426D01*
X00637087Y00999763D01*
X00637087Y00999763D01*
X00627153Y00989829D01*
X00625889Y00989953D01*
X00625675Y00990275D01*
X00624103Y00991324D01*
X00622250Y00991693D01*
X00620397Y00991324D01*
X00618825Y00990275D01*
X00617776Y00988703D01*
X00617407Y00986850D01*
X00617776Y00984997D01*
X00618825Y00983425D01*
X00620397Y00982376D01*
X00622250Y00982007D01*
X00623171Y00982190D01*
X00624441Y00981190D01*
Y00970825D01*
X00562276Y00908661D01*
X00560898Y00909079D01*
X00560724Y00909953D01*
X00559674Y00911525D01*
X00558103Y00912574D01*
X00556250Y00912943D01*
X00554397Y00912574D01*
X00553445Y00911938D01*
X00552285Y00912618D01*
X00551916Y00914471D01*
X00550866Y00916042D01*
X00549295Y00917092D01*
X00547442Y00917461D01*
X00545588Y00917092D01*
X00544017Y00916042D01*
X00542967Y00914471D01*
X00542599Y00912618D01*
X00542967Y00910764D01*
X00544017Y00909193D01*
X00545588Y00908143D01*
X00547442Y00907775D01*
X00549295Y00908143D01*
X00550247Y00908780D01*
X00551407Y00908100D01*
X00551776Y00906247D01*
X00552825Y00904676D01*
X00552435Y00903409D01*
X00550318D01*
X00550314Y00903414D01*
X00548908Y00904353D01*
X00547250Y00904683D01*
X00545592Y00904353D01*
X00544186Y00903414D01*
X00543247Y00902008D01*
X00542917Y00900350D01*
X00543247Y00898692D01*
X00544186Y00897286D01*
X00545592Y00896347D01*
X00547250Y00896017D01*
X00548908Y00896347D01*
X00550314Y00897286D01*
X00550318Y00897291D01*
X00554198D01*
X00554683Y00896118D01*
X00520821Y00862256D01*
X00519835Y00863065D01*
X00520253Y00863692D01*
X00520583Y00865350D01*
X00520253Y00867008D01*
X00519412Y00868268D01*
X00519586Y00869314D01*
X00520797Y00869795D01*
X00521842Y00869097D01*
X00523500Y00868767D01*
X00525158Y00869097D01*
X00526564Y00870036D01*
X00527503Y00871442D01*
X00527833Y00873100D01*
X00527503Y00874758D01*
X00526564Y00876164D01*
X00525158Y00877103D01*
X00523500Y00877433D01*
X00521842Y00877103D01*
X00520436Y00876164D01*
X00519497Y00874758D01*
X00519284Y00873688D01*
X00517944Y00873232D01*
X00511832Y00879344D01*
X00511833Y00879350D01*
X00511503Y00881008D01*
X00510564Y00882414D01*
X00509158Y00883353D01*
X00507500Y00883683D01*
X00505842Y00883353D01*
X00504436Y00882414D01*
X00503497Y00881008D01*
X00503167Y00879350D01*
X00503497Y00877692D01*
X00504436Y00876286D01*
X00505842Y00875347D01*
X00507500Y00875017D01*
X00507506Y00875018D01*
X00512957Y00869567D01*
X00513186Y00868414D01*
X00512247Y00867008D01*
X00511927Y00865399D01*
X00510500Y00865683D01*
X00508842Y00865353D01*
X00507436Y00864414D01*
X00506497Y00863008D01*
X00506167Y00861350D01*
X00506497Y00859692D01*
X00507436Y00858286D01*
X00508842Y00857347D01*
X00510500Y00857017D01*
X00512158Y00857347D01*
X00513564Y00858286D01*
X00514503Y00859692D01*
X00514823Y00861301D01*
X00516250Y00861017D01*
X00517908Y00861347D01*
X00518535Y00861765D01*
X00519344Y00860779D01*
X00495837Y00837271D01*
X00495174Y00836279D01*
X00494941Y00835109D01*
X00494941Y00835108D01*
Y00828918D01*
X00494936Y00828914D01*
X00493997Y00827508D01*
X00493667Y00825850D01*
X00493997Y00824192D01*
X00494936Y00822786D01*
X00496342Y00821847D01*
X00498000Y00821517D01*
X00499658Y00821847D01*
X00501064Y00822786D01*
X00502003Y00824192D01*
X00502333Y00825850D01*
X00502003Y00827508D01*
X00501064Y00828914D01*
X00501059Y00828918D01*
Y00833842D01*
X00516602Y00849385D01*
X00518070Y00849056D01*
X00518825Y00847925D01*
X00520397Y00846876D01*
X00522250Y00846507D01*
X00524103Y00846876D01*
X00525675Y00847925D01*
X00526724Y00849497D01*
X00527093Y00851350D01*
X00526724Y00853203D01*
X00525675Y00854774D01*
X00524543Y00855530D01*
X00524216Y00856998D01*
X00639413Y00972196D01*
X00639413Y00972196D01*
X00640076Y00973188D01*
X00640309Y00974359D01*
Y00982282D01*
X00640314Y00982286D01*
X00641253Y00983692D01*
X00641583Y00985350D01*
X00641253Y00987008D01*
X00640314Y00988414D01*
X00638908Y00989353D01*
X00637421Y00989649D01*
X00637089Y00990216D01*
X00636880Y00990905D01*
X00640517Y00994541D01*
X00654520D01*
X00655121Y00993271D01*
X00654497Y00992337D01*
X00654167Y00990678D01*
X00654497Y00989020D01*
X00655436Y00987614D01*
X00655441Y00987611D01*
Y00975076D01*
X00654171Y00974050D01*
X00653500Y00974183D01*
X00651842Y00973854D01*
X00650974Y00973274D01*
X00650436Y00972914D01*
X00649060Y00973142D01*
X00648668Y00973404D01*
X00647009Y00973734D01*
X00645351Y00973404D01*
X00643945Y00972465D01*
X00643006Y00971059D01*
X00642676Y00969401D01*
X00643006Y00967742D01*
X00643945Y00966337D01*
X00643542Y00965218D01*
X00612233Y00933909D01*
X00605753D01*
X00605752Y00933909D01*
X00604582Y00933676D01*
X00603590Y00933013D01*
X00532337Y00861760D01*
X00531674Y00860768D01*
X00531441Y00859597D01*
X00531441Y00859597D01*
Y00849617D01*
X00517587Y00835763D01*
X00516924Y00834770D01*
X00516691Y00833600D01*
X00516691Y00833600D01*
Y00797996D01*
X00511035Y00792340D01*
X00509819Y00792709D01*
X00509758Y00793018D01*
X00508819Y00794423D01*
X00507413Y00795363D01*
X00505755Y00795693D01*
X00505748Y00795691D01*
X00490309Y00811131D01*
Y00822782D01*
X00490314Y00822786D01*
X00491253Y00824192D01*
X00491583Y00825850D01*
X00491253Y00827508D01*
X00490314Y00828914D01*
X00488908Y00829853D01*
X00487250Y00830183D01*
X00485592Y00829853D01*
X00484186Y00828914D01*
X00483247Y00827508D01*
X00482917Y00825850D01*
X00483247Y00824192D01*
X00484186Y00822786D01*
X00484191Y00822782D01*
Y00809864D01*
X00484191Y00809864D01*
X00484424Y00808693D01*
X00485087Y00807701D01*
X00501423Y00791366D01*
X00501421Y00791359D01*
X00501751Y00789701D01*
X00502691Y00788295D01*
X00504096Y00787356D01*
X00505194Y00787138D01*
X00505037Y00786350D01*
X00505367Y00784692D01*
X00506306Y00783286D01*
X00507712Y00782347D01*
X00509371Y00782017D01*
X00511029Y00782347D01*
X00512435Y00783286D01*
X00513374Y00784692D01*
X00513704Y00786350D01*
X00513703Y00786356D01*
X00521913Y00794566D01*
X00521913Y00794566D01*
X00522576Y00795559D01*
X00522809Y00796729D01*
Y00832333D01*
X00533768Y00843292D01*
X00534941Y00842806D01*
Y00823891D01*
X00533671Y00823506D01*
X00533064Y00824414D01*
X00531658Y00825353D01*
X00530000Y00825683D01*
X00528342Y00825353D01*
X00526936Y00824414D01*
X00525997Y00823008D01*
X00525667Y00821350D01*
X00525997Y00819692D01*
X00526936Y00818286D01*
X00528342Y00817347D01*
X00530000Y00817017D01*
X00531658Y00817347D01*
X00533064Y00818286D01*
X00533671Y00819194D01*
X00534941Y00818809D01*
Y00813891D01*
X00533671Y00813506D01*
X00533064Y00814414D01*
X00531658Y00815354D01*
X00530000Y00815683D01*
X00528342Y00815354D01*
X00526936Y00814414D01*
X00525997Y00813008D01*
X00525667Y00811350D01*
X00525997Y00809692D01*
X00526936Y00808286D01*
X00528342Y00807347D01*
X00530000Y00807017D01*
X00531658Y00807347D01*
X00533064Y00808286D01*
X00533671Y00809194D01*
X00534941Y00808809D01*
Y00803891D01*
X00533671Y00803506D01*
X00533064Y00804414D01*
X00531658Y00805354D01*
X00530000Y00805683D01*
X00528342Y00805354D01*
X00526936Y00804414D01*
X00525997Y00803008D01*
X00525667Y00801350D01*
X00525997Y00799692D01*
X00526936Y00798286D01*
X00528342Y00797347D01*
X00530000Y00797017D01*
X00531658Y00797347D01*
X00533064Y00798286D01*
X00533671Y00799194D01*
X00534941Y00798809D01*
Y00789812D01*
X00530711Y00785582D01*
X00530199Y00785684D01*
X00528540Y00785354D01*
X00527135Y00784414D01*
X00526195Y00783008D01*
X00525865Y00781350D01*
X00525999Y00780679D01*
X00524973Y00779409D01*
X00512438D01*
X00512435Y00779414D01*
X00511029Y00780353D01*
X00509371Y00780683D01*
X00507712Y00780353D01*
X00506306Y00779414D01*
X00505367Y00778008D01*
X00505037Y00776350D01*
X00505367Y00774692D01*
X00506306Y00773286D01*
X00507712Y00772347D01*
X00509371Y00772017D01*
X00511029Y00772347D01*
X00512435Y00773286D01*
X00512438Y00773291D01*
X00527989D01*
X00528475Y00772118D01*
X00525765Y00769409D01*
X00506318D01*
X00506314Y00769414D01*
X00504908Y00770353D01*
X00503250Y00770683D01*
X00501592Y00770353D01*
X00500186Y00769414D01*
X00499247Y00768008D01*
X00498917Y00766350D01*
X00499247Y00764692D01*
X00500186Y00763286D01*
X00501592Y00762347D01*
X00503105Y00762046D01*
X00502917Y00761100D01*
X00503247Y00759442D01*
X00504186Y00758036D01*
X00505592Y00757097D01*
X00507250Y00756767D01*
X00508908Y00757097D01*
X00510314Y00758036D01*
X00510318Y00758041D01*
X00527998D01*
X00527998Y00758041D01*
X00529168Y00758274D01*
X00530161Y00758937D01*
X00542325Y00771101D01*
X00542750Y00771017D01*
X00544171Y00771299D01*
X00545441Y00770626D01*
Y00768117D01*
X00526733Y00749409D01*
X00512438D01*
X00512435Y00749414D01*
X00511029Y00750353D01*
X00509371Y00750683D01*
X00507712Y00750353D01*
X00506306Y00749414D01*
X00505367Y00748008D01*
X00505037Y00746350D01*
X00505367Y00744692D01*
X00506306Y00743286D01*
X00507712Y00742347D01*
X00509371Y00742017D01*
X00511029Y00742347D01*
X00512435Y00743286D01*
X00512438Y00743291D01*
X00524973D01*
X00525999Y00742021D01*
X00525865Y00741350D01*
X00526195Y00739691D01*
X00527135Y00738286D01*
X00527842Y00737813D01*
X00528068Y00736244D01*
X00526233Y00734409D01*
X00512438D01*
X00512435Y00734414D01*
X00511029Y00735353D01*
X00509890Y00735580D01*
X00510093Y00736600D01*
X00509724Y00738453D01*
X00508675Y00740025D01*
X00507103Y00741074D01*
X00505250Y00741443D01*
X00503397Y00741074D01*
X00501825Y00740025D01*
X00500776Y00738453D01*
X00500407Y00736600D01*
X00500776Y00734747D01*
X00501825Y00733175D01*
X00503397Y00732126D01*
X00505123Y00731782D01*
X00505037Y00731350D01*
X00505367Y00729692D01*
X00506306Y00728286D01*
X00507712Y00727346D01*
X00509371Y00727017D01*
X00511029Y00727346D01*
X00512435Y00728286D01*
X00512438Y00728291D01*
X00524973D01*
X00525999Y00727021D01*
X00525865Y00726350D01*
X00525999Y00725679D01*
X00524973Y00724409D01*
X00512438D01*
X00512435Y00724414D01*
X00511029Y00725353D01*
X00509371Y00725683D01*
X00507712Y00725353D01*
X00506306Y00724414D01*
X00505367Y00723008D01*
X00505037Y00721350D01*
X00505367Y00719692D01*
X00505657Y00719258D01*
X00505941Y00717920D01*
X00505540Y00717321D01*
X00505001Y00716514D01*
X00504672Y00714856D01*
X00504673Y00714849D01*
X00502709Y00712886D01*
X00475228D01*
X00475227Y00712886D01*
X00474057Y00712653D01*
X00473064Y00711990D01*
X00473064Y00711990D01*
X00465506Y00704432D01*
X00465500Y00704433D01*
X00463842Y00704103D01*
X00462436Y00703164D01*
X00461497Y00701758D01*
X00461167Y00700100D01*
X00461497Y00698442D01*
X00462436Y00697036D01*
X00463842Y00696097D01*
X00465500Y00695767D01*
X00467158Y00696097D01*
X00468564Y00697036D01*
X00469503Y00698442D01*
X00469833Y00700100D01*
X00469832Y00700106D01*
X00476494Y00706769D01*
X00503976D01*
X00503976Y00706768D01*
X00504006Y00706774D01*
X00504329Y00706587D01*
X00505241Y00705725D01*
X00505497Y00704442D01*
X00505734Y00704087D01*
X00505759Y00703892D01*
X00505311Y00702433D01*
X00504325Y00701775D01*
X00503276Y00700203D01*
X00502907Y00698350D01*
X00503276Y00696497D01*
X00504325Y00694925D01*
X00505897Y00693876D01*
X00507750Y00693507D01*
X00509603Y00693876D01*
X00511175Y00694925D01*
X00512224Y00696497D01*
X00512593Y00698350D01*
X00512224Y00700203D01*
X00511673Y00701029D01*
X00511266Y00701873D01*
X00511996Y00702657D01*
X00512564Y00703036D01*
X00513503Y00704442D01*
X00513833Y00706100D01*
X00513503Y00707758D01*
X00512564Y00709164D01*
X00511493Y00709880D01*
X00511334Y00710986D01*
X00511406Y00711349D01*
X00512069Y00711792D01*
X00513008Y00713197D01*
X00513338Y00714856D01*
X00513008Y00716514D01*
X00512718Y00716948D01*
X00512693Y00717066D01*
X00513348Y00718291D01*
X00524973D01*
X00525999Y00717021D01*
X00525865Y00716350D01*
X00526195Y00714692D01*
X00527135Y00713286D01*
X00528540Y00712347D01*
X00530199Y00712017D01*
X00531857Y00712347D01*
X00532783Y00712965D01*
X00533359Y00712830D01*
X00533757Y00711432D01*
X00530256Y00707932D01*
X00530250Y00707933D01*
X00528592Y00707603D01*
X00527186Y00706664D01*
X00526247Y00705258D01*
X00525917Y00703600D01*
X00526247Y00701942D01*
X00526960Y00700873D01*
X00527436Y00699664D01*
X00526497Y00698258D01*
X00526167Y00696600D01*
X00526497Y00694941D01*
X00527436Y00693536D01*
X00528842Y00692596D01*
X00529226Y00692520D01*
X00529834Y00691106D01*
X00529499Y00690544D01*
X00528540Y00690354D01*
X00527135Y00689414D01*
X00526195Y00688008D01*
X00525865Y00686350D01*
X00526195Y00684692D01*
X00527135Y00683286D01*
X00528540Y00682347D01*
X00530199Y00682017D01*
X00531857Y00682347D01*
X00533263Y00683286D01*
X00534202Y00684692D01*
X00534532Y00686350D01*
X00534531Y00686356D01*
X00539671Y00691497D01*
X00540941Y00690971D01*
Y00668367D01*
X00540006Y00667432D01*
X00540000Y00667433D01*
X00538342Y00667103D01*
X00536936Y00666164D01*
X00535997Y00664758D01*
X00535667Y00663100D01*
X00535997Y00661442D01*
X00536936Y00660036D01*
X00538342Y00659097D01*
X00540000Y00658767D01*
X00541658Y00659097D01*
X00543064Y00660036D01*
X00543686Y00660967D01*
X00544459Y00660922D01*
X00545069Y00660783D01*
X00545936Y00659484D01*
X00547342Y00658545D01*
X00549000Y00658215D01*
X00550658Y00658545D01*
X00552064Y00659484D01*
X00553004Y00660890D01*
X00553333Y00662548D01*
X00553004Y00664207D01*
X00552064Y00665612D01*
X00552059Y00665616D01*
Y00686583D01*
X00554726Y00689250D01*
X00555513Y00688991D01*
X00555941Y00688669D01*
Y00665615D01*
X00555936Y00665612D01*
X00554997Y00664206D01*
X00554667Y00662548D01*
X00554997Y00660890D01*
X00555936Y00659484D01*
X00557342Y00658544D01*
X00559000Y00658215D01*
X00560658Y00658544D01*
X00562064Y00659484D01*
X00563004Y00660890D01*
X00563333Y00662548D01*
X00563004Y00664206D01*
X00562064Y00665612D01*
X00562059Y00665615D01*
Y00687583D01*
X00564671Y00690195D01*
X00565941Y00689669D01*
Y00665615D01*
X00565936Y00665612D01*
X00564997Y00664206D01*
X00564667Y00662548D01*
X00564997Y00660890D01*
X00565936Y00659484D01*
X00567342Y00658544D01*
X00569000Y00658215D01*
X00570658Y00658544D01*
X00572064Y00659484D01*
X00573004Y00660890D01*
X00573175Y00661751D01*
X00573697Y00661870D01*
X00574986Y00660944D01*
X00574997Y00660890D01*
X00575936Y00659484D01*
X00577342Y00658545D01*
X00579000Y00658215D01*
X00579935Y00658401D01*
X00580281Y00658060D01*
X00580662Y00657251D01*
X00580174Y00656520D01*
X00579941Y00655350D01*
X00579941Y00655350D01*
Y00622350D01*
X00579941Y00622350D01*
X00580174Y00621180D01*
X00580837Y00620187D01*
X00587087Y00613937D01*
X00588079Y00613274D01*
X00589250Y00613041D01*
X00630250D01*
X00630250Y00613041D01*
X00631421Y00613274D01*
X00632413Y00613937D01*
X00639913Y00621437D01*
X00639913Y00621437D01*
X00640576Y00622430D01*
X00640809Y00623600D01*
Y00626782D01*
X00640814Y00626786D01*
X00641753Y00628192D01*
X00642083Y00629850D01*
X00641886Y00630843D01*
X00643056Y00631468D01*
X00651087Y00623437D01*
X00651087Y00623437D01*
X00651750Y00622994D01*
Y00619100D01*
X00660750D01*
Y00621448D01*
X00661738Y00622325D01*
X00662750Y00622136D01*
Y00613100D01*
X00674250D01*
Y00618100D01*
Y00623100D01*
X00672102D01*
X00671339Y00624370D01*
X00671583Y00625600D01*
X00671400Y00626521D01*
X00672308Y00627791D01*
X00679733D01*
X00681918Y00625606D01*
X00681917Y00625600D01*
X00682161Y00624370D01*
X00681750Y00623100D01*
X00681750D01*
Y00613100D01*
X00690750D01*
Y00623100D01*
X00690750D01*
X00690339Y00624370D01*
X00690583Y00625600D01*
X00690254Y00627258D01*
X00689314Y00628664D01*
X00687908Y00629603D01*
X00686486Y00629886D01*
X00686063Y00630521D01*
X00686692Y00631791D01*
X00694733D01*
X00700918Y00625606D01*
X00700917Y00625600D01*
X00701247Y00623942D01*
X00702186Y00622536D01*
X00703592Y00621597D01*
X00705250Y00621267D01*
X00706909Y00621597D01*
X00708314Y00622536D01*
X00709254Y00623942D01*
X00709584Y00625600D01*
X00709254Y00627258D01*
X00708314Y00628664D01*
X00706909Y00629603D01*
X00705250Y00629933D01*
X00705244Y00629932D01*
X00701058Y00634118D01*
X00701544Y00635291D01*
X00706233D01*
X00718087Y00623437D01*
X00718087Y00623437D01*
X00719080Y00622774D01*
X00720250Y00622541D01*
X00720250Y00622541D01*
X00721433D01*
X00721436Y00622536D01*
X00722842Y00621597D01*
X00724500Y00621267D01*
X00726159Y00621597D01*
X00727564Y00622536D01*
X00728504Y00623942D01*
X00728834Y00625600D01*
X00728504Y00627258D01*
X00727564Y00628664D01*
X00726159Y00629603D01*
X00724500Y00629933D01*
X00722842Y00629603D01*
X00721481Y00628694D01*
X00709663Y00640513D01*
X00708671Y00641176D01*
X00707500Y00641409D01*
X00707500Y00641409D01*
X00662267D01*
X00658600Y00645076D01*
Y00656430D01*
X00659766Y00656680D01*
X00666850D01*
Y00657169D01*
X00667349Y00657268D01*
X00668342Y00657931D01*
X00668983Y00658573D01*
X00669959Y00658947D01*
X00670751Y00658670D01*
X00671604Y00658100D01*
X00673263Y00657770D01*
X00673269Y00657771D01*
X00684103Y00646937D01*
X00684103Y00646937D01*
X00685095Y00646274D01*
X00686266Y00646041D01*
X00686266Y00646041D01*
X00719980D01*
X00720516Y00644771D01*
X00719839Y00643758D01*
X00719510Y00642100D01*
X00719839Y00640442D01*
X00720779Y00639036D01*
X00721099Y00638822D01*
Y00638820D01*
X00720160Y00637415D01*
X00719830Y00635756D01*
X00720160Y00634098D01*
X00721099Y00632692D01*
X00722505Y00631753D01*
X00724163Y00631423D01*
X00724983Y00631586D01*
X00725075Y00631524D01*
X00726246Y00631291D01*
X00726246Y00631291D01*
X00736609D01*
X00737400Y00630021D01*
X00737167Y00628850D01*
X00737497Y00627192D01*
X00738436Y00625786D01*
X00739842Y00624847D01*
X00741500Y00624517D01*
X00742983Y00624812D01*
X00743575Y00623925D01*
X00745147Y00622876D01*
X00747000Y00622507D01*
X00748853Y00622876D01*
X00750425Y00623925D01*
X00751474Y00625497D01*
X00751843Y00627350D01*
X00751474Y00629203D01*
X00750928Y00630021D01*
X00751607Y00631291D01*
X00818979D01*
X00819364Y00630021D01*
X00819206Y00629915D01*
X00818267Y00628510D01*
X00817937Y00626851D01*
X00818267Y00625193D01*
X00819206Y00623787D01*
X00820612Y00622848D01*
X00822270Y00622518D01*
X00823928Y00622848D01*
X00825334Y00623787D01*
X00826273Y00625193D01*
X00826441Y00626036D01*
X00841772D01*
X00842449Y00624766D01*
X00842167Y00623350D01*
X00842497Y00621692D01*
X00843436Y00620286D01*
X00844842Y00619347D01*
X00846500Y00619017D01*
X00848158Y00619347D01*
X00849564Y00620286D01*
X00850503Y00621692D01*
X00850833Y00623350D01*
X00850552Y00624766D01*
X00851228Y00626036D01*
X00934451D01*
X00934937Y00624863D01*
X00927542Y00617468D01*
X00926053Y00617775D01*
X00924826Y00619375D01*
X00922841Y00620898D01*
X00920530Y00621855D01*
X00918050Y00622182D01*
X00915570Y00621855D01*
X00913259Y00620898D01*
X00911275Y00619375D01*
X00909752Y00617391D01*
X00908795Y00615080D01*
X00908468Y00612600D01*
X00908795Y00610120D01*
X00909752Y00607809D01*
X00911275Y00605825D01*
X00913259Y00604302D01*
X00914160Y00603929D01*
X00913907Y00602659D01*
X00896793D01*
X00896540Y00603929D01*
X00897441Y00604302D01*
X00899426Y00605825D01*
X00900948Y00607809D01*
X00901906Y00610120D01*
X00902232Y00612600D01*
X00901906Y00615080D01*
X00900948Y00617391D01*
X00899426Y00619375D01*
X00897441Y00620898D01*
X00895130Y00621855D01*
X00892650Y00622182D01*
X00890170Y00621855D01*
X00887859Y00620898D01*
X00885875Y00619375D01*
X00884352Y00617391D01*
X00883395Y00615080D01*
X00883068Y00612600D01*
X00883395Y00610120D01*
X00884352Y00607809D01*
X00885875Y00605825D01*
X00887859Y00604302D01*
X00888760Y00603929D01*
X00888507Y00602659D01*
X00573308D01*
Y00624664D01*
X00573293Y00624743D01*
X00573304Y00624824D01*
X00573256Y00625740D01*
X00573202Y00625955D01*
Y00626177D01*
X00572819Y00628100D01*
X00572704Y00628378D01*
X00572645Y00628673D01*
X00571895Y00630485D01*
X00571728Y00630735D01*
X00571612Y00631013D01*
X00570523Y00632643D01*
X00570310Y00632856D01*
X00570143Y00633107D01*
X00568757Y00634493D01*
X00568506Y00634660D01*
X00568293Y00634873D01*
X00566663Y00635962D01*
X00566385Y00636078D01*
X00566134Y00636245D01*
X00564323Y00636995D01*
X00564028Y00637054D01*
X00563750Y00637169D01*
X00561827Y00637552D01*
X00561600D01*
X00561380Y00637607D01*
X00560400Y00637655D01*
X00560325Y00637644D01*
X00560250Y00637659D01*
X00415809Y00637659D01*
Y01006541D01*
X00509077D01*
X00509462Y01005271D01*
X00508825Y01004846D01*
X00507776Y01003275D01*
X00507407Y01001421D01*
X00507776Y00999568D01*
X00508825Y00997997D01*
X00510397Y00996947D01*
X00512250Y00996578D01*
X00514103Y00996947D01*
X00515675Y00997997D01*
X00516724Y00999568D01*
X00517093Y01001421D01*
X00516724Y01003275D01*
X00515675Y01004846D01*
X00515038Y01005271D01*
X00515423Y01006541D01*
X00527750D01*
X00527825Y01006556D01*
X00527900Y01006545D01*
X00528880Y01006593D01*
X00529100Y01006648D01*
X00529327D01*
X00531250Y01007031D01*
X00531528Y01007146D01*
X00531823Y01007205D01*
X00533634Y01007955D01*
X00533885Y01008122D01*
X00534163Y01008238D01*
X00535793Y01009327D01*
X00536006Y01009540D01*
X00536257Y01009707D01*
X00537643Y01011093D01*
X00537810Y01011344D01*
X00538023Y01011557D01*
X00539112Y01013187D01*
X00539228Y01013465D01*
X00539395Y01013716D01*
X00540145Y01015527D01*
X00540204Y01015822D01*
X00540319Y01016100D01*
X00540702Y01018023D01*
Y01018250D01*
X00540757Y01018470D01*
X00540805Y01019450D01*
X00540794Y01019525D01*
X00540809Y01019600D01*
X00540809Y01026541D01*
X00814691D01*
Y01019600D01*
D02*
G37*
G36*
X00794193Y00879521D02*
X00794118Y00879409D01*
X00773500D01*
X00773500Y00879409D01*
X00772330Y00879176D01*
X00771337Y00878513D01*
X00758468Y00865644D01*
X00757298Y00866270D01*
X00757317Y00866366D01*
X00756987Y00868025D01*
X00756048Y00869430D01*
X00754642Y00870370D01*
X00752984Y00870699D01*
X00751326Y00870370D01*
X00749920Y00869430D01*
X00748980Y00868025D01*
X00748957Y00867909D01*
X00735630D01*
X00735630Y00867909D01*
X00733263D01*
X00733263Y00867909D01*
X00732093Y00867676D01*
X00731100Y00867013D01*
X00728476Y00864388D01*
X00728250Y00864433D01*
X00726592Y00864103D01*
X00725186Y00863164D01*
X00724247Y00861758D01*
X00723917Y00860100D01*
X00724247Y00858442D01*
X00725186Y00857036D01*
X00726592Y00856097D01*
X00728250Y00855767D01*
X00729908Y00856097D01*
X00731314Y00857036D01*
X00732253Y00858442D01*
X00732313Y00858740D01*
X00732831Y00859048D01*
X00734247Y00858442D01*
X00735186Y00857036D01*
X00736592Y00856097D01*
X00738250Y00855767D01*
X00739908Y00856097D01*
X00741314Y00857036D01*
X00742253Y00858442D01*
X00742583Y00860100D01*
X00742499Y00860521D01*
X00743542Y00861791D01*
X00750791D01*
X00750791Y00861791D01*
X00751962Y00862024D01*
X00752843Y00861794D01*
X00753327Y00860503D01*
X00727761Y00834937D01*
X00726383Y00835355D01*
X00726253Y00836008D01*
X00725314Y00837414D01*
X00723908Y00838353D01*
X00722583Y00838617D01*
X00721768Y00839161D01*
X00720500Y00839414D01*
X00680500D01*
X00679232Y00839161D01*
X00678157Y00838443D01*
X00657657Y00817943D01*
X00656939Y00816868D01*
X00656686Y00815600D01*
Y00796643D01*
X00656428Y00796382D01*
X00654913Y00796263D01*
X00653921Y00796926D01*
X00653750Y00796960D01*
Y00804600D01*
X00645250D01*
Y00791100D01*
X00645000Y00790600D01*
X00645000D01*
Y00780600D01*
X00654000D01*
Y00786215D01*
X00654982Y00787020D01*
X00655000Y00787017D01*
X00655416Y00787100D01*
X00656686Y00786057D01*
Y00778223D01*
X00645907Y00767443D01*
X00645189Y00766368D01*
X00644936Y00765100D01*
Y00729850D01*
X00645189Y00728582D01*
X00645907Y00727507D01*
X00648641Y00724773D01*
X00648154Y00723600D01*
X00645250D01*
Y00720164D01*
X00641314D01*
Y00722851D01*
X00641424Y00722925D01*
X00642474Y00724497D01*
X00642843Y00726350D01*
X00642474Y00728203D01*
X00641424Y00729774D01*
X00639853Y00730824D01*
X00638000Y00731193D01*
X00636147Y00730824D01*
X00634575Y00729774D01*
X00633526Y00728203D01*
X00633157Y00726350D01*
X00633526Y00724497D01*
X00634575Y00722925D01*
X00634686Y00722851D01*
Y00720164D01*
X00628250D01*
Y00723600D01*
X00628250D01*
X00627621Y00724870D01*
X00628003Y00725442D01*
X00628333Y00727100D01*
X00628003Y00728758D01*
X00627064Y00730164D01*
X00625658Y00731103D01*
X00624000Y00731433D01*
X00622342Y00731103D01*
X00620936Y00730164D01*
X00619997Y00728758D01*
X00619789Y00727715D01*
X00605232Y00713158D01*
X00604059Y00713644D01*
Y00732145D01*
X00605232Y00732631D01*
X00606829Y00731034D01*
X00606997Y00730192D01*
X00607936Y00728786D01*
X00609342Y00727847D01*
X00611000Y00727517D01*
X00612658Y00727847D01*
X00614064Y00728786D01*
X00615003Y00730192D01*
X00615333Y00731850D01*
X00615003Y00733508D01*
X00614064Y00734914D01*
X00612658Y00735853D01*
X00611000Y00736183D01*
X00610442Y00736072D01*
X00607559Y00738956D01*
Y00780056D01*
X00608500Y00780850D01*
X00612000D01*
Y00785850D01*
X00613000D01*
Y00786850D01*
X00617500D01*
Y00788870D01*
X00618391Y00789304D01*
X00619500Y00788542D01*
Y00780850D01*
X00628500D01*
Y00790850D01*
X00628500D01*
X00628250Y00791100D01*
Y00804600D01*
X00621309D01*
Y00812600D01*
X00628250D01*
Y00815843D01*
X00630071D01*
X00633686Y00812227D01*
Y00797099D01*
X00633575Y00797025D01*
X00632526Y00795453D01*
X00632157Y00793600D01*
X00632526Y00791747D01*
X00633575Y00790175D01*
X00634000Y00789892D01*
Y00786600D01*
X00638500D01*
Y00785600D01*
D01*
Y00786600D01*
X00643000D01*
Y00790600D01*
X00642055D01*
X00641560Y00791527D01*
X00641499Y00791870D01*
X00641843Y00793600D01*
X00641474Y00795453D01*
X00640425Y00797025D01*
X00640314Y00797099D01*
Y00812227D01*
X00643980Y00815894D01*
X00645250Y00815692D01*
Y00812600D01*
X00653750D01*
Y00826100D01*
X00645250D01*
Y00822664D01*
X00642750D01*
X00642365Y00822587D01*
X00642104Y00822699D01*
X00641082Y00823555D01*
X00640843Y00824758D01*
X00641800Y00825612D01*
X00641913Y00825687D01*
X00697017Y00880791D01*
X00793514D01*
X00794193Y00879521D01*
D02*
G37*
G36*
X00868770Y00828510D02*
X00869780Y00827884D01*
X00870000Y00827632D01*
Y00820450D01*
Y00808450D01*
Y00800450D01*
X00875300D01*
Y00798751D01*
X00870000D01*
Y00798404D01*
X00869999Y00798404D01*
X00869575D01*
X00868502Y00798190D01*
X00868189Y00797982D01*
X00867785Y00798054D01*
X00866896Y00798465D01*
X00866619Y00799861D01*
X00865679Y00801267D01*
X00865289Y00801528D01*
X00865363Y00802349D01*
X00865505Y00802911D01*
X00866814Y00803786D01*
X00867753Y00805192D01*
X00868083Y00806850D01*
X00867753Y00808508D01*
X00866814Y00809914D01*
X00865408Y00810853D01*
X00863750Y00811183D01*
X00862092Y00810853D01*
X00860903Y00810059D01*
X00859777Y00809914D01*
X00859473D01*
X00859260Y00810233D01*
X00858466Y00810763D01*
X00859253Y00811942D01*
X00859583Y00813600D01*
X00859253Y00815258D01*
X00859138Y00815432D01*
X00859120Y00815520D01*
X00858457Y00816513D01*
X00858381Y00816563D01*
X00858314Y00816664D01*
X00856908Y00817603D01*
X00855250Y00817933D01*
X00854770Y00817838D01*
X00853500Y00818880D01*
Y00820541D01*
X00858500D01*
X00858500Y00820541D01*
X00859671Y00820774D01*
X00860663Y00821437D01*
X00867494Y00828268D01*
X00867500Y00828267D01*
X00868730Y00828511D01*
X00868770Y00828510D01*
D02*
G37*
G36*
X00705589Y00831516D02*
X00705407Y00830600D01*
X00705776Y00828747D01*
X00706617Y00827487D01*
X00706725Y00827106D01*
X00706599Y00826512D01*
X00706401Y00825931D01*
X00705962Y00825638D01*
X00705962Y00825638D01*
X00698837Y00818513D01*
X00698174Y00817521D01*
X00697941Y00816350D01*
X00697941Y00816350D01*
Y00807013D01*
X00697301Y00806673D01*
X00696671Y00806509D01*
X00695408Y00807353D01*
X00693750Y00807683D01*
X00692092Y00807353D01*
X00690686Y00806414D01*
X00690250Y00805762D01*
X00688980Y00806147D01*
Y00812740D01*
X00674980D01*
X00674750Y00813100D01*
Y00813100D01*
X00664750D01*
Y00804100D01*
X00674162D01*
X00674742Y00803100D01*
X00674162Y00802100D01*
X00664750D01*
Y00794370D01*
X00664750Y00793100D01*
X00664750D01*
Y00793100D01*
X00664750D01*
Y00784100D01*
X00670679D01*
X00671153Y00782991D01*
X00670418Y00782100D01*
X00664750D01*
Y00773100D01*
X00663687Y00772600D01*
X00662096D01*
X00661609Y00773773D01*
X00662343Y00774507D01*
X00663061Y00775582D01*
X00663314Y00776850D01*
Y00814228D01*
X00681873Y00832786D01*
X00704587D01*
X00705589Y00831516D01*
D02*
G37*
G36*
X00738267Y00787030D02*
X00738183Y00786609D01*
X00738513Y00784951D01*
X00739452Y00783545D01*
X00740004Y00783176D01*
X00740170Y00781546D01*
X00733033Y00774409D01*
X00725274D01*
X00724595Y00775679D01*
X00724974Y00776247D01*
X00725343Y00778100D01*
X00724974Y00779953D01*
X00723925Y00781525D01*
X00722353Y00782574D01*
X00720500Y00782943D01*
X00718647Y00782574D01*
X00717076Y00781525D01*
X00717001Y00781414D01*
X00714214D01*
X00712946Y00781161D01*
X00711871Y00780443D01*
X00710407Y00778979D01*
X00709689Y00777904D01*
X00709628Y00777600D01*
X00708250D01*
Y00767600D01*
Y00759100D01*
X00706250D01*
Y00762600D01*
X00702750D01*
Y00758600D01*
X00705750D01*
Y00754812D01*
X00705083Y00754680D01*
X00704091Y00754017D01*
X00695506Y00745432D01*
X00695500Y00745433D01*
X00693842Y00745103D01*
X00692436Y00744164D01*
X00691497Y00742758D01*
X00691167Y00741100D01*
X00691497Y00739442D01*
X00692436Y00738036D01*
X00693842Y00737097D01*
X00695500Y00736767D01*
X00697158Y00737097D01*
X00698564Y00738036D01*
X00699503Y00739442D01*
X00699833Y00741100D01*
X00699832Y00741106D01*
X00707326Y00748600D01*
X00717783D01*
X00718663Y00747330D01*
X00718468Y00746350D01*
X00718763Y00744870D01*
X00718423Y00743990D01*
X00718215Y00743600D01*
X00705750D01*
Y00733100D01*
X00705750D01*
X00706094Y00732270D01*
X00705065Y00731241D01*
X00704402Y00730249D01*
X00704263Y00729550D01*
X00703686Y00729164D01*
X00702747Y00727758D01*
X00702417Y00726100D01*
X00702641Y00724972D01*
X00702387Y00724603D01*
X00701645Y00723983D01*
X00701642Y00723981D01*
X00700750Y00724159D01*
X00700750Y00724159D01*
X00699500D01*
Y00728100D01*
X00689000D01*
Y00721972D01*
X00687730Y00721446D01*
X00685913Y00723263D01*
X00684921Y00723926D01*
X00684000Y00724109D01*
Y00728100D01*
X00673500D01*
Y00714100D01*
Y00709646D01*
X00672230Y00709521D01*
X00672061Y00710368D01*
X00671343Y00711443D01*
X00654859Y00727927D01*
X00655346Y00729100D01*
X00662750D01*
Y00741100D01*
X00661870D01*
X00660898Y00742370D01*
X00661093Y00743350D01*
X00660724Y00745203D01*
X00659675Y00746775D01*
X00659592Y00746830D01*
X00659977Y00748100D01*
X00662750D01*
Y00755774D01*
X00664741Y00757765D01*
X00665936Y00757786D01*
X00667342Y00756847D01*
X00668178Y00756680D01*
X00669407Y00756350D01*
X00669776Y00754497D01*
X00670826Y00752925D01*
X00672397Y00751876D01*
X00672425Y00751870D01*
X00672300Y00750600D01*
X00669750D01*
Y00738600D01*
X00682750D01*
Y00739581D01*
X00684020Y00740462D01*
X00685000Y00740267D01*
X00686658Y00740597D01*
X00688064Y00741536D01*
X00689003Y00742942D01*
X00689333Y00744600D01*
X00689332Y00744606D01*
X00696413Y00751687D01*
X00697076Y00752679D01*
X00697309Y00753850D01*
X00697309Y00753850D01*
Y00758600D01*
X00700750D01*
Y00763600D01*
X00701750D01*
Y00764600D01*
X00706250D01*
Y00767600D01*
Y00771600D01*
X00701750D01*
Y00773600D01*
X00706250D01*
Y00777600D01*
X00706250D01*
X00705964Y00778135D01*
X00706503Y00778942D01*
X00706833Y00780600D01*
X00706796Y00780788D01*
X00707643Y00781635D01*
X00708306Y00782627D01*
X00708527Y00783740D01*
X00716480D01*
Y00786055D01*
X00717392Y00786419D01*
X00717750Y00786493D01*
X00719092Y00785597D01*
X00720750Y00785267D01*
X00722408Y00785597D01*
X00723814Y00786536D01*
X00724753Y00787942D01*
X00724825Y00788300D01*
X00737224D01*
X00738267Y00787030D01*
D02*
G37*
G36*
X00891114Y00791791D02*
X00891114Y00791791D01*
X00900500D01*
Y00784350D01*
X00906441D01*
Y00777850D01*
X00905000D01*
Y00772177D01*
X00901407Y00768585D01*
X00900744Y00767592D01*
X00900511Y00766422D01*
X00900511Y00766422D01*
Y00720850D01*
X00898250D01*
Y00716350D01*
Y00711850D01*
X00900511D01*
Y00709850D01*
X00892326D01*
X00888413Y00713763D01*
X00888176Y00714952D01*
X00888504Y00715442D01*
X00888833Y00717100D01*
X00888504Y00718758D01*
X00887564Y00720164D01*
X00886159Y00721103D01*
X00884500Y00721433D01*
X00884161Y00721366D01*
X00883763Y00721763D01*
X00882771Y00722426D01*
X00881600Y00722659D01*
X00880600Y00723402D01*
Y00728870D01*
X00881870Y00729552D01*
X00883273Y00729273D01*
X00884931Y00729603D01*
X00886337Y00730543D01*
X00887276Y00731948D01*
X00887606Y00733606D01*
X00887276Y00735265D01*
X00886337Y00736671D01*
X00884967Y00737586D01*
X00884940Y00737753D01*
X00885010Y00738889D01*
X00886158Y00739118D01*
X00887564Y00740057D01*
X00888503Y00741463D01*
X00888833Y00743121D01*
X00888503Y00744779D01*
X00887564Y00746185D01*
X00886158Y00747124D01*
X00884500Y00747454D01*
X00882842Y00747124D01*
X00882609Y00746969D01*
X00881145Y00747275D01*
X00881111Y00747344D01*
X00881753Y00748671D01*
X00882274Y00748774D01*
X00883137Y00749351D01*
X00883523Y00749274D01*
X00885181Y00749604D01*
X00886587Y00750544D01*
X00887526Y00751949D01*
X00887856Y00753607D01*
X00887526Y00755266D01*
X00887194Y00755764D01*
X00887425Y00756926D01*
X00888474Y00758497D01*
X00888843Y00760350D01*
X00888635Y00761396D01*
X00889681Y00761605D01*
X00891087Y00762544D01*
X00892027Y00763950D01*
X00892356Y00765608D01*
X00892027Y00767266D01*
X00891087Y00768672D01*
X00889681Y00769612D01*
X00888023Y00769941D01*
X00887305Y00769798D01*
X00886718Y00770191D01*
X00885645Y00770404D01*
X00885503D01*
X00885118Y00771674D01*
X00885135Y00771686D01*
X00886075Y00773092D01*
X00886405Y00774750D01*
X00886075Y00776408D01*
X00885135Y00777814D01*
X00883730Y00778753D01*
X00882072Y00779083D01*
X00881098Y00780074D01*
X00881329Y00780796D01*
X00884543D01*
X00884842Y00780597D01*
X00886500Y00780267D01*
X00888158Y00780597D01*
X00889564Y00781536D01*
X00890503Y00782942D01*
X00890833Y00784600D01*
X00890503Y00786258D01*
X00889564Y00787664D01*
X00888158Y00788603D01*
X00887618Y00788711D01*
X00887350Y00790059D01*
X00888064Y00790536D01*
X00889003Y00791942D01*
X00890301Y00791953D01*
X00891114Y00791791D01*
D02*
G37*
G36*
X00702480Y00796345D02*
Y00787036D01*
X00702421Y00786740D01*
X00702421Y00786740D01*
Y00785569D01*
X00702421Y00785568D01*
X00701559Y00784746D01*
X00700842Y00784603D01*
X00699436Y00783664D01*
X00699436Y00783664D01*
X00696500D01*
X00695232Y00783411D01*
X00694157Y00782693D01*
X00692157Y00780693D01*
X00691439Y00779618D01*
X00691186Y00778350D01*
Y00777600D01*
X00689500D01*
Y00767600D01*
Y00758600D01*
X00691191D01*
Y00755117D01*
X00685006Y00748932D01*
X00685000Y00748933D01*
X00684020Y00748738D01*
X00682750Y00749619D01*
Y00750600D01*
X00676200D01*
X00676075Y00751870D01*
X00676103Y00751876D01*
X00677675Y00752925D01*
X00678724Y00754497D01*
X00679093Y00756350D01*
X00678898Y00757330D01*
X00679871Y00758600D01*
X00687500D01*
Y00767600D01*
Y00777600D01*
X00687030D01*
X00685988Y00778870D01*
X00686083Y00779350D01*
X00685753Y00781008D01*
X00684814Y00782414D01*
X00684730Y00782470D01*
X00685116Y00783740D01*
X00688980D01*
Y00785634D01*
X00689979Y00785833D01*
X00690971Y00786496D01*
X00701307Y00796831D01*
X00702480Y00796345D01*
D02*
G37*
G36*
X00769250Y00747365D02*
Y00746350D01*
X00770015D01*
X00770501Y00745177D01*
X00745983Y00720659D01*
X00732819D01*
X00727134Y00726344D01*
X00727135Y00726350D01*
X00726805Y00728008D01*
X00725866Y00729414D01*
X00724460Y00730353D01*
X00722802Y00730683D01*
X00721143Y00730353D01*
X00719738Y00729414D01*
X00718798Y00728008D01*
X00718468Y00726350D01*
X00718798Y00724692D01*
X00719738Y00723286D01*
X00721143Y00722347D01*
X00722802Y00722017D01*
X00722808Y00722018D01*
X00729389Y00715437D01*
X00729389Y00715437D01*
X00730381Y00714774D01*
X00731552Y00714541D01*
X00739123D01*
X00739802Y00713271D01*
X00739626Y00713008D01*
X00739296Y00711350D01*
X00739428Y00710684D01*
X00738400Y00709414D01*
X00726083D01*
X00726079Y00709419D01*
X00724673Y00710359D01*
X00723690Y00710554D01*
X00723848Y00711350D01*
X00723518Y00713008D01*
X00722579Y00714414D01*
X00721173Y00715353D01*
X00719515Y00715683D01*
X00717857Y00715353D01*
X00717075Y00714831D01*
X00716699Y00714912D01*
X00715758Y00715479D01*
X00715503Y00716758D01*
X00715402Y00716910D01*
X00715650Y00718155D01*
X00715689Y00718181D01*
X00716739Y00719753D01*
X00717108Y00721606D01*
X00716739Y00723459D01*
X00715689Y00725031D01*
X00714118Y00726080D01*
X00712265Y00726449D01*
X00711061Y00726210D01*
X00710753Y00727758D01*
X00710545Y00728070D01*
X00713585Y00731109D01*
X00714248Y00732101D01*
X00714446Y00733100D01*
X00719750D01*
X00719750Y00733100D01*
Y00733100D01*
X00720804Y00732574D01*
X00721143Y00732347D01*
X00722802Y00732017D01*
X00724460Y00732347D01*
X00725866Y00733286D01*
X00725869Y00733291D01*
X00738404D01*
X00739429Y00732021D01*
X00739296Y00731350D01*
X00739626Y00729692D01*
X00740565Y00728286D01*
X00741971Y00727346D01*
X00743629Y00727017D01*
X00745287Y00727346D01*
X00746693Y00728286D01*
X00747633Y00729692D01*
X00747752Y00730291D01*
X00749250D01*
X00749250Y00730291D01*
X00750421Y00730524D01*
X00751413Y00731187D01*
X00768077Y00747851D01*
X00769250Y00747365D01*
D02*
G37*
G36*
X00661391Y00712023D02*
X00660904Y00710850D01*
X00657250D01*
Y00707350D01*
X00662250D01*
Y00706350D01*
X00663250D01*
Y00701850D01*
X00665686D01*
Y00699850D01*
X00657250D01*
Y00698664D01*
X00653750D01*
Y00702100D01*
X00653750Y00702100D01*
X00653711Y00703370D01*
X00653900Y00704317D01*
X00653570Y00705976D01*
X00652630Y00707382D01*
X00651225Y00708321D01*
X00649566Y00708651D01*
X00647908Y00708321D01*
X00646502Y00707382D01*
X00645563Y00705976D01*
X00645233Y00704317D01*
X00645422Y00703370D01*
X00645250Y00702100D01*
X00645250D01*
X00645250Y00702100D01*
Y00689435D01*
X00643603Y00689108D01*
X00642853Y00688607D01*
X00642314Y00689414D01*
X00641945Y00689661D01*
X00641750Y00690850D01*
X00641750Y00690850D01*
Y00699850D01*
X00631750D01*
Y00698664D01*
X00628250D01*
Y00702100D01*
X00619750D01*
Y00701501D01*
X00618503Y00701258D01*
X00617564Y00702664D01*
X00616158Y00703603D01*
X00614500Y00703933D01*
X00612842Y00703603D01*
X00611436Y00702664D01*
X00610497Y00701258D01*
X00610167Y00699600D01*
X00610497Y00697942D01*
X00611436Y00696536D01*
X00612842Y00695597D01*
X00613810Y00695404D01*
X00614017Y00694957D01*
X00613288Y00693517D01*
X00612936Y00693447D01*
X00611530Y00692508D01*
X00610591Y00691102D01*
X00610261Y00689444D01*
X00609084Y00688847D01*
X00608186Y00688668D01*
X00606780Y00687729D01*
X00605840Y00686323D01*
X00605511Y00684665D01*
X00605840Y00683007D01*
X00606780Y00681601D01*
X00608186Y00680662D01*
X00609844Y00680332D01*
X00610414Y00680445D01*
X00610923Y00679937D01*
X00611675Y00679434D01*
X00611852Y00678482D01*
X00611814Y00677999D01*
X00611686Y00677914D01*
X00610747Y00676508D01*
X00610417Y00674850D01*
X00610747Y00673192D01*
X00611686Y00671786D01*
X00613092Y00670847D01*
X00614750Y00670517D01*
X00615830Y00670732D01*
X00617100Y00669898D01*
Y00668430D01*
X00616350Y00668269D01*
Y00664930D01*
X00615350D01*
Y00663930D01*
X00608850D01*
Y00662949D01*
X00603250D01*
Y00671850D01*
X00593559D01*
Y00673850D01*
X00597250D01*
Y00678350D01*
X00598250D01*
Y00679350D01*
X00603250D01*
Y00682850D01*
X00599700D01*
X00599214Y00684023D01*
X00607663Y00692473D01*
X00607663Y00692473D01*
X00608326Y00693465D01*
X00608559Y00694635D01*
X00608559Y00694636D01*
Y00707833D01*
X00618577Y00717851D01*
X00619750Y00717365D01*
Y00710100D01*
X00628250D01*
Y00713536D01*
X00645250D01*
Y00710100D01*
X00653750D01*
Y00718005D01*
X00654923Y00718491D01*
X00661391Y00712023D01*
D02*
G37*
G36*
X00780672Y00706521D02*
X00780497Y00706258D01*
X00780167Y00704600D01*
X00780497Y00702942D01*
X00781436Y00701536D01*
X00782842Y00700597D01*
X00784500Y00700267D01*
X00786158Y00700597D01*
X00787564Y00701536D01*
X00788275Y00702600D01*
X00798750D01*
X00798911Y00701850D01*
X00802250D01*
Y00700850D01*
X00803250D01*
Y00694289D01*
X00804191Y00694100D01*
X00804424Y00692929D01*
X00804711Y00692500D01*
X00805000Y00691350D01*
X00805000Y00691350D01*
X00805000D01*
X00805000Y00691350D01*
Y00689909D01*
X00800250D01*
Y00691350D01*
X00790250D01*
Y00682350D01*
X00797291D01*
X00797907Y00681600D01*
X00797960Y00681332D01*
X00797155Y00680350D01*
X00796250D01*
Y00675850D01*
X00794250D01*
Y00680350D01*
X00790250D01*
Y00675769D01*
X00789847Y00675437D01*
X00789233Y00675110D01*
X00787951Y00675571D01*
X00787750Y00676367D01*
Y00681850D01*
Y00695850D01*
X00777250D01*
Y00681850D01*
Y00672637D01*
X00775980Y00671595D01*
X00775518Y00671686D01*
X00773859Y00671357D01*
X00773520Y00671130D01*
X00772250Y00671809D01*
Y00675100D01*
X00767000D01*
Y00677100D01*
X00772250D01*
Y00681850D01*
Y00695850D01*
X00767235D01*
X00766749Y00697023D01*
X00777517Y00707791D01*
X00779994D01*
X00780672Y00706521D01*
D02*
G37*
G36*
X00831202Y00712678D02*
X00831462Y00712461D01*
Y00690210D01*
X00831462Y00690209D01*
X00831479Y00690125D01*
X00831279Y00689807D01*
X00830891Y00689734D01*
X00829750Y00690656D01*
Y00691350D01*
X00827809D01*
Y00692782D01*
X00827814Y00692786D01*
X00828753Y00694192D01*
X00829083Y00695850D01*
X00828753Y00697508D01*
X00827814Y00698914D01*
X00826408Y00699853D01*
X00824750Y00700183D01*
X00823092Y00699853D01*
X00821686Y00698914D01*
X00820747Y00697508D01*
X00820417Y00695850D01*
X00820747Y00694192D01*
X00821686Y00692786D01*
X00821691Y00692782D01*
Y00691350D01*
X00819750D01*
Y00682350D01*
X00827981D01*
X00828538Y00681620D01*
X00828033Y00680350D01*
X00819750D01*
Y00671350D01*
X00820447D01*
X00821691Y00671100D01*
X00821924Y00669930D01*
X00822587Y00668937D01*
X00825322Y00666202D01*
X00826314Y00665539D01*
X00827485Y00665306D01*
X00827485Y00665306D01*
X00838321D01*
X00839363Y00664036D01*
X00839280Y00663615D01*
X00839367Y00663179D01*
X00838324Y00661909D01*
X00809916D01*
X00809219Y00663179D01*
X00809492Y00664550D01*
X00809162Y00666209D01*
X00808223Y00667614D01*
X00807181Y00668310D01*
X00807773Y00669195D01*
X00808102Y00670853D01*
X00808510Y00671350D01*
X00815000D01*
Y00680350D01*
X00808345D01*
X00807540Y00681332D01*
X00807593Y00681600D01*
X00808209Y00682350D01*
X00815000D01*
Y00691350D01*
X00813059D01*
X00813059Y00691350D01*
X00812826Y00692521D01*
X00812163Y00693513D01*
X00812163Y00693513D01*
X00810500Y00695176D01*
Y00697291D01*
X00816078D01*
X00816078Y00697291D01*
X00817249Y00697524D01*
X00818241Y00698187D01*
X00819413Y00699359D01*
X00819413Y00699359D01*
X00820076Y00700351D01*
X00820309Y00701522D01*
X00820901Y00702600D01*
X00823750D01*
Y00706862D01*
X00824090Y00708046D01*
X00825163Y00708260D01*
X00826073Y00708867D01*
X00830264Y00713058D01*
X00831202Y00712678D01*
D02*
G37*
G36*
X00719738Y00683286D02*
X00721143Y00682347D01*
X00722802Y00682017D01*
X00724460Y00682347D01*
X00725866Y00683286D01*
X00725869Y00683291D01*
X00738404D01*
X00739429Y00682021D01*
X00739296Y00681350D01*
X00739626Y00679692D01*
X00740565Y00678286D01*
X00741971Y00677346D01*
X00743416Y00677059D01*
X00743381Y00676886D01*
X00743711Y00675227D01*
X00744650Y00673821D01*
X00746056Y00672882D01*
X00747714Y00672552D01*
X00749373Y00672882D01*
X00750779Y00673821D01*
X00751718Y00675227D01*
X00752048Y00676886D01*
X00752047Y00676892D01*
X00753432Y00678278D01*
X00755056Y00678105D01*
X00755436Y00677536D01*
X00756842Y00676597D01*
X00758500Y00676267D01*
X00760158Y00676597D01*
X00760480Y00676812D01*
X00761750Y00676133D01*
Y00670389D01*
X00761092Y00670258D01*
X00759686Y00669318D01*
X00758747Y00667913D01*
X00758417Y00666254D01*
X00758747Y00664596D01*
X00759686Y00663190D01*
X00759703Y00663179D01*
X00759318Y00661909D01*
X00746383D01*
X00732025Y00676267D01*
X00731032Y00676930D01*
X00729862Y00677163D01*
X00729862Y00677163D01*
X00713250D01*
Y00680100D01*
X00708750D01*
Y00682100D01*
X00713250D01*
Y00683064D01*
X00714520Y00683743D01*
X00715107Y00683351D01*
X00716765Y00683021D01*
X00718423Y00683351D01*
X00719302Y00683938D01*
X00719738Y00683286D01*
D02*
G37*
G36*
X00593250Y00659478D02*
Y00655350D01*
X00603250D01*
Y00656831D01*
X00608850D01*
Y00656680D01*
X00612291D01*
Y00651272D01*
X00612291Y00651272D01*
X00612524Y00650101D01*
X00613187Y00649109D01*
X00614359Y00647937D01*
X00614359Y00647937D01*
X00615351Y00647274D01*
X00616522Y00647041D01*
X00617100Y00646016D01*
Y00643430D01*
X00619709D01*
X00620195Y00642257D01*
X00613597Y00635659D01*
X00598000D01*
X00598000Y00635659D01*
X00596830Y00635426D01*
X00595837Y00634763D01*
X00594478Y00633404D01*
X00593100Y00633822D01*
X00592974Y00634453D01*
X00591925Y00636025D01*
X00591559Y00636269D01*
Y00637833D01*
X00594947Y00641221D01*
X00596325Y00640803D01*
X00596497Y00639942D01*
X00597436Y00638536D01*
X00598842Y00637597D01*
X00600500Y00637267D01*
X00602158Y00637597D01*
X00603564Y00638536D01*
X00604503Y00639942D01*
X00604833Y00641600D01*
X00604503Y00643258D01*
X00603564Y00644664D01*
X00603250Y00644874D01*
Y00653350D01*
X00593250D01*
Y00648176D01*
X00587329Y00642255D01*
X00586059Y00642781D01*
Y00654083D01*
X00591980Y00660004D01*
X00593250Y00659478D01*
D02*
G37*
%LPC*%
G36*
X00789250Y01015183D02*
X00787592Y01014853D01*
X00786186Y01013914D01*
X00785247Y01012508D01*
X00784917Y01010850D01*
X00785247Y01009192D01*
X00786186Y01007786D01*
X00787592Y01006847D01*
X00789250Y01006517D01*
X00790908Y01006847D01*
X00792314Y01007786D01*
X00793253Y01009192D01*
X00793583Y01010850D01*
X00793253Y01012508D01*
X00792314Y01013914D01*
X00790908Y01014853D01*
X00789250Y01015183D01*
D02*
G37*
G36*
X00705250Y00993193D02*
X00703397Y00992824D01*
X00701825Y00991775D01*
X00700776Y00990203D01*
X00700407Y00988350D01*
X00700776Y00986497D01*
X00701825Y00984925D01*
X00703397Y00983876D01*
X00705250Y00983507D01*
X00707103Y00983876D01*
X00708675Y00984925D01*
X00709724Y00986497D01*
X00710093Y00988350D01*
X00709724Y00990203D01*
X00708675Y00991775D01*
X00707103Y00992824D01*
X00705250Y00993193D01*
D02*
G37*
G36*
X00844000Y00988534D02*
X00842342Y00988204D01*
X00840936Y00987265D01*
X00839997Y00985859D01*
X00839667Y00984201D01*
X00839997Y00982543D01*
X00840936Y00981137D01*
X00842342Y00980198D01*
X00844000Y00979868D01*
X00845658Y00980198D01*
X00847064Y00981137D01*
X00848003Y00982543D01*
X00848333Y00984201D01*
X00848003Y00985859D01*
X00847064Y00987265D01*
X00845658Y00988204D01*
X00844000Y00988534D01*
D02*
G37*
G36*
X01004750Y00982184D02*
X01003092Y00981854D01*
X01001686Y00980914D01*
X01000747Y00979509D01*
X01000417Y00977850D01*
X01000747Y00976192D01*
X01001686Y00974786D01*
X01003092Y00973847D01*
X01004750Y00973517D01*
X01006408Y00973847D01*
X01007814Y00974786D01*
X01008753Y00976192D01*
X01009083Y00977850D01*
X01008753Y00979509D01*
X01007814Y00980914D01*
X01006408Y00981854D01*
X01004750Y00982184D01*
D02*
G37*
G36*
X00904750Y00974683D02*
X00903092Y00974353D01*
X00901686Y00973414D01*
X00900747Y00972008D01*
X00900417Y00970350D01*
X00900747Y00968692D01*
X00901686Y00967286D01*
X00903092Y00966347D01*
X00904750Y00966017D01*
X00906408Y00966347D01*
X00907814Y00967286D01*
X00908753Y00968692D01*
X00909083Y00970350D01*
X00908753Y00972008D01*
X00907814Y00973414D01*
X00906408Y00974353D01*
X00904750Y00974683D01*
D02*
G37*
G36*
X00755849Y00966160D02*
X00754191Y00965831D01*
X00752785Y00964891D01*
X00751846Y00963485D01*
X00751516Y00961827D01*
X00751846Y00960169D01*
X00752785Y00958763D01*
X00754191Y00957824D01*
X00755849Y00957494D01*
X00757507Y00957824D01*
X00758913Y00958763D01*
X00759853Y00960169D01*
X00760182Y00961827D01*
X00759853Y00963485D01*
X00758913Y00964891D01*
X00757507Y00965831D01*
X00755849Y00966160D01*
D02*
G37*
G36*
X00771500Y00951943D02*
X00769647Y00951574D01*
X00768075Y00950525D01*
X00767026Y00948953D01*
X00766657Y00947100D01*
X00767026Y00945247D01*
X00768075Y00943675D01*
X00769647Y00942626D01*
X00771500Y00942257D01*
X00773353Y00942626D01*
X00774925Y00943675D01*
X00775974Y00945247D01*
X00776343Y00947100D01*
X00775974Y00948953D01*
X00774925Y00950525D01*
X00773353Y00951574D01*
X00771500Y00951943D01*
D02*
G37*
G36*
X00562000Y00937443D02*
X00560147Y00937074D01*
X00558575Y00936024D01*
X00557526Y00934453D01*
X00557157Y00932600D01*
X00557526Y00930747D01*
X00558575Y00929175D01*
X00560147Y00928126D01*
X00562000Y00927757D01*
X00563853Y00928126D01*
X00565424Y00929175D01*
X00566474Y00930747D01*
X00566843Y00932600D01*
X00566474Y00934453D01*
X00565424Y00936024D01*
X00563853Y00937074D01*
X00562000Y00937443D01*
D02*
G37*
G36*
X00550500D02*
X00548647Y00937074D01*
X00547075Y00936024D01*
X00546026Y00934453D01*
X00545657Y00932600D01*
X00546026Y00930747D01*
X00547075Y00929175D01*
X00548647Y00928126D01*
X00550500Y00927757D01*
X00552353Y00928126D01*
X00553924Y00929175D01*
X00554974Y00930747D01*
X00555343Y00932600D01*
X00554974Y00934453D01*
X00553924Y00936024D01*
X00552353Y00937074D01*
X00550500Y00937443D01*
D02*
G37*
G36*
X00944457Y00939018D02*
X00942701Y00938668D01*
X00941213Y00937674D01*
X00940218Y00936185D01*
X00939869Y00934429D01*
Y00892208D01*
X00935782Y00888121D01*
X00930351Y00882690D01*
X00929520Y00881446D01*
X00928271Y00881648D01*
X00928250Y00881657D01*
Y00887850D01*
X00917750D01*
Y00874850D01*
X00917750D01*
Y00860850D01*
X00928250D01*
Y00863263D01*
X00928644Y00863473D01*
X00929520Y00863811D01*
X00931000Y00863517D01*
X00931980Y00863712D01*
X00933250Y00862831D01*
Y00860850D01*
X00937500D01*
Y00867850D01*
X00939500D01*
Y00860850D01*
X00943750D01*
Y00865263D01*
X00944143Y00865473D01*
X00945020Y00865811D01*
X00946500Y00865517D01*
X00948158Y00865847D01*
X00949564Y00866786D01*
X00950503Y00868192D01*
X00950833Y00869850D01*
X00950503Y00871508D01*
X00950069Y00872159D01*
Y00877403D01*
X00949797Y00878768D01*
X00949023Y00879926D01*
X00944794Y00884156D01*
X00947702Y00887063D01*
X00948696Y00888551D01*
X00948932Y00889735D01*
X00979053Y00919856D01*
X00979217Y00919746D01*
X00980875Y00919416D01*
X00982533Y00919746D01*
X00983939Y00920686D01*
X00984878Y00922091D01*
X00985208Y00923750D01*
X00984878Y00925408D01*
X00983939Y00926814D01*
X00982533Y00927753D01*
X00980875Y00928083D01*
X00979217Y00927753D01*
X00978136Y00927031D01*
X00977613D01*
X00976247Y00926760D01*
X00975089Y00925986D01*
X00950219Y00901115D01*
X00949045Y00901601D01*
Y00934429D01*
X00948696Y00936185D01*
X00947702Y00937674D01*
X00946213Y00938668D01*
X00944457Y00939018D01*
D02*
G37*
G36*
X00775768Y00927449D02*
X00774109Y00927119D01*
X00772704Y00926180D01*
X00771764Y00924774D01*
X00771434Y00923116D01*
X00771764Y00921458D01*
X00772704Y00920052D01*
X00774109Y00919112D01*
X00775768Y00918783D01*
X00777426Y00919112D01*
X00778832Y00920052D01*
X00779771Y00921458D01*
X00780101Y00923116D01*
X00779771Y00924774D01*
X00778832Y00926180D01*
X00777426Y00927119D01*
X00775768Y00927449D01*
D02*
G37*
G36*
X01003500Y00918683D02*
X01001842Y00918353D01*
X01000436Y00917414D01*
X00999497Y00916008D01*
X00999167Y00914350D01*
X00999497Y00912692D01*
X01000436Y00911286D01*
X01001842Y00910347D01*
X01003500Y00910017D01*
X01005158Y00910347D01*
X01006564Y00911286D01*
X01007503Y00912692D01*
X01007833Y00914350D01*
X01007503Y00916008D01*
X01006564Y00917414D01*
X01005158Y00918353D01*
X01003500Y00918683D01*
D02*
G37*
G36*
X00729750Y00913433D02*
X00728092Y00913103D01*
X00726686Y00912164D01*
X00725747Y00910758D01*
X00725417Y00909100D01*
X00725747Y00907442D01*
X00726686Y00906036D01*
X00728092Y00905097D01*
X00729750Y00904767D01*
X00731408Y00905097D01*
X00732814Y00906036D01*
X00733753Y00907442D01*
X00734083Y00909100D01*
X00733753Y00910758D01*
X00732814Y00912164D01*
X00731408Y00913103D01*
X00729750Y00913433D01*
D02*
G37*
G36*
X00539000Y00894693D02*
X00537147Y00894324D01*
X00535575Y00893275D01*
X00534526Y00891703D01*
X00534157Y00889850D01*
X00534526Y00887997D01*
X00535575Y00886425D01*
X00537147Y00885376D01*
X00539000Y00885007D01*
X00540853Y00885376D01*
X00542425Y00886425D01*
X00543474Y00887997D01*
X00543843Y00889850D01*
X00543474Y00891703D01*
X00542425Y00893275D01*
X00540853Y00894324D01*
X00539000Y00894693D01*
D02*
G37*
G36*
X00884750Y00885850D02*
X00875750D01*
Y00875850D01*
X00876441D01*
X00876879Y00874580D01*
X00876497Y00874008D01*
X00876167Y00872350D01*
X00876497Y00870692D01*
X00877436Y00869286D01*
X00878842Y00868347D01*
X00880500Y00868017D01*
X00882158Y00868347D01*
X00883564Y00869286D01*
X00884503Y00870692D01*
X00884833Y00872350D01*
X00884503Y00874008D01*
X00884121Y00874580D01*
X00884750Y00875850D01*
X00884750D01*
Y00885850D01*
D02*
G37*
G36*
X00912750Y00887850D02*
X00902250D01*
Y00877646D01*
X00902191Y00877350D01*
X00902191Y00877350D01*
Y00877045D01*
X00901162Y00876017D01*
X00900342Y00875853D01*
X00898936Y00874914D01*
X00897997Y00873508D01*
X00897667Y00871850D01*
X00897997Y00870192D01*
X00898936Y00868786D01*
X00900342Y00867847D01*
X00902000Y00867517D01*
X00903658Y00867847D01*
X00905064Y00868786D01*
X00906003Y00870192D01*
X00906333Y00871850D01*
X00906219Y00872422D01*
X00907413Y00873615D01*
X00907413Y00873616D01*
X00907570Y00873850D01*
X00912750D01*
Y00887850D01*
D02*
G37*
G36*
X00472250Y00878693D02*
X00470397Y00878324D01*
X00468825Y00877274D01*
X00467776Y00875703D01*
X00467407Y00873850D01*
X00467776Y00871996D01*
X00468305Y00871204D01*
X00468737Y00870225D01*
X00468305Y00869246D01*
X00467776Y00868453D01*
X00467407Y00866600D01*
X00467776Y00864746D01*
X00468825Y00863175D01*
X00470397Y00862125D01*
X00472250Y00861757D01*
X00474103Y00862125D01*
X00475675Y00863175D01*
X00476725Y00864746D01*
X00477093Y00866600D01*
X00476725Y00868453D01*
X00476195Y00869246D01*
X00475763Y00870225D01*
X00476195Y00871204D01*
X00476725Y00871996D01*
X00477093Y00873850D01*
X00476725Y00875703D01*
X00475675Y00877274D01*
X00474103Y00878324D01*
X00472250Y00878693D01*
D02*
G37*
G36*
X01016009Y00909924D02*
X01014350Y00909594D01*
X01012944Y00908655D01*
X01012005Y00907249D01*
X01011675Y00905591D01*
X01012005Y00903933D01*
X01012944Y00902527D01*
X01014350Y00901588D01*
X01015406Y00901377D01*
X01015245Y00900567D01*
X01015397Y00899802D01*
X01014350Y00899594D01*
X01012944Y00898654D01*
X01012005Y00897249D01*
X01011675Y00895590D01*
X01012005Y00893932D01*
X01012944Y00892526D01*
X01014350Y00891587D01*
X01015491Y00891360D01*
X01015335Y00890577D01*
X01015486Y00889816D01*
X01014350Y00889590D01*
X01012944Y00888651D01*
X01012005Y00887245D01*
X01011675Y00885587D01*
X01012005Y00883929D01*
X01012944Y00882523D01*
X01014350Y00881583D01*
X01015575Y00881340D01*
X01015425Y00880586D01*
X01015575Y00879833D01*
X01014350Y00879590D01*
X01012944Y00878650D01*
X01012005Y00877244D01*
X01011675Y00875586D01*
X01012005Y00873928D01*
X01012902Y00872586D01*
X01013068Y00872237D01*
Y00871170D01*
X01012686Y00870914D01*
X01011747Y00869508D01*
X01011417Y00867850D01*
X01011519Y00867337D01*
X01010342Y00867103D01*
X01008936Y00866164D01*
X01007997Y00864758D01*
X01007667Y00863100D01*
X01007997Y00861442D01*
X01008936Y00860036D01*
X01010342Y00859097D01*
X01012000Y00858767D01*
X01013658Y00859097D01*
X01015064Y00860036D01*
X01016003Y00861442D01*
X01016333Y00863100D01*
X01016231Y00863613D01*
X01017408Y00863847D01*
X01018814Y00864786D01*
X01019753Y00866192D01*
X01020083Y00867850D01*
X01019753Y00869508D01*
X01018857Y00870851D01*
X01018690Y00871199D01*
Y00872267D01*
X01019072Y00872522D01*
X01020012Y00873928D01*
X01020342Y00875586D01*
X01020192Y00876339D01*
X01021417Y00876583D01*
X01022823Y00877523D01*
X01023762Y00878928D01*
X01024092Y00880586D01*
X01023762Y00882245D01*
X01022823Y00883651D01*
X01021417Y00884590D01*
X01020192Y00884834D01*
X01020342Y00885587D01*
X01020190Y00886348D01*
X01021327Y00886574D01*
X01022732Y00887513D01*
X01023672Y00888919D01*
X01024001Y00890577D01*
X01023672Y00892235D01*
X01022732Y00893641D01*
X01021327Y00894580D01*
X01020186Y00894807D01*
X01020342Y00895590D01*
X01020190Y00896356D01*
X01021236Y00896564D01*
X01022642Y00897504D01*
X01023581Y00898909D01*
X01023911Y00900567D01*
X01023581Y00902226D01*
X01022642Y00903632D01*
X01021236Y00904571D01*
X01020181Y00904781D01*
X01020342Y00905591D01*
X01020012Y00907249D01*
X01019073Y00908655D01*
X01017667Y00909594D01*
X01016009Y00909924D01*
D02*
G37*
G36*
X00987750Y00851183D02*
X00986092Y00850854D01*
X00984686Y00849914D01*
X00984683Y00849909D01*
X00977500D01*
Y00850850D01*
X00959500D01*
Y00842850D01*
Y00836350D01*
Y00829850D01*
Y00823350D01*
Y00816850D01*
Y00810350D01*
Y00803850D01*
Y00797350D01*
Y00795850D01*
X00968500D01*
X00977500D01*
Y00798291D01*
X00984683D01*
X00984686Y00798286D01*
X00986092Y00797347D01*
X00987750Y00797017D01*
X00988612Y00797188D01*
X00989882Y00796252D01*
Y00756603D01*
X00988612Y00756218D01*
X00988314Y00756664D01*
X00986908Y00757603D01*
X00985250Y00757933D01*
X00983592Y00757603D01*
X00982186Y00756664D01*
X00981247Y00755258D01*
X00980917Y00753600D01*
X00981247Y00751942D01*
X00982186Y00750536D01*
X00983592Y00749597D01*
X00984870Y00749342D01*
X00985346Y00748292D01*
X00985371Y00748046D01*
X00972049Y00734725D01*
X00971386Y00733733D01*
X00971248Y00733040D01*
X00970686Y00732664D01*
X00969746Y00731258D01*
X00969416Y00729600D01*
X00969746Y00727942D01*
X00970461Y00726872D01*
X00970534Y00726166D01*
X00970193Y00725337D01*
X00969186Y00724664D01*
X00968247Y00723258D01*
X00967917Y00721600D01*
X00968247Y00719941D01*
X00968961Y00718872D01*
X00969034Y00718165D01*
X00968694Y00717337D01*
X00967686Y00716664D01*
X00966747Y00715258D01*
X00966417Y00713600D01*
X00966747Y00711942D01*
X00967461Y00710872D01*
X00967534Y00710165D01*
X00967194Y00709337D01*
X00966186Y00708664D01*
X00965246Y00707258D01*
X00964917Y00705600D01*
X00965246Y00703941D01*
X00966186Y00702536D01*
X00967591Y00701596D01*
X00969250Y00701267D01*
X00970908Y00701596D01*
X00972314Y00702536D01*
X00972317Y00702541D01*
X00974750D01*
X00974750Y00702541D01*
X00975149Y00702620D01*
X00975774Y00701450D01*
X00969257Y00694932D01*
X00969250Y00694933D01*
X00967592Y00694604D01*
X00966186Y00693664D01*
X00965247Y00692258D01*
X00964917Y00690600D01*
X00965247Y00688942D01*
X00966186Y00687536D01*
X00967194Y00686863D01*
X00967534Y00686034D01*
X00967461Y00685328D01*
X00966747Y00684258D01*
X00966417Y00682600D01*
X00966747Y00680942D01*
X00967686Y00679536D01*
X00968694Y00678863D01*
X00969034Y00678035D01*
X00968961Y00677328D01*
X00968247Y00676258D01*
X00967917Y00674600D01*
X00968247Y00672942D01*
X00969186Y00671536D01*
X00970194Y00670863D01*
X00970534Y00670034D01*
X00970461Y00669328D01*
X00969747Y00668258D01*
X00969417Y00666600D01*
X00969747Y00664942D01*
X00970686Y00663536D01*
X00972092Y00662597D01*
X00973750Y00662267D01*
X00975408Y00662597D01*
X00976814Y00663536D01*
X00977754Y00664942D01*
X00978083Y00666600D01*
X00978082Y00666606D01*
X01026913Y00715437D01*
X01027576Y00716430D01*
X01027809Y00717600D01*
Y00821350D01*
X01027809Y00821350D01*
X01027576Y00822521D01*
X01026913Y00823513D01*
X01024082Y00826344D01*
X01024083Y00826350D01*
X01023753Y00828008D01*
X01022814Y00829414D01*
X01021408Y00830353D01*
X01019750Y00830683D01*
X01018092Y00830353D01*
X01016686Y00829414D01*
X01015826Y00828128D01*
X01015169Y00827992D01*
X01014444Y00827971D01*
X01013814Y00828914D01*
X01012408Y00829854D01*
X01011326Y00830069D01*
X01010674Y00830448D01*
X01010396Y00831408D01*
X01010583Y00832350D01*
X01010254Y00834008D01*
X01009314Y00835414D01*
X01007908Y00836354D01*
X01006826Y00836569D01*
X01006174Y00836948D01*
X01005896Y00837908D01*
X01006084Y00838850D01*
X01005754Y00840508D01*
X01004814Y00841914D01*
X01003409Y00842853D01*
X01002326Y00843069D01*
X01001674Y00843448D01*
X01001396Y00844408D01*
X01001584Y00845350D01*
X01001254Y00847008D01*
X01000314Y00848414D01*
X00998909Y00849353D01*
X00997250Y00849683D01*
X00995592Y00849353D01*
X00994186Y00848414D01*
X00993521Y00847418D01*
X00993277Y00847361D01*
X00991791Y00848319D01*
X00991754Y00848509D01*
X00990814Y00849914D01*
X00989409Y00850854D01*
X00987750Y00851183D01*
D02*
G37*
G36*
X00475000Y00839683D02*
X00473342Y00839353D01*
X00472309Y00838664D01*
X00470000D01*
X00468732Y00838411D01*
X00467657Y00837693D01*
X00434657Y00804693D01*
X00433939Y00803618D01*
X00433686Y00802350D01*
Y00750664D01*
X00430749D01*
X00430675Y00750775D01*
X00429103Y00751824D01*
X00427250Y00752193D01*
X00425397Y00751824D01*
X00423825Y00750775D01*
X00422776Y00749203D01*
X00422407Y00747350D01*
X00422776Y00745497D01*
X00423825Y00743925D01*
X00424504Y00743472D01*
X00424196Y00742151D01*
X00424096Y00742138D01*
X00422089Y00741306D01*
X00420366Y00739984D01*
X00419044Y00738261D01*
X00418212Y00736254D01*
X00417929Y00734100D01*
X00418212Y00731946D01*
X00419044Y00729939D01*
X00420366Y00728216D01*
X00422089Y00726894D01*
X00424096Y00726062D01*
X00426250Y00725779D01*
X00428243Y00726041D01*
X00428624Y00725681D01*
X00429044Y00724953D01*
X00428747Y00724508D01*
X00428417Y00722850D01*
X00428747Y00721192D01*
X00429686Y00719786D01*
X00431092Y00718847D01*
X00432750Y00718517D01*
X00434408Y00718847D01*
X00435814Y00719786D01*
X00436753Y00721192D01*
X00437083Y00722850D01*
X00436753Y00724508D01*
X00435814Y00725914D01*
X00434408Y00726853D01*
X00432849Y00727164D01*
X00432485Y00727699D01*
X00432260Y00728381D01*
X00433456Y00729939D01*
X00434288Y00731946D01*
X00434571Y00734100D01*
X00434288Y00736254D01*
X00434234Y00736384D01*
X00435310Y00737104D01*
X00440407Y00732007D01*
X00441482Y00731289D01*
X00442750Y00731036D01*
X00475251D01*
X00475325Y00730925D01*
X00476897Y00729876D01*
X00478750Y00729507D01*
X00480603Y00729876D01*
X00482175Y00730925D01*
X00483224Y00732497D01*
X00483593Y00734350D01*
X00483224Y00736203D01*
X00482175Y00737775D01*
X00480603Y00738824D01*
X00478750Y00739193D01*
X00476897Y00738824D01*
X00475325Y00737775D01*
X00475251Y00737663D01*
X00450522D01*
X00450097Y00738933D01*
X00450974Y00740247D01*
X00451343Y00742100D01*
X00450974Y00743953D01*
X00450445Y00744746D01*
X00450013Y00745725D01*
X00450445Y00746704D01*
X00450974Y00747497D01*
X00451343Y00749350D01*
X00450974Y00751203D01*
X00450445Y00751996D01*
X00450013Y00752975D01*
X00450445Y00753954D01*
X00450974Y00754747D01*
X00451343Y00756600D01*
X00450974Y00758453D01*
X00449925Y00760024D01*
X00448353Y00761074D01*
X00446500Y00761443D01*
X00444647Y00761074D01*
X00443075Y00760024D01*
X00442026Y00758453D01*
X00441657Y00756600D01*
X00442026Y00754747D01*
X00442555Y00753954D01*
X00442987Y00752975D01*
X00442555Y00751996D01*
X00442026Y00751203D01*
X00441657Y00749350D01*
X00442026Y00747497D01*
X00442555Y00746704D01*
X00442987Y00745725D01*
X00442555Y00744746D01*
X00442026Y00743953D01*
X00441862Y00743133D01*
X00440442Y00742504D01*
X00440314Y00742581D01*
Y00747350D01*
Y00800977D01*
X00471373Y00832036D01*
X00472309D01*
X00473342Y00831347D01*
X00475000Y00831017D01*
X00476658Y00831347D01*
X00478064Y00832286D01*
X00479003Y00833692D01*
X00479333Y00835350D01*
X00479003Y00837008D01*
X00478064Y00838414D01*
X00476658Y00839353D01*
X00475000Y00839683D01*
D02*
G37*
G36*
X00509500Y00830683D02*
X00507842Y00830353D01*
X00506436Y00829414D01*
X00505497Y00828008D01*
X00505167Y00826350D01*
X00505497Y00824692D01*
X00506436Y00823286D01*
X00507842Y00822347D01*
X00509500Y00822017D01*
X00511158Y00822347D01*
X00512564Y00823286D01*
X00513503Y00824692D01*
X00513833Y00826350D01*
X00513503Y00828008D01*
X00512564Y00829414D01*
X00511158Y00830353D01*
X00509500Y00830683D01*
D02*
G37*
G36*
X00509750Y00820683D02*
X00508092Y00820353D01*
X00506686Y00819414D01*
X00505747Y00818008D01*
X00505417Y00816350D01*
X00505747Y00814692D01*
X00506686Y00813286D01*
X00508092Y00812346D01*
X00509027Y00812160D01*
X00509218Y00812122D01*
Y00810827D01*
X00509027Y00810789D01*
X00508092Y00810603D01*
X00506686Y00809664D01*
X00505747Y00808258D01*
X00505417Y00806600D01*
X00505747Y00804942D01*
X00506686Y00803536D01*
X00508092Y00802597D01*
X00509750Y00802267D01*
X00511408Y00802597D01*
X00512814Y00803536D01*
X00513753Y00804942D01*
X00514083Y00806600D01*
X00513753Y00808258D01*
X00512814Y00809664D01*
X00511408Y00810603D01*
X00510473Y00810789D01*
X00510282Y00810827D01*
Y00812122D01*
X00510473Y00812160D01*
X00511408Y00812346D01*
X00512814Y00813286D01*
X00513753Y00814692D01*
X00514083Y00816350D01*
X00513753Y00818008D01*
X00512814Y00819414D01*
X00511408Y00820353D01*
X00509750Y00820683D01*
D02*
G37*
G36*
X00895750Y00885850D02*
X00886750D01*
Y00875850D01*
X00887936D01*
Y00863350D01*
X00888189Y00862082D01*
X00888907Y00861007D01*
X00896320Y00853594D01*
X00897395Y00852876D01*
X00898663Y00852624D01*
X00906221D01*
X00906662Y00852120D01*
X00906085Y00850850D01*
X00900500D01*
Y00847850D01*
X00909500D01*
X00918500D01*
Y00850850D01*
X00914688D01*
X00914061Y00852120D01*
X00914251Y00852369D01*
X00922185D01*
X00935681Y00838872D01*
Y00800100D01*
X00935953Y00798734D01*
X00936727Y00797577D01*
X00956615Y00777689D01*
X00956556Y00777220D01*
X00956174Y00776419D01*
X00949000D01*
Y00777850D01*
X00940000D01*
Y00768664D01*
X00938000D01*
Y00771850D01*
X00933500D01*
X00929000D01*
Y00770695D01*
X00927827Y00770210D01*
X00925000Y00773036D01*
Y00777850D01*
X00916000D01*
Y00767850D01*
X00920814D01*
X00925657Y00763007D01*
X00926732Y00762289D01*
X00928000Y00762036D01*
X00943036D01*
X00944304Y00762289D01*
X00945379Y00763007D01*
X00946843Y00764471D01*
X00947561Y00765546D01*
X00947814Y00766814D01*
Y00767850D01*
X00949000D01*
Y00769281D01*
X00970791D01*
X00972147Y00768376D01*
X00974000Y00768007D01*
X00975853Y00768376D01*
X00977425Y00769425D01*
X00978474Y00770997D01*
X00978843Y00772850D01*
X00978474Y00774703D01*
X00977569Y00776059D01*
Y00787850D01*
X00977500Y00788195D01*
Y00793850D01*
X00968500D01*
X00959500D01*
Y00786556D01*
X00958327Y00786070D01*
X00942819Y00801578D01*
Y00840350D01*
X00942547Y00841716D01*
X00941773Y00842873D01*
X00926186Y00858461D01*
X00925028Y00859234D01*
X00923663Y00859506D01*
X00913372D01*
X00912016Y00860412D01*
X00910163Y00860780D01*
X00908309Y00860412D01*
X00906738Y00859362D01*
X00906664Y00859251D01*
X00900035D01*
X00894564Y00864723D01*
Y00875850D01*
X00895750D01*
Y00885850D01*
D02*
G37*
G36*
X00938000Y00777850D02*
X00934500D01*
Y00773850D01*
X00938000D01*
Y00777850D01*
D02*
G37*
G36*
X00932500D02*
X00929000D01*
Y00773850D01*
X00932500D01*
Y00777850D01*
D02*
G37*
G36*
X00936000Y00745350D02*
X00932500D01*
Y00741350D01*
X00936000D01*
Y00745350D01*
D02*
G37*
G36*
X00930500D02*
X00927000D01*
Y00741350D01*
X00930500D01*
Y00745350D01*
D02*
G37*
G36*
X00928820Y00720750D02*
X00926570D01*
Y00715250D01*
X00928820D01*
Y00720750D01*
D02*
G37*
G36*
X00507250Y00686193D02*
X00505397Y00685824D01*
X00503825Y00684775D01*
X00502776Y00683203D01*
X00502407Y00681350D01*
X00502776Y00679497D01*
X00503825Y00677925D01*
X00505397Y00676876D01*
X00507250Y00676507D01*
X00509103Y00676876D01*
X00510675Y00677925D01*
X00511724Y00679497D01*
X00512093Y00681350D01*
X00511724Y00683203D01*
X00510675Y00684775D01*
X00509103Y00685824D01*
X00507250Y00686193D01*
D02*
G37*
G36*
X00533376Y00676069D02*
X00531522Y00675700D01*
X00529951Y00674650D01*
X00528901Y00673079D01*
X00528532Y00671226D01*
X00528901Y00669372D01*
X00529951Y00667801D01*
X00531522Y00666751D01*
X00533376Y00666383D01*
X00535229Y00666751D01*
X00536800Y00667801D01*
X00537850Y00669372D01*
X00538219Y00671226D01*
X00537850Y00673079D01*
X00536800Y00674650D01*
X00535229Y00675700D01*
X00533376Y00676069D01*
D02*
G37*
G36*
X00452750Y00703933D02*
X00451092Y00703603D01*
X00449686Y00702664D01*
X00448747Y00701258D01*
X00448417Y00699600D01*
X00448747Y00697942D01*
X00449686Y00696536D01*
X00451092Y00695597D01*
X00452447Y00695327D01*
X00487337Y00660437D01*
X00487337Y00660437D01*
X00488330Y00659774D01*
X00489500Y00659541D01*
X00506682D01*
X00506686Y00659536D01*
X00508092Y00658597D01*
X00509750Y00658267D01*
X00511408Y00658597D01*
X00512814Y00659536D01*
X00513753Y00660942D01*
X00514083Y00662600D01*
X00513753Y00664258D01*
X00512814Y00665664D01*
X00511408Y00666603D01*
X00509750Y00666933D01*
X00508092Y00666603D01*
X00506686Y00665664D01*
X00506682Y00665659D01*
X00490767D01*
X00457040Y00699385D01*
X00457083Y00699600D01*
X00456753Y00701258D01*
X00455814Y00702664D01*
X00454408Y00703603D01*
X00452750Y00703933D01*
D02*
G37*
G36*
X00982000Y00662693D02*
X00980147Y00662324D01*
X00978576Y00661274D01*
X00977526Y00659703D01*
X00977157Y00657850D01*
X00977526Y00655997D01*
X00978576Y00654425D01*
X00980147Y00653376D01*
X00982000Y00653007D01*
X00983853Y00653376D01*
X00985425Y00654425D01*
X00986474Y00655997D01*
X00986843Y00657850D01*
X00986474Y00659703D01*
X00985425Y00661274D01*
X00983853Y00662324D01*
X00982000Y00662693D01*
D02*
G37*
G36*
X01018250Y00652671D02*
X01016096Y00652388D01*
X01014089Y00651556D01*
X01012366Y00650234D01*
X01011044Y00648511D01*
X01010212Y00646504D01*
X01009929Y00644350D01*
X01010212Y00642196D01*
X01011044Y00640189D01*
X01012366Y00638466D01*
X01014089Y00637144D01*
X01016096Y00636312D01*
X01018250Y00636029D01*
X01020404Y00636312D01*
X01022411Y00637144D01*
X01024134Y00638466D01*
X01025456Y00640189D01*
X01026288Y00642196D01*
X01026571Y00644350D01*
X01026288Y00646504D01*
X01025456Y00648511D01*
X01024134Y00650234D01*
X01022411Y00651556D01*
X01020404Y00652388D01*
X01018250Y00652671D01*
D02*
G37*
G36*
X00679750Y00623100D02*
X00676250D01*
Y00619100D01*
X00679750D01*
Y00623100D01*
D02*
G37*
G36*
Y00617100D02*
X00676250D01*
Y00613100D01*
X00679750D01*
Y00617100D01*
D02*
G37*
G36*
X00660750D02*
X00657250D01*
Y00613100D01*
X00660750D01*
Y00617100D01*
D02*
G37*
G36*
X00655250D02*
X00651750D01*
Y00613100D01*
X00655250D01*
Y00617100D01*
D02*
G37*
G36*
X00720750Y00874693D02*
X00718897Y00874324D01*
X00717325Y00873275D01*
X00716276Y00871703D01*
X00715907Y00869850D01*
X00716276Y00867997D01*
X00717325Y00866425D01*
X00718897Y00865376D01*
X00720750Y00865007D01*
X00722603Y00865376D01*
X00724174Y00866425D01*
X00725224Y00867997D01*
X00725593Y00869850D01*
X00725224Y00871703D01*
X00724174Y00873275D01*
X00722603Y00874324D01*
X00720750Y00874693D01*
D02*
G37*
G36*
X00617500Y00784850D02*
X00614000D01*
Y00780850D01*
X00617500D01*
Y00784850D01*
D02*
G37*
G36*
X00643000Y00784600D02*
X00639500D01*
Y00780600D01*
X00643000D01*
Y00784600D01*
D02*
G37*
G36*
X00637500D02*
X00634000D01*
Y00780600D01*
X00637500D01*
Y00784600D01*
D02*
G37*
G36*
X00627500Y00775834D02*
Y00759850D01*
X00643484D01*
X00643254Y00762183D01*
X00642282Y00765387D01*
X00640703Y00768340D01*
X00638579Y00770929D01*
X00635990Y00773053D01*
X00633037Y00774632D01*
X00629833Y00775604D01*
X00627500Y00775834D01*
D02*
G37*
G36*
X00625500D02*
X00623167Y00775604D01*
X00619963Y00774632D01*
X00617010Y00773053D01*
X00614421Y00770929D01*
X00612297Y00768340D01*
X00610718Y00765387D01*
X00609746Y00762183D01*
X00609516Y00759850D01*
X00625500D01*
Y00775834D01*
D02*
G37*
G36*
X00643484Y00757850D02*
X00627500D01*
Y00741866D01*
X00629833Y00742096D01*
X00633037Y00743068D01*
X00635990Y00744647D01*
X00638579Y00746771D01*
X00640703Y00749360D01*
X00642282Y00752313D01*
X00643254Y00755517D01*
X00643484Y00757850D01*
D02*
G37*
G36*
X00625500D02*
X00609516D01*
X00609746Y00755517D01*
X00610718Y00752313D01*
X00612297Y00749360D01*
X00614421Y00746771D01*
X00617010Y00744647D01*
X00619963Y00743068D01*
X00623167Y00742096D01*
X00625500Y00741866D01*
Y00757850D01*
D02*
G37*
G36*
X00688000Y00824193D02*
X00686147Y00823824D01*
X00684575Y00822775D01*
X00683526Y00821203D01*
X00683157Y00819350D01*
X00683526Y00817497D01*
X00684575Y00815925D01*
X00686147Y00814876D01*
X00688000Y00814507D01*
X00689853Y00814876D01*
X00691425Y00815925D01*
X00692474Y00817497D01*
X00692843Y00819350D01*
X00692474Y00821203D01*
X00691425Y00822775D01*
X00689853Y00823824D01*
X00688000Y00824193D01*
D02*
G37*
G36*
X00896250Y00720850D02*
X00892250D01*
Y00717350D01*
X00896250D01*
Y00720850D01*
D02*
G37*
G36*
Y00715350D02*
X00892250D01*
Y00711850D01*
X00896250D01*
Y00715350D01*
D02*
G37*
G36*
X00641750Y00710850D02*
X00637750D01*
Y00707350D01*
X00641750D01*
Y00710850D01*
D02*
G37*
G36*
X00635750D02*
X00631750D01*
Y00707350D01*
X00635750D01*
Y00710850D01*
D02*
G37*
G36*
X00661250Y00705350D02*
X00657250D01*
Y00701850D01*
X00661250D01*
Y00705350D01*
D02*
G37*
G36*
X00641750Y00705350D02*
X00637750D01*
Y00701850D01*
X00641750D01*
Y00705350D01*
D02*
G37*
G36*
X00635750D02*
X00631750D01*
Y00701850D01*
X00635750D01*
Y00705350D01*
D02*
G37*
G36*
X00603250Y00677350D02*
X00599250D01*
Y00673850D01*
X00603250D01*
Y00677350D01*
D02*
G37*
G36*
X00614350Y00668180D02*
X00608850D01*
Y00665930D01*
X00614350D01*
Y00668180D01*
D02*
G37*
G36*
X00801250Y00699850D02*
X00799000D01*
Y00694350D01*
X00801250D01*
Y00699850D01*
D02*
G37*
%LPD*%
D10*
X00938250Y00709250D02*
Y00715600D01*
X00631443Y00819156D02*
X00631443D01*
X00624000D02*
X00631443D01*
X00437000Y00802350D02*
X00470000Y00835350D01*
X00437000Y00747350D02*
Y00802350D01*
X00470000Y00835350D02*
X00475000D01*
X00648250Y00765100D02*
X00660000Y00776850D01*
Y00815600D02*
X00680500Y00836100D01*
X00660000Y00776850D02*
Y00815600D01*
X00680500Y00836100D02*
X00720500D01*
X00637000Y00793600D02*
Y00813600D01*
X00624000Y00819156D02*
Y00819350D01*
X00617750Y00794350D02*
X00623000D01*
X00617500Y00794100D02*
X00617750Y00794350D01*
X00623000D02*
X00624000Y00795350D01*
Y00797850D01*
X00944500Y00766814D02*
Y00772850D01*
X00427250Y00747350D02*
X00437000D01*
Y00740100D02*
Y00747350D01*
X00891250Y00863350D02*
X00898663Y00855937D01*
X00891250Y00863350D02*
Y00880850D01*
X00880250Y00881100D02*
X00880375Y00880975D01*
Y00872475D02*
Y00880975D01*
Y00872475D02*
X00880500Y00872350D01*
X00898663Y00855937D02*
X00910163D01*
X00638000Y00716850D02*
Y00726350D01*
X00648250Y00729850D02*
Y00765100D01*
X00669000Y00694818D02*
Y00709100D01*
X00648250Y00729850D02*
X00669000Y00709100D01*
X00824769Y00629350D02*
X00936500D01*
X00958413Y00651263D01*
X00631443Y00819156D02*
X00637000Y00813600D01*
X00637000Y00813600D02*
X00642750Y00819350D01*
X00649500D01*
X00624000Y00716850D02*
X00638000D01*
X00624000Y00716850D02*
X00624000Y00716850D01*
X00638000D02*
X00649500D01*
X00624000Y00695350D02*
X00624000Y00695350D01*
X00636750D01*
X00649500D02*
X00662250D01*
X00674375Y00767475D02*
X00674500Y00767600D01*
X00674250Y00756350D02*
X00674375Y00756475D01*
Y00767475D01*
X00822270Y00626851D02*
X00824769Y00629350D01*
X00667250Y00618100D02*
X00667250Y00618100D01*
X00667250Y00618100D02*
Y00625600D01*
X00667250Y00625600D02*
X00667250Y00625600D01*
X00686250Y00618100D02*
Y00625600D01*
X00686250Y00618100D02*
X00686250Y00618100D01*
Y00625600D02*
X00686250Y00625600D01*
X00656250Y00735100D02*
Y00743350D01*
X00694500Y00778350D02*
X00696500Y00780350D01*
X00694500Y00773100D02*
Y00778350D01*
X00696500Y00780350D02*
X00702250D01*
X00478750Y00734350D02*
Y00734350D01*
X00720500Y00836100D02*
X00722250Y00834350D01*
X00936739Y00723111D02*
X00937313Y00722537D01*
X00936739Y00723111D02*
Y00725611D01*
X00931500Y00730850D02*
X00936739Y00725611D01*
X00804250Y00755600D02*
X00807250Y00758600D01*
X00812250Y00769350D02*
X00817250D01*
X00807250Y00758600D02*
Y00764350D01*
X00810277Y00767377D02*
X00812250Y00769350D01*
X00807250Y00767377D02*
X00810277D01*
X00807250Y00764350D02*
Y00767377D01*
X00783500Y00761850D02*
X00784750Y00760600D01*
Y00760100D02*
Y00760600D01*
X00774250Y00761850D02*
X00783500D01*
X00784750Y00760100D02*
X00789250Y00755600D01*
X00804250D01*
X00931500Y00730850D02*
Y00731350D01*
X00798070Y00816600D02*
X00808709D01*
X00811709Y00819600D02*
X00812250D01*
X00808709Y00816600D02*
X00811709Y00819600D01*
X00791268Y00762608D02*
Y00768369D01*
X00793875Y00750725D02*
X00794000Y00750600D01*
X00928000Y00765350D02*
X00943036D01*
X00944500Y00766814D01*
X00921750Y00771100D02*
X00922250D01*
X00920500Y00772350D02*
X00921750Y00771100D01*
X00922250D02*
X00928000Y00765350D01*
X00920500Y00772350D02*
Y00772850D01*
X00694000Y00772600D02*
X00694500Y00773100D01*
X00702250Y00780350D02*
X00702500Y00780600D01*
X00670180Y00808170D02*
X00681550D01*
X00681980Y00807740D01*
X00669750Y00808600D02*
X00670180Y00808170D01*
X00442750Y00734350D02*
X00478750D01*
X00437000Y00740100D02*
X00442750Y00734350D01*
X00478750D02*
X00478750Y00734350D01*
X00786176Y00832850D02*
X00792250D01*
X00784500Y00834526D02*
X00786176Y00832850D01*
X00791268Y00768369D02*
X00792250Y00769350D01*
X00783000Y00814850D02*
X00796320D01*
X00798070Y00816600D01*
X00714214Y00778100D02*
X00720500D01*
X00712750Y00776636D02*
X00714214Y00778100D01*
X00712750Y00772600D02*
Y00776636D01*
X00712750Y00772600D02*
X00712750Y00772600D01*
X00783000Y00750850D02*
X00783125Y00750725D01*
X00793875D01*
X00935570Y00709250D02*
X00938250D01*
X00792250Y00769350D02*
X00792250D01*
D11*
X00749250Y00733350D02*
X00768750Y00752850D01*
X00747750Y00736850D02*
X00765129Y00754229D01*
X00744601Y00736850D02*
X00747750D01*
X00743723Y00741350D02*
X00747100D01*
X00743629Y00731350D02*
X00744051D01*
X00744101Y00736350D02*
X00744601Y00736850D01*
X00743473Y00741600D02*
X00743723Y00741350D01*
X00744051Y00731350D02*
X00746051Y00733350D01*
X00749250D01*
X00722802Y00736350D02*
X00744101D01*
X00960500Y00997600D02*
X00990250Y00967850D01*
Y00864600D02*
Y00967850D01*
X00983000Y00857350D02*
X00990250Y00864600D01*
X00489500Y00662600D02*
X00509750D01*
X00584000Y00667100D02*
Y00679850D01*
X00549000Y00662548D02*
Y00687850D01*
X00579000Y00662548D02*
Y00683100D01*
X00574000Y00667100D02*
Y00686600D01*
X00559000Y00662548D02*
Y00688850D01*
X00569000Y00662548D02*
Y00690350D01*
X00544000Y00667100D02*
Y00691850D01*
X00540000Y00663100D02*
X00544000Y00667100D01*
X00590500Y00711850D02*
Y00833850D01*
X00594000Y00706600D02*
Y00819850D01*
X00559000Y00688850D02*
X00587000Y00716850D01*
X00590500Y00833850D02*
X00630750Y00874100D01*
X00594000Y00819850D02*
Y00831499D01*
X00574000Y00686600D02*
X00594000Y00706600D01*
X00569000Y00690350D02*
X00590500Y00711850D01*
X00594000Y00819850D02*
X00594000Y00819850D01*
X00452750Y00699350D02*
X00489500Y00662600D01*
X00452750Y00699350D02*
Y00699600D01*
X00549000Y00687850D02*
X00583500Y00722350D01*
X00584000Y00679850D02*
X00601000Y00696850D01*
X00579000Y00683100D02*
X00597500Y00701600D01*
X00750791Y00864850D02*
X00752307Y00866366D01*
X00752984D01*
X00735630Y00864850D02*
X00750791D01*
X00728250Y00860100D02*
X00728513D01*
X00733263Y00864850D01*
X00735630D01*
X00735630Y00864850D01*
X00627800Y00898850D02*
X00693050Y00964100D01*
X00706750D02*
X00713000Y00970350D01*
X00693050Y00964100D02*
X00706750D01*
X00694500Y00960600D02*
X00723578D01*
X00619228Y00898850D02*
X00627800D01*
X00629250Y00895350D02*
X00694500Y00960600D01*
X00620677Y00895350D02*
X00629250D01*
X00689000Y00966605D02*
Y00968408D01*
X00689493Y00968901D01*
Y00969577D01*
X00625245Y00902850D02*
X00689000Y00966605D01*
X00683021Y00969372D02*
X00683500Y00969850D01*
X00647009Y00964359D02*
Y00969401D01*
X00613500Y00930850D02*
X00647009Y00964359D01*
X00605752Y00930850D02*
X00613500D01*
X00614451Y00909850D02*
X00622346D01*
X00617350Y00902850D02*
X00625245D01*
X00678500Y00966004D02*
Y00990678D01*
X00611552Y00916850D02*
X00619446D01*
X00668500Y00965904D02*
Y00990678D01*
X00610102Y00920350D02*
X00617950D01*
X00615901Y00906350D02*
X00623795D01*
X00663021Y00965422D02*
Y00969372D01*
X00673021Y00965475D02*
Y00968695D01*
X00608652Y00923850D02*
X00616500D01*
X00615000Y00927350D02*
X00653500Y00965850D01*
X00683021Y00965576D02*
Y00969372D01*
X00616500Y00923850D02*
X00658500Y00965850D01*
X00613001Y00913350D02*
X00620896D01*
X00617950Y00920350D02*
X00663021Y00965422D01*
X00623795Y00906350D02*
X00683021Y00965576D01*
X00653500Y00965850D02*
Y00969850D01*
X00607202Y00927350D02*
X00615000D01*
X00622346Y00909850D02*
X00678500Y00966004D01*
X00658500Y00965850D02*
Y00990678D01*
X00619446Y00916850D02*
X00668500Y00965904D01*
X00620896Y00913350D02*
X00673021Y00965475D01*
X00555500Y00850899D02*
X00614451Y00909850D01*
X00545000Y00855248D02*
X00610102Y00920350D01*
X00548500Y00853798D02*
X00611552Y00916850D01*
X00541500Y00856698D02*
X00608652Y00923850D01*
X00534500Y00859597D02*
X00605752Y00930850D01*
X00562500Y00848000D02*
X00617350Y00902850D01*
X00559000Y00849449D02*
X00615901Y00906350D01*
X00552000Y00852349D02*
X00613001Y00913350D01*
X00538000Y00858148D02*
X00607202Y00927350D01*
X00632250Y00891600D02*
X00696250Y00955600D01*
X00573000Y00842100D02*
X00622500Y00891600D01*
X00632250D01*
X00634500Y00888100D02*
X00697000Y00950600D01*
X00644750Y00870600D02*
X00699538Y00925388D01*
X00647500Y00867100D02*
X00701000Y00920600D01*
X00642750Y00874100D02*
X00699250Y00930600D01*
X00640500Y00877600D02*
X00698500Y00935600D01*
X00597500Y00830049D02*
X00634551Y00867100D01*
X00594000Y00831499D02*
X00633101Y00870600D01*
X00650750Y00863600D02*
X00702750Y00915600D01*
X00636000Y00863600D02*
X00650750D01*
X00630750Y00874100D02*
X00642750D01*
X00638750Y00881100D02*
X00698250Y00940600D01*
X00629000Y00877600D02*
X00640500D01*
X00627250Y00881100D02*
X00638750D01*
X00623950Y00888100D02*
X00634500D01*
X00576500Y00840650D02*
X00623950Y00888100D01*
X00636750Y00884600D02*
X00697750Y00945600D01*
X00583500Y00837350D02*
X00627250Y00881100D01*
X00625750Y00884600D02*
X00636750D01*
X00601000Y00828600D02*
X00636000Y00863600D01*
X00634551Y00867100D02*
X00647500D01*
X00587000Y00835600D02*
X00629000Y00877600D01*
X00633101Y00870600D02*
X00644750D01*
X00580000Y00838850D02*
X00625750Y00884600D01*
X00569500Y00844173D02*
X00620677Y00895350D01*
X00566000Y00845622D02*
X00619228Y00898850D01*
X00663021Y00969372D02*
X00663500Y00969850D01*
X00673021Y00968695D02*
X00673500Y00969174D01*
X00566000Y00833350D02*
Y00845622D01*
X00569500Y00742850D02*
Y00844173D01*
X00576500Y00830100D02*
Y00840650D01*
X00573000Y00741400D02*
Y00842100D01*
X00580000Y00827850D02*
Y00838850D01*
X00583500Y00825850D02*
Y00837350D01*
X00587000Y00716850D02*
Y00835600D01*
X00541500Y00853850D02*
Y00856698D01*
X00552000Y00848350D02*
Y00852349D01*
X00559000Y00757900D02*
Y00849449D01*
X00562500Y00756450D02*
Y00848000D01*
X00534500Y00848350D02*
Y00859597D01*
X00555500Y00759350D02*
Y00850899D01*
X00538000Y00855300D02*
Y00858148D01*
X00545000Y00848600D02*
Y00855248D01*
X00548500Y00846850D02*
Y00853798D01*
X00530500Y00696600D02*
X00573000Y00739100D01*
X00530199Y00686350D02*
X00576500Y00732651D01*
X00573000Y00741400D02*
X00573000Y00741400D01*
X00576500Y00739950D02*
X00576500Y00739950D01*
X00576500Y00732651D02*
Y00739950D01*
X00576500Y00739950D02*
Y00830100D01*
X00573000Y00739100D02*
Y00741400D01*
X00576500Y00830100D02*
X00576500Y00830100D01*
X00899250Y00699231D02*
Y00703850D01*
X00888869Y00688850D02*
X00899250Y00699231D01*
X00882250Y00688850D02*
X00888869D01*
X00899250Y00699231D02*
X00910552D01*
X00897750Y00705350D02*
X00899250Y00703850D01*
X00897250Y00705350D02*
X00897750D01*
X00987967Y00846850D02*
X00992941Y00841877D01*
Y00751291D02*
Y00841877D01*
X00839271Y00702105D02*
X00839755D01*
X00840005Y00702355D01*
X00848200Y00711600D02*
X00848200Y00711600D01*
X00840571Y00711600D02*
X00848200D01*
X00840005Y00702355D02*
X00841005D01*
X00840250Y00711100D02*
X00840633Y00711483D01*
X00848200Y00719600D02*
X00848350Y00719450D01*
X00855032D01*
X00855416Y00719066D01*
X00862143Y00797731D02*
X00862615Y00798203D01*
X00857533Y00795600D02*
X00859663Y00797731D01*
X00862143D01*
X00848200Y00795600D02*
X00857533D01*
X00883823Y00743121D02*
X00884500D01*
X00883344Y00743600D02*
X00883823Y00743121D01*
X00875301Y00743600D02*
X00883344D01*
X00747250Y00717600D02*
X00775500Y00745850D01*
X00722802Y00726350D02*
X00731552Y00717600D01*
X00747250D01*
X00745500Y00723850D02*
X00771000Y00749350D01*
X00744500Y00723850D02*
X00745500D01*
X00775500Y00745850D02*
X00778285D01*
X00723015Y00706355D02*
X00746255D01*
X00746475Y00701575D02*
X00775750Y00730850D01*
X00744031Y00711752D02*
X00746652D01*
X00775750Y00735850D02*
X00792250D01*
X00722802Y00696350D02*
X00746250D01*
X00746652Y00711752D02*
X00775750Y00740850D01*
X00743854Y00701575D02*
X00746475D01*
X00775750Y00740850D02*
X00792250D01*
X00746250Y00696350D02*
X00775750Y00725850D01*
X00775750Y00730850D02*
X00792250D01*
X00743629Y00701350D02*
X00743854Y00701575D01*
X00743629Y00711350D02*
X00744031Y00711752D01*
X00775750Y00725850D02*
X00792250D01*
X00746255Y00706355D02*
X00775750Y00735850D01*
X00776250Y00720850D02*
X00792250D01*
X00746750Y00691350D02*
X00776250Y00720850D01*
X00743629Y00691350D02*
X00746750D01*
X00655000Y00791350D02*
Y00791850D01*
X00652750Y00794100D02*
X00655000Y00791850D01*
X00650750Y00794100D02*
X00652750D01*
X00649500Y00795350D02*
X00649625Y00795225D01*
X00649500Y00795350D02*
Y00797850D01*
X00649625Y00795225D02*
X00650750Y00794100D01*
X00968800Y00612650D02*
X00978550D01*
X00649625Y00785600D02*
Y00795225D01*
X00614750Y00809350D02*
Y00825800D01*
X00609250Y00795600D02*
X00609750D01*
X00604500Y00737689D02*
Y00799100D01*
X00609750Y00795600D02*
X00618250Y00804100D01*
X00624000Y00785850D02*
Y00795350D01*
X00604500Y00799100D02*
X00614750Y00809350D01*
X00610339Y00731850D02*
X00611000D01*
X00604500Y00737689D02*
X00610339Y00731850D01*
X00676500Y00695600D02*
Y00704100D01*
X00669750Y00688850D02*
X00676500Y00695600D01*
X00716088Y00687354D02*
X00716765D01*
X00680500Y00684100D02*
X00680646Y00683954D01*
X00690831D01*
X00677250Y00688850D02*
X00714593D01*
X00716088Y00687354D01*
X00690831Y00683954D02*
X00693422Y00681364D01*
X00672500Y00684100D02*
X00677250Y00688850D01*
X00747714Y00676886D02*
X00759679Y00688850D01*
X00743629Y00681350D02*
X00743915Y00681636D01*
X00747036D01*
X00776250Y00710850D01*
X00722802Y00686350D02*
X00746801D01*
X00678250Y00721100D02*
X00678750D01*
X00746801Y00686350D02*
X00776300Y00715850D01*
X00690257Y00697125D02*
Y00697307D01*
X00682517Y00670600D02*
X00728416D01*
X00682263Y00670854D02*
X00682517Y00670600D01*
X00660350Y00679950D02*
X00662000Y00681600D01*
X00660350Y00664930D02*
Y00679950D01*
X00519750Y00833600D02*
X00534500Y00848350D01*
X00509371Y00786350D02*
X00519750Y00796729D01*
Y00833600D01*
X00798654Y00883850D02*
X00804019Y00889215D01*
X00816384Y00876850D02*
X00816573D01*
X00804019Y00889215D02*
X00816384Y00876850D01*
X00817823Y00875600D02*
X00818500D01*
X00816573Y00876850D02*
X00817823Y00875600D01*
X00720250Y00625600D02*
X00724500D01*
X00707500Y00638350D02*
X00720250Y00625600D01*
X00661000Y00638350D02*
X00707500D01*
X00614750Y00825800D02*
X00621300Y00832350D01*
X00639750Y00827850D02*
X00695750Y00883850D01*
X00621750Y00827850D02*
X00639750D01*
X00627250Y00832350D02*
X00633041Y00838141D01*
X00621300Y00832350D02*
X00627250D01*
X00618250Y00824350D02*
X00621750Y00827850D01*
X00633041Y00838141D02*
Y00853917D01*
X00695750Y00883850D02*
X00798654D01*
X00717534Y00709369D02*
X00719515Y00711350D01*
X00695519Y00709369D02*
X00717534D01*
X00694250Y00708100D02*
X00695519Y00709369D01*
X00706750Y00715100D02*
X00711500D01*
X00693750Y00721100D02*
X00694250D01*
X00743629Y00751350D02*
X00746951D01*
X00777245Y00799350D02*
X00792250D01*
X00746951Y00751350D02*
X00754629Y00759028D01*
X00751129Y00773234D02*
X00777245Y00799350D01*
X00747001Y00756350D02*
X00751129Y00760478D01*
Y00773234D01*
X00722802Y00756350D02*
X00747001D01*
X00743629Y00761350D02*
X00747629Y00765350D01*
X00754629Y00759028D02*
Y00771785D01*
X00630250Y00616100D02*
X00637750Y00623600D01*
X00589250Y00616100D02*
X00630250D01*
X00637750Y00623600D02*
Y00629850D01*
X00747629Y00765350D02*
Y00774780D01*
X00777200Y00804350D01*
X00610520Y00684665D02*
X00613085Y00682100D01*
X00622465D01*
X00609844Y00684665D02*
X00610520D01*
X00620270Y00674850D02*
X00620350Y00674930D01*
X00614750Y00674850D02*
X00620270D01*
X00465500Y00700100D02*
X00475227Y00709827D01*
X00503976D01*
X00509005Y00714856D01*
X00858500Y00823600D02*
X00867500Y00832600D01*
X00848200Y00823600D02*
X00858500D01*
X00817500Y00852600D02*
X00822500D01*
X00817250Y00842850D02*
X00822318D01*
X00820085Y00892574D02*
X00838500Y00874159D01*
X00824959Y00864850D02*
X00825500D01*
X00824250Y00813100D02*
Y00835969D01*
X00838500Y00841100D02*
X00843850Y00835750D01*
X00822318Y00842850D02*
X00827750Y00837419D01*
X00831250Y00825900D02*
Y00838868D01*
X00834750Y00834655D02*
Y00840350D01*
X00838500Y00841100D02*
Y00874159D01*
X00822500Y00852600D02*
X00834750Y00840350D01*
X00817250Y00862850D02*
X00822959D01*
X00827750Y00815350D02*
Y00837419D01*
X00827780Y00859600D02*
X00828457D01*
X00817250Y00847850D02*
X00817400Y00848000D01*
X00840250Y00809600D02*
X00840345D01*
X00817400Y00848000D02*
X00822150D01*
X00825375Y00844775D01*
X00822369Y00837850D02*
X00824250Y00835969D01*
X00817250Y00837850D02*
X00822369D01*
X00825375Y00844743D02*
X00831250Y00838868D01*
X00825375Y00844743D02*
Y00844775D01*
X00817250Y00862850D02*
X00817250Y00862850D01*
X00822959D02*
X00824959Y00864850D01*
X00817250Y00852850D02*
X00817500Y00852600D01*
X00860000Y00865350D02*
X00865984Y00859366D01*
X00860000Y00865350D02*
Y00875850D01*
X00836500Y00899350D02*
X00860000Y00875850D01*
X00865984Y00845084D02*
Y00859366D01*
X00860500Y00839600D02*
X00865984Y00845084D01*
X00849559Y00860715D02*
Y00874791D01*
Y00860715D02*
X00859537Y00850737D01*
Y00846023D02*
Y00850737D01*
X00856729Y00843214D02*
X00859537Y00846023D01*
X00852200Y00843214D02*
X00856729D01*
X00905250Y00875778D02*
Y00877350D01*
X00902478Y00872328D02*
Y00873007D01*
X00905250Y00877350D02*
X00907998Y00880098D01*
X00902478Y00873007D02*
X00905250Y00875778D01*
X00902000Y00871850D02*
X00902478Y00872328D01*
X00865109Y00902601D02*
X00896025D01*
X00852000Y00902710D02*
X00860640Y00911350D01*
X00856533Y00915100D02*
X00884050D01*
X00891250Y00907600D02*
X00947750Y00964100D01*
X00858609Y00902601D02*
Y00902819D01*
X00863390Y00907600D02*
X00891250D01*
X00858609Y00902819D02*
X00863390Y00907600D01*
X00860640Y00911350D02*
X00887500D01*
X00945250Y00969100D01*
X00845500Y00904068D02*
X00856533Y00915100D01*
X00884050D02*
X00934688Y00965738D01*
X00826030Y00857850D02*
X00827780Y00859600D01*
X00848350Y00847750D02*
X00853953D01*
X00848350Y00843450D02*
X00851965D01*
X00852200Y00843214D01*
X00853953Y00847750D02*
X00854168Y00847964D01*
X00848200Y00839600D02*
X00860500D01*
X00817250Y00857850D02*
X00826030D01*
X00856196Y00806784D02*
Y00807169D01*
X00853012Y00803600D02*
X00856196Y00806784D01*
X00856500Y00799600D02*
X00863750Y00806850D01*
X00848200Y00799600D02*
X00856500D01*
X00868000Y00800850D02*
X00868677D01*
X00869776Y00799750D01*
X00875150D01*
X00875300Y00799600D01*
X00848200Y00843600D02*
X00848350Y00843450D01*
X00923000Y00867850D02*
Y00880850D01*
X00923000Y00867850D02*
X00923000Y00867850D01*
X00875300Y00847600D02*
X00883500D01*
X00853544Y00811600D02*
X00856294Y00814350D01*
X00605500Y00709100D02*
X00623500Y00727100D01*
X00624000D01*
X00974212Y00732562D02*
X00992941Y00751291D01*
X01019272Y00812372D02*
X01019750Y00812850D01*
X01019272Y00810604D02*
Y00812372D01*
X00934688Y00965738D02*
Y00986538D01*
X00934750Y00986600D01*
X00627500Y00985850D02*
X00639250Y00997600D01*
X00960500D01*
X00890913Y00985013D02*
X00891000Y00985100D01*
X00887663Y00985013D02*
X00890913D01*
X00851500Y00948850D02*
X00887663Y00985013D01*
X00627500Y00969558D02*
Y00985850D01*
X00558292Y00900350D02*
X00627500Y00969558D01*
X00934688Y00965738D02*
Y00965738D01*
X00943050Y00974100D02*
X00976000D01*
X00934688Y00965738D02*
X00943050Y00974100D01*
X00824750Y00686850D02*
Y00695850D01*
Y00671100D02*
Y00675850D01*
X00827485Y00668365D02*
X00897765D01*
X00824750Y00671100D02*
X00827485Y00668365D01*
X00839354Y00675600D02*
X00894250D01*
X00838113Y00676841D02*
X00839354Y00675600D01*
X00651451Y00686173D02*
Y00686850D01*
X00650350Y00685072D02*
X00651451Y00686173D01*
X00650350Y00674930D02*
Y00685072D01*
X00498000Y00835109D02*
X00637250Y00974359D01*
Y00985350D01*
X00649500Y00695350D02*
X00649533Y00695383D01*
Y00704284D01*
X00649566Y00704317D01*
X00618863Y00695237D02*
X00624387D01*
X00614500Y00699600D02*
X00618863Y00695237D01*
X00625100Y00675180D02*
Y00679465D01*
X00622465Y00682100D02*
X00625100Y00679465D01*
Y00675180D02*
X00625350Y00674930D01*
X00627068Y00686600D02*
X00630350Y00683318D01*
X00614594Y00689444D02*
X00617438Y00686600D01*
X00627068D01*
X00632989Y00685629D02*
Y00687397D01*
X00630350Y00674930D02*
Y00683318D01*
X00632511Y00687875D02*
X00632989Y00687397D01*
Y00685629D02*
X00635350Y00683268D01*
Y00674930D02*
Y00683268D01*
X00981250Y00633350D02*
X00982006Y00634106D01*
X00975500Y00627600D02*
X00981250Y00633350D01*
X00667350Y00661266D02*
Y00681159D01*
X00670291Y00684100D01*
X00672500D01*
X00678750Y00706350D02*
Y00708100D01*
X00676500Y00704100D02*
X00678750Y00706350D01*
X00605500Y00694635D02*
Y00709100D01*
X00686750Y00700814D02*
X00690257Y00697307D01*
X00686750Y00700814D02*
Y00718100D01*
X00683750Y00721100D02*
X00686750Y00718100D01*
X00542248Y00775350D02*
X00542750D01*
X00527998Y00761100D02*
X00542248Y00775350D01*
X00535851Y00716350D02*
X00566000Y00746499D01*
X00530199Y00716350D02*
X00535851D01*
X00487250Y00809864D02*
Y00825850D01*
Y00809864D02*
X00505755Y00791359D01*
X00498000Y00825850D02*
Y00835109D01*
X00516250Y00865350D02*
Y00870600D01*
X00507500Y00879350D02*
X00516250Y00870600D01*
X00547250Y00900350D02*
X00558292D01*
X00538000Y00788545D02*
Y00855300D01*
X00538000Y00855300D01*
X00541500Y00853850D02*
X00541500Y00853850D01*
X00541500Y00785767D02*
Y00853850D01*
X00810500Y00937568D02*
X00820533Y00947600D01*
X00824250D01*
X00810500Y00891338D02*
Y00937568D01*
X00945250Y00969100D02*
X00964012D01*
X00851500Y00940591D02*
Y00948850D01*
X00836500Y00913850D02*
X00881273Y00958623D01*
Y00966118D01*
X00828111Y00917202D02*
X00851500Y00940591D01*
X00701875Y00756475D02*
Y00762975D01*
X00701750Y00763100D02*
X00701875Y00762975D01*
Y00756475D02*
X00702000Y00756350D01*
X00706254Y00751854D02*
X00710754D01*
X00713250Y00754350D01*
X00695500Y00741100D02*
X00706254Y00751854D01*
X00676250Y00744600D02*
X00685000D01*
X00694250Y00753850D02*
Y00763350D01*
X00685000Y00744600D02*
X00694250Y00753850D01*
X00707480Y00788740D02*
X00709480D01*
X00705480Y00785568D02*
Y00786740D01*
X00705480Y00785568D02*
X00705480Y00785568D01*
X00705480Y00783797D02*
Y00785568D01*
X00702500Y00780600D02*
Y00780817D01*
X00705480Y00786740D02*
X00707480Y00788740D01*
X00702500Y00780817D02*
X00705480Y00783797D01*
X00745750Y00838600D02*
X00774750Y00867600D01*
X00722802Y00811350D02*
X00745750Y00834298D01*
Y00838600D01*
X00909500Y00772350D02*
Y00788350D01*
X00903570Y00706686D02*
Y00766422D01*
X00907998Y00770850D02*
X00908000D01*
X00903570Y00766422D02*
X00907998Y00770850D01*
X00908000D02*
X00909500Y00772350D01*
X00682061Y00788658D02*
X00688808D01*
X00681980Y00788740D02*
X00682061Y00788658D01*
X00701000Y00800850D02*
Y00816350D01*
X00688808Y00788658D02*
X00701000Y00800850D01*
X00597750Y00648850D02*
X00598250D01*
X00596250Y00646850D02*
Y00647350D01*
X00588500Y00632600D02*
Y00639100D01*
X00596250Y00646850D01*
Y00647350D02*
X00597750Y00648850D01*
X00590500Y00679635D02*
X00605500Y00694635D01*
X00583000Y00655350D02*
X00590500Y00662850D01*
Y00679635D01*
X00583000Y00622350D02*
Y00655350D01*
Y00622350D02*
X00589250Y00616100D01*
X00629250Y00625600D02*
Y00634850D01*
X00635350Y00640950D02*
Y00649930D01*
X00629250Y00634850D02*
X00635350Y00640950D01*
X00653250Y00625600D02*
X00667250Y00625600D01*
X00640350Y00638500D02*
X00653250Y00625600D01*
X00640350Y00638500D02*
Y00649930D01*
X00657750Y00634850D02*
X00696000D01*
X00705250Y00625600D01*
X00681000Y00630850D02*
X00686250Y00625600D01*
X00655000Y00630850D02*
X00681000D01*
X00650350Y00642250D02*
X00657750Y00634850D01*
X00655381Y00643969D02*
X00661000Y00638350D01*
X00729512Y00644350D02*
X00732512Y00641350D01*
X00929101D01*
X00728787Y00637850D02*
X00930550D01*
X00724519Y00642100D02*
X00726113Y00640506D01*
X00726131D02*
X00728787Y00637850D01*
X00726113Y00640506D02*
X00726131D01*
X00723843Y00642100D02*
X00724519D01*
X00726246Y00634350D02*
X00932000D01*
X00724163Y00635756D02*
X00724840D01*
X00726246Y00634350D01*
X00932000D02*
X00960250Y00662600D01*
X00930550Y00637850D02*
X00956750Y00664050D01*
X00694000Y00763600D02*
X00694250Y00763350D01*
X00683000Y00763600D02*
Y00772600D01*
X00663500Y00760850D02*
X00669000D01*
X00656750Y00754100D02*
X00663500Y00760850D01*
Y00767600D01*
X00656250Y00754100D02*
X00656750D01*
X00639250Y00685674D02*
X00640350Y00684573D01*
X00639250Y00685674D02*
Y00686350D01*
X00640350Y00674930D02*
Y00684573D01*
X00707228Y00726578D02*
Y00729078D01*
X00711422Y00737022D02*
X00712750Y00738350D01*
X00707228Y00729078D02*
X00711422Y00733272D01*
Y00737022D01*
X00678750Y00721100D02*
X00683750D01*
X00694250D02*
X00700750D01*
X00706750Y00715100D01*
X00672296Y00679104D02*
X00680730D01*
X00685730Y00674104D01*
X00974750Y00705600D02*
X01006000Y00736850D01*
X00972663Y00721600D02*
X00997000Y00745936D01*
X00974716Y00714062D02*
X01001500Y00740846D01*
X00681750Y00779350D02*
X00682228Y00778872D01*
X00670250Y00777600D02*
X00677980Y00785330D01*
Y00786740D02*
X00679980Y00788740D01*
X00677980Y00785330D02*
Y00786740D01*
X00679980Y00788740D02*
X00681980D01*
X00693422Y00681364D02*
X00697486D01*
X00685730Y00674104D02*
X00729862D01*
X00686750Y00665850D02*
X00696500Y00656100D01*
X00679263Y00664603D02*
X00691266Y00652600D01*
X00673263Y00662103D02*
X00686266Y00649100D01*
X00735067D01*
X00691266Y00652600D02*
X00736516D01*
X00696500Y00656100D02*
X00737966D01*
X00673263Y00662103D02*
X00673263D01*
X00655350Y00649930D02*
X00655381Y00649899D01*
Y00643969D02*
Y00649899D01*
X00544000Y00691850D02*
X00580000Y00727850D01*
Y00827850D01*
X00583500Y00722350D02*
Y00825850D01*
X00597500Y00817100D02*
X00597500Y00817100D01*
X00597500Y00701600D02*
Y00817100D01*
X00601000Y00696850D02*
Y00828600D01*
X00530250Y00703600D02*
X00569500Y00742850D01*
X00566000Y00746499D02*
Y00833350D01*
X00719250Y00771350D02*
X00734300D01*
X00722802Y00766350D02*
X00734250D01*
X01010500Y00731850D02*
Y00825600D01*
X00997000Y00745936D02*
Y00845350D01*
X01001500Y00740846D02*
Y00838850D01*
X01006000Y00736850D02*
Y00832100D01*
X00712750Y00755350D02*
Y00763600D01*
X00713250Y00754350D02*
Y00754850D01*
X00701750Y00763600D02*
Y00772600D01*
X00706750Y00726100D02*
X00707228Y00726578D01*
X00728416Y00670600D02*
X00743666Y00655350D01*
X00729862Y00674104D02*
X00745116Y00658850D01*
X00740766Y00648350D02*
X00926201D01*
X00745116Y00658850D02*
X00921852D01*
X00739317Y00644850D02*
X00927651D01*
X00742216Y00651850D02*
X00924751D01*
X00743666Y00655350D02*
X00923302D01*
X00566000Y00833350D02*
X00566000Y00833350D01*
X00559000Y00757900D02*
X00559000Y00757900D01*
X00559000Y00755151D02*
Y00757900D01*
X00530199Y00726350D02*
X00559000Y00755151D01*
X00527500Y00731350D02*
X00555500Y00759350D01*
X00761629Y00755879D02*
Y00768885D01*
X00747100Y00741350D02*
X00761629Y00755879D01*
X00768750Y00766000D02*
X00777100Y00774350D01*
X00768750Y00752850D02*
Y00766000D01*
X00969250Y00690600D02*
X01010500Y00731850D01*
X01014772Y00726622D02*
Y00817122D01*
X01024750Y00717600D02*
Y00821350D01*
X00970750Y00682600D02*
X01014772Y00726622D01*
X01019272Y00721622D02*
Y00810604D01*
X00973750Y00666600D02*
X01024750Y00717600D01*
X00972250Y00674600D02*
X01019272Y00721622D01*
X00696250Y00955600D02*
X00702750D01*
X00699250Y00930600D02*
X00723578D01*
X00698500Y00935600D02*
X00702750D01*
X00698250Y00940600D02*
X00723578D01*
X00697750Y00945600D02*
X00702750D01*
X00702538Y00925388D02*
X00702750Y00925600D01*
X00697000Y00950600D02*
X00723578D01*
X00701000Y00920600D02*
X00723578D01*
X00828111Y00896239D02*
X00849559Y00874791D01*
X00828111Y00896239D02*
Y00917202D01*
X00836500Y00899350D02*
Y00913850D01*
X00701000Y00816350D02*
X00708125Y00823475D01*
X00920535Y00714285D02*
Y00740315D01*
X00971212Y00714062D02*
X00974716D01*
X00972250Y00721600D02*
X00972663D01*
X00973750Y00729600D02*
X00974212Y00730062D01*
Y00732562D01*
X00970750Y00713600D02*
X00971212Y00714062D01*
X00969250Y00705600D02*
X00974750D01*
X00843850Y00835750D02*
X00848050D01*
X00834750Y00834655D02*
X00836000Y00833405D01*
Y00832729D02*
Y00833405D01*
X00848050Y00835750D02*
X00848200Y00835600D01*
X00885500Y00699533D02*
Y00699701D01*
X00881600Y00703600D02*
X00885500Y00699701D01*
X00887321Y00694171D02*
X00891750Y00698600D01*
X00884125Y00693692D02*
X00884603Y00694171D01*
X00887321D01*
X00875300Y00703600D02*
X00881600D01*
X00891750Y00698600D02*
Y00706100D01*
X00886250Y00711600D02*
X00891750Y00706100D01*
X00875301Y00711600D02*
X00886250D01*
X00905756Y00704500D02*
X00910320D01*
X00910570Y00704250D01*
X00903570Y00706686D02*
X00905756Y00704500D01*
X00875450Y00691450D02*
X00879650D01*
X00882250Y00688850D01*
X00875300Y00691600D02*
X00875450Y00691450D01*
X00865000Y00691850D02*
X00868750Y00695600D01*
X00875300D01*
X00865000Y00719167D02*
X00869433Y00723600D01*
X00875300D01*
X00865676Y00713140D02*
X00868137Y00715600D01*
X00875300D01*
X00865000Y00713140D02*
X00865676D01*
X00865000Y00707140D02*
X00865310Y00707450D01*
X00875150D02*
X00875300Y00707600D01*
X00865310Y00707450D02*
X00875150D01*
X00860250Y00688100D02*
Y00722284D01*
X00852336Y00707450D02*
X00855250Y00704536D01*
Y00704350D02*
Y00704536D01*
X00848350Y00707450D02*
X00852336D01*
X00865676Y00698600D02*
X00866677Y00699600D01*
X00865000Y00698600D02*
X00865676D01*
X00866677Y00699600D02*
X00875300D01*
X00856750Y00725784D02*
X00860250Y00722284D01*
X00841548Y00719600D02*
X00848200D01*
X00856750Y00725784D02*
Y00726350D01*
X00848200Y00723600D02*
X00854000D01*
X00856750Y00726350D01*
X00848350Y00715450D02*
X00852336D01*
X00852535Y00715250D02*
X00852535D01*
X00852336Y00715450D02*
X00852535Y00715250D01*
X00852535D02*
X00855500Y00712286D01*
Y00711850D02*
Y00712286D01*
X00860250Y00688100D02*
X00865750Y00682600D01*
X00891000D01*
X00852336Y00699450D02*
X00855250Y00696536D01*
Y00696263D02*
Y00696536D01*
X00848200Y00699600D02*
X00848350Y00699450D01*
X00852336D01*
X00848200Y00707600D02*
X00848350Y00707450D01*
X00875300Y00723600D02*
X00875300Y00723600D01*
X00902650Y00694250D02*
X00910570D01*
X00891000Y00682600D02*
X00902650Y00694250D01*
X00902900Y00689250D02*
X00910570D01*
X00845630Y00679100D02*
X00892750D01*
X00902900Y00689250D01*
X00841508Y00830350D02*
X00842185D01*
X00843285Y00831450D01*
X00848050D01*
X00848200Y00831600D01*
X00836047Y00820613D02*
X00841250D01*
X00842263Y00819600D01*
X00848200D01*
X00836000Y00820660D02*
X00836047Y00820613D01*
X00839772Y00810078D02*
X00840250Y00809600D01*
X00838350Y00810078D02*
X00839772D01*
X00831250Y00817178D02*
X00838350Y00810078D01*
X00831250Y00817178D02*
Y00825900D01*
X00831250Y00825900D02*
X00831250Y00825900D01*
X00839314Y00815600D02*
X00848200D01*
X01019750Y00826350D02*
X01024750Y00821350D01*
X00918428Y00612978D02*
X00927378D01*
X00942000Y00627600D02*
X00975500D01*
X00918050Y00612600D02*
X00918428Y00612978D01*
X00927378D02*
X00942000Y00627600D01*
X01006000Y00832100D02*
X01006250Y00832350D01*
X01010500Y00825600D02*
X01010750Y00825850D01*
X01014772Y00817122D02*
X01014772Y00817122D01*
Y00818872D02*
X01015250Y00819350D01*
X01014772Y00817122D02*
Y00818872D01*
X01019272Y00810604D02*
X01019272Y00810604D01*
X00778286Y00745850D02*
X00802250D01*
X00975250Y00801350D02*
X00987750D01*
X00882364Y00803600D02*
X00891114Y00794850D01*
X00583500Y00825850D02*
X00583500Y00825850D01*
X00580000Y00827850D02*
X00580000Y00827850D01*
X00532305Y00782850D02*
Y00782850D01*
X00538000Y00788545D01*
X00509371Y00776350D02*
X00532083D01*
X00541500Y00785767D01*
X00545000Y00784317D02*
Y00848600D01*
X00545000Y00848600D01*
X00548500Y00846850D02*
X00548500Y00846850D01*
X00548500Y00786995D02*
Y00846850D01*
X00552000Y00848350D02*
X00552000Y00848350D01*
X00552000Y00788445D02*
Y00848350D01*
X00699538Y00925388D02*
X00702538D01*
X00597500Y00817100D02*
Y00830049D01*
X00618250Y00804100D02*
Y00824350D01*
X00976000Y00974100D02*
X00976250Y00973850D01*
X00804019Y00889215D02*
Y00944363D01*
X00552000Y00781100D02*
X00552000Y00781101D01*
X00548500Y00782551D02*
Y00786994D01*
X00552000Y00788445D02*
X00552000Y00788444D01*
X00548500Y00786995D02*
X00548500Y00786994D01*
X00548500Y00782550D02*
X00548500Y00782551D01*
X00552000Y00781101D02*
Y00788444D01*
X00720625Y00823475D02*
X00773500Y00876350D01*
X00719684Y00817534D02*
X00775000Y00872850D01*
X00774750Y00867600D02*
X00792000D01*
X00775150Y00862850D02*
X00792250D01*
X00773649Y00861350D02*
X00775150Y00862850D01*
X00773649Y00861350D02*
X00773649D01*
X00749250Y00836951D02*
X00773649Y00861350D01*
X00775049Y00852850D02*
X00792250D01*
X00756250Y00834051D02*
X00775049Y00852850D01*
X00774999Y00847850D02*
X00792250D01*
X00759750Y00832601D02*
X00774999Y00847850D01*
X00682228Y00773372D02*
Y00778872D01*
Y00773372D02*
X00683000Y00772600D01*
X00845347Y00663882D02*
X00912532D01*
X00669750Y00777600D02*
X00670250D01*
X00562500Y00756450D02*
X00562500Y00756450D01*
X00562500Y00750600D02*
Y00756450D01*
X00562500Y00750600D02*
X00562500Y00750600D01*
X00552000Y00763152D02*
Y00781100D01*
X00548500Y00766850D02*
Y00782550D01*
X00527033Y00766350D02*
X00545000Y00784317D01*
X00530199Y00781350D02*
X00530740D01*
X00881103Y00751600D02*
X00883521Y00754018D01*
X00875300Y00751600D02*
X00881103D01*
X00911742Y00714250D02*
X00920570D01*
X00910570Y00713079D02*
X00911742Y00714250D01*
X00910570Y00709250D02*
Y00713079D01*
X00836145Y00672091D02*
X00895991D01*
X00834521Y00690209D02*
X00845630Y00679100D01*
X00645350Y00640500D02*
Y00649930D01*
Y00640500D02*
X00655000Y00630850D01*
X00896025Y00902601D02*
X00952524Y00959100D01*
X00947750Y00964100D02*
X00957406D01*
X00528000Y00746350D02*
X00548500Y00766850D01*
X00503250Y00766350D02*
X00527033D01*
X00509371Y00746350D02*
X00528000D01*
X00507250Y00761100D02*
X00527998D01*
X00845500Y00902710D02*
Y00904068D01*
X00891114Y00794850D02*
X00902750D01*
X00875300Y00803600D02*
X00882364D01*
X00923000Y00867850D02*
X00931000D01*
X00820085Y00892574D02*
Y00921935D01*
X00825500Y00872850D02*
Y00876338D01*
X00810500Y00891338D02*
X00825500Y00876338D01*
X00820085Y00921935D02*
X00835750Y00937600D01*
Y00967850D01*
X00848200Y00847600D02*
X00848350Y00847750D01*
X00857330Y00831930D02*
Y00833428D01*
X00858000Y00834098D02*
Y00834350D01*
X00857330Y00833428D02*
X00858000Y00834098D01*
X00841750Y00795600D02*
X00848200D01*
X00843500Y00799600D02*
X00848200D01*
X00827750Y00815350D02*
X00843500Y00799600D01*
X00824250Y00813100D02*
X00841750Y00795600D01*
X00820750Y00868100D02*
X00825500Y00872850D01*
X00817250Y00857850D02*
X00817250Y00857850D01*
X00805123Y00664515D02*
X00805158Y00664550D01*
X00795639Y00664515D02*
X00805123D01*
X00791519Y00668636D02*
X00795639Y00664515D01*
X00832020Y00676216D02*
Y00684604D01*
Y00676216D02*
X00836145Y00672091D01*
X00697486Y00681364D02*
X00697750Y00681100D01*
X00791989Y00843111D02*
X00792250Y00842850D01*
X00776011Y00843111D02*
X00791989D01*
X00763250Y00830350D02*
X00775750Y00842850D01*
X00776011Y00843111D01*
X00777461Y00839612D02*
X00786132D01*
X00766750Y00828900D02*
X00777461Y00839612D01*
X00786132D02*
X00787894Y00837850D01*
X00792250D01*
X00805914Y00820850D02*
X00807250Y00822186D01*
Y00827850D02*
X00807250Y00827850D01*
X00807250Y00822186D02*
Y00827850D01*
X00797250Y00820850D02*
X00805914D01*
X00912532Y00663882D02*
X00917492Y00668842D01*
X00920320D01*
X00920570Y00669092D02*
Y00669250D01*
X00920320Y00668842D02*
X00920570Y00669092D01*
X00941398Y00679250D02*
X00942570Y00678078D01*
X00935570Y00679250D02*
X00941398D01*
X00942450Y00684250D02*
X00946070Y00680631D01*
X00935570Y00684250D02*
X00942450D01*
X00942600Y00704250D02*
X00960250Y00686600D01*
Y00662600D02*
Y00686600D01*
X00935570Y00704250D02*
X00942600D01*
X00935570Y00699250D02*
X00942349D01*
X00942401Y00689250D02*
X00949570Y00682080D01*
X00953250Y00665499D02*
Y00683350D01*
X00946070Y00668219D02*
Y00680631D01*
X00956750Y00664050D02*
Y00684849D01*
X00942350Y00694250D02*
X00953250Y00683350D01*
X00949570Y00666769D02*
Y00682080D01*
X00935570Y00694250D02*
X00942350D01*
X00935570Y00689250D02*
X00942401D01*
X00942349Y00699250D02*
X00956750Y00684849D01*
X00942570Y00669669D02*
Y00678078D01*
X00921852Y00658850D02*
X00925570Y00662568D01*
Y00669250D01*
X00927651Y00644850D02*
X00949570Y00666769D01*
X00935570Y00667618D02*
Y00674250D01*
X00926201Y00648350D02*
X00946070Y00668219D01*
X00929101Y00641350D02*
X00953250Y00665499D01*
X00923302Y00655350D02*
X00935570Y00667618D01*
X00924751Y00651850D02*
X00942570Y00669669D01*
X00895991Y00672091D02*
X00903150Y00679250D01*
X00840521Y00690927D02*
X00840999Y00691405D01*
Y00692849D01*
X00843750Y00695600D01*
X00834521Y00690209D02*
Y00712573D01*
X00841548Y00719600D01*
X00843750Y00695600D02*
X00848200D01*
X00655350Y00682559D02*
X00657262Y00684471D01*
Y00685354D01*
X00875300Y00763600D02*
X00880750D01*
X00884000Y00760350D01*
X00660350Y00659930D02*
X00660514Y00660094D01*
X00666179D01*
X00667350Y00661266D01*
X00817250Y00867850D02*
X00817500Y00868100D01*
X00820750D01*
X00853000Y00827600D02*
X00857330Y00831930D01*
X00897765Y00668365D02*
X00903650Y00674250D01*
X00735067Y00649100D02*
X00739317Y00644850D01*
X00736516Y00652600D02*
X00740766Y00648350D01*
X00737966Y00656100D02*
X00742216Y00651850D01*
X00882925Y00733892D02*
X00883312D01*
X00881216Y00735600D02*
X00882925Y00733892D01*
X00791519Y00668636D02*
Y00668636D01*
X00788055Y00672100D02*
X00791519Y00668636D01*
X00784750Y00672100D02*
X00788055D01*
X00975250Y00827350D02*
X00987750D01*
X00975250Y00814350D02*
X00987750D01*
X00975250Y00833850D02*
X00987750D01*
X00975250Y00840350D02*
X00987750D01*
X00975250Y00807850D02*
X00987750D01*
X00645261Y00685104D02*
X00645350Y00685015D01*
X00749250Y00816344D02*
Y00836951D01*
X00744766Y00811860D02*
X00749250Y00816344D01*
X00741250Y00801350D02*
X00752750Y00812850D01*
X00740459Y00795610D02*
X00756250Y00811400D01*
X00741159Y00791359D02*
X00759750Y00809951D01*
X00722509Y00791359D02*
X00741159D01*
X00759750Y00809951D02*
Y00832601D01*
X00719015Y00795610D02*
X00740459D01*
X00756250Y00811400D02*
Y00832095D01*
X00756250Y00832095D01*
Y00834051D01*
X00722802Y00801350D02*
X00741250D01*
X00752750Y00812850D02*
Y00835501D01*
X00742516Y00786609D02*
X00763250Y00807343D01*
Y00830350D01*
X00797500Y00827850D02*
X00802250D01*
X00802250Y00827850D01*
X00719684Y00817391D02*
Y00817534D01*
X00775000Y00872850D02*
X00802250D01*
X00719184Y00816891D02*
X00719684Y00817391D01*
X00719184Y00816350D02*
Y00816891D01*
X00784500Y00704600D02*
X00785041D01*
X00786292Y00705850D01*
X00848200Y00715600D02*
X00848350Y00715450D01*
X00865278Y00731600D02*
X00875300D01*
X00848200Y00811600D02*
X00853544D01*
X00848200Y00803600D02*
X00853012D01*
X00841005Y00702355D02*
X00842172Y00703522D01*
X00864772Y00732106D02*
X00865278Y00731600D01*
X00865483Y00726100D02*
X00866983Y00727600D01*
X00864500Y00726100D02*
X00865483D01*
X00866983Y00727600D02*
X00875300D01*
X00721000Y00806350D02*
X00730750D01*
X00711480Y00800240D02*
X00714890D01*
X00721000Y00806350D01*
X00720750Y00789600D02*
X00722509Y00791359D01*
X00766879Y00798979D02*
X00777250Y00809350D01*
X00802250D01*
X00734250Y00766350D02*
X00746179Y00778280D01*
X00766750Y00803800D02*
Y00828900D01*
X00765429Y00802479D02*
X00766750Y00803800D01*
X00734300Y00771350D02*
X00744730Y00781780D01*
X00765429Y00802479D01*
X00746179Y00778280D02*
X00766879Y00798979D01*
X00968500Y00846850D02*
X00987967D01*
X00759679Y00688850D02*
X00767000D01*
X00645350Y00674930D02*
Y00685015D01*
X00709480Y00798240D02*
X00711480Y00800240D01*
X00840345Y00809600D02*
X00842346Y00807600D01*
X00848200D01*
X00848200Y00827600D02*
X00853000D01*
X00860750Y00759600D02*
X00861000Y00759850D01*
X00848200Y00759600D02*
X00860750D01*
X00875300Y00735600D02*
X00881216D01*
X00783000Y00825850D02*
X00792250D01*
X00797250Y00820850D01*
X00848200Y00807600D02*
X00848200Y00807600D01*
X00864500Y00726100D02*
X00864883Y00726483D01*
X00884101Y00717100D02*
X00884500D01*
X00875300Y00719600D02*
X00881600D01*
X00884101Y00717100D01*
X00775422Y00820350D02*
X00788250D01*
X00777200Y00804350D02*
X00792250D01*
X00777144Y00789350D02*
X00792250D01*
X00777094Y00784350D02*
X00792250D01*
X00777194Y00794350D02*
X00792250D01*
X00774250Y00819178D02*
X00775422Y00820350D01*
X00774250Y00825850D02*
X00783000D01*
X00708125Y00823475D02*
X00720625D01*
X00730750Y00806350D02*
X00744250Y00819850D01*
X00867940Y00739600D02*
X00875300D01*
X00867940Y00747600D02*
X00875300D01*
X00782500Y00676100D02*
Y00688850D01*
Y00674350D02*
Y00676100D01*
X00848200Y00695600D02*
X00848200Y00695600D01*
X00854343Y00691600D02*
X00854923Y00691020D01*
X00754629Y00771785D02*
X00777194Y00794350D01*
X00761629Y00768885D02*
X00777094Y00784350D01*
X00776300Y00715850D02*
X00784250D01*
X00784250Y00715850D01*
X00792250D01*
X00776250Y00710850D02*
X00792250D01*
X00848200Y00691600D02*
X00854343D01*
X00875300Y00711600D02*
X00875301Y00711600D01*
X00796269Y00670603D02*
Y00671145D01*
X00795250Y00672163D02*
X00796269Y00671145D01*
X00795250Y00672163D02*
Y00675850D01*
X00795250Y00675850D01*
X00894250Y00675600D02*
X00902900Y00684250D01*
X00782500Y00674350D02*
X00784750Y00672100D01*
X00773500Y00876350D02*
X00796464D01*
X00614864Y00632600D02*
X00625350Y00643086D01*
Y00649930D01*
X00598000Y00632600D02*
X00614864D01*
X00591000Y00625600D02*
X00598000Y00632600D01*
X00610250Y00625600D02*
X00614250D01*
X00630350Y00641700D01*
X00954700Y00623850D02*
X00980750D01*
X00990250Y00633350D01*
X00978550Y00612650D02*
X00999250Y00633350D01*
X00943450Y00612600D02*
X00954700Y00623850D01*
X00530199Y00741350D02*
X00552000Y00763152D01*
X00786292Y00705850D02*
X00792250D01*
X00842250Y00703600D02*
X00848200D01*
X00774250Y00814850D02*
Y00819178D01*
X00778285Y00745850D02*
X00778286Y00745850D01*
X00772750Y00749350D02*
X00774250Y00750850D01*
X00771000Y00749350D02*
X00772750D01*
X00802000Y00764100D02*
X00802250Y00764350D01*
X00797750Y00764100D02*
X00802000D01*
X00923000Y00867850D02*
X00923000Y00867850D01*
X00796464Y00876350D02*
X00799964Y00879850D01*
X00805914D01*
X00807086Y00873014D02*
X00807250Y00872850D01*
X00807086Y00873014D02*
Y00878679D01*
X00805914Y00879850D02*
X00807086Y00878679D01*
X00752750Y00835501D02*
X00775099Y00857850D01*
X00920535Y00714285D02*
X00920570Y00714250D01*
X00920500Y00740350D02*
X00920535Y00740315D01*
X00599781Y00659890D02*
X00615310D01*
X00598250Y00661421D02*
Y00667350D01*
Y00661421D02*
X00599781Y00659890D01*
X00615310D02*
X00615350Y00659930D01*
X00616522Y00650100D02*
X00620180D01*
X00615350Y00651272D02*
Y00659930D01*
Y00651272D02*
X00616522Y00650100D01*
X00620180D02*
X00620350Y00649930D01*
X00816078Y00700350D02*
X00817250Y00701522D01*
X00807500Y00700350D02*
X00816078D01*
X00817250Y00701522D02*
Y00705850D01*
X00807250Y00694100D02*
Y00700600D01*
Y00700850D01*
Y00700600D02*
X00807500Y00700350D01*
X00810000Y00686850D02*
Y00691350D01*
X00807250Y00694100D02*
X00810000Y00691350D01*
X00795250Y00686850D02*
X00810000D01*
X00802750Y00681600D02*
X00803420Y00680930D01*
Y00676680D02*
Y00680930D01*
Y00676680D02*
X00804250Y00675850D01*
X00810000D01*
X00807250Y00827850D02*
X00815500D01*
X00817250Y00829600D02*
Y00832850D01*
X00815500Y00827850D02*
X00817250Y00829600D01*
X00775099Y00857850D02*
X00792250D01*
X00902900Y00684250D02*
X00910570D01*
X00903150Y00679250D02*
X00910570D01*
X00903650Y00674250D02*
X00910570D01*
X00975250Y00820850D02*
X00987750Y00820850D01*
X00765129Y00754229D02*
Y00767436D01*
X00655350Y00674930D02*
Y00682559D01*
X00509371Y00721350D02*
X00533250D01*
X00562500Y00750600D01*
X00509371Y00731350D02*
X00527500D01*
X00530740Y00781350D02*
X00532240Y00782850D01*
X00532305D01*
X00650350Y00642250D02*
Y00649930D01*
X00630350Y00641700D02*
Y00649930D01*
X00777100Y00774350D02*
X00792250D01*
X00765129Y00767436D02*
X00777043Y00779350D01*
X00792250D01*
X00722802Y00746350D02*
X00746901D01*
X00758130Y00757578D01*
Y00770335D01*
X00777144Y00789350D01*
X00792000Y00867600D02*
X00792250Y00867850D01*
X00889750Y00801350D02*
X00902750D01*
X00883500Y00807600D02*
X00889750Y00801350D01*
X00875300Y00807600D02*
X00883500D01*
X00888550Y00807850D02*
X00902750D01*
X00884800Y00811600D02*
X00888550Y00807850D01*
X00875300Y00811600D02*
X00884800D01*
X00887000Y00814350D02*
X00902750D01*
X00885750Y00815600D02*
X00887000Y00814350D01*
X00875300Y00815600D02*
X00885750D01*
X00887000Y00820850D02*
X00902750D01*
X00885750Y00819600D02*
X00887000Y00820850D01*
X00875300Y00819600D02*
X00885750D01*
X00888550Y00827350D02*
X00902750D01*
X00884800Y00823600D02*
X00888550Y00827350D01*
X00875300Y00823600D02*
X00884800D01*
X00889750Y00833850D02*
X00902750D01*
X00883500Y00827600D02*
X00889750Y00833850D01*
X00875300Y00827600D02*
X00883500D01*
X00891000Y00840350D02*
X00902750D01*
X00882250Y00831600D02*
X00891000Y00840350D01*
X00875300Y00831600D02*
X00882250D01*
D13*
X01020112Y00991130D02*
Y01003126D01*
X01026110Y00997128D01*
X01018112D01*
D14*
X00866772Y00793609D02*
X00867584D01*
X00860250Y00791600D02*
X00860750Y00792100D01*
X00848200Y00791600D02*
X00860250D01*
X00861282Y00786252D02*
X00862094D01*
X00859934Y00787600D02*
X00861282Y00786252D01*
X00867940Y00787600D02*
X00875300D01*
X00829779Y00753379D02*
X00838240D01*
X00819871Y00743471D02*
X00829779Y00753379D01*
X00822250Y00758100D02*
X00840069D01*
X00810000Y00745850D02*
X00822250Y00758100D01*
X00823216Y00735876D02*
X00834844Y00747504D01*
X00823140Y00730850D02*
X00835914Y00743624D01*
X00834844Y00747504D02*
Y00747995D01*
X00823090Y00725850D02*
X00836840Y00739600D01*
X00837823Y00735633D02*
X00848167D01*
X00823040Y00720850D02*
X00837823Y00735633D01*
X00839657Y00732606D02*
X00843562D01*
X00822901Y00715850D02*
X00839657Y00732606D01*
X00822750Y00774350D02*
X00827250Y00769850D01*
Y00762850D02*
Y00769850D01*
Y00762850D02*
X00827500Y00762600D01*
X00841750D01*
X00835399Y00771600D02*
X00851832D01*
X00822650Y00784350D02*
X00835399Y00771600D01*
X00836349Y00775600D02*
X00848200D01*
X00822599Y00789350D02*
X00836349Y00775600D01*
X00837410Y00779600D02*
X00848200D01*
X00822910Y00794100D02*
X00837410Y00779600D01*
X00838359Y00783600D02*
X00848200D01*
X00822859Y00799100D02*
X00838359Y00783600D01*
X00839400Y00787600D02*
X00859934D01*
X00844568Y00731600D02*
X00858766D01*
X00857232Y00783600D02*
X00861250Y00779582D01*
Y00773350D02*
Y00779582D01*
X00848200Y00783600D02*
X00857232D01*
X00885938Y00784600D02*
X00886500D01*
X00884750Y00793350D02*
X00885000Y00793600D01*
X00887637Y00765608D02*
X00888023D01*
X00861658Y00766358D02*
X00861772D01*
X00867750Y00767750D02*
X00871600Y00771600D01*
X00852457Y00775559D02*
X00861658Y00766358D01*
X00868000Y00781350D02*
X00869750Y00779600D01*
X00884188Y00793350D02*
X00884750D01*
X00884938Y00783600D02*
X00885938Y00784600D01*
X00875300Y00775600D02*
X00881221D01*
X00882922Y00773900D01*
X00869750Y00779600D02*
X00875300D01*
X00882438Y00791600D02*
X00884188Y00793350D01*
X00875300Y00783600D02*
X00884938D01*
X00875300Y00791600D02*
X00882438D01*
X00842569Y00755600D02*
X00848200D01*
X00840069Y00758100D02*
X00842569Y00755600D01*
X00835914Y00743624D02*
X00848224D01*
X00848200Y00743600D02*
X00848200Y00743600D01*
X00853000D01*
X00855476Y00746076D01*
X00848167Y00735633D02*
X00848200Y00735600D01*
X00836840Y00739600D02*
X00848200D01*
X00843562Y00732606D02*
X00844568Y00731600D01*
X00840840Y00727600D02*
X00848200D01*
X00848200Y00727600D01*
X00848200Y00735600D02*
X00855008D01*
X00855476Y00746076D02*
Y00749303D01*
X00855785Y00749611D01*
X00875300Y00767600D02*
X00885645D01*
X00887637Y00765608D01*
X00854780Y00779600D02*
X00856272Y00778109D01*
X00848200Y00779600D02*
X00854780D01*
X00848241Y00775559D02*
X00852457D01*
X00867584Y00793609D02*
X00869575Y00795600D01*
X00870000D01*
X00870000Y00795600D02*
X00875300D01*
X00870000Y00795600D02*
X00870000Y00795600D01*
X00840350Y00791600D02*
X00848200D01*
Y00775600D02*
X00848241Y00775559D01*
X00855750Y00764600D02*
Y00767682D01*
X00851832Y00771600D02*
X00855750Y00767682D01*
X00817250Y00715850D02*
X00822901D01*
X00858766Y00731600D02*
X00858772Y00731606D01*
X00857757Y00738350D02*
X00861250D01*
X00855008Y00735600D02*
X00857757Y00738350D01*
X00854515Y00739600D02*
X00861022Y00746107D01*
X00848200Y00739600D02*
X00854515D01*
X00834941Y00747600D02*
X00848200D01*
X00817250Y00730850D02*
X00823140D01*
X00848200Y00755600D02*
X00857580D01*
X00860006Y00753174D02*
X00861426D01*
X00862000Y00752600D01*
X00857580Y00755600D02*
X00860006Y00753174D01*
X00822600Y00809350D02*
X00840350Y00791600D01*
X00807250Y00809350D02*
X00822600D01*
X00822650Y00804350D02*
X00839400Y00787600D01*
X00817500Y00799100D02*
X00822859D01*
X00817500Y00794100D02*
X00822910D01*
X00817250Y00789350D02*
X00822599D01*
X00871600Y00771600D02*
X00875300D01*
X00834250Y00767100D02*
X00834950D01*
X00841750Y00762600D02*
X00842750Y00763600D01*
X00834950Y00767100D02*
X00835000Y00767050D01*
X00834600Y00767450D02*
X00835000Y00767050D01*
X00834067Y00767983D02*
X00834600Y00767450D01*
X00817250Y00784350D02*
X00822650D01*
X00835427Y00767600D02*
X00848200D01*
X00807250Y00745850D02*
X00810000D01*
X00834750Y00767600D02*
X00834772Y00767578D01*
X00835405D01*
X00835427Y00767600D01*
X00842750Y00763600D02*
X00848200D01*
X00840019Y00751600D02*
X00848200D01*
X00838240Y00753379D02*
X00840019Y00751600D01*
X00848200Y00755600D02*
X00848200Y00755600D01*
X00817276Y00735876D02*
X00823216D01*
X00824090Y00710850D02*
X00840840Y00727600D01*
X00817250Y00740850D02*
X00819371D01*
X00819871Y00741350D01*
Y00743471D01*
X00817250Y00725850D02*
X00823090D01*
X00709480Y00816330D02*
X00709500Y00816350D01*
X00709480Y00807740D02*
Y00816330D01*
X00817250Y00804350D02*
X00822650D01*
X00817250Y00794350D02*
X00817500Y00794100D01*
X00817250Y00799350D02*
X00817500Y00799100D01*
X00817250Y00774350D02*
X00822750D01*
X00817250Y00779350D02*
X00822700D01*
X00834067Y00767983D01*
X00817250Y00720850D02*
X00823040D01*
X00817250Y00710850D02*
X00824090D01*
D17*
X01025000Y00980600D02*
G03*
X01025000Y00980600I-00001500J00000000D01*
G01*
X01019750Y00644350D02*
G03*
X01019750Y00644350I-00001500J00000000D01*
G01*
X00427750Y00734100D02*
G03*
X00427750Y00734100I-00001500J00000000D01*
G01*
X00946500Y00869850D02*
Y00877403D01*
X00939026Y00884876D02*
X00946500Y00877403D01*
X00944457Y00890307D02*
X00977613Y00923463D01*
X00946213Y00870137D02*
X00946500Y00869850D01*
X00977613Y00923463D02*
X00980588D01*
X00980875Y00923750D01*
X00681660Y00797920D02*
X00682736Y00798996D01*
X00944500Y00772850D02*
X00974000D01*
X00883500Y00847600D02*
X00883500Y00847600D01*
X00974000Y00772850D02*
Y00787850D01*
Y00772850D02*
X00974000Y00772850D01*
X00682736Y00798996D02*
X00689588D01*
X00669750Y00797600D02*
X00670070Y00797920D01*
X00681660D01*
X00693750Y00803158D02*
Y00803350D01*
X00689588Y00798996D02*
X00693750Y00803158D01*
X00910163Y00855937D02*
X00923663D01*
X00939250Y00840350D01*
Y00800100D02*
Y00840350D01*
Y00800100D02*
X00959250Y00780100D01*
X00967250D01*
X00973500Y00788350D02*
X00974000Y00787850D01*
X00968500Y00788350D02*
X00973500D01*
X00944500Y00772850D02*
X00944500Y00772850D01*
X00669750Y00788600D02*
Y00797600D01*
X00844000Y00983795D02*
Y00984201D01*
D18*
X00656250Y00735100D02*
D03*
Y00754100D02*
D03*
X00676250Y00744600D02*
D03*
D30*
X00907500Y00880850D02*
D03*
X00923000D02*
D03*
X00678750Y00708100D02*
D03*
X00694250D02*
D03*
X00678750Y00721100D02*
D03*
X00694250D02*
D03*
X00782500Y00676100D02*
D03*
X00767000D02*
D03*
X00782500Y00688850D02*
D03*
X00767000D02*
D03*
X00923000Y00867850D02*
D03*
X00938500D02*
D03*
D31*
X00712750Y00738350D02*
D03*
Y00753850D02*
D03*
D36*
X00615350Y00664930D02*
D03*
Y00659930D02*
D03*
X00660350D02*
D03*
Y00664930D02*
D03*
X00817250Y00769350D02*
D03*
Y00832850D02*
D03*
Y00837850D02*
D03*
Y00842850D02*
D03*
Y00847850D02*
D03*
Y00852850D02*
D03*
Y00857850D02*
D03*
Y00862850D02*
D03*
Y00867850D02*
D03*
X00792250D02*
D03*
Y00862850D02*
D03*
Y00857850D02*
D03*
Y00852850D02*
D03*
Y00847850D02*
D03*
Y00842850D02*
D03*
Y00837850D02*
D03*
Y00832850D02*
D03*
X00817250Y00774350D02*
D03*
Y00779350D02*
D03*
Y00784350D02*
D03*
Y00789350D02*
D03*
Y00794350D02*
D03*
Y00799350D02*
D03*
Y00804350D02*
D03*
X00792250D02*
D03*
Y00799350D02*
D03*
Y00794350D02*
D03*
Y00789350D02*
D03*
Y00784350D02*
D03*
Y00779350D02*
D03*
Y00774350D02*
D03*
Y00769350D02*
D03*
X00817250Y00705850D02*
D03*
Y00710850D02*
D03*
Y00715850D02*
D03*
Y00720850D02*
D03*
Y00725850D02*
D03*
Y00730850D02*
D03*
Y00735850D02*
D03*
Y00740850D02*
D03*
X00792250D02*
D03*
Y00735850D02*
D03*
Y00730850D02*
D03*
Y00725850D02*
D03*
Y00720850D02*
D03*
Y00715850D02*
D03*
Y00710850D02*
D03*
Y00705850D02*
D03*
X00935570Y00709250D02*
D03*
Y00704250D02*
D03*
Y00699250D02*
D03*
Y00694250D02*
D03*
Y00689250D02*
D03*
Y00684250D02*
D03*
Y00679250D02*
D03*
Y00674250D02*
D03*
X00910570D02*
D03*
Y00679250D02*
D03*
Y00684250D02*
D03*
Y00689250D02*
D03*
Y00694250D02*
D03*
Y00699250D02*
D03*
Y00704250D02*
D03*
Y00709250D02*
D03*
D37*
X00620350Y00649930D02*
D03*
X00625350D02*
D03*
X00630350D02*
D03*
X00635350D02*
D03*
X00640350D02*
D03*
X00645350D02*
D03*
X00650350D02*
D03*
X00655350D02*
D03*
Y00674930D02*
D03*
X00650350D02*
D03*
X00645350D02*
D03*
X00640350D02*
D03*
X00635350D02*
D03*
X00630350D02*
D03*
X00625350D02*
D03*
X00620350D02*
D03*
X00807250Y00764350D02*
D03*
X00802250Y00827850D02*
D03*
X00807250D02*
D03*
Y00872850D02*
D03*
X00802250D02*
D03*
Y00764350D02*
D03*
X00807250Y00809350D02*
D03*
X00802250D02*
D03*
Y00700850D02*
D03*
X00807250D02*
D03*
Y00745850D02*
D03*
X00802250D02*
D03*
X00925570Y00669250D02*
D03*
X00920570D02*
D03*
Y00714250D02*
D03*
X00925570D02*
D03*
D38*
X00804750Y00850350D02*
D03*
Y00786850D02*
D03*
Y00723350D02*
D03*
X00923070Y00691750D02*
D03*
D39*
X00598250Y00678350D02*
D03*
Y00667350D02*
D03*
X00636750Y00695350D02*
D03*
Y00706350D02*
D03*
X00783000Y00761850D02*
D03*
X00774250D02*
D03*
X00897250Y00705350D02*
D03*
Y00716350D02*
D03*
X00774250Y00825850D02*
D03*
Y00814850D02*
D03*
Y00750850D02*
D03*
X00795250Y00675850D02*
D03*
Y00686850D02*
D03*
X00669750Y00808600D02*
D03*
Y00797600D02*
D03*
X00662250Y00706350D02*
D03*
Y00695350D02*
D03*
X00598250Y00648850D02*
D03*
Y00659850D02*
D03*
X00783000Y00814850D02*
D03*
Y00825850D02*
D03*
Y00750850D02*
D03*
X00810000Y00686850D02*
D03*
Y00675850D02*
D03*
X00824750D02*
D03*
Y00686850D02*
D03*
X00669750Y00788600D02*
D03*
Y00777600D02*
D03*
D40*
X00708750Y00681100D02*
D03*
X00697750D02*
D03*
X00880250Y00880850D02*
D03*
X00891250D02*
D03*
X00667250Y00618100D02*
D03*
X00656250D02*
D03*
X00686250D02*
D03*
X00675250D02*
D03*
X00694000Y00763600D02*
D03*
X00683000D02*
D03*
X00663500Y00767600D02*
D03*
X00674500D02*
D03*
X00712750Y00763600D02*
D03*
X00701750D02*
D03*
X00683000Y00772600D02*
D03*
X00694000D02*
D03*
X00931500Y00740350D02*
D03*
X00920500D02*
D03*
X00933500Y00772850D02*
D03*
X00944500D02*
D03*
X00701750Y00772600D02*
D03*
X00712750D02*
D03*
X00638500Y00785600D02*
D03*
X00649500D02*
D03*
X00613000Y00785850D02*
D03*
X00624000D02*
D03*
X00920500Y00731350D02*
D03*
X00931500D02*
D03*
X00920500Y00772850D02*
D03*
X00909500D02*
D03*
D80*
X00939026Y00884876D02*
X00944457Y00890307D01*
X00933596Y00879446D02*
X00939026Y00884876D01*
X00933596Y00876819D02*
Y00879446D01*
X00944457Y00890307D02*
Y00934429D01*
X00933500Y00876723D02*
X00933596Y00876819D01*
D82*
X01019650Y00612600D02*
D03*
X00994250D02*
D03*
X00968850D02*
D03*
X00943450D02*
D03*
X00918050D02*
D03*
X00892650D02*
D03*
D83*
X00626500Y00758850D02*
D03*
D84*
X00985250Y00753600D02*
D03*
X00743473Y00741600D02*
D03*
X00934750Y00934100D02*
D03*
X00944457Y00934429D02*
D03*
X00982750Y00915850D02*
D03*
X00980875Y00923750D02*
D03*
X00509750Y00662600D02*
D03*
X00549000Y00662548D02*
D03*
X00559000Y00662548D02*
D03*
X00579000Y00662548D02*
D03*
X00569000Y00662548D02*
D03*
X00540000Y00663100D02*
D03*
X00584000Y00667100D02*
D03*
X00574000D02*
D03*
X00752984Y00866366D02*
D03*
X00728250Y00860100D02*
D03*
X00674387Y00668100D02*
D03*
X00713000Y00970350D02*
D03*
X00689493Y00969577D02*
D03*
X00683500Y00969850D02*
D03*
X00617004Y00944345D02*
D03*
X00647009Y00969401D02*
D03*
X00987750Y00840350D02*
D03*
X00840271Y00711606D02*
D03*
X00839271Y00702105D02*
D03*
X00884500Y00743121D02*
D03*
X00844250Y00991600D02*
D03*
X00720750Y00972600D02*
D03*
X00646500Y00991850D02*
D03*
X00486750Y00770850D02*
D03*
X00967750Y00660350D02*
D03*
X00527500Y00901350D02*
D03*
X00744500Y00723850D02*
D03*
X00650762Y00852862D02*
D03*
X00642201Y00847686D02*
D03*
X00638985Y00854736D02*
D03*
X00644761Y00853112D02*
D03*
X00655000Y00791350D02*
D03*
X00609250Y00795600D02*
D03*
X00617500Y00794100D02*
D03*
X00609418Y00818472D02*
D03*
X00605750Y00813724D02*
D03*
X00680500Y00684100D02*
D03*
X00690257Y00697125D02*
D03*
X00696750Y00697350D02*
D03*
X00743629Y00681350D02*
D03*
X00716765Y00687354D02*
D03*
X00722802Y00686350D02*
D03*
X00747714Y00676886D02*
D03*
X00682263Y00670854D02*
D03*
X00663750Y00687600D02*
D03*
X00662000Y00681600D02*
D03*
X00669750Y00688850D02*
D03*
X00600500Y00641600D02*
D03*
X00622510Y00837862D02*
D03*
X00616559Y00837100D02*
D03*
X00636839Y00823100D02*
D03*
X00590250Y00940850D02*
D03*
X00706343Y00703725D02*
D03*
X00711500Y00715100D02*
D03*
X00743629Y00761350D02*
D03*
X00637750Y00629850D02*
D03*
X00609844Y00684665D02*
D03*
X00614750Y00674850D02*
D03*
X00488000Y00733100D02*
D03*
X00452750Y00699600D02*
D03*
X00432750Y00722850D02*
D03*
X00465500Y00700100D02*
D03*
X00867500Y00832600D02*
D03*
X00828457Y00859600D02*
D03*
X00833500Y00862850D02*
D03*
X00825053Y00864600D02*
D03*
X00861234Y00855757D02*
D03*
X00898000Y00877600D02*
D03*
X00865109Y00902601D02*
D03*
X00858609Y00902601D02*
D03*
X00852000Y00902710D02*
D03*
X00854168Y00847964D02*
D03*
X00902000Y00871850D02*
D03*
X00880500Y00872350D02*
D03*
X00856196Y00807169D02*
D03*
X00863750Y00806850D02*
D03*
X00860750Y00792100D02*
D03*
X00862615Y00798203D02*
D03*
X00866772Y00793609D02*
D03*
X00868000Y00800850D02*
D03*
X00867941Y00787600D02*
D03*
X00862094Y00786252D02*
D03*
X00916000Y00864850D02*
D03*
X00936250Y00856850D02*
D03*
X01003500Y00914350D02*
D03*
X00655500Y00763100D02*
D03*
X00615250Y00726600D02*
D03*
X00611000Y00731850D02*
D03*
X00624000Y00727100D02*
D03*
X01019750Y00812850D02*
D03*
X00789250Y01010850D02*
D03*
X00983000Y00857350D02*
D03*
X00958413Y00651263D02*
D03*
X00708000Y00695350D02*
D03*
X00934750Y00986600D02*
D03*
X00891000Y00985100D02*
D03*
X00904750Y00970350D02*
D03*
X00824750Y00695850D02*
D03*
X00828685Y00663600D02*
D03*
X00838113Y00676841D02*
D03*
X00651451Y00686850D02*
D03*
X00637250Y00985350D02*
D03*
X00615750Y00710100D02*
D03*
X00649566Y00704317D02*
D03*
X00614500Y00699600D02*
D03*
X00614594Y00689444D02*
D03*
X00632511Y00687875D02*
D03*
X00669000Y00694818D02*
D03*
X00681500Y00699350D02*
D03*
X00487250Y00825850D02*
D03*
X00530000Y00875600D02*
D03*
X00575000Y00926100D02*
D03*
X00549750Y00906100D02*
D03*
X00529250Y00858850D02*
D03*
X00516250Y00865350D02*
D03*
X00547250Y00900350D02*
D03*
X00523500Y00873100D02*
D03*
X00507500Y00879350D02*
D03*
X00498000Y00825850D02*
D03*
X00509500Y00834100D02*
D03*
Y00826350D02*
D03*
X00509750Y00816350D02*
D03*
X00530000Y00821350D02*
D03*
X00794000Y00911100D02*
D03*
X00861750Y00947350D02*
D03*
X00880750Y00947600D02*
D03*
X00810750Y00944600D02*
D03*
X00824250Y00947600D02*
D03*
X00775768Y00923116D02*
D03*
X00695500Y00741100D02*
D03*
X00897500Y00938850D02*
D03*
X00846500Y00623350D02*
D03*
X00822270Y00626851D02*
D03*
X00602750Y00684350D02*
D03*
X00685000Y00744600D02*
D03*
X00741500Y00628850D02*
D03*
X00724500Y00625600D02*
D03*
X00724163Y00635756D02*
D03*
X00723843Y00642100D02*
D03*
X00729512Y00644350D02*
D03*
X00667250Y00625600D02*
D03*
X00705250D02*
D03*
X00686250D02*
D03*
X00669000Y00760850D02*
D03*
X00834844Y00747995D02*
D03*
X00841521Y00728106D02*
D03*
X00834250Y00767100D02*
D03*
X00827250Y00762850D02*
D03*
X00681750Y00779350D02*
D03*
Y00814850D02*
D03*
X00693750Y00803350D02*
D03*
X00688864Y00679204D02*
D03*
X00686750Y00665850D02*
D03*
X00679263Y00664603D02*
D03*
X00719250Y00771350D02*
D03*
X00722802Y00766350D02*
D03*
X00706750Y00726100D02*
D03*
X00722802Y00696350D02*
D03*
X00743629Y00701350D02*
D03*
Y00711350D02*
D03*
X00708875Y00663600D02*
D03*
X00758500Y00680600D02*
D03*
X00722802Y00756350D02*
D03*
X00743629Y00751350D02*
D03*
Y00731350D02*
D03*
X00633041Y00853923D02*
D03*
X00668500Y00990678D02*
D03*
X00673500Y00969850D02*
D03*
X00723578Y00930600D02*
D03*
X00702750Y00935600D02*
D03*
X00723578Y00940600D02*
D03*
X00702750Y00945600D02*
D03*
Y00925600D02*
D03*
Y00955600D02*
D03*
X00723578Y00950600D02*
D03*
Y00920600D02*
D03*
X00702750Y00915600D02*
D03*
X00885500Y00699533D02*
D03*
X00884125Y00693692D02*
D03*
X01015750Y00867850D02*
D03*
X01012000Y00863100D02*
D03*
X00729750Y00909100D02*
D03*
X00865000Y00691850D02*
D03*
Y00719167D02*
D03*
Y00713140D02*
D03*
Y00707140D02*
D03*
X00855250Y00704350D02*
D03*
X00865000Y00698600D02*
D03*
X00855416Y00719066D02*
D03*
X00856467Y00726067D02*
D03*
X00855500Y00711850D02*
D03*
X00855224Y00689041D02*
D03*
X00855250Y00696263D02*
D03*
X00836000Y00832729D02*
D03*
X00841508Y00830350D02*
D03*
X00836000Y00820660D02*
D03*
X00861250Y00773350D02*
D03*
X00839417Y00815729D02*
D03*
X01019750Y00826350D02*
D03*
X00997250Y00845350D02*
D03*
X00812250Y00819600D02*
D03*
X01006250Y00832350D02*
D03*
X00784000Y00768100D02*
D03*
X00791268Y00762608D02*
D03*
X00794000Y00750600D02*
D03*
X00987750Y00820850D02*
D03*
Y00827350D02*
D03*
Y00814350D02*
D03*
Y00807850D02*
D03*
Y00801350D02*
D03*
Y00833850D02*
D03*
X01015250Y00819350D02*
D03*
X00883523Y00753607D02*
D03*
X00882071Y00774750D02*
D03*
X00886500Y00784600D02*
D03*
X00885000Y00793600D02*
D03*
X00883273Y00733606D02*
D03*
X00888023Y00765608D02*
D03*
X00867772Y00766608D02*
D03*
X00861772Y00766358D02*
D03*
X00973750Y00729600D02*
D03*
X00567000Y01006100D02*
D03*
X00593704Y00955894D02*
D03*
X00566000Y00916350D02*
D03*
X00678500Y00990678D02*
D03*
X00653500Y00969850D02*
D03*
X00530199Y00716350D02*
D03*
X00723578Y00960600D02*
D03*
X00530250Y00703600D02*
D03*
X00530500Y00696600D02*
D03*
X00530199Y00686350D02*
D03*
X00613936Y00831703D02*
D03*
X00606500Y00824350D02*
D03*
X00545750Y00892850D02*
D03*
X00925500Y00969600D02*
D03*
X00964012Y00969100D02*
D03*
X00976250Y00973850D02*
D03*
X00738250Y00860100D02*
D03*
X00722250Y00834350D02*
D03*
X00965750Y00651350D02*
D03*
X00884500Y00717100D02*
D03*
X00542750Y00775350D02*
D03*
X00530199Y00781350D02*
D03*
X00510500Y00861350D02*
D03*
X00970750Y00682600D02*
D03*
X00843613Y00663615D02*
D03*
X00952524Y00959100D02*
D03*
X00957406Y00964100D02*
D03*
X00861000Y00979600D02*
D03*
X00819500Y00979850D02*
D03*
X01016018Y00949078D02*
D03*
X01016018Y00959082D02*
D03*
X00755849Y00961827D02*
D03*
X00783115Y00926638D02*
D03*
X00524000Y00993350D02*
D03*
X00543750Y01024100D02*
D03*
X00892266Y00978866D02*
D03*
X00542500Y00768600D02*
D03*
X00507250Y00761100D02*
D03*
X00845500Y00902710D02*
D03*
X00818500Y00875600D02*
D03*
X00842500Y00943350D02*
D03*
X00868000Y00781350D02*
D03*
X00844000Y00984201D02*
D03*
X00505755Y00791359D02*
D03*
X00695500Y00991350D02*
D03*
X00658500Y00990678D02*
D03*
X00931000Y00867850D02*
D03*
X00855250Y00813600D02*
D03*
X00829000Y00953600D02*
D03*
X00804019Y00944363D02*
D03*
X00887500Y00966850D02*
D03*
X00881273Y00966118D02*
D03*
X00827888Y00967630D02*
D03*
X00835750Y00967850D02*
D03*
X00805158Y00664550D02*
D03*
X00803769Y00670854D02*
D03*
X00832020Y00684604D02*
D03*
X00719515Y00711350D02*
D03*
X00673263Y00662103D02*
D03*
X00837891Y00753379D02*
D03*
X00840521Y00690927D02*
D03*
X00797500Y00827850D02*
D03*
X00657262Y00685354D02*
D03*
X00672100Y00679104D02*
D03*
X01016009Y00875586D02*
D03*
X00946500Y00869850D02*
D03*
X01016009Y00905591D02*
D03*
Y00895590D02*
D03*
X01019668Y00890577D02*
D03*
X01019578Y00900567D02*
D03*
X01019759Y00880586D02*
D03*
X01016009Y00885587D02*
D03*
X01002809Y00926634D02*
D03*
X00784500Y00834526D02*
D03*
X00530000Y00801350D02*
D03*
Y00811350D02*
D03*
X00626510Y00842362D02*
D03*
X00856272Y00778109D02*
D03*
X00775518Y00667353D02*
D03*
X00788519Y00664919D02*
D03*
X01001750Y00838850D02*
D03*
X01010750Y00825850D02*
D03*
X00987750Y00846850D02*
D03*
X00645261Y00685104D02*
D03*
X00743629Y00691350D02*
D03*
X00744766Y00811860D02*
D03*
X00716750Y00829861D02*
D03*
X01016018Y00969082D02*
D03*
X01019587Y00964059D02*
D03*
X01016018Y00939078D02*
D03*
X01019677Y00954069D02*
D03*
X01019768Y00944078D02*
D03*
X00784500Y00704600D02*
D03*
X00864500Y00726100D02*
D03*
X00509371Y00786350D02*
D03*
X00858772Y00731607D02*
D03*
X00861250Y00738350D02*
D03*
X00864772Y00732106D02*
D03*
X00861022Y00746107D02*
D03*
X00719015Y00795610D02*
D03*
X00742516Y00786609D02*
D03*
X00720750Y00789600D02*
D03*
X00639250Y00686350D02*
D03*
X00509005Y00714856D02*
D03*
X00503250Y00766350D02*
D03*
X00855750Y00764600D02*
D03*
X00840250Y00809600D02*
D03*
X00789500Y00820100D02*
D03*
X00862000Y00752600D02*
D03*
X00855785Y00749611D02*
D03*
X00744250Y00819850D02*
D03*
X00709000Y00780600D02*
D03*
X00702500D02*
D03*
X00867941Y00739600D02*
D03*
Y00747600D02*
D03*
X00723015Y00706355D02*
D03*
X00796269Y00670603D02*
D03*
X00782518Y00666824D02*
D03*
X00709500Y00816350D02*
D03*
X00530000Y00833600D02*
D03*
X00564000Y00671850D02*
D03*
X00509500Y00706100D02*
D03*
X00530199Y00741350D02*
D03*
X00475000Y00835350D02*
D03*
X00762750Y00666254D02*
D03*
X00616250Y00641600D02*
D03*
X00797750Y00764100D02*
D03*
X00509750Y00806600D02*
D03*
X00719184Y00816350D02*
D03*
X00722802Y00811350D02*
D03*
X01004750Y00977850D02*
D03*
X00973750Y00666600D02*
D03*
X00972250Y00674600D02*
D03*
X00969250Y00690600D02*
D03*
X00969250Y00705600D02*
D03*
X00970750Y00713600D02*
D03*
X00972250Y00721600D02*
D03*
X00509371Y00721350D02*
D03*
X00530199Y00726350D02*
D03*
X00509371Y00731350D02*
D03*
Y00746350D02*
D03*
Y00776350D02*
D03*
X00629250Y00625600D02*
D03*
X00610250D02*
D03*
X00591000D02*
D03*
X00722802Y00801350D02*
D03*
Y00746350D02*
D03*
Y00736350D02*
D03*
Y00726350D02*
D03*
X00663500Y00969850D02*
D03*
D85*
X00523250Y00662100D02*
D03*
X00688000Y00819350D02*
D03*
X00720750Y00869850D02*
D03*
X00730750Y00935850D02*
D03*
X00637000Y00793600D02*
D03*
X00755750Y00669350D02*
D03*
X00712265Y00721606D02*
D03*
X00427250Y00747350D02*
D03*
X00933500Y00876723D02*
D03*
X00903500Y00863850D02*
D03*
X00884986Y00855086D02*
D03*
X00883500Y00847600D02*
D03*
X01017500Y00930600D02*
D03*
X00542750Y00934100D02*
D03*
X00638000Y00726350D02*
D03*
X00665250D02*
D03*
X00987691Y00778659D02*
D03*
X00974000Y00772850D02*
D03*
X00908500Y00988600D02*
D03*
X00901500D02*
D03*
X00915750Y00985100D02*
D03*
X00817750Y00692350D02*
D03*
X00652500Y00777850D02*
D03*
X00539000Y00889850D02*
D03*
X00556250Y00908100D02*
D03*
X00522250Y00851350D02*
D03*
X00500250Y00872600D02*
D03*
X00478500Y00823600D02*
D03*
X00702000Y00756350D02*
D03*
X00720500Y00861100D02*
D03*
X00674250Y00756350D02*
D03*
X00876250Y00614850D02*
D03*
X00588500Y00632600D02*
D03*
X00747000Y00627350D02*
D03*
X00656250Y00743350D02*
D03*
X00686250Y00755850D02*
D03*
X00714500Y00728850D02*
D03*
X01016000Y00700600D02*
D03*
X00731750Y00927600D02*
D03*
X00692000Y00825600D02*
D03*
X00710250Y00830600D02*
D03*
X00937313Y00722537D02*
D03*
X00938250Y00715600D02*
D03*
X00931250Y00715100D02*
D03*
X00974500Y00742350D02*
D03*
X00910163Y00855937D02*
D03*
X00967250Y00780100D02*
D03*
X00891250Y00759350D02*
D03*
X00928750Y00786600D02*
D03*
X00705250Y00988350D02*
D03*
X00811750Y01017600D02*
D03*
X00622250Y00986850D02*
D03*
X00578750Y00933100D02*
D03*
X00593000Y00992850D02*
D03*
X00547442Y00912618D02*
D03*
X01013750Y00675850D02*
D03*
X00982000Y00657850D02*
D03*
X00981250Y00633350D02*
D03*
X00926250Y00987600D02*
D03*
X00925750Y00978850D02*
D03*
X00733000Y00986100D02*
D03*
X00750500Y00976600D02*
D03*
X00752000Y00950350D02*
D03*
X00771500Y00947100D02*
D03*
X00751500Y00929600D02*
D03*
X00782750Y00946850D02*
D03*
X00495500Y00756600D02*
D03*
X00470750Y00765350D02*
D03*
X00562000Y00932600D02*
D03*
X00550500D02*
D03*
X00487750Y00864600D02*
D03*
X00495250D02*
D03*
X00742000Y01007850D02*
D03*
X00896500Y00846850D02*
D03*
X00858000Y00834350D02*
D03*
X00797500Y00946100D02*
D03*
X00512250Y01001421D02*
D03*
X00623250Y00998100D02*
D03*
X00556000Y00939600D02*
D03*
X00488500Y00676600D02*
D03*
X00507250Y00681350D02*
D03*
X01003143Y00861710D02*
D03*
X01014500Y00835600D02*
D03*
X00785750Y00973850D02*
D03*
X00533376Y00671226D02*
D03*
X00884000Y00760350D02*
D03*
X00861000Y00759850D02*
D03*
X00720500Y00778100D02*
D03*
X00769017Y00666603D02*
D03*
X00504250Y00977850D02*
D03*
X00493500Y00992100D02*
D03*
X00442500Y00876600D02*
D03*
X00446500Y00756600D02*
D03*
X00478750Y00734350D02*
D03*
X00999250Y00633350D02*
D03*
X01009750Y00655350D02*
D03*
X00990250Y00633350D02*
D03*
X00446500Y00742100D02*
D03*
X00503750Y00912600D02*
D03*
X00489250Y00914100D02*
D03*
X00495750Y00964350D02*
D03*
Y00943350D02*
D03*
X00456750Y00946350D02*
D03*
X00456500Y00975350D02*
D03*
X00539500Y00986600D02*
D03*
X00513250Y00936100D02*
D03*
X00474500Y00850350D02*
D03*
X00469000Y00783850D02*
D03*
X00931500Y00816850D02*
D03*
X00462500Y00667100D02*
D03*
X00505250Y00923600D02*
D03*
X00444000Y00997100D02*
D03*
X00441750Y00974350D02*
D03*
X00442500Y00946350D02*
D03*
X00454750Y00904100D02*
D03*
Y00916100D02*
D03*
X00466500Y00806350D02*
D03*
X00594250Y00979100D02*
D03*
X00428000Y00663850D02*
D03*
X00500500Y00775100D02*
D03*
X00448000Y00790600D02*
D03*
Y00797350D02*
D03*
Y00804100D02*
D03*
X00621250Y00972350D02*
D03*
X00505250Y00736600D02*
D03*
X00507750Y00698350D02*
D03*
X00802750Y00681600D02*
D03*
X00577250Y00995100D02*
D03*
X00472250Y00866600D02*
D03*
Y00873850D02*
D03*
X00495500Y00742100D02*
D03*
Y00749350D02*
D03*
X00446500Y00749350D02*
D03*
D86*
X00709480Y00798240D02*
D03*
X00681980Y00788740D02*
D03*
Y00798240D02*
D03*
Y00807740D02*
D03*
X00709480D02*
D03*
Y00788740D02*
D03*
D87*
X00875300Y00843600D02*
D03*
X00848200D02*
D03*
X00875300Y00847600D02*
D03*
X00848200Y00839600D02*
D03*
X00875300D02*
D03*
X00848200Y00835600D02*
D03*
X00875300D02*
D03*
X00848200Y00831600D02*
D03*
X00875300D02*
D03*
Y00815600D02*
D03*
X00848200D02*
D03*
X00875300Y00819600D02*
D03*
X00848200D02*
D03*
X00875300Y00823600D02*
D03*
X00848200D02*
D03*
Y00827600D02*
D03*
X00875300D02*
D03*
Y00799600D02*
D03*
X00848200D02*
D03*
X00875300Y00803600D02*
D03*
X00848200D02*
D03*
X00875300Y00807600D02*
D03*
X00848200D02*
D03*
Y00811600D02*
D03*
X00875300D02*
D03*
Y00783600D02*
D03*
X00848200D02*
D03*
X00875300Y00787600D02*
D03*
X00848200D02*
D03*
X00875300Y00791600D02*
D03*
X00848200D02*
D03*
Y00795600D02*
D03*
X00875300D02*
D03*
Y00767600D02*
D03*
X00848200D02*
D03*
X00875300Y00771600D02*
D03*
X00848200D02*
D03*
X00875300Y00775600D02*
D03*
X00848200D02*
D03*
Y00779600D02*
D03*
X00875300D02*
D03*
Y00751600D02*
D03*
X00848200D02*
D03*
X00875300Y00755600D02*
D03*
X00848200D02*
D03*
X00875300Y00759600D02*
D03*
X00848200D02*
D03*
Y00763600D02*
D03*
X00875300D02*
D03*
Y00735600D02*
D03*
X00848200D02*
D03*
X00875300Y00739600D02*
D03*
X00848200D02*
D03*
X00875300Y00743600D02*
D03*
X00848200D02*
D03*
Y00747600D02*
D03*
X00875300D02*
D03*
Y00719600D02*
D03*
X00848200D02*
D03*
X00875300Y00723600D02*
D03*
X00848200D02*
D03*
X00875300Y00727600D02*
D03*
X00848200D02*
D03*
Y00731600D02*
D03*
X00875300D02*
D03*
Y00703600D02*
D03*
Y00699600D02*
D03*
Y00695600D02*
D03*
Y00691600D02*
D03*
Y00715600D02*
D03*
Y00711600D02*
D03*
Y00707600D02*
D03*
X00848200Y00703600D02*
D03*
Y00699600D02*
D03*
Y00695600D02*
D03*
Y00691600D02*
D03*
Y00715600D02*
D03*
Y00711600D02*
D03*
Y00707600D02*
D03*
Y00847600D02*
D03*
D88*
Y00852350D02*
D03*
X00875300D02*
D03*
X00848200Y00686850D02*
D03*
X00875300D02*
D03*
D89*
X00649500Y00819350D02*
D03*
Y00797850D02*
D03*
X00624000Y00819350D02*
D03*
Y00797850D02*
D03*
X00649500Y00695350D02*
D03*
Y00716850D02*
D03*
X00624000Y00716850D02*
D03*
Y00695350D02*
D03*
D90*
X00909500Y00788350D02*
D03*
Y00794850D02*
D03*
Y00801350D02*
D03*
Y00807850D02*
D03*
Y00814350D02*
D03*
Y00820850D02*
D03*
Y00827350D02*
D03*
Y00833850D02*
D03*
Y00840350D02*
D03*
Y00846850D02*
D03*
X00968500Y00788350D02*
D03*
Y00794850D02*
D03*
Y00801350D02*
D03*
Y00807850D02*
D03*
Y00814350D02*
D03*
Y00820850D02*
D03*
Y00827350D02*
D03*
Y00833850D02*
D03*
Y00840350D02*
D03*
Y00846850D02*
D03*
D91*
X00637850Y00662430D02*
D03*
M02*
