G04*
G04 #@! TF.GenerationSoftware,Altium Limited,Altium Designer,21.7.2 (23)*
G04*
G04 Layer_Physical_Order=2*
G04 Layer_Color=36540*
%FSAX44Y44*%
%MOMM*%
G71*
G04*
G04 #@! TF.SameCoordinates,B5B927FB-FC6E-4532-AB5B-D5DFAA1904DE*
G04*
G04*
G04 #@! TF.FilePolarity,Positive*
G04*
G01*
G75*
%ADD13C,0.2540*%
%ADD82C,1.5000*%
%ADD83C,3.0000*%
%ADD84C,0.4500*%
%ADD85C,0.5500*%
G36*
X00814691Y01019600D02*
X00814706Y01019525D01*
X00814695Y01019450D01*
X00814743Y01018470D01*
X00814798Y01018250D01*
Y01018023D01*
X00815181Y01016100D01*
X00815296Y01015822D01*
X00815355Y01015527D01*
X00816105Y01013716D01*
X00816272Y01013465D01*
X00816388Y01013187D01*
X00817477Y01011557D01*
X00817690Y01011344D01*
X00817857Y01011093D01*
X00819243Y01009707D01*
X00819494Y01009540D01*
X00819707Y01009327D01*
X00821337Y01008238D01*
X00821615Y01008122D01*
X00821866Y01007955D01*
X00823677Y01007205D01*
X00823972Y01007146D01*
X00824250Y01007031D01*
X00826173Y01006648D01*
X00826400D01*
X00826620Y01006593D01*
X00827600Y01006545D01*
X00827675Y01006556D01*
X00827750Y01006541D01*
X00975281Y01006541D01*
Y00987071D01*
X01003354D01*
Y00987110D01*
X01028793Y00987110D01*
X01029691Y00986212D01*
Y00616502D01*
X01028421Y00616249D01*
X01027948Y00617391D01*
X01026425Y00619375D01*
X01024441Y00620898D01*
X01022130Y00621855D01*
X01019650Y00622182D01*
X01017170Y00621855D01*
X01014859Y00620898D01*
X01012875Y00619375D01*
X01011352Y00617391D01*
X01010395Y00615080D01*
X01010068Y00612600D01*
X01010395Y00610120D01*
X01011352Y00607809D01*
X01012875Y00605825D01*
X01014859Y00604302D01*
X01015760Y00603929D01*
X01015507Y00602659D01*
X00998393D01*
X00998140Y00603929D01*
X00999041Y00604302D01*
X01001025Y00605825D01*
X01002548Y00607809D01*
X01003505Y00610120D01*
X01003700Y00611600D01*
X00994250D01*
X00984800D01*
X00984995Y00610120D01*
X00985952Y00607809D01*
X00987475Y00605825D01*
X00989459Y00604302D01*
X00990360Y00603929D01*
X00990107Y00602659D01*
X00972993D01*
X00972740Y00603929D01*
X00973641Y00604302D01*
X00975626Y00605825D01*
X00977148Y00607809D01*
X00978105Y00610120D01*
X00978432Y00612600D01*
X00978105Y00615080D01*
X00977148Y00617391D01*
X00975626Y00619375D01*
X00973641Y00620898D01*
X00971330Y00621855D01*
X00968850Y00622182D01*
X00966370Y00621855D01*
X00964059Y00620898D01*
X00962075Y00619375D01*
X00960552Y00617391D01*
X00959595Y00615080D01*
X00959268Y00612600D01*
X00959595Y00610120D01*
X00960552Y00607809D01*
X00962075Y00605825D01*
X00964059Y00604302D01*
X00964960Y00603929D01*
X00964707Y00602659D01*
X00947593D01*
X00947340Y00603929D01*
X00948241Y00604302D01*
X00950226Y00605825D01*
X00951748Y00607809D01*
X00952706Y00610120D01*
X00953032Y00612600D01*
X00952706Y00615080D01*
X00951748Y00617391D01*
X00950226Y00619375D01*
X00948241Y00620898D01*
X00945930Y00621855D01*
X00943450Y00622182D01*
X00940970Y00621855D01*
X00938659Y00620898D01*
X00936675Y00619375D01*
X00935152Y00617391D01*
X00934195Y00615080D01*
X00933868Y00612600D01*
X00934195Y00610120D01*
X00935152Y00607809D01*
X00936675Y00605825D01*
X00938659Y00604302D01*
X00939560Y00603929D01*
X00939307Y00602659D01*
X00922193D01*
X00921940Y00603929D01*
X00922841Y00604302D01*
X00924826Y00605825D01*
X00926348Y00607809D01*
X00927306Y00610120D01*
X00927632Y00612600D01*
X00927306Y00615080D01*
X00926348Y00617391D01*
X00924826Y00619375D01*
X00922841Y00620898D01*
X00920530Y00621855D01*
X00918050Y00622182D01*
X00915570Y00621855D01*
X00913259Y00620898D01*
X00911275Y00619375D01*
X00909752Y00617391D01*
X00908795Y00615080D01*
X00908468Y00612600D01*
X00908795Y00610120D01*
X00909752Y00607809D01*
X00911275Y00605825D01*
X00913259Y00604302D01*
X00914160Y00603929D01*
X00913907Y00602659D01*
X00896793D01*
X00896540Y00603929D01*
X00897441Y00604302D01*
X00899426Y00605825D01*
X00900948Y00607809D01*
X00901906Y00610120D01*
X00902232Y00612600D01*
X00901906Y00615080D01*
X00900948Y00617391D01*
X00899426Y00619375D01*
X00897441Y00620898D01*
X00895130Y00621855D01*
X00892650Y00622182D01*
X00890170Y00621855D01*
X00887859Y00620898D01*
X00885875Y00619375D01*
X00884352Y00617391D01*
X00883395Y00615080D01*
X00883068Y00612600D01*
X00883395Y00610120D01*
X00884352Y00607809D01*
X00885875Y00605825D01*
X00887859Y00604302D01*
X00888760Y00603929D01*
X00888507Y00602659D01*
X00573308D01*
Y00624664D01*
X00573293Y00624743D01*
X00573304Y00624824D01*
X00573256Y00625740D01*
X00573202Y00625955D01*
Y00626177D01*
X00572819Y00628100D01*
X00572704Y00628378D01*
X00572645Y00628673D01*
X00571895Y00630485D01*
X00571728Y00630735D01*
X00571612Y00631013D01*
X00570523Y00632643D01*
X00570310Y00632856D01*
X00570143Y00633107D01*
X00568757Y00634493D01*
X00568506Y00634660D01*
X00568293Y00634873D01*
X00566663Y00635962D01*
X00566385Y00636078D01*
X00566134Y00636245D01*
X00564323Y00636995D01*
X00564028Y00637054D01*
X00563750Y00637169D01*
X00561827Y00637552D01*
X00561600D01*
X00561380Y00637607D01*
X00560400Y00637655D01*
X00560325Y00637644D01*
X00560250Y00637659D01*
X00415809Y00637659D01*
Y01006541D01*
X00509077D01*
X00509462Y01005271D01*
X00508825Y01004846D01*
X00507776Y01003275D01*
X00507407Y01001421D01*
X00507776Y00999568D01*
X00508825Y00997997D01*
X00510397Y00996947D01*
X00512250Y00996578D01*
X00514103Y00996947D01*
X00515675Y00997997D01*
X00516724Y00999568D01*
X00517093Y01001421D01*
X00516724Y01003275D01*
X00515675Y01004846D01*
X00515038Y01005271D01*
X00515423Y01006541D01*
X00527750D01*
X00527825Y01006556D01*
X00527900Y01006545D01*
X00528880Y01006593D01*
X00529100Y01006648D01*
X00529327D01*
X00531250Y01007031D01*
X00531528Y01007146D01*
X00531823Y01007205D01*
X00533634Y01007955D01*
X00533885Y01008122D01*
X00534163Y01008238D01*
X00535793Y01009327D01*
X00536006Y01009540D01*
X00536257Y01009707D01*
X00537643Y01011093D01*
X00537810Y01011344D01*
X00538023Y01011557D01*
X00539112Y01013187D01*
X00539228Y01013465D01*
X00539395Y01013716D01*
X00540145Y01015527D01*
X00540204Y01015822D01*
X00540319Y01016100D01*
X00540702Y01018023D01*
Y01018250D01*
X00540757Y01018470D01*
X00540805Y01019450D01*
X00540794Y01019525D01*
X00540809Y01019600D01*
X00540809Y01026541D01*
X00814691D01*
Y01019600D01*
D02*
G37*
%LPC*%
G36*
X00789250Y01015183D02*
X00787592Y01014853D01*
X00786186Y01013914D01*
X00785247Y01012508D01*
X00784917Y01010850D01*
X00785247Y01009192D01*
X00786186Y01007786D01*
X00787592Y01006847D01*
X00789250Y01006517D01*
X00790908Y01006847D01*
X00792314Y01007786D01*
X00793253Y01009192D01*
X00793583Y01010850D01*
X00793253Y01012508D01*
X00792314Y01013914D01*
X00790908Y01014853D01*
X00789250Y01015183D01*
D02*
G37*
G36*
X00908500Y00993443D02*
X00906647Y00993074D01*
X00906027Y00992660D01*
X00905000Y00992068D01*
X00903973Y00992660D01*
X00903353Y00993074D01*
X00901500Y00993443D01*
X00899647Y00993074D01*
X00898075Y00992025D01*
X00897026Y00990453D01*
X00896657Y00988600D01*
X00897026Y00986747D01*
X00898075Y00985175D01*
X00899647Y00984126D01*
X00901500Y00983757D01*
X00903353Y00984126D01*
X00903973Y00984540D01*
X00905000Y00985132D01*
X00906027Y00984540D01*
X00906647Y00984126D01*
X00908500Y00983757D01*
X00909827Y00984021D01*
X00911195Y00983353D01*
X00911291Y00983224D01*
X00912326Y00981675D01*
X00913897Y00980626D01*
X00915750Y00980257D01*
X00917603Y00980626D01*
X00919175Y00981675D01*
X00920224Y00983247D01*
X00920593Y00985100D01*
X00920224Y00986953D01*
X00919175Y00988524D01*
X00917603Y00989574D01*
X00915750Y00989943D01*
X00914423Y00989679D01*
X00913055Y00990347D01*
X00912960Y00990476D01*
X00911925Y00992025D01*
X00910353Y00993074D01*
X00908500Y00993443D01*
D02*
G37*
G36*
X00678500Y00995011D02*
X00676842Y00994682D01*
X00675436Y00993742D01*
X00674497Y00992337D01*
X00674167Y00990678D01*
X00674497Y00989020D01*
X00675436Y00987614D01*
X00676842Y00986675D01*
X00678500Y00986345D01*
X00680158Y00986675D01*
X00681564Y00987614D01*
X00682503Y00989020D01*
X00682833Y00990678D01*
X00682503Y00992337D01*
X00681564Y00993742D01*
X00680158Y00994682D01*
X00678500Y00995011D01*
D02*
G37*
G36*
X00668500D02*
X00666842Y00994682D01*
X00665436Y00993742D01*
X00664497Y00992337D01*
X00664167Y00990678D01*
X00664497Y00989020D01*
X00665436Y00987614D01*
X00666842Y00986675D01*
X00668500Y00986345D01*
X00670158Y00986675D01*
X00671564Y00987614D01*
X00672504Y00989020D01*
X00672833Y00990678D01*
X00672504Y00992337D01*
X00671564Y00993742D01*
X00670158Y00994682D01*
X00668500Y00995011D01*
D02*
G37*
G36*
X00658500D02*
X00656842Y00994682D01*
X00655436Y00993742D01*
X00654497Y00992337D01*
X00654167Y00990678D01*
X00654497Y00989020D01*
X00655436Y00987614D01*
X00656842Y00986675D01*
X00658500Y00986345D01*
X00660158Y00986675D01*
X00661564Y00987614D01*
X00662504Y00989020D01*
X00662833Y00990678D01*
X00662504Y00992337D01*
X00661564Y00993742D01*
X00660158Y00994682D01*
X00658500Y00995011D01*
D02*
G37*
G36*
X00705250Y00993193D02*
X00703397Y00992824D01*
X00701825Y00991775D01*
X00700776Y00990203D01*
X00700407Y00988350D01*
X00700776Y00986497D01*
X00701825Y00984925D01*
X00703397Y00983876D01*
X00705250Y00983507D01*
X00707103Y00983876D01*
X00708675Y00984925D01*
X00709724Y00986497D01*
X00710093Y00988350D01*
X00709724Y00990203D01*
X00708675Y00991775D01*
X00707103Y00992824D01*
X00705250Y00993193D01*
D02*
G37*
G36*
X00934750Y00990933D02*
X00933092Y00990603D01*
X00931686Y00989664D01*
X00930747Y00988258D01*
X00930417Y00986600D01*
X00930747Y00984942D01*
X00931686Y00983536D01*
X00933092Y00982597D01*
X00934750Y00982267D01*
X00936408Y00982597D01*
X00937814Y00983536D01*
X00938753Y00984942D01*
X00939083Y00986600D01*
X00938753Y00988258D01*
X00937814Y00989664D01*
X00936408Y00990603D01*
X00934750Y00990933D01*
D02*
G37*
G36*
X00622250Y00991693D02*
X00620397Y00991324D01*
X00618825Y00990275D01*
X00617776Y00988703D01*
X00617407Y00986850D01*
X00617776Y00984997D01*
X00618825Y00983425D01*
X00620397Y00982376D01*
X00622250Y00982007D01*
X00624103Y00982376D01*
X00625675Y00983425D01*
X00626724Y00984997D01*
X00627093Y00986850D01*
X00626724Y00988703D01*
X00625675Y00990275D01*
X00624103Y00991324D01*
X00622250Y00991693D01*
D02*
G37*
G36*
X00637250Y00989683D02*
X00635592Y00989353D01*
X00634186Y00988414D01*
X00633247Y00987008D01*
X00632917Y00985350D01*
X00633247Y00983692D01*
X00634186Y00982286D01*
X00635592Y00981347D01*
X00637250Y00981017D01*
X00638908Y00981347D01*
X00640314Y00982286D01*
X00641253Y00983692D01*
X00641583Y00985350D01*
X00641253Y00987008D01*
X00640314Y00988414D01*
X00638908Y00989353D01*
X00637250Y00989683D01*
D02*
G37*
G36*
X00891000Y00989433D02*
X00889342Y00989103D01*
X00887936Y00988164D01*
X00886997Y00986758D01*
X00886667Y00985100D01*
X00886997Y00983442D01*
X00887936Y00982036D01*
X00889342Y00981097D01*
X00891000Y00980767D01*
X00892658Y00981097D01*
X00894064Y00982036D01*
X00895003Y00983442D01*
X00895333Y00985100D01*
X00895003Y00986758D01*
X00894064Y00988164D01*
X00892658Y00989103D01*
X00891000Y00989433D01*
D02*
G37*
G36*
X00844000Y00988534D02*
X00842342Y00988204D01*
X00840936Y00987265D01*
X00839997Y00985859D01*
X00839667Y00984201D01*
X00839997Y00982543D01*
X00840936Y00981137D01*
X00842342Y00980198D01*
X00844000Y00979868D01*
X00845658Y00980198D01*
X00847064Y00981137D01*
X00848003Y00982543D01*
X00848333Y00984201D01*
X00848003Y00985859D01*
X00847064Y00987265D01*
X00845658Y00988204D01*
X00844000Y00988534D01*
D02*
G37*
G36*
X01004750Y00982184D02*
X01003092Y00981854D01*
X01001686Y00980914D01*
X01000747Y00979509D01*
X01000417Y00977850D01*
X01000747Y00976192D01*
X01001686Y00974786D01*
X01003092Y00973847D01*
X01004750Y00973517D01*
X01006408Y00973847D01*
X01007814Y00974786D01*
X01008753Y00976192D01*
X01009083Y00977850D01*
X01008753Y00979509D01*
X01007814Y00980914D01*
X01006408Y00981854D01*
X01004750Y00982184D01*
D02*
G37*
G36*
X00653500Y00974183D02*
X00651842Y00973854D01*
X00650974Y00973274D01*
X00650436Y00972914D01*
X00649060Y00973142D01*
X00648668Y00973404D01*
X00647009Y00973734D01*
X00645351Y00973404D01*
X00643945Y00972465D01*
X00643006Y00971059D01*
X00642676Y00969401D01*
X00643006Y00967742D01*
X00643945Y00966337D01*
X00645351Y00965397D01*
X00647009Y00965068D01*
X00648668Y00965397D01*
X00649535Y00965977D01*
X00650073Y00966337D01*
X00651449Y00966109D01*
X00651842Y00965847D01*
X00653500Y00965517D01*
X00655158Y00965847D01*
X00656564Y00966786D01*
X00657503Y00968192D01*
X00657833Y00969850D01*
X00657503Y00971508D01*
X00656564Y00972914D01*
X00655158Y00973854D01*
X00653500Y00974183D01*
D02*
G37*
G36*
X00976250Y00978184D02*
X00974592Y00977854D01*
X00973186Y00976915D01*
X00972247Y00975509D01*
X00971917Y00973850D01*
X00972247Y00972192D01*
X00973186Y00970786D01*
X00974592Y00969847D01*
X00976250Y00969517D01*
X00977908Y00969847D01*
X00979314Y00970786D01*
X00980253Y00972192D01*
X00980583Y00973850D01*
X00980253Y00975509D01*
X00979314Y00976915D01*
X00977908Y00977854D01*
X00976250Y00978184D01*
D02*
G37*
G36*
X00964012Y00973434D02*
X00962354Y00973104D01*
X00960948Y00972165D01*
X00960008Y00970759D01*
X00959693Y00969175D01*
X00959624Y00969056D01*
X00958562Y00968203D01*
X00957406Y00968433D01*
X00955748Y00968104D01*
X00954342Y00967164D01*
X00953402Y00965758D01*
X00953073Y00964100D01*
X00952115Y00963352D01*
X00950866Y00963104D01*
X00949460Y00962165D01*
X00948521Y00960759D01*
X00948191Y00959100D01*
X00948521Y00957442D01*
X00949460Y00956036D01*
X00950866Y00955097D01*
X00952524Y00954767D01*
X00954182Y00955097D01*
X00955588Y00956036D01*
X00956527Y00957442D01*
X00956857Y00959100D01*
X00957815Y00959848D01*
X00959064Y00960097D01*
X00960470Y00961036D01*
X00961409Y00962442D01*
X00961724Y00964026D01*
X00961794Y00964144D01*
X00962856Y00964997D01*
X00964012Y00964767D01*
X00965670Y00965097D01*
X00967076Y00966036D01*
X00968015Y00967442D01*
X00968345Y00969100D01*
X00968015Y00970759D01*
X00967076Y00972165D01*
X00965670Y00973104D01*
X00964012Y00973434D01*
D02*
G37*
G36*
X00904750Y00974683D02*
X00903092Y00974353D01*
X00901686Y00973414D01*
X00900747Y00972008D01*
X00900417Y00970350D01*
X00900747Y00968692D01*
X00901686Y00967286D01*
X00903092Y00966347D01*
X00904750Y00966017D01*
X00906408Y00966347D01*
X00907814Y00967286D01*
X00908753Y00968692D01*
X00909083Y00970350D01*
X00908753Y00972008D01*
X00907814Y00973414D01*
X00906408Y00974353D01*
X00904750Y00974683D01*
D02*
G37*
G36*
X00713000D02*
X00711342Y00974353D01*
X00709936Y00973414D01*
X00708997Y00972008D01*
X00708667Y00970350D01*
X00708997Y00968692D01*
X00709936Y00967286D01*
X00711342Y00966347D01*
X00713000Y00966017D01*
X00714658Y00966347D01*
X00716064Y00967286D01*
X00717003Y00968692D01*
X00717333Y00970350D01*
X00717003Y00972008D01*
X00716064Y00973414D01*
X00714658Y00974353D01*
X00713000Y00974683D01*
D02*
G37*
G36*
X00673500Y00974183D02*
X00671842Y00973854D01*
X00670436Y00972914D01*
X00669496Y00971508D01*
X00669167Y00969850D01*
X00669496Y00968192D01*
X00670436Y00966786D01*
X00671842Y00965847D01*
X00673500Y00965517D01*
X00675158Y00965847D01*
X00676564Y00966786D01*
X00677503Y00968192D01*
X00677833Y00969850D01*
X00677503Y00971508D01*
X00676564Y00972914D01*
X00675158Y00973854D01*
X00673500Y00974183D01*
D02*
G37*
G36*
X00663500D02*
X00661842Y00973854D01*
X00660436Y00972914D01*
X00659496Y00971508D01*
X00659167Y00969850D01*
X00659496Y00968192D01*
X00660436Y00966786D01*
X00661842Y00965847D01*
X00663500Y00965517D01*
X00665158Y00965847D01*
X00666564Y00966786D01*
X00667503Y00968192D01*
X00667833Y00969850D01*
X00667503Y00971508D01*
X00666564Y00972914D01*
X00665158Y00973854D01*
X00663500Y00974183D01*
D02*
G37*
G36*
X00683500D02*
X00681842Y00973854D01*
X00680436Y00972914D01*
X00679496Y00971508D01*
X00679166Y00969850D01*
X00679496Y00968192D01*
X00680436Y00966786D01*
X00681842Y00965847D01*
X00683500Y00965517D01*
X00685158Y00965847D01*
X00686345Y00966640D01*
X00686430Y00966514D01*
X00687835Y00965574D01*
X00689493Y00965244D01*
X00691152Y00965574D01*
X00692558Y00966514D01*
X00693497Y00967919D01*
X00693827Y00969577D01*
X00693497Y00971236D01*
X00692558Y00972642D01*
X00691152Y00973581D01*
X00689493Y00973911D01*
X00687835Y00973581D01*
X00686648Y00972788D01*
X00686564Y00972914D01*
X00685158Y00973854D01*
X00683500Y00974183D01*
D02*
G37*
G36*
X00835750Y00972183D02*
X00834092Y00971853D01*
X00832686Y00970914D01*
X00831747Y00969508D01*
X00831417Y00967850D01*
X00831747Y00966192D01*
X00832686Y00964786D01*
X00834092Y00963847D01*
X00835750Y00963517D01*
X00837408Y00963847D01*
X00838814Y00964786D01*
X00839753Y00966192D01*
X00840083Y00967850D01*
X00839753Y00969508D01*
X00838814Y00970914D01*
X00837408Y00971853D01*
X00835750Y00972183D01*
D02*
G37*
G36*
X00881273Y00970451D02*
X00879615Y00970121D01*
X00878209Y00969182D01*
X00877270Y00967776D01*
X00876940Y00966118D01*
X00877270Y00964460D01*
X00878209Y00963054D01*
X00879615Y00962114D01*
X00881273Y00961785D01*
X00882931Y00962114D01*
X00884337Y00963054D01*
X00885276Y00964460D01*
X00885606Y00966118D01*
X00885276Y00967776D01*
X00884337Y00969182D01*
X00882931Y00970121D01*
X00881273Y00970451D01*
D02*
G37*
G36*
X00755849Y00966160D02*
X00754191Y00965831D01*
X00752785Y00964891D01*
X00751846Y00963485D01*
X00751516Y00961827D01*
X00751846Y00960169D01*
X00752785Y00958763D01*
X00754191Y00957824D01*
X00755849Y00957494D01*
X00757507Y00957824D01*
X00758913Y00958763D01*
X00759853Y00960169D01*
X00760182Y00961827D01*
X00759853Y00963485D01*
X00758913Y00964891D01*
X00757507Y00965831D01*
X00755849Y00966160D01*
D02*
G37*
G36*
X00723578Y00964933D02*
X00721920Y00964603D01*
X00720514Y00963664D01*
X00719575Y00962258D01*
X00719245Y00960600D01*
X00719575Y00958942D01*
X00720514Y00957536D01*
X00721920Y00956597D01*
X00723578Y00956267D01*
X00725236Y00956597D01*
X00726642Y00957536D01*
X00727581Y00958942D01*
X00727911Y00960600D01*
X00727581Y00962258D01*
X00726642Y00963664D01*
X00725236Y00964603D01*
X00723578Y00964933D01*
D02*
G37*
G36*
X00702750Y00959933D02*
X00701092Y00959603D01*
X00699686Y00958664D01*
X00698746Y00957258D01*
X00698417Y00955600D01*
X00698746Y00953941D01*
X00699686Y00952536D01*
X00701092Y00951596D01*
X00702750Y00951267D01*
X00704408Y00951596D01*
X00705814Y00952536D01*
X00706753Y00953941D01*
X00707083Y00955600D01*
X00706753Y00957258D01*
X00705814Y00958664D01*
X00704408Y00959603D01*
X00702750Y00959933D01*
D02*
G37*
G36*
X00810750Y00948933D02*
X00809092Y00948603D01*
X00808216Y00948018D01*
X00807083Y00947427D01*
X00805677Y00948367D01*
X00804019Y00948697D01*
X00802361Y00948367D01*
X00800955Y00947427D01*
X00800016Y00946022D01*
X00799686Y00944363D01*
X00800016Y00942705D01*
X00800955Y00941299D01*
X00802361Y00940360D01*
X00804019Y00940030D01*
X00805677Y00940360D01*
X00806553Y00940945D01*
X00807686Y00941536D01*
X00809092Y00940597D01*
X00810750Y00940267D01*
X00812408Y00940597D01*
X00813814Y00941536D01*
X00814753Y00942942D01*
X00815083Y00944600D01*
X00814753Y00946258D01*
X00813814Y00947664D01*
X00812408Y00948603D01*
X00810750Y00948933D01*
D02*
G37*
G36*
X00723578Y00954933D02*
X00721920Y00954604D01*
X00720514Y00953664D01*
X00719575Y00952258D01*
X00719245Y00950600D01*
X00719575Y00948942D01*
X00720514Y00947536D01*
X00721920Y00946597D01*
X00723578Y00946267D01*
X00725236Y00946597D01*
X00726642Y00947536D01*
X00727581Y00948942D01*
X00727911Y00950600D01*
X00727581Y00952258D01*
X00726642Y00953664D01*
X00725236Y00954604D01*
X00723578Y00954933D01*
D02*
G37*
G36*
X00824250Y00951933D02*
X00822592Y00951603D01*
X00821186Y00950664D01*
X00820247Y00949258D01*
X00819917Y00947600D01*
X00820247Y00945942D01*
X00821186Y00944536D01*
X00822592Y00943597D01*
X00824250Y00943267D01*
X00825908Y00943597D01*
X00827314Y00944536D01*
X00828253Y00945942D01*
X00828583Y00947600D01*
X00828253Y00949258D01*
X00827314Y00950664D01*
X00825908Y00951603D01*
X00824250Y00951933D01*
D02*
G37*
G36*
X00771500Y00951943D02*
X00769647Y00951574D01*
X00768075Y00950525D01*
X00767026Y00948953D01*
X00766657Y00947100D01*
X00767026Y00945247D01*
X00768075Y00943675D01*
X00769647Y00942626D01*
X00771500Y00942257D01*
X00773353Y00942626D01*
X00774925Y00943675D01*
X00775974Y00945247D01*
X00776343Y00947100D01*
X00775974Y00948953D01*
X00774925Y00950525D01*
X00773353Y00951574D01*
X00771500Y00951943D01*
D02*
G37*
G36*
X00702750Y00949933D02*
X00701092Y00949603D01*
X00699686Y00948664D01*
X00698746Y00947258D01*
X00698417Y00945600D01*
X00698746Y00943941D01*
X00699686Y00942536D01*
X00701092Y00941596D01*
X00702750Y00941267D01*
X00704408Y00941596D01*
X00705814Y00942536D01*
X00706753Y00943941D01*
X00707083Y00945600D01*
X00706753Y00947258D01*
X00705814Y00948664D01*
X00704408Y00949603D01*
X00702750Y00949933D01*
D02*
G37*
G36*
X00723578Y00944933D02*
X00721920Y00944604D01*
X00720514Y00943664D01*
X00719575Y00942258D01*
X00719245Y00940600D01*
X00719575Y00938942D01*
X00720514Y00937536D01*
X00721920Y00936597D01*
X00723578Y00936267D01*
X00723734Y00936298D01*
X00724643Y00935615D01*
X00723820Y00934885D01*
X00723578Y00934933D01*
X00721920Y00934604D01*
X00720514Y00933664D01*
X00719575Y00932258D01*
X00719245Y00930600D01*
X00719575Y00928942D01*
X00720514Y00927536D01*
X00721920Y00926597D01*
X00723578Y00926267D01*
X00725236Y00926597D01*
X00726642Y00927536D01*
X00727581Y00928942D01*
X00727911Y00930600D01*
X00727906Y00930626D01*
X00729058Y00931344D01*
X00730750Y00931007D01*
X00732603Y00931376D01*
X00734175Y00932425D01*
X00735224Y00933997D01*
X00735593Y00935850D01*
X00735224Y00937703D01*
X00734175Y00939275D01*
X00732603Y00940324D01*
X00730750Y00940693D01*
X00729152Y00940375D01*
X00728954Y00940411D01*
X00728355Y00940722D01*
X00727807Y00941124D01*
X00727581Y00942258D01*
X00726642Y00943664D01*
X00725236Y00944604D01*
X00723578Y00944933D01*
D02*
G37*
G36*
X00702750Y00939933D02*
X00701092Y00939603D01*
X00699686Y00938664D01*
X00698746Y00937258D01*
X00698417Y00935600D01*
X00698746Y00933942D01*
X00699686Y00932536D01*
X00701092Y00931596D01*
X00702750Y00931267D01*
X00704408Y00931596D01*
X00705814Y00932536D01*
X00706753Y00933942D01*
X00707083Y00935600D01*
X00706753Y00937258D01*
X00705814Y00938664D01*
X00704408Y00939603D01*
X00702750Y00939933D01*
D02*
G37*
G36*
X00944457Y00938763D02*
X00942799Y00938433D01*
X00941393Y00937494D01*
X00940454Y00936088D01*
X00940124Y00934429D01*
X00940454Y00932771D01*
X00941393Y00931365D01*
X00942799Y00930426D01*
X00944457Y00930096D01*
X00946115Y00930426D01*
X00947521Y00931365D01*
X00948461Y00932771D01*
X00948791Y00934429D01*
X00948461Y00936088D01*
X00947521Y00937494D01*
X00946115Y00938433D01*
X00944457Y00938763D01*
D02*
G37*
G36*
X00562000Y00937443D02*
X00560147Y00937074D01*
X00558575Y00936024D01*
X00557526Y00934453D01*
X00557157Y00932600D01*
X00557526Y00930747D01*
X00558575Y00929175D01*
X00560147Y00928126D01*
X00562000Y00927757D01*
X00563853Y00928126D01*
X00565424Y00929175D01*
X00566474Y00930747D01*
X00566843Y00932600D01*
X00566474Y00934453D01*
X00565424Y00936024D01*
X00563853Y00937074D01*
X00562000Y00937443D01*
D02*
G37*
G36*
X00550500D02*
X00548647Y00937074D01*
X00547075Y00936024D01*
X00546026Y00934453D01*
X00545657Y00932600D01*
X00546026Y00930747D01*
X00547075Y00929175D01*
X00548647Y00928126D01*
X00550500Y00927757D01*
X00552353Y00928126D01*
X00553924Y00929175D01*
X00554974Y00930747D01*
X00555343Y00932600D01*
X00554974Y00934453D01*
X00553924Y00936024D01*
X00552353Y00937074D01*
X00550500Y00937443D01*
D02*
G37*
G36*
X01016018Y00973416D02*
X01014359Y00973086D01*
X01012953Y00972146D01*
X01012014Y00970741D01*
X01011684Y00969082D01*
X01012014Y00967424D01*
X01012953Y00966018D01*
X01014359Y00965079D01*
X01015415Y00964869D01*
X01015254Y00964059D01*
X01015406Y00963293D01*
X01014359Y00963085D01*
X01012953Y00962146D01*
X01012014Y00960740D01*
X01011684Y00959082D01*
X01012014Y00957424D01*
X01012953Y00956018D01*
X01014359Y00955079D01*
X01015500Y00954852D01*
X01015344Y00954069D01*
X01015495Y00953308D01*
X01014359Y00953082D01*
X01012953Y00952142D01*
X01012014Y00950736D01*
X01011684Y00949078D01*
X01012014Y00947420D01*
X01012953Y00946014D01*
X01014359Y00945075D01*
X01015584Y00944831D01*
X01015434Y00944078D01*
X01015584Y00943325D01*
X01014359Y00943081D01*
X01012953Y00942142D01*
X01012014Y00940736D01*
X01011684Y00939078D01*
X01012014Y00937420D01*
X01012953Y00936014D01*
X01013860Y00935408D01*
X01014061Y00934116D01*
X01013996Y00933906D01*
X01013026Y00932453D01*
X01012657Y00930600D01*
X01013026Y00928747D01*
X01014075Y00927175D01*
X01015647Y00926126D01*
X01017500Y00925757D01*
X01019353Y00926126D01*
X01020925Y00927175D01*
X01021974Y00928747D01*
X01022343Y00930600D01*
X01021974Y00932453D01*
X01020925Y00934025D01*
X01019658Y00934871D01*
X01019524Y00935136D01*
X01019332Y00935990D01*
X01019323Y00936375D01*
X01020021Y00937420D01*
X01020351Y00939078D01*
X01020201Y00939831D01*
X01021426Y00940075D01*
X01022832Y00941014D01*
X01023771Y00942420D01*
X01024101Y00944078D01*
X01023771Y00945736D01*
X01022832Y00947142D01*
X01021426Y00948081D01*
X01020201Y00948325D01*
X01020351Y00949078D01*
X01020199Y00949839D01*
X01021336Y00950065D01*
X01022741Y00951004D01*
X01023681Y00952410D01*
X01024010Y00954069D01*
X01023681Y00955727D01*
X01022741Y00957133D01*
X01021336Y00958072D01*
X01020195Y00958299D01*
X01020351Y00959082D01*
X01020199Y00959847D01*
X01021245Y00960056D01*
X01022651Y00960995D01*
X01023590Y00962401D01*
X01023920Y00964059D01*
X01023590Y00965717D01*
X01022651Y00967123D01*
X01021245Y00968062D01*
X01020190Y00968272D01*
X01020351Y00969082D01*
X01020021Y00970741D01*
X01019082Y00972146D01*
X01017676Y00973086D01*
X01016018Y00973416D01*
D02*
G37*
G36*
X00702750Y00929933D02*
X00701092Y00929603D01*
X00699686Y00928664D01*
X00698746Y00927258D01*
X00698417Y00925600D01*
X00698746Y00923942D01*
X00699686Y00922536D01*
X00701092Y00921597D01*
X00702750Y00921267D01*
X00704408Y00921597D01*
X00705814Y00922536D01*
X00706753Y00923942D01*
X00707083Y00925600D01*
X00706753Y00927258D01*
X00705814Y00928664D01*
X00704408Y00929603D01*
X00702750Y00929933D01*
D02*
G37*
G36*
X00980875Y00928083D02*
X00979217Y00927753D01*
X00977811Y00926814D01*
X00976871Y00925408D01*
X00976542Y00923750D01*
X00976871Y00922091D01*
X00977811Y00920686D01*
X00979217Y00919746D01*
X00980875Y00919416D01*
X00982533Y00919746D01*
X00983939Y00920686D01*
X00984878Y00922091D01*
X00985208Y00923750D01*
X00984878Y00925408D01*
X00983939Y00926814D01*
X00982533Y00927753D01*
X00980875Y00928083D01*
D02*
G37*
G36*
X00775768Y00927449D02*
X00774109Y00927119D01*
X00772704Y00926180D01*
X00771764Y00924774D01*
X00771434Y00923116D01*
X00771764Y00921458D01*
X00772704Y00920052D01*
X00774109Y00919112D01*
X00775768Y00918783D01*
X00777426Y00919112D01*
X00778832Y00920052D01*
X00779771Y00921458D01*
X00780101Y00923116D01*
X00779771Y00924774D01*
X00778832Y00926180D01*
X00777426Y00927119D01*
X00775768Y00927449D01*
D02*
G37*
G36*
X00723578Y00924933D02*
X00721920Y00924604D01*
X00720514Y00923664D01*
X00719575Y00922258D01*
X00719245Y00920600D01*
X00719575Y00918942D01*
X00720514Y00917536D01*
X00721920Y00916597D01*
X00723578Y00916267D01*
X00725236Y00916597D01*
X00726642Y00917536D01*
X00727581Y00918942D01*
X00727911Y00920600D01*
X00727581Y00922258D01*
X00726642Y00923664D01*
X00725236Y00924604D01*
X00723578Y00924933D01*
D02*
G37*
G36*
X00702750Y00919933D02*
X00701092Y00919603D01*
X00699686Y00918664D01*
X00698746Y00917258D01*
X00698417Y00915600D01*
X00698746Y00913942D01*
X00699686Y00912536D01*
X00701092Y00911597D01*
X00702750Y00911267D01*
X00704408Y00911597D01*
X00705814Y00912536D01*
X00706753Y00913942D01*
X00707083Y00915600D01*
X00706753Y00917258D01*
X00705814Y00918664D01*
X00704408Y00919603D01*
X00702750Y00919933D01*
D02*
G37*
G36*
X01003500Y00918683D02*
X01001842Y00918353D01*
X01000436Y00917414D01*
X00999497Y00916008D01*
X00999167Y00914350D01*
X00999497Y00912692D01*
X01000436Y00911286D01*
X01001842Y00910347D01*
X01003500Y00910017D01*
X01005158Y00910347D01*
X01006564Y00911286D01*
X01007503Y00912692D01*
X01007833Y00914350D01*
X01007503Y00916008D01*
X01006564Y00917414D01*
X01005158Y00918353D01*
X01003500Y00918683D01*
D02*
G37*
G36*
X00729750Y00913433D02*
X00728092Y00913103D01*
X00726686Y00912164D01*
X00725747Y00910758D01*
X00725417Y00909100D01*
X00725747Y00907442D01*
X00726686Y00906036D01*
X00728092Y00905097D01*
X00729750Y00904767D01*
X00731408Y00905097D01*
X00732814Y00906036D01*
X00733753Y00907442D01*
X00734083Y00909100D01*
X00733753Y00910758D01*
X00732814Y00912164D01*
X00731408Y00913103D01*
X00729750Y00913433D01*
D02*
G37*
G36*
X00547442Y00917461D02*
X00545588Y00917092D01*
X00544017Y00916042D01*
X00542967Y00914471D01*
X00542599Y00912618D01*
X00542967Y00910764D01*
X00544017Y00909193D01*
X00545588Y00908143D01*
X00547442Y00907775D01*
X00549295Y00908143D01*
X00550247Y00908780D01*
X00551407Y00908100D01*
X00551776Y00906247D01*
X00552825Y00904675D01*
X00554397Y00903626D01*
X00556250Y00903257D01*
X00558103Y00903626D01*
X00559674Y00904675D01*
X00560724Y00906247D01*
X00561093Y00908100D01*
X00560724Y00909953D01*
X00559674Y00911525D01*
X00558103Y00912574D01*
X00556250Y00912943D01*
X00554397Y00912574D01*
X00553445Y00911938D01*
X00552285Y00912618D01*
X00551916Y00914471D01*
X00550866Y00916042D01*
X00549295Y00917092D01*
X00547442Y00917461D01*
D02*
G37*
G36*
X00845500Y00907043D02*
X00843842Y00906713D01*
X00842436Y00905774D01*
X00841497Y00904368D01*
X00841167Y00902710D01*
X00841497Y00901052D01*
X00842436Y00899646D01*
X00843842Y00898707D01*
X00845500Y00898377D01*
X00847158Y00898707D01*
X00848564Y00899646D01*
X00849735Y00899112D01*
X00850342Y00898706D01*
X00852000Y00898376D01*
X00853658Y00898706D01*
X00854369Y00899181D01*
X00855545Y00899537D01*
X00856951Y00898598D01*
X00858609Y00898268D01*
X00860267Y00898598D01*
X00860945Y00899051D01*
X00862045Y00899537D01*
X00863451Y00898598D01*
X00865109Y00898268D01*
X00866767Y00898598D01*
X00868173Y00899537D01*
X00869112Y00900943D01*
X00869442Y00902601D01*
X00869112Y00904259D01*
X00868173Y00905665D01*
X00866767Y00906605D01*
X00865109Y00906934D01*
X00863451Y00906605D01*
X00862773Y00906151D01*
X00861673Y00905665D01*
X00860267Y00906605D01*
X00858609Y00906935D01*
X00856951Y00906605D01*
X00856319Y00906182D01*
X00855218Y00905824D01*
X00854391Y00906224D01*
X00853658Y00906713D01*
X00852000Y00907043D01*
X00850342Y00906713D01*
X00848936Y00905774D01*
X00847765Y00906308D01*
X00847158Y00906713D01*
X00845500Y00907043D01*
D02*
G37*
G36*
X00547250Y00904683D02*
X00545592Y00904353D01*
X00544186Y00903414D01*
X00543247Y00902008D01*
X00542917Y00900350D01*
X00543247Y00898692D01*
X00544186Y00897286D01*
X00545592Y00896347D01*
X00547250Y00896017D01*
X00548908Y00896347D01*
X00550314Y00897286D01*
X00551253Y00898692D01*
X00551583Y00900350D01*
X00551253Y00902008D01*
X00550314Y00903414D01*
X00548908Y00904353D01*
X00547250Y00904683D01*
D02*
G37*
G36*
X00539000Y00894693D02*
X00537147Y00894324D01*
X00535575Y00893275D01*
X00534526Y00891703D01*
X00534157Y00889850D01*
X00534526Y00887997D01*
X00535575Y00886425D01*
X00537147Y00885376D01*
X00539000Y00885007D01*
X00540853Y00885376D01*
X00542425Y00886425D01*
X00543474Y00887997D01*
X00543843Y00889850D01*
X00543474Y00891703D01*
X00542425Y00893275D01*
X00540853Y00894324D01*
X00539000Y00894693D01*
D02*
G37*
G36*
X00507500Y00883683D02*
X00505842Y00883353D01*
X00504436Y00882414D01*
X00503497Y00881008D01*
X00503167Y00879350D01*
X00503497Y00877692D01*
X00504436Y00876286D01*
X00505842Y00875347D01*
X00507500Y00875017D01*
X00509158Y00875347D01*
X00510564Y00876286D01*
X00511503Y00877692D01*
X00511833Y00879350D01*
X00511503Y00881008D01*
X00510564Y00882414D01*
X00509158Y00883353D01*
X00507500Y00883683D01*
D02*
G37*
G36*
X00818500Y00879933D02*
X00816842Y00879603D01*
X00815436Y00878664D01*
X00814497Y00877258D01*
X00814167Y00875600D01*
X00814497Y00873942D01*
X00815436Y00872536D01*
X00816842Y00871597D01*
X00818500Y00871267D01*
X00820158Y00871597D01*
X00821564Y00872536D01*
X00822503Y00873942D01*
X00822833Y00875600D01*
X00822503Y00877258D01*
X00821564Y00878664D01*
X00820158Y00879603D01*
X00818500Y00879933D01*
D02*
G37*
G36*
X00523500Y00877433D02*
X00521842Y00877103D01*
X00520436Y00876164D01*
X00519497Y00874758D01*
X00519167Y00873100D01*
X00519497Y00871442D01*
X00520436Y00870036D01*
X00521842Y00869097D01*
X00523500Y00868767D01*
X00525158Y00869097D01*
X00526564Y00870036D01*
X00527503Y00871442D01*
X00527833Y00873100D01*
X00527503Y00874758D01*
X00526564Y00876164D01*
X00525158Y00877103D01*
X00523500Y00877433D01*
D02*
G37*
G36*
X00880500Y00876683D02*
X00878842Y00876353D01*
X00877436Y00875414D01*
X00876497Y00874008D01*
X00876167Y00872350D01*
X00876497Y00870692D01*
X00877436Y00869286D01*
X00878842Y00868347D01*
X00880500Y00868017D01*
X00882158Y00868347D01*
X00883564Y00869286D01*
X00884503Y00870692D01*
X00884833Y00872350D01*
X00884503Y00874008D01*
X00883564Y00875414D01*
X00882158Y00876353D01*
X00880500Y00876683D01*
D02*
G37*
G36*
X00902000Y00876183D02*
X00900342Y00875853D01*
X00898936Y00874914D01*
X00897997Y00873508D01*
X00897667Y00871850D01*
X00897997Y00870192D01*
X00898936Y00868786D01*
X00900342Y00867847D01*
X00902000Y00867517D01*
X00903658Y00867847D01*
X00905064Y00868786D01*
X00906003Y00870192D01*
X00906333Y00871850D01*
X00906003Y00873508D01*
X00905064Y00874914D01*
X00903658Y00875853D01*
X00902000Y00876183D01*
D02*
G37*
G36*
X00946500Y00874183D02*
X00944842Y00873853D01*
X00943436Y00872914D01*
X00942497Y00871508D01*
X00942167Y00869850D01*
X00942497Y00868192D01*
X00943436Y00866786D01*
X00944842Y00865847D01*
X00946500Y00865517D01*
X00948158Y00865847D01*
X00949564Y00866786D01*
X00950503Y00868192D01*
X00950833Y00869850D01*
X00950503Y00871508D01*
X00949564Y00872914D01*
X00948158Y00873853D01*
X00946500Y00874183D01*
D02*
G37*
G36*
X00516250Y00869683D02*
X00514592Y00869353D01*
X00513186Y00868414D01*
X00512247Y00867008D01*
X00511927Y00865399D01*
X00510500Y00865683D01*
X00508842Y00865353D01*
X00507436Y00864414D01*
X00506497Y00863008D01*
X00506167Y00861350D01*
X00506497Y00859692D01*
X00507436Y00858286D01*
X00508842Y00857347D01*
X00510500Y00857017D01*
X00512158Y00857347D01*
X00513564Y00858286D01*
X00514503Y00859692D01*
X00514823Y00861301D01*
X00516250Y00861017D01*
X00517908Y00861347D01*
X00519314Y00862286D01*
X00520253Y00863692D01*
X00520583Y00865350D01*
X00520253Y00867008D01*
X00519314Y00868414D01*
X00517908Y00869353D01*
X00516250Y00869683D01*
D02*
G37*
G36*
X00720750Y00874693D02*
X00718897Y00874324D01*
X00717325Y00873275D01*
X00716276Y00871703D01*
X00715907Y00869850D01*
X00716276Y00867997D01*
X00717325Y00866425D01*
X00718897Y00865376D01*
X00720750Y00865007D01*
X00722603Y00865376D01*
X00724174Y00866425D01*
X00725224Y00867997D01*
X00725593Y00869850D01*
X00725224Y00871703D01*
X00724174Y00873275D01*
X00722603Y00874324D01*
X00720750Y00874693D01*
D02*
G37*
G36*
X00933500Y00881566D02*
X00931647Y00881198D01*
X00930076Y00880148D01*
X00929026Y00878577D01*
X00928657Y00876723D01*
X00929026Y00874870D01*
X00930076Y00873299D01*
X00930081Y00873295D01*
X00929812Y00871947D01*
X00929342Y00871853D01*
X00927936Y00870914D01*
X00926997Y00869508D01*
X00926667Y00867850D01*
X00926997Y00866192D01*
X00927936Y00864786D01*
X00929342Y00863847D01*
X00931000Y00863517D01*
X00932658Y00863847D01*
X00934064Y00864786D01*
X00935003Y00866192D01*
X00935333Y00867850D01*
X00935003Y00869508D01*
X00934192Y00870723D01*
X00934354Y00871575D01*
X00934582Y00872095D01*
X00935353Y00872249D01*
X00936925Y00873299D01*
X00937974Y00874870D01*
X00938343Y00876723D01*
X00937974Y00878577D01*
X00936925Y00880148D01*
X00935353Y00881198D01*
X00933500Y00881566D01*
D02*
G37*
G36*
X00752984Y00870699D02*
X00751326Y00870370D01*
X00749920Y00869430D01*
X00748980Y00868025D01*
X00748651Y00866366D01*
X00748980Y00864708D01*
X00749920Y00863302D01*
X00751326Y00862363D01*
X00752984Y00862033D01*
X00754642Y00862363D01*
X00756048Y00863302D01*
X00756987Y00864708D01*
X00757317Y00866366D01*
X00756987Y00868025D01*
X00756048Y00869430D01*
X00754642Y00870370D01*
X00752984Y00870699D01*
D02*
G37*
G36*
X00472250Y00878693D02*
X00470397Y00878324D01*
X00468825Y00877274D01*
X00467776Y00875703D01*
X00467407Y00873850D01*
X00467776Y00871996D01*
X00468305Y00871204D01*
X00468737Y00870225D01*
X00468305Y00869246D01*
X00467776Y00868453D01*
X00467407Y00866600D01*
X00467776Y00864746D01*
X00468825Y00863175D01*
X00470397Y00862125D01*
X00472250Y00861757D01*
X00474103Y00862125D01*
X00475675Y00863175D01*
X00476725Y00864746D01*
X00477093Y00866600D01*
X00476725Y00868453D01*
X00476195Y00869246D01*
X00475763Y00870225D01*
X00476195Y00871204D01*
X00476725Y00871996D01*
X00477093Y00873850D01*
X00476725Y00875703D01*
X00475675Y00877274D01*
X00474103Y00878324D01*
X00472250Y00878693D01*
D02*
G37*
G36*
X01016009Y00909924D02*
X01014350Y00909594D01*
X01012944Y00908655D01*
X01012005Y00907249D01*
X01011675Y00905591D01*
X01012005Y00903933D01*
X01012944Y00902527D01*
X01014350Y00901588D01*
X01015406Y00901377D01*
X01015245Y00900567D01*
X01015397Y00899802D01*
X01014350Y00899594D01*
X01012944Y00898654D01*
X01012005Y00897249D01*
X01011675Y00895590D01*
X01012005Y00893932D01*
X01012944Y00892526D01*
X01014350Y00891587D01*
X01015491Y00891360D01*
X01015335Y00890577D01*
X01015486Y00889816D01*
X01014350Y00889590D01*
X01012944Y00888651D01*
X01012005Y00887245D01*
X01011675Y00885587D01*
X01012005Y00883929D01*
X01012944Y00882523D01*
X01014350Y00881583D01*
X01015575Y00881340D01*
X01015425Y00880586D01*
X01015575Y00879833D01*
X01014350Y00879590D01*
X01012944Y00878650D01*
X01012005Y00877244D01*
X01011675Y00875586D01*
X01012005Y00873928D01*
X01012902Y00872586D01*
X01013068Y00872237D01*
Y00871170D01*
X01012686Y00870914D01*
X01011747Y00869508D01*
X01011417Y00867850D01*
X01011519Y00867337D01*
X01010342Y00867103D01*
X01008936Y00866164D01*
X01007997Y00864758D01*
X01007667Y00863100D01*
X01007997Y00861442D01*
X01008936Y00860036D01*
X01010342Y00859097D01*
X01012000Y00858767D01*
X01013658Y00859097D01*
X01015064Y00860036D01*
X01016003Y00861442D01*
X01016333Y00863100D01*
X01016231Y00863613D01*
X01017408Y00863847D01*
X01018814Y00864786D01*
X01019753Y00866192D01*
X01020083Y00867850D01*
X01019753Y00869508D01*
X01018857Y00870851D01*
X01018690Y00871199D01*
Y00872267D01*
X01019072Y00872522D01*
X01020012Y00873928D01*
X01020342Y00875586D01*
X01020192Y00876339D01*
X01021417Y00876583D01*
X01022823Y00877523D01*
X01023762Y00878928D01*
X01024092Y00880586D01*
X01023762Y00882245D01*
X01022823Y00883651D01*
X01021417Y00884590D01*
X01020192Y00884834D01*
X01020342Y00885587D01*
X01020190Y00886348D01*
X01021327Y00886574D01*
X01022732Y00887513D01*
X01023672Y00888919D01*
X01024001Y00890577D01*
X01023672Y00892235D01*
X01022732Y00893641D01*
X01021327Y00894580D01*
X01020186Y00894807D01*
X01020342Y00895590D01*
X01020190Y00896356D01*
X01021236Y00896564D01*
X01022642Y00897504D01*
X01023581Y00898909D01*
X01023911Y00900567D01*
X01023581Y00902226D01*
X01022642Y00903632D01*
X01021236Y00904571D01*
X01020181Y00904781D01*
X01020342Y00905591D01*
X01020012Y00907249D01*
X01019073Y00908655D01*
X01017667Y00909594D01*
X01016009Y00909924D01*
D02*
G37*
G36*
X00638985Y00859070D02*
X00637327Y00858740D01*
X00635921Y00857801D01*
X00635602Y00857323D01*
X00634699Y00857926D01*
X00633041Y00858256D01*
X00631382Y00857926D01*
X00629977Y00856987D01*
X00629037Y00855581D01*
X00628708Y00853923D01*
X00629037Y00852265D01*
X00629977Y00850859D01*
X00631382Y00849920D01*
X00633041Y00849590D01*
X00634699Y00849920D01*
X00636105Y00850859D01*
X00636424Y00851337D01*
X00637327Y00850733D01*
X00637793Y00850640D01*
X00638201Y00849655D01*
X00638182Y00849268D01*
X00637868Y00847686D01*
X00638197Y00846028D01*
X00639137Y00844622D01*
X00640543Y00843683D01*
X00642201Y00843353D01*
X00643859Y00843683D01*
X00645265Y00844622D01*
X00646204Y00846028D01*
X00646534Y00847686D01*
X00646257Y00849077D01*
X00646420Y00849109D01*
X00647622Y00849912D01*
X00647698Y00849798D01*
X00649103Y00848859D01*
X00650762Y00848529D01*
X00652420Y00848859D01*
X00653826Y00849798D01*
X00654765Y00851204D01*
X00655095Y00852862D01*
X00654765Y00854521D01*
X00653826Y00855926D01*
X00652420Y00856866D01*
X00650762Y00857196D01*
X00649103Y00856866D01*
X00647901Y00856063D01*
X00647825Y00856176D01*
X00646420Y00857116D01*
X00644761Y00857446D01*
X00643103Y00857116D01*
X00642691Y00856840D01*
X00642049Y00857801D01*
X00640644Y00858740D01*
X00638985Y00859070D01*
D02*
G37*
G36*
X00738250Y00864433D02*
X00736592Y00864103D01*
X00735186Y00863164D01*
X00734247Y00861758D01*
X00733917Y00860100D01*
X00734247Y00858442D01*
X00735186Y00857036D01*
X00736592Y00856097D01*
X00738250Y00855767D01*
X00739908Y00856097D01*
X00741314Y00857036D01*
X00742253Y00858442D01*
X00742583Y00860100D01*
X00742253Y00861758D01*
X00741314Y00863164D01*
X00739908Y00864103D01*
X00738250Y00864433D01*
D02*
G37*
G36*
X00728250D02*
X00726592Y00864103D01*
X00725186Y00863164D01*
X00724247Y00861758D01*
X00723917Y00860100D01*
X00724247Y00858442D01*
X00725186Y00857036D01*
X00726592Y00856097D01*
X00728250Y00855767D01*
X00729908Y00856097D01*
X00731314Y00857036D01*
X00732253Y00858442D01*
X00732583Y00860100D01*
X00732253Y00861758D01*
X00731314Y00863164D01*
X00729908Y00864103D01*
X00728250Y00864433D01*
D02*
G37*
G36*
X00825053Y00868933D02*
X00823395Y00868603D01*
X00821989Y00867664D01*
X00821050Y00866258D01*
X00820720Y00864600D01*
X00821050Y00862942D01*
X00821989Y00861536D01*
X00823395Y00860597D01*
X00824286Y00860419D01*
X00824123Y00859600D01*
X00824453Y00857942D01*
X00825393Y00856536D01*
X00826798Y00855596D01*
X00828457Y00855267D01*
X00830115Y00855596D01*
X00831521Y00856536D01*
X00832460Y00857942D01*
X00832790Y00859600D01*
X00832460Y00861258D01*
X00831521Y00862664D01*
X00830115Y00863603D01*
X00829224Y00863781D01*
X00829387Y00864600D01*
X00829057Y00866258D01*
X00828118Y00867664D01*
X00826712Y00868603D01*
X00825053Y00868933D01*
D02*
G37*
G36*
X00983000Y00861683D02*
X00981342Y00861353D01*
X00979936Y00860414D01*
X00978997Y00859008D01*
X00978667Y00857350D01*
X00978997Y00855692D01*
X00979936Y00854286D01*
X00981342Y00853347D01*
X00983000Y00853017D01*
X00984658Y00853347D01*
X00986064Y00854286D01*
X00987003Y00855692D01*
X00987333Y00857350D01*
X00987003Y00859008D01*
X00986064Y00860414D01*
X00984658Y00861353D01*
X00983000Y00861683D01*
D02*
G37*
G36*
X00910163Y00860780D02*
X00908309Y00860412D01*
X00906738Y00859362D01*
X00905688Y00857791D01*
X00905320Y00855937D01*
X00905688Y00854084D01*
X00906738Y00852513D01*
X00908309Y00851463D01*
X00910163Y00851094D01*
X00912016Y00851463D01*
X00913587Y00852513D01*
X00914637Y00854084D01*
X00915006Y00855937D01*
X00914637Y00857791D01*
X00913587Y00859362D01*
X00912016Y00860412D01*
X00910163Y00860780D01*
D02*
G37*
G36*
X00522250Y00856193D02*
X00520397Y00855824D01*
X00518825Y00854774D01*
X00517776Y00853203D01*
X00517407Y00851350D01*
X00517776Y00849497D01*
X00518825Y00847925D01*
X00520397Y00846876D01*
X00522250Y00846507D01*
X00524103Y00846876D01*
X00525675Y00847925D01*
X00526724Y00849497D01*
X00527093Y00851350D01*
X00526724Y00853203D01*
X00525675Y00854774D01*
X00524103Y00855824D01*
X00522250Y00856193D01*
D02*
G37*
G36*
X00854168Y00852298D02*
X00852510Y00851968D01*
X00851104Y00851029D01*
X00850164Y00849623D01*
X00849835Y00847964D01*
X00850164Y00846306D01*
X00851104Y00844901D01*
X00852510Y00843961D01*
X00854168Y00843631D01*
X00855826Y00843961D01*
X00857232Y00844901D01*
X00858171Y00846306D01*
X00858501Y00847964D01*
X00858171Y00849623D01*
X00857232Y00851029D01*
X00855826Y00851968D01*
X00854168Y00852298D01*
D02*
G37*
G36*
X00883500Y00852443D02*
X00881647Y00852074D01*
X00880076Y00851025D01*
X00879026Y00849453D01*
X00878657Y00847600D01*
X00879026Y00845747D01*
X00880076Y00844175D01*
X00881647Y00843126D01*
X00883500Y00842757D01*
X00885354Y00843126D01*
X00886925Y00844175D01*
X00887975Y00845747D01*
X00888343Y00847600D01*
X00887975Y00849453D01*
X00886925Y00851025D01*
X00885354Y00852074D01*
X00883500Y00852443D01*
D02*
G37*
G36*
X00626510Y00846695D02*
X00624852Y00846365D01*
X00623446Y00845426D01*
X00622507Y00844020D01*
X00622177Y00842362D01*
X00622222Y00842138D01*
X00620852Y00841865D01*
X00619446Y00840926D01*
X00619149Y00840481D01*
X00618217Y00841103D01*
X00616559Y00841433D01*
X00614901Y00841103D01*
X00613495Y00840164D01*
X00612555Y00838758D01*
X00612225Y00837100D01*
X00612494Y00835750D01*
X00612278Y00835707D01*
X00610872Y00834768D01*
X00609933Y00833362D01*
X00609603Y00831703D01*
X00609933Y00830045D01*
X00610872Y00828639D01*
X00612278Y00827700D01*
X00613936Y00827370D01*
X00615594Y00827700D01*
X00617000Y00828639D01*
X00617940Y00830045D01*
X00618270Y00831703D01*
X00618001Y00833054D01*
X00618217Y00833097D01*
X00619623Y00834036D01*
X00619920Y00834481D01*
X00620852Y00833858D01*
X00622510Y00833528D01*
X00624169Y00833858D01*
X00625574Y00834798D01*
X00626514Y00836203D01*
X00626843Y00837862D01*
X00626799Y00838086D01*
X00628169Y00838358D01*
X00629575Y00839298D01*
X00630514Y00840704D01*
X00630844Y00842362D01*
X00630514Y00844020D01*
X00629575Y00845426D01*
X00628169Y00846365D01*
X00626510Y00846695D01*
D02*
G37*
G36*
X00475000Y00839683D02*
X00473342Y00839353D01*
X00471936Y00838414D01*
X00470997Y00837008D01*
X00470667Y00835350D01*
X00470997Y00833692D01*
X00471936Y00832286D01*
X00473342Y00831347D01*
X00475000Y00831017D01*
X00476658Y00831347D01*
X00478064Y00832286D01*
X00479003Y00833692D01*
X00479333Y00835350D01*
X00479003Y00837008D01*
X00478064Y00838414D01*
X00476658Y00839353D01*
X00475000Y00839683D01*
D02*
G37*
G36*
X00784500Y00838859D02*
X00782842Y00838529D01*
X00781436Y00837590D01*
X00780497Y00836184D01*
X00780167Y00834526D01*
X00780497Y00832868D01*
X00781436Y00831462D01*
X00782842Y00830523D01*
X00784500Y00830193D01*
X00786158Y00830523D01*
X00787564Y00831462D01*
X00788504Y00832868D01*
X00788833Y00834526D01*
X00788504Y00836184D01*
X00787564Y00837590D01*
X00786158Y00838529D01*
X00784500Y00838859D01*
D02*
G37*
G36*
X00722250Y00838683D02*
X00720592Y00838353D01*
X00719186Y00837414D01*
X00718247Y00836008D01*
X00717917Y00834350D01*
X00718247Y00832692D01*
X00719186Y00831286D01*
X00720592Y00830347D01*
X00722250Y00830017D01*
X00723908Y00830347D01*
X00725314Y00831286D01*
X00726253Y00832692D01*
X00726583Y00834350D01*
X00726253Y00836008D01*
X00725314Y00837414D01*
X00723908Y00838353D01*
X00722250Y00838683D01*
D02*
G37*
G36*
X00867500Y00836933D02*
X00865842Y00836603D01*
X00864436Y00835664D01*
X00863497Y00834258D01*
X00863167Y00832600D01*
X00863497Y00830942D01*
X00864436Y00829536D01*
X00865842Y00828597D01*
X00867500Y00828267D01*
X00869158Y00828597D01*
X00870564Y00829536D01*
X00871503Y00830942D01*
X00871833Y00832600D01*
X00871503Y00834258D01*
X00870564Y00835664D01*
X00869158Y00836603D01*
X00867500Y00836933D01*
D02*
G37*
G36*
X00836000Y00837062D02*
X00834342Y00836732D01*
X00832936Y00835793D01*
X00831997Y00834387D01*
X00831667Y00832729D01*
X00831997Y00831070D01*
X00832936Y00829665D01*
X00834342Y00828725D01*
X00836000Y00828395D01*
X00837504Y00828695D01*
X00837505Y00828692D01*
X00838444Y00827286D01*
X00839850Y00826347D01*
X00841508Y00826017D01*
X00843167Y00826347D01*
X00844572Y00827286D01*
X00845512Y00828692D01*
X00845842Y00830350D01*
X00845512Y00832008D01*
X00844572Y00833414D01*
X00843167Y00834353D01*
X00841508Y00834683D01*
X00840004Y00834384D01*
X00840003Y00834387D01*
X00839064Y00835793D01*
X00837658Y00836732D01*
X00836000Y00837062D01*
D02*
G37*
G36*
X00710250Y00835443D02*
X00708397Y00835074D01*
X00706825Y00834025D01*
X00705776Y00832453D01*
X00705407Y00830600D01*
X00705776Y00828747D01*
X00706825Y00827175D01*
X00708397Y00826126D01*
X00710250Y00825757D01*
X00712103Y00826126D01*
X00713674Y00827175D01*
X00714724Y00828747D01*
X00715093Y00830600D01*
X00714724Y00832453D01*
X00713674Y00834025D01*
X00712103Y00835074D01*
X00710250Y00835443D01*
D02*
G37*
G36*
X00509500Y00830683D02*
X00507842Y00830353D01*
X00506436Y00829414D01*
X00505497Y00828008D01*
X00505167Y00826350D01*
X00505497Y00824692D01*
X00506436Y00823286D01*
X00507842Y00822347D01*
X00509500Y00822017D01*
X00511158Y00822347D01*
X00512564Y00823286D01*
X00513503Y00824692D01*
X00513833Y00826350D01*
X00513503Y00828008D01*
X00512564Y00829414D01*
X00511158Y00830353D01*
X00509500Y00830683D01*
D02*
G37*
G36*
X00498000Y00830183D02*
X00496342Y00829853D01*
X00494936Y00828914D01*
X00493997Y00827508D01*
X00493667Y00825850D01*
X00493997Y00824192D01*
X00494936Y00822786D01*
X00496342Y00821847D01*
X00498000Y00821517D01*
X00499658Y00821847D01*
X00501064Y00822786D01*
X00502003Y00824192D01*
X00502333Y00825850D01*
X00502003Y00827508D01*
X00501064Y00828914D01*
X00499658Y00829853D01*
X00498000Y00830183D01*
D02*
G37*
G36*
X00487250D02*
X00485592Y00829853D01*
X00484186Y00828914D01*
X00483247Y00827508D01*
X00482917Y00825850D01*
X00483247Y00824192D01*
X00484186Y00822786D01*
X00485592Y00821847D01*
X00487250Y00821517D01*
X00488908Y00821847D01*
X00490314Y00822786D01*
X00491253Y00824192D01*
X00491583Y00825850D01*
X00491253Y00827508D01*
X00490314Y00828914D01*
X00488908Y00829853D01*
X00487250Y00830183D01*
D02*
G37*
G36*
X00636839Y00827433D02*
X00635181Y00827103D01*
X00633775Y00826164D01*
X00632836Y00824758D01*
X00632506Y00823100D01*
X00632836Y00821442D01*
X00633775Y00820036D01*
X00635181Y00819097D01*
X00636839Y00818767D01*
X00638497Y00819097D01*
X00639903Y00820036D01*
X00640843Y00821442D01*
X00641172Y00823100D01*
X00640843Y00824758D01*
X00639903Y00826164D01*
X00638497Y00827103D01*
X00636839Y00827433D01*
D02*
G37*
G36*
X00530000Y00825683D02*
X00528342Y00825353D01*
X00526936Y00824414D01*
X00525997Y00823008D01*
X00525667Y00821350D01*
X00525997Y00819692D01*
X00526936Y00818286D01*
X00528342Y00817347D01*
X00530000Y00817017D01*
X00531658Y00817347D01*
X00533064Y00818286D01*
X00534003Y00819692D01*
X00534333Y00821350D01*
X00534003Y00823008D01*
X00533064Y00824414D01*
X00531658Y00825353D01*
X00530000Y00825683D01*
D02*
G37*
G36*
X00812250Y00823933D02*
X00810592Y00823603D01*
X00809186Y00822664D01*
X00808247Y00821258D01*
X00807917Y00819600D01*
X00808247Y00817942D01*
X00809186Y00816536D01*
X00810592Y00815597D01*
X00812250Y00815267D01*
X00813908Y00815597D01*
X00815314Y00816536D01*
X00816253Y00817942D01*
X00816583Y00819600D01*
X00816253Y00821258D01*
X00815314Y00822664D01*
X00813908Y00823603D01*
X00812250Y00823933D01*
D02*
G37*
G36*
X00688000Y00824193D02*
X00686147Y00823824D01*
X00684575Y00822775D01*
X00683526Y00821203D01*
X00683157Y00819350D01*
X00683526Y00817497D01*
X00684575Y00815925D01*
X00686147Y00814876D01*
X00688000Y00814507D01*
X00689853Y00814876D01*
X00691425Y00815925D01*
X00692474Y00817497D01*
X00692843Y00819350D01*
X00692474Y00821203D01*
X00691425Y00822775D01*
X00689853Y00823824D01*
X00688000Y00824193D01*
D02*
G37*
G36*
X00606500Y00828683D02*
X00604842Y00828353D01*
X00603436Y00827414D01*
X00602497Y00826008D01*
X00602167Y00824350D01*
X00602497Y00822692D01*
X00603436Y00821286D01*
X00604330Y00820689D01*
X00604842Y00820347D01*
X00605215Y00819126D01*
X00605085Y00818472D01*
X00605190Y00817945D01*
X00604092Y00817727D01*
X00602686Y00816788D01*
X00601747Y00815382D01*
X00601417Y00813724D01*
X00601747Y00812066D01*
X00602686Y00810660D01*
X00604092Y00809720D01*
X00605750Y00809390D01*
X00607408Y00809720D01*
X00608814Y00810660D01*
X00609753Y00812066D01*
X00610083Y00813724D01*
X00609979Y00814250D01*
X00611077Y00814469D01*
X00612482Y00815408D01*
X00613422Y00816814D01*
X00613751Y00818472D01*
X00613422Y00820130D01*
X00612482Y00821536D01*
X00611920Y00821912D01*
X00611589Y00822133D01*
X00611588Y00822133D01*
X00611077Y00822475D01*
X00610746Y00823555D01*
X00610726Y00823811D01*
X00610833Y00824350D01*
X00610503Y00826008D01*
X00609564Y00827414D01*
X00608158Y00828353D01*
X00606500Y00828683D01*
D02*
G37*
G36*
X00987750Y00851183D02*
X00986092Y00850854D01*
X00984686Y00849914D01*
X00983747Y00848509D01*
X00983417Y00846850D01*
X00983747Y00845192D01*
X00984153Y00844585D01*
X00984601Y00843600D01*
X00984153Y00842615D01*
X00983747Y00842008D01*
X00983417Y00840350D01*
X00983747Y00838692D01*
X00984686Y00837286D01*
X00984686Y00837286D01*
Y00836914D01*
X00983747Y00835508D01*
X00983417Y00833850D01*
X00983747Y00832192D01*
X00984152Y00831585D01*
X00984602Y00830600D01*
X00984152Y00829615D01*
X00983747Y00829008D01*
X00983417Y00827350D01*
X00983747Y00825692D01*
X00984686Y00824286D01*
Y00823914D01*
X00983747Y00822508D01*
X00983417Y00820850D01*
X00983747Y00819192D01*
X00984152Y00818585D01*
X00984602Y00817600D01*
X00984152Y00816615D01*
X00983747Y00816008D01*
X00983417Y00814350D01*
X00983747Y00812692D01*
X00984152Y00812085D01*
X00984602Y00811100D01*
X00984152Y00810115D01*
X00983747Y00809508D01*
X00983417Y00807850D01*
X00983747Y00806192D01*
X00984152Y00805585D01*
X00984602Y00804600D01*
X00984152Y00803615D01*
X00983747Y00803008D01*
X00983417Y00801350D01*
X00983747Y00799692D01*
X00984686Y00798286D01*
X00986092Y00797347D01*
X00987750Y00797017D01*
X00989409Y00797347D01*
X00990814Y00798286D01*
X00991754Y00799692D01*
X00992084Y00801350D01*
X00991754Y00803008D01*
X00991348Y00803615D01*
X00990899Y00804600D01*
X00991348Y00805585D01*
X00991754Y00806192D01*
X00992084Y00807850D01*
X00991754Y00809508D01*
X00991348Y00810115D01*
X00990899Y00811100D01*
X00991348Y00812085D01*
X00991754Y00812692D01*
X00992084Y00814350D01*
X00991754Y00816008D01*
X00991348Y00816615D01*
X00990899Y00817600D01*
X00991348Y00818585D01*
X00991754Y00819192D01*
X00992084Y00820850D01*
X00991754Y00822508D01*
X00990814Y00823914D01*
Y00824286D01*
X00991754Y00825692D01*
X00992084Y00827350D01*
X00991754Y00829008D01*
X00991348Y00829615D01*
X00990899Y00830600D01*
X00991348Y00831585D01*
X00991754Y00832192D01*
X00992084Y00833850D01*
X00991754Y00835508D01*
X00990814Y00836914D01*
X00990814Y00836914D01*
Y00837286D01*
X00991753Y00838692D01*
X00992083Y00840350D01*
X00991753Y00842008D01*
X00991348Y00842615D01*
X00990899Y00843600D01*
X00991348Y00844585D01*
X00991677Y00845077D01*
X00992130Y00845117D01*
X00992998Y00844943D01*
X00993247Y00843692D01*
X00994186Y00842286D01*
X00995592Y00841347D01*
X00996674Y00841131D01*
X00997327Y00840752D01*
X00997605Y00839792D01*
X00997417Y00838850D01*
X00997747Y00837192D01*
X00998686Y00835786D01*
X01000092Y00834847D01*
X01001174Y00834631D01*
X01001827Y00834252D01*
X01002104Y00833292D01*
X01001917Y00832350D01*
X01002247Y00830692D01*
X01003186Y00829286D01*
X01004592Y00828347D01*
X01005674Y00828131D01*
X01006327Y00827753D01*
X01006604Y00826792D01*
X01006417Y00825850D01*
X01006747Y00824192D01*
X01007686Y00822786D01*
X01009092Y00821847D01*
X01010175Y00821631D01*
X01010827Y00821253D01*
X01011105Y00820293D01*
X01010917Y00819350D01*
X01011247Y00817692D01*
X01012186Y00816286D01*
X01013592Y00815347D01*
X01014675Y00815131D01*
X01015327Y00814752D01*
X01015604Y00813792D01*
X01015417Y00812850D01*
X01015747Y00811192D01*
X01016686Y00809786D01*
X01018092Y00808847D01*
X01019750Y00808517D01*
X01021408Y00808847D01*
X01022814Y00809786D01*
X01023754Y00811192D01*
X01024083Y00812850D01*
X01023754Y00814508D01*
X01022814Y00815914D01*
X01021408Y00816853D01*
X01020326Y00817069D01*
X01019674Y00817448D01*
X01019396Y00818408D01*
X01019584Y00819350D01*
X01019293Y00820813D01*
X01019481Y00821308D01*
X01020065Y00822079D01*
X01021408Y00822347D01*
X01022814Y00823286D01*
X01023753Y00824692D01*
X01024083Y00826350D01*
X01023753Y00828008D01*
X01022814Y00829414D01*
X01021408Y00830353D01*
X01019750Y00830683D01*
X01018092Y00830353D01*
X01016686Y00829414D01*
X01015826Y00828128D01*
X01015169Y00827992D01*
X01014444Y00827971D01*
X01013814Y00828914D01*
X01012408Y00829854D01*
X01011326Y00830069D01*
X01010674Y00830448D01*
X01010396Y00831408D01*
X01010583Y00832350D01*
X01010254Y00834008D01*
X01009314Y00835414D01*
X01007908Y00836354D01*
X01006826Y00836569D01*
X01006174Y00836948D01*
X01005896Y00837908D01*
X01006084Y00838850D01*
X01005754Y00840508D01*
X01004814Y00841914D01*
X01003409Y00842853D01*
X01002326Y00843069D01*
X01001674Y00843448D01*
X01001396Y00844408D01*
X01001584Y00845350D01*
X01001254Y00847008D01*
X01000314Y00848414D01*
X00998909Y00849353D01*
X00997250Y00849683D01*
X00995592Y00849353D01*
X00994186Y00848414D01*
X00993324Y00847123D01*
X00992870Y00847084D01*
X00992002Y00847258D01*
X00991754Y00848509D01*
X00990814Y00849914D01*
X00989409Y00850854D01*
X00987750Y00851183D01*
D02*
G37*
G36*
X00744250Y00824183D02*
X00742592Y00823853D01*
X00741186Y00822914D01*
X00740247Y00821508D01*
X00739917Y00819850D01*
X00740247Y00818192D01*
X00741186Y00816786D01*
X00741694Y00816447D01*
X00741702Y00814924D01*
X00740763Y00813519D01*
X00740433Y00811860D01*
X00740763Y00810202D01*
X00741702Y00808796D01*
X00743108Y00807857D01*
X00744766Y00807527D01*
X00746424Y00807857D01*
X00747830Y00808796D01*
X00748770Y00810202D01*
X00749099Y00811860D01*
X00748770Y00813519D01*
X00747830Y00814924D01*
X00747322Y00815264D01*
X00747314Y00816786D01*
X00748254Y00818192D01*
X00748583Y00819850D01*
X00748254Y00821508D01*
X00747314Y00822914D01*
X00745909Y00823853D01*
X00744250Y00824183D01*
D02*
G37*
G36*
X00709500Y00820683D02*
X00707842Y00820353D01*
X00706436Y00819414D01*
X00705497Y00818008D01*
X00705167Y00816350D01*
X00705497Y00814692D01*
X00706436Y00813286D01*
X00707842Y00812347D01*
X00709500Y00812017D01*
X00711158Y00812347D01*
X00712564Y00813286D01*
X00713503Y00814692D01*
X00713695Y00815654D01*
X00714990D01*
X00715181Y00814692D01*
X00716120Y00813286D01*
X00717526Y00812346D01*
X00718623Y00812128D01*
X00718468Y00811350D01*
X00718798Y00809692D01*
X00719738Y00808286D01*
X00721143Y00807347D01*
X00722802Y00807017D01*
X00724460Y00807347D01*
X00725866Y00808286D01*
X00726805Y00809692D01*
X00727135Y00811350D01*
X00726805Y00813008D01*
X00725866Y00814414D01*
X00724460Y00815354D01*
X00723363Y00815572D01*
X00723518Y00816350D01*
X00723188Y00818008D01*
X00722248Y00819414D01*
X00720843Y00820353D01*
X00719184Y00820683D01*
X00717526Y00820353D01*
X00716120Y00819414D01*
X00715181Y00818008D01*
X00714990Y00817046D01*
X00713695D01*
X00713503Y00818008D01*
X00712564Y00819414D01*
X00711158Y00820353D01*
X00709500Y00820683D01*
D02*
G37*
G36*
X00530000Y00815683D02*
X00528342Y00815354D01*
X00526936Y00814414D01*
X00525997Y00813008D01*
X00525667Y00811350D01*
X00525997Y00809692D01*
X00526936Y00808286D01*
X00528342Y00807347D01*
X00530000Y00807017D01*
X00531658Y00807347D01*
X00533064Y00808286D01*
X00534003Y00809692D01*
X00534333Y00811350D01*
X00534003Y00813008D01*
X00533064Y00814414D01*
X00531658Y00815354D01*
X00530000Y00815683D01*
D02*
G37*
G36*
X00836000Y00824993D02*
X00834342Y00824663D01*
X00832936Y00823724D01*
X00831997Y00822318D01*
X00831667Y00820660D01*
X00831997Y00819002D01*
X00832936Y00817596D01*
X00834342Y00816657D01*
X00835234Y00816479D01*
X00835084Y00815729D01*
X00835414Y00814070D01*
X00836353Y00812664D01*
X00836929Y00812280D01*
X00836247Y00811258D01*
X00835917Y00809600D01*
X00836247Y00807942D01*
X00837186Y00806536D01*
X00838592Y00805597D01*
X00840250Y00805267D01*
X00841908Y00805597D01*
X00843314Y00806536D01*
X00844254Y00807942D01*
X00844584Y00809600D01*
X00844254Y00811258D01*
X00843314Y00812664D01*
X00842738Y00813049D01*
X00843421Y00814070D01*
X00843751Y00815729D01*
X00843421Y00817387D01*
X00842482Y00818793D01*
X00841076Y00819732D01*
X00840184Y00819909D01*
X00840333Y00820660D01*
X00840003Y00822318D01*
X00839064Y00823724D01*
X00837658Y00824663D01*
X00836000Y00824993D01*
D02*
G37*
G36*
X00509750Y00820683D02*
X00508092Y00820353D01*
X00506686Y00819414D01*
X00505747Y00818008D01*
X00505417Y00816350D01*
X00505747Y00814692D01*
X00506686Y00813286D01*
X00508092Y00812346D01*
X00509027Y00812160D01*
X00509218Y00812122D01*
Y00810827D01*
X00509027Y00810789D01*
X00508092Y00810603D01*
X00506686Y00809664D01*
X00505747Y00808258D01*
X00505417Y00806600D01*
X00505747Y00804942D01*
X00506686Y00803536D01*
X00508092Y00802597D01*
X00509750Y00802267D01*
X00511408Y00802597D01*
X00512814Y00803536D01*
X00513753Y00804942D01*
X00514083Y00806600D01*
X00513753Y00808258D01*
X00512814Y00809664D01*
X00511408Y00810603D01*
X00510473Y00810789D01*
X00510282Y00810827D01*
Y00812122D01*
X00510473Y00812160D01*
X00511408Y00812346D01*
X00512814Y00813286D01*
X00513753Y00814692D01*
X00514083Y00816350D01*
X00513753Y00818008D01*
X00512814Y00819414D01*
X00511408Y00820353D01*
X00509750Y00820683D01*
D02*
G37*
G36*
X00693750Y00807683D02*
X00692092Y00807353D01*
X00690686Y00806414D01*
X00689747Y00805008D01*
X00689417Y00803350D01*
X00689747Y00801692D01*
X00690686Y00800286D01*
X00692092Y00799347D01*
X00693750Y00799017D01*
X00695408Y00799347D01*
X00696814Y00800286D01*
X00697753Y00801692D01*
X00698083Y00803350D01*
X00697753Y00805008D01*
X00696814Y00806414D01*
X00695408Y00807353D01*
X00693750Y00807683D01*
D02*
G37*
G36*
X00530000Y00805683D02*
X00528342Y00805354D01*
X00526936Y00804414D01*
X00525997Y00803008D01*
X00525667Y00801350D01*
X00525997Y00799692D01*
X00526936Y00798286D01*
X00528342Y00797347D01*
X00530000Y00797017D01*
X00531658Y00797347D01*
X00533064Y00798286D01*
X00534003Y00799692D01*
X00534333Y00801350D01*
X00534003Y00803008D01*
X00533064Y00804414D01*
X00531658Y00805354D01*
X00530000Y00805683D01*
D02*
G37*
G36*
X00609250Y00799933D02*
X00607592Y00799603D01*
X00606186Y00798664D01*
X00605247Y00797258D01*
X00604917Y00795600D01*
X00605247Y00793942D01*
X00606186Y00792536D01*
X00607592Y00791597D01*
X00609250Y00791267D01*
X00610908Y00791597D01*
X00612198Y00792459D01*
X00612676Y00792452D01*
X00613638Y00792231D01*
X00614436Y00791036D01*
X00615842Y00790097D01*
X00617500Y00789767D01*
X00619158Y00790097D01*
X00620564Y00791036D01*
X00621503Y00792442D01*
X00621833Y00794100D01*
X00621503Y00795758D01*
X00620564Y00797164D01*
X00619158Y00798103D01*
X00617500Y00798433D01*
X00615842Y00798103D01*
X00614552Y00797241D01*
X00614074Y00797248D01*
X00613112Y00797469D01*
X00612314Y00798664D01*
X00610908Y00799603D01*
X00609250Y00799933D01*
D02*
G37*
G36*
X00637000Y00798443D02*
X00635147Y00798074D01*
X00633575Y00797025D01*
X00632526Y00795453D01*
X00632157Y00793600D01*
X00632526Y00791747D01*
X00633575Y00790175D01*
X00635147Y00789126D01*
X00637000Y00788757D01*
X00638853Y00789126D01*
X00640425Y00790175D01*
X00641474Y00791747D01*
X00641843Y00793600D01*
X00641474Y00795453D01*
X00640425Y00797025D01*
X00638853Y00798074D01*
X00637000Y00798443D01*
D02*
G37*
G36*
X00655000Y00795683D02*
X00653342Y00795353D01*
X00651936Y00794414D01*
X00650997Y00793008D01*
X00650667Y00791350D01*
X00650997Y00789692D01*
X00651936Y00788286D01*
X00653342Y00787347D01*
X00655000Y00787017D01*
X00656658Y00787347D01*
X00658064Y00788286D01*
X00659003Y00789692D01*
X00659333Y00791350D01*
X00659003Y00793008D01*
X00658064Y00794414D01*
X00656658Y00795353D01*
X00655000Y00795683D01*
D02*
G37*
G36*
X00722802Y00805683D02*
X00721143Y00805354D01*
X00719738Y00804414D01*
X00718798Y00803008D01*
X00718468Y00801350D01*
X00718759Y00799892D01*
X00717357Y00799613D01*
X00715951Y00798674D01*
X00715012Y00797268D01*
X00714682Y00795610D01*
X00715012Y00793951D01*
X00715951Y00792545D01*
X00717096Y00791781D01*
X00716747Y00791258D01*
X00716417Y00789600D01*
X00716747Y00787942D01*
X00717686Y00786536D01*
X00719092Y00785597D01*
X00720750Y00785267D01*
X00722408Y00785597D01*
X00723814Y00786536D01*
X00724753Y00787942D01*
X00725083Y00789600D01*
X00724753Y00791258D01*
X00723814Y00792664D01*
X00722669Y00793429D01*
X00723018Y00793951D01*
X00723348Y00795610D01*
X00723058Y00797068D01*
X00724460Y00797347D01*
X00725866Y00798286D01*
X00726805Y00799692D01*
X00727135Y00801350D01*
X00726805Y00803008D01*
X00725866Y00804414D01*
X00724460Y00805354D01*
X00722802Y00805683D01*
D02*
G37*
G36*
X00742516Y00790942D02*
X00740858Y00790612D01*
X00739452Y00789673D01*
X00738513Y00788267D01*
X00738183Y00786609D01*
X00738513Y00784951D01*
X00739452Y00783545D01*
X00740858Y00782606D01*
X00742516Y00782276D01*
X00744174Y00782606D01*
X00745580Y00783545D01*
X00746519Y00784951D01*
X00746849Y00786609D01*
X00746519Y00788267D01*
X00745580Y00789673D01*
X00744174Y00790612D01*
X00742516Y00790942D01*
D02*
G37*
G36*
X00505755Y00795693D02*
X00504096Y00795363D01*
X00502691Y00794423D01*
X00501751Y00793018D01*
X00501421Y00791359D01*
X00501751Y00789701D01*
X00502691Y00788295D01*
X00504096Y00787356D01*
X00505194Y00787138D01*
X00505037Y00786350D01*
X00505367Y00784692D01*
X00506306Y00783286D01*
X00507712Y00782347D01*
X00509371Y00782017D01*
X00511029Y00782347D01*
X00512435Y00783286D01*
X00513374Y00784692D01*
X00513704Y00786350D01*
X00513374Y00788008D01*
X00512435Y00789414D01*
X00511029Y00790353D01*
X00509931Y00790572D01*
X00510088Y00791359D01*
X00509758Y00793018D01*
X00508819Y00794423D01*
X00507413Y00795363D01*
X00505755Y00795693D01*
D02*
G37*
G36*
X00885000Y00797933D02*
X00883342Y00797603D01*
X00881936Y00796664D01*
X00880997Y00795258D01*
X00880667Y00793600D01*
X00880997Y00791942D01*
X00881936Y00790536D01*
X00883342Y00789597D01*
X00883882Y00789489D01*
X00884150Y00788141D01*
X00883436Y00787664D01*
X00882497Y00786258D01*
X00882167Y00784600D01*
X00882497Y00782942D01*
X00883436Y00781536D01*
X00884842Y00780597D01*
X00886500Y00780267D01*
X00888158Y00780597D01*
X00889564Y00781536D01*
X00890503Y00782942D01*
X00890833Y00784600D01*
X00890503Y00786258D01*
X00889564Y00787664D01*
X00888158Y00788603D01*
X00887618Y00788711D01*
X00887350Y00790059D01*
X00888064Y00790536D01*
X00889003Y00791942D01*
X00889333Y00793600D01*
X00889003Y00795258D01*
X00888064Y00796664D01*
X00886658Y00797603D01*
X00885000Y00797933D01*
D02*
G37*
G36*
X00530199Y00785684D02*
X00528540Y00785354D01*
X00527135Y00784414D01*
X00526195Y00783008D01*
X00525865Y00781350D01*
X00526195Y00779692D01*
X00527135Y00778286D01*
X00528540Y00777347D01*
X00530199Y00777017D01*
X00531857Y00777347D01*
X00533263Y00778286D01*
X00534202Y00779692D01*
X00534532Y00781350D01*
X00534202Y00783008D01*
X00533263Y00784414D01*
X00531857Y00785354D01*
X00530199Y00785684D01*
D02*
G37*
G36*
X00855250Y00817933D02*
X00853592Y00817603D01*
X00852186Y00816664D01*
X00851247Y00815258D01*
X00850917Y00813600D01*
X00851247Y00811942D01*
X00852186Y00810536D01*
X00852980Y00810005D01*
X00852192Y00808827D01*
X00851862Y00807169D01*
X00852192Y00805510D01*
X00853132Y00804105D01*
X00854538Y00803165D01*
X00856196Y00802835D01*
X00857854Y00803165D01*
X00859043Y00803959D01*
X00860047Y00804089D01*
X00860480Y00803731D01*
X00860816Y00803329D01*
X00860602Y00801969D01*
X00859551Y00801267D01*
X00858612Y00799861D01*
X00858282Y00798203D01*
X00858612Y00796545D01*
X00858964Y00796018D01*
X00857686Y00795164D01*
X00856747Y00793758D01*
X00856417Y00792100D01*
X00856747Y00790442D01*
X00857686Y00789036D01*
X00858485Y00788502D01*
X00858091Y00787911D01*
X00857761Y00786252D01*
X00858091Y00784594D01*
X00859030Y00783188D01*
X00860436Y00782249D01*
X00862094Y00781919D01*
X00862501Y00782000D01*
X00863667Y00781350D01*
X00863997Y00779692D01*
X00864936Y00778286D01*
X00866342Y00777347D01*
X00868000Y00777017D01*
X00869658Y00777347D01*
X00871064Y00778286D01*
X00872003Y00779692D01*
X00872333Y00781350D01*
X00872003Y00783008D01*
X00871695Y00783470D01*
X00871073Y00784430D01*
X00871672Y00785535D01*
X00871944Y00785942D01*
X00872274Y00787600D01*
X00871944Y00789258D01*
X00871005Y00790664D01*
X00870252Y00791167D01*
X00870776Y00791951D01*
X00871105Y00793609D01*
X00870776Y00795268D01*
X00869836Y00796674D01*
X00868430Y00797613D01*
X00866892Y00797919D01*
X00866949Y00798203D01*
X00866619Y00799861D01*
X00865679Y00801267D01*
X00865289Y00801528D01*
X00865363Y00802349D01*
X00865505Y00802911D01*
X00866814Y00803786D01*
X00867753Y00805192D01*
X00868083Y00806850D01*
X00867753Y00808508D01*
X00866814Y00809914D01*
X00865408Y00810853D01*
X00863750Y00811183D01*
X00862092Y00810853D01*
X00860903Y00810059D01*
X00859777Y00809914D01*
X00859473D01*
X00859260Y00810233D01*
X00858466Y00810763D01*
X00859253Y00811942D01*
X00859583Y00813600D01*
X00859253Y00815258D01*
X00858314Y00816664D01*
X00856908Y00817603D01*
X00855250Y00817933D01*
D02*
G37*
G36*
X00702500Y00784933D02*
X00700842Y00784603D01*
X00699436Y00783664D01*
X00698497Y00782258D01*
X00698167Y00780600D01*
X00698497Y00778942D01*
X00699436Y00777536D01*
X00700842Y00776597D01*
X00702500Y00776267D01*
X00704158Y00776597D01*
X00705564Y00777536D01*
X00706503Y00778942D01*
X00706833Y00780600D01*
X00706503Y00782258D01*
X00705564Y00783664D01*
X00704158Y00784603D01*
X00702500Y00784933D01*
D02*
G37*
G36*
X00681750Y00783683D02*
X00680092Y00783353D01*
X00678686Y00782414D01*
X00677747Y00781008D01*
X00677417Y00779350D01*
X00677747Y00777692D01*
X00678686Y00776286D01*
X00680092Y00775347D01*
X00681750Y00775017D01*
X00683408Y00775347D01*
X00684814Y00776286D01*
X00685753Y00777692D01*
X00686083Y00779350D01*
X00685753Y00781008D01*
X00684814Y00782414D01*
X00683408Y00783353D01*
X00681750Y00783683D01*
D02*
G37*
G36*
X00509371Y00780683D02*
X00507712Y00780353D01*
X00506306Y00779414D01*
X00505367Y00778008D01*
X00505037Y00776350D01*
X00505367Y00774692D01*
X00506306Y00773286D01*
X00507712Y00772347D01*
X00509371Y00772017D01*
X00511029Y00772347D01*
X00512435Y00773286D01*
X00513374Y00774692D01*
X00513704Y00776350D01*
X00513374Y00778008D01*
X00512435Y00779414D01*
X00511029Y00780353D01*
X00509371Y00780683D01*
D02*
G37*
G36*
X00542750Y00779683D02*
X00541092Y00779353D01*
X00539686Y00778414D01*
X00538747Y00777008D01*
X00538417Y00775350D01*
X00538747Y00773692D01*
X00539686Y00772286D01*
X00541092Y00771347D01*
X00542750Y00771017D01*
X00544408Y00771347D01*
X00545814Y00772286D01*
X00546753Y00773692D01*
X00547083Y00775350D01*
X00546753Y00777008D01*
X00545814Y00778414D01*
X00544408Y00779353D01*
X00542750Y00779683D01*
D02*
G37*
G36*
X00882071Y00779083D02*
X00880413Y00778753D01*
X00879007Y00777814D01*
X00878068Y00776408D01*
X00877738Y00774750D01*
X00878068Y00773092D01*
X00879007Y00771686D01*
X00880413Y00770747D01*
X00882071Y00770417D01*
X00883730Y00770747D01*
X00885135Y00771686D01*
X00886075Y00773092D01*
X00886405Y00774750D01*
X00886075Y00776408D01*
X00885135Y00777814D01*
X00883730Y00778753D01*
X00882071Y00779083D01*
D02*
G37*
G36*
X00856272Y00782442D02*
X00854613Y00782112D01*
X00853208Y00781173D01*
X00852268Y00779767D01*
X00851938Y00778109D01*
X00852268Y00776450D01*
X00853208Y00775045D01*
X00854613Y00774105D01*
X00855728Y00773884D01*
X00856408Y00773578D01*
X00857059Y00772637D01*
X00857247Y00771692D01*
X00858186Y00770286D01*
X00858708Y00769937D01*
Y00769422D01*
X00857929Y00768256D01*
X00857409Y00768603D01*
X00855750Y00768933D01*
X00854092Y00768603D01*
X00852686Y00767664D01*
X00851747Y00766258D01*
X00851417Y00764600D01*
X00851747Y00762942D01*
X00852686Y00761536D01*
X00854092Y00760597D01*
X00855750Y00760267D01*
X00857409Y00760597D01*
X00858814Y00761536D01*
X00859594Y00762702D01*
X00860114Y00762355D01*
X00861772Y00762025D01*
X00863430Y00762355D01*
X00864836Y00763294D01*
X00864912Y00763408D01*
X00866114Y00762605D01*
X00867772Y00762275D01*
X00869430Y00762605D01*
X00870836Y00763544D01*
X00871776Y00764950D01*
X00872105Y00766608D01*
X00871776Y00768266D01*
X00870836Y00769672D01*
X00869430Y00770611D01*
X00867772Y00770941D01*
X00866114Y00770611D01*
X00866015Y00770545D01*
X00865099Y00771461D01*
X00865253Y00771692D01*
X00865583Y00773350D01*
X00865253Y00775008D01*
X00864314Y00776414D01*
X00862908Y00777353D01*
X00861794Y00777575D01*
X00861114Y00777880D01*
X00860463Y00778822D01*
X00860275Y00779767D01*
X00859336Y00781173D01*
X00857930Y00782112D01*
X00856272Y00782442D01*
D02*
G37*
G36*
X00967250Y00784943D02*
X00965397Y00784574D01*
X00963826Y00783524D01*
X00962776Y00781953D01*
X00962407Y00780100D01*
X00962776Y00778247D01*
X00963826Y00776675D01*
X00965397Y00775626D01*
X00967250Y00775257D01*
X00968540Y00775513D01*
X00968939Y00775185D01*
X00969478Y00774465D01*
X00969157Y00772850D01*
X00969526Y00770997D01*
X00970575Y00769425D01*
X00972147Y00768376D01*
X00974000Y00768007D01*
X00975853Y00768376D01*
X00977425Y00769425D01*
X00978474Y00770997D01*
X00978843Y00772850D01*
X00978474Y00774703D01*
X00977425Y00776274D01*
X00975853Y00777324D01*
X00974000Y00777693D01*
X00972711Y00777437D01*
X00972311Y00777765D01*
X00971772Y00778485D01*
X00972093Y00780100D01*
X00971724Y00781953D01*
X00970675Y00783524D01*
X00969103Y00784574D01*
X00967250Y00784943D01*
D02*
G37*
G36*
X00834250Y00771433D02*
X00832592Y00771103D01*
X00831186Y00770164D01*
X00830247Y00768758D01*
X00830024Y00767636D01*
X00829061Y00766961D01*
X00828681Y00766899D01*
X00827250Y00767183D01*
X00825592Y00766853D01*
X00824186Y00765914D01*
X00823247Y00764508D01*
X00822917Y00762850D01*
X00823247Y00761192D01*
X00824186Y00759786D01*
X00825592Y00758847D01*
X00827250Y00758517D01*
X00828908Y00758847D01*
X00830314Y00759786D01*
X00831254Y00761192D01*
X00831477Y00762314D01*
X00832439Y00762989D01*
X00832820Y00763051D01*
X00834250Y00762767D01*
X00835909Y00763097D01*
X00837314Y00764036D01*
X00838254Y00765442D01*
X00838584Y00767100D01*
X00838254Y00768758D01*
X00837314Y00770164D01*
X00835909Y00771103D01*
X00834250Y00771433D01*
D02*
G37*
G36*
X00720500Y00782943D02*
X00718647Y00782574D01*
X00717076Y00781525D01*
X00716026Y00779953D01*
X00715657Y00778100D01*
X00716026Y00776247D01*
X00716921Y00774906D01*
X00716186Y00774414D01*
X00715246Y00773008D01*
X00714917Y00771350D01*
X00715246Y00769692D01*
X00716186Y00768286D01*
X00717591Y00767347D01*
X00718626Y00767141D01*
X00718468Y00766350D01*
X00718798Y00764692D01*
X00719738Y00763286D01*
X00721143Y00762347D01*
X00722802Y00762017D01*
X00724460Y00762347D01*
X00725866Y00763286D01*
X00726805Y00764692D01*
X00727135Y00766350D01*
X00726805Y00768008D01*
X00725866Y00769414D01*
X00724460Y00770353D01*
X00723426Y00770559D01*
X00723583Y00771350D01*
X00723253Y00773008D01*
X00723189Y00773104D01*
X00723437Y00774350D01*
X00723925Y00774675D01*
X00724974Y00776247D01*
X00725343Y00778100D01*
X00724974Y00779953D01*
X00723925Y00781525D01*
X00722353Y00782574D01*
X00720500Y00782943D01*
D02*
G37*
G36*
X00627500Y00775834D02*
Y00759850D01*
X00643484D01*
X00643254Y00762183D01*
X00642282Y00765387D01*
X00640703Y00768340D01*
X00638579Y00770929D01*
X00635990Y00773053D01*
X00633037Y00774632D01*
X00629833Y00775604D01*
X00627500Y00775834D01*
D02*
G37*
G36*
X00625500D02*
X00623167Y00775604D01*
X00619963Y00774632D01*
X00617010Y00773053D01*
X00614421Y00770929D01*
X00612297Y00768340D01*
X00610718Y00765387D01*
X00609746Y00762183D01*
X00609516Y00759850D01*
X00625500D01*
Y00775834D01*
D02*
G37*
G36*
X00791268Y00766941D02*
X00789610Y00766611D01*
X00788204Y00765672D01*
X00787265Y00764266D01*
X00786935Y00762608D01*
X00787265Y00760950D01*
X00788204Y00759544D01*
X00789610Y00758605D01*
X00791268Y00758275D01*
X00792927Y00758605D01*
X00794333Y00759544D01*
X00795272Y00760950D01*
X00795602Y00762608D01*
X00795272Y00764266D01*
X00794333Y00765672D01*
X00792927Y00766611D01*
X00791268Y00766941D01*
D02*
G37*
G36*
X00743629Y00765683D02*
X00741971Y00765353D01*
X00740565Y00764414D01*
X00739626Y00763008D01*
X00739296Y00761350D01*
X00739626Y00759691D01*
X00740565Y00758286D01*
X00741971Y00757346D01*
X00743629Y00757017D01*
X00745287Y00757346D01*
X00746693Y00758286D01*
X00747633Y00759691D01*
X00747962Y00761350D01*
X00747633Y00763008D01*
X00746693Y00764414D01*
X00745287Y00765353D01*
X00743629Y00765683D01*
D02*
G37*
G36*
X00503250Y00770683D02*
X00501592Y00770353D01*
X00500186Y00769414D01*
X00499247Y00768008D01*
X00498917Y00766350D01*
X00499247Y00764692D01*
X00500186Y00763286D01*
X00501592Y00762347D01*
X00503105Y00762046D01*
X00502917Y00761100D01*
X00503247Y00759442D01*
X00504186Y00758036D01*
X00505592Y00757097D01*
X00507250Y00756767D01*
X00508908Y00757097D01*
X00510314Y00758036D01*
X00511253Y00759442D01*
X00511583Y00761100D01*
X00511253Y00762758D01*
X00510314Y00764164D01*
X00508908Y00765103D01*
X00507395Y00765404D01*
X00507583Y00766350D01*
X00507253Y00768008D01*
X00506314Y00769414D01*
X00504908Y00770353D01*
X00503250Y00770683D01*
D02*
G37*
G36*
X00862000Y00756933D02*
X00860342Y00756603D01*
X00858936Y00755664D01*
X00857997Y00754258D01*
X00856607Y00753781D01*
X00855785Y00753944D01*
X00854127Y00753615D01*
X00852721Y00752675D01*
X00851781Y00751270D01*
X00851451Y00749611D01*
X00851781Y00747953D01*
X00852721Y00746547D01*
X00854127Y00745608D01*
X00855785Y00745278D01*
X00856813Y00745483D01*
X00857019Y00744449D01*
X00857958Y00743043D01*
X00858341Y00742787D01*
Y00741698D01*
X00858163Y00741379D01*
X00857247Y00740008D01*
X00856917Y00738350D01*
X00857201Y00736922D01*
X00857114Y00735610D01*
X00855708Y00734670D01*
X00854769Y00733265D01*
X00854439Y00731607D01*
X00854752Y00730032D01*
X00853403Y00729131D01*
X00852464Y00727725D01*
X00852134Y00726067D01*
X00852464Y00724409D01*
X00853403Y00723003D01*
Y00722832D01*
X00852352Y00722130D01*
X00851412Y00720724D01*
X00851083Y00719066D01*
X00851412Y00717408D01*
X00852175Y00716267D01*
X00852309Y00715574D01*
X00852207Y00714571D01*
X00851497Y00713508D01*
X00851167Y00711850D01*
X00851497Y00710192D01*
X00852287Y00709009D01*
X00852436Y00707747D01*
Y00707581D01*
X00852186Y00707414D01*
X00851247Y00706008D01*
X00850917Y00704350D01*
X00851247Y00702692D01*
X00852186Y00701286D01*
X00852509Y00701070D01*
Y00699543D01*
X00852186Y00699327D01*
X00851247Y00697921D01*
X00850917Y00696263D01*
X00851247Y00694605D01*
X00851977Y00693511D01*
X00852094Y00692615D01*
X00851967Y00691817D01*
X00851220Y00690699D01*
X00850891Y00689041D01*
X00851220Y00687383D01*
X00852160Y00685977D01*
X00853566Y00685038D01*
X00855224Y00684708D01*
X00856882Y00685038D01*
X00858288Y00685977D01*
X00859227Y00687383D01*
X00859557Y00689041D01*
X00859227Y00690699D01*
X00858359Y00691999D01*
X00858314Y00693199D01*
X00859253Y00694605D01*
X00859583Y00696263D01*
X00859253Y00697921D01*
X00858314Y00699327D01*
X00857991Y00699543D01*
Y00701070D01*
X00858314Y00701286D01*
X00859253Y00702692D01*
X00859583Y00704350D01*
X00859253Y00706008D01*
X00858463Y00707191D01*
X00858314Y00708453D01*
Y00708619D01*
X00858564Y00708786D01*
X00859503Y00710192D01*
X00859731Y00711335D01*
X00860751Y00711453D01*
X00861041Y00711415D01*
X00861893Y00710140D01*
X00860997Y00708798D01*
X00860667Y00707140D01*
X00860997Y00705482D01*
X00861936Y00704076D01*
X00862598Y00703634D01*
Y00702106D01*
X00861936Y00701664D01*
X00860997Y00700258D01*
X00860667Y00698600D01*
X00860997Y00696942D01*
X00861936Y00695536D01*
X00863342Y00694597D01*
X00865000Y00694267D01*
X00866658Y00694597D01*
X00868064Y00695536D01*
X00869003Y00696942D01*
X00869333Y00698600D01*
X00869003Y00700258D01*
X00868064Y00701664D01*
X00867402Y00702106D01*
Y00703634D01*
X00868064Y00704076D01*
X00869003Y00705482D01*
X00869333Y00707140D01*
X00869003Y00708798D01*
X00868107Y00710140D01*
X00869003Y00711482D01*
X00869333Y00713140D01*
X00869003Y00714798D01*
X00868098Y00716154D01*
X00869003Y00717509D01*
X00869333Y00719167D01*
X00869003Y00720826D01*
X00868064Y00722231D01*
X00868052Y00723766D01*
X00868504Y00724442D01*
X00868833Y00726100D01*
X00868504Y00727758D01*
X00867704Y00728954D01*
X00867836Y00729042D01*
X00868776Y00730448D01*
X00869106Y00732106D01*
X00868776Y00733765D01*
X00868555Y00734094D01*
X00869140Y00735506D01*
X00869599Y00735597D01*
X00871005Y00736536D01*
X00871944Y00737942D01*
X00872274Y00739600D01*
X00871944Y00741258D01*
X00871005Y00742664D01*
X00870554Y00742965D01*
Y00744235D01*
X00871005Y00744536D01*
X00871944Y00745942D01*
X00872274Y00747600D01*
X00871944Y00749258D01*
X00871005Y00750664D01*
X00869599Y00751604D01*
X00867941Y00751934D01*
X00867477Y00751841D01*
X00866333Y00752600D01*
X00866004Y00754258D01*
X00865064Y00755664D01*
X00863659Y00756603D01*
X00862000Y00756933D01*
D02*
G37*
G36*
X00722802Y00760683D02*
X00721143Y00760353D01*
X00719738Y00759414D01*
X00718798Y00758008D01*
X00718468Y00756350D01*
X00718798Y00754692D01*
X00719738Y00753286D01*
X00721143Y00752347D01*
X00722802Y00752017D01*
X00724460Y00752347D01*
X00725866Y00753286D01*
X00726805Y00754692D01*
X00727135Y00756350D01*
X00726805Y00758008D01*
X00725866Y00759414D01*
X00724460Y00760353D01*
X00722802Y00760683D01*
D02*
G37*
G36*
X00669000Y00765183D02*
X00667342Y00764853D01*
X00665936Y00763914D01*
X00664997Y00762508D01*
X00664667Y00760850D01*
X00664997Y00759192D01*
X00665936Y00757786D01*
X00667342Y00756847D01*
X00668178Y00756680D01*
X00669407Y00756350D01*
X00669776Y00754497D01*
X00670826Y00752925D01*
X00672397Y00751876D01*
X00674250Y00751507D01*
X00676103Y00751876D01*
X00677675Y00752925D01*
X00678724Y00754497D01*
X00679093Y00756350D01*
X00678724Y00758203D01*
X00677675Y00759775D01*
X00676103Y00760824D01*
X00674250Y00761193D01*
X00673303Y00761005D01*
X00673003Y00762508D01*
X00672064Y00763914D01*
X00670658Y00764853D01*
X00669000Y00765183D01*
D02*
G37*
G36*
X00888023Y00769941D02*
X00886365Y00769612D01*
X00884959Y00768672D01*
X00884020Y00767266D01*
X00883690Y00765608D01*
X00883781Y00765150D01*
X00882147Y00764824D01*
X00880575Y00763774D01*
X00879526Y00762203D01*
X00879157Y00760350D01*
X00879526Y00758497D01*
X00880575Y00756926D01*
X00879907Y00755845D01*
X00879520Y00755266D01*
X00879190Y00753607D01*
X00879520Y00751949D01*
X00880459Y00750544D01*
X00881865Y00749604D01*
X00883523Y00749274D01*
X00885181Y00749604D01*
X00886587Y00750544D01*
X00887526Y00751949D01*
X00887856Y00753607D01*
X00887526Y00755266D01*
X00887194Y00755764D01*
X00887425Y00756926D01*
X00888474Y00758497D01*
X00888843Y00760350D01*
X00888635Y00761396D01*
X00889681Y00761605D01*
X00891087Y00762544D01*
X00892027Y00763950D01*
X00892356Y00765608D01*
X00892027Y00767266D01*
X00891087Y00768672D01*
X00889681Y00769612D01*
X00888023Y00769941D01*
D02*
G37*
G36*
X00985250Y00757933D02*
X00983592Y00757603D01*
X00982186Y00756664D01*
X00981247Y00755258D01*
X00980917Y00753600D01*
X00981247Y00751942D01*
X00982186Y00750536D01*
X00983592Y00749597D01*
X00985250Y00749267D01*
X00986908Y00749597D01*
X00988314Y00750536D01*
X00989253Y00751942D01*
X00989583Y00753600D01*
X00989253Y00755258D01*
X00988314Y00756664D01*
X00986908Y00757603D01*
X00985250Y00757933D01*
D02*
G37*
G36*
X00794000Y00754933D02*
X00792342Y00754603D01*
X00790936Y00753664D01*
X00789997Y00752258D01*
X00789667Y00750600D01*
X00789997Y00748942D01*
X00790936Y00747536D01*
X00792342Y00746597D01*
X00794000Y00746267D01*
X00795658Y00746597D01*
X00797064Y00747536D01*
X00798003Y00748942D01*
X00798333Y00750600D01*
X00798003Y00752258D01*
X00797064Y00753664D01*
X00795658Y00754603D01*
X00794000Y00754933D01*
D02*
G37*
G36*
X00837891Y00757712D02*
X00836232Y00757383D01*
X00834827Y00756443D01*
X00833887Y00755037D01*
X00833557Y00753379D01*
X00833808Y00752122D01*
X00833186Y00751998D01*
X00831780Y00751059D01*
X00830841Y00749653D01*
X00830511Y00747995D01*
X00830841Y00746337D01*
X00831780Y00744931D01*
X00833186Y00743991D01*
X00834844Y00743662D01*
X00836503Y00743991D01*
X00837908Y00744931D01*
X00838848Y00746337D01*
X00839177Y00747995D01*
X00838928Y00749252D01*
X00839549Y00749376D01*
X00840955Y00750315D01*
X00841894Y00751721D01*
X00842224Y00753379D01*
X00841894Y00755037D01*
X00840955Y00756443D01*
X00839549Y00757383D01*
X00837891Y00757712D01*
D02*
G37*
G36*
X00427250Y00752193D02*
X00425397Y00751824D01*
X00423825Y00750775D01*
X00422776Y00749203D01*
X00422407Y00747350D01*
X00422776Y00745497D01*
X00423825Y00743925D01*
X00425397Y00742876D01*
X00427250Y00742507D01*
X00429103Y00742876D01*
X00430675Y00743925D01*
X00431724Y00745497D01*
X00432093Y00747350D01*
X00431724Y00749203D01*
X00430675Y00750775D01*
X00429103Y00751824D01*
X00427250Y00752193D01*
D02*
G37*
G36*
X00722802Y00750683D02*
X00721143Y00750353D01*
X00719738Y00749414D01*
X00718798Y00748008D01*
X00718468Y00746350D01*
X00718798Y00744692D01*
X00719738Y00743286D01*
X00721143Y00742347D01*
X00722802Y00742017D01*
X00724460Y00742347D01*
X00725866Y00743286D01*
X00726805Y00744692D01*
X00727135Y00746350D01*
X00726805Y00748008D01*
X00725866Y00749414D01*
X00724460Y00750353D01*
X00722802Y00750683D01*
D02*
G37*
G36*
X00509371D02*
X00507712Y00750353D01*
X00506306Y00749414D01*
X00505367Y00748008D01*
X00505037Y00746350D01*
X00505367Y00744692D01*
X00506306Y00743286D01*
X00507712Y00742347D01*
X00509371Y00742017D01*
X00511029Y00742347D01*
X00512435Y00743286D01*
X00513374Y00744692D01*
X00513704Y00746350D01*
X00513374Y00748008D01*
X00512435Y00749414D01*
X00511029Y00750353D01*
X00509371Y00750683D01*
D02*
G37*
G36*
X00643484Y00757850D02*
X00627500D01*
Y00741866D01*
X00629833Y00742096D01*
X00633037Y00743068D01*
X00635990Y00744647D01*
X00638579Y00746771D01*
X00640703Y00749360D01*
X00642282Y00752313D01*
X00643254Y00755517D01*
X00643484Y00757850D01*
D02*
G37*
G36*
X00625500D02*
X00609516D01*
X00609746Y00755517D01*
X00610718Y00752313D01*
X00612297Y00749360D01*
X00614421Y00746771D01*
X00617010Y00744647D01*
X00619963Y00743068D01*
X00623167Y00742096D01*
X00625500Y00741866D01*
Y00757850D01*
D02*
G37*
G36*
X00685000Y00748933D02*
X00683342Y00748603D01*
X00681936Y00747664D01*
X00680997Y00746258D01*
X00680667Y00744600D01*
X00680997Y00742942D01*
X00681936Y00741536D01*
X00683342Y00740597D01*
X00685000Y00740267D01*
X00686658Y00740597D01*
X00688064Y00741536D01*
X00689003Y00742942D01*
X00689333Y00744600D01*
X00689003Y00746258D01*
X00688064Y00747664D01*
X00686658Y00748603D01*
X00685000Y00748933D01*
D02*
G37*
G36*
X00656250Y00748193D02*
X00654397Y00747824D01*
X00652825Y00746775D01*
X00651776Y00745203D01*
X00651407Y00743350D01*
X00651776Y00741497D01*
X00652825Y00739925D01*
X00654397Y00738876D01*
X00656250Y00738507D01*
X00658103Y00738876D01*
X00659675Y00739925D01*
X00660724Y00741497D01*
X00661093Y00743350D01*
X00660724Y00745203D01*
X00659675Y00746775D01*
X00658103Y00747824D01*
X00656250Y00748193D01*
D02*
G37*
G36*
X00743629Y00755683D02*
X00741971Y00755353D01*
X00740565Y00754414D01*
X00739626Y00753008D01*
X00739296Y00751350D01*
X00739626Y00749691D01*
X00740565Y00748286D01*
X00741971Y00747346D01*
X00742841Y00747173D01*
X00743019Y00747138D01*
Y00745843D01*
X00742817Y00745803D01*
X00741815Y00745603D01*
X00740409Y00744664D01*
X00739470Y00743258D01*
X00739140Y00741600D01*
X00739470Y00739942D01*
X00740409Y00738536D01*
X00741815Y00737597D01*
X00743473Y00737267D01*
X00745131Y00737597D01*
X00746537Y00738536D01*
X00747477Y00739942D01*
X00747806Y00741600D01*
X00747477Y00743258D01*
X00746537Y00744664D01*
X00745131Y00745603D01*
X00744262Y00745776D01*
X00744083Y00745812D01*
Y00747107D01*
X00744285Y00747147D01*
X00745287Y00747346D01*
X00746693Y00748286D01*
X00747633Y00749691D01*
X00747962Y00751350D01*
X00747633Y00753008D01*
X00746693Y00754414D01*
X00745287Y00755353D01*
X00743629Y00755683D01*
D02*
G37*
G36*
X00446500Y00761443D02*
X00444647Y00761074D01*
X00443075Y00760024D01*
X00442026Y00758453D01*
X00441657Y00756600D01*
X00442026Y00754747D01*
X00442555Y00753954D01*
X00442987Y00752975D01*
X00442555Y00751996D01*
X00442026Y00751203D01*
X00441657Y00749350D01*
X00442026Y00747497D01*
X00442555Y00746704D01*
X00442987Y00745725D01*
X00442555Y00744746D01*
X00442026Y00743953D01*
X00441657Y00742100D01*
X00442026Y00740247D01*
X00443075Y00738675D01*
X00444647Y00737626D01*
X00446500Y00737257D01*
X00448353Y00737626D01*
X00449925Y00738675D01*
X00450974Y00740247D01*
X00451343Y00742100D01*
X00450974Y00743953D01*
X00450445Y00744746D01*
X00450013Y00745725D01*
X00450445Y00746704D01*
X00450974Y00747497D01*
X00451343Y00749350D01*
X00450974Y00751203D01*
X00450445Y00751996D01*
X00450013Y00752975D01*
X00450445Y00753954D01*
X00450974Y00754747D01*
X00451343Y00756600D01*
X00450974Y00758453D01*
X00449925Y00760024D01*
X00448353Y00761074D01*
X00446500Y00761443D01*
D02*
G37*
G36*
X00530199Y00745683D02*
X00528540Y00745353D01*
X00527135Y00744414D01*
X00526195Y00743008D01*
X00525865Y00741350D01*
X00526195Y00739691D01*
X00527135Y00738286D01*
X00528540Y00737346D01*
X00530199Y00737017D01*
X00531857Y00737346D01*
X00533263Y00738286D01*
X00534202Y00739691D01*
X00534532Y00741350D01*
X00534202Y00743008D01*
X00533263Y00744414D01*
X00531857Y00745353D01*
X00530199Y00745683D01*
D02*
G37*
G36*
X00695500Y00745433D02*
X00693842Y00745103D01*
X00692436Y00744164D01*
X00691497Y00742758D01*
X00691167Y00741100D01*
X00691497Y00739442D01*
X00692436Y00738036D01*
X00693842Y00737097D01*
X00695500Y00736767D01*
X00697158Y00737097D01*
X00698564Y00738036D01*
X00699503Y00739442D01*
X00699833Y00741100D01*
X00699503Y00742758D01*
X00698564Y00744164D01*
X00697158Y00745103D01*
X00695500Y00745433D01*
D02*
G37*
G36*
X00722802Y00740683D02*
X00721143Y00740353D01*
X00719738Y00739414D01*
X00718798Y00738008D01*
X00718468Y00736350D01*
X00718798Y00734692D01*
X00719738Y00733286D01*
X00721143Y00732347D01*
X00722802Y00732017D01*
X00724460Y00732347D01*
X00725866Y00733286D01*
X00726805Y00734692D01*
X00727135Y00736350D01*
X00726805Y00738008D01*
X00725866Y00739414D01*
X00724460Y00740353D01*
X00722802Y00740683D01*
D02*
G37*
G36*
X00478750Y00739193D02*
X00476897Y00738824D01*
X00475325Y00737775D01*
X00474276Y00736203D01*
X00473907Y00734350D01*
X00474276Y00732497D01*
X00475325Y00730925D01*
X00476897Y00729876D01*
X00478750Y00729507D01*
X00480603Y00729876D01*
X00482175Y00730925D01*
X00483224Y00732497D01*
X00483593Y00734350D01*
X00483224Y00736203D01*
X00482175Y00737775D01*
X00480603Y00738824D01*
X00478750Y00739193D01*
D02*
G37*
G36*
X00884500Y00747454D02*
X00882842Y00747124D01*
X00881436Y00746185D01*
X00880497Y00744779D01*
X00880167Y00743121D01*
X00880497Y00741463D01*
X00881436Y00740057D01*
X00882806Y00739142D01*
X00882833Y00738975D01*
X00882763Y00737838D01*
X00881615Y00737610D01*
X00880209Y00736671D01*
X00879270Y00735265D01*
X00878940Y00733606D01*
X00879270Y00731948D01*
X00880209Y00730543D01*
X00881615Y00729603D01*
X00883273Y00729273D01*
X00884931Y00729603D01*
X00886337Y00730543D01*
X00887276Y00731948D01*
X00887606Y00733606D01*
X00887276Y00735265D01*
X00886337Y00736671D01*
X00884967Y00737586D01*
X00884940Y00737753D01*
X00885010Y00738889D01*
X00886158Y00739118D01*
X00887564Y00740057D01*
X00888503Y00741463D01*
X00888833Y00743121D01*
X00888503Y00744779D01*
X00887564Y00746185D01*
X00886158Y00747124D01*
X00884500Y00747454D01*
D02*
G37*
G36*
X00611000Y00736183D02*
X00609342Y00735853D01*
X00607936Y00734914D01*
X00606997Y00733508D01*
X00606667Y00731850D01*
X00606997Y00730192D01*
X00607936Y00728786D01*
X00609342Y00727847D01*
X00611000Y00727517D01*
X00612658Y00727847D01*
X00614064Y00728786D01*
X00615003Y00730192D01*
X00615333Y00731850D01*
X00615003Y00733508D01*
X00614064Y00734914D01*
X00612658Y00735853D01*
X00611000Y00736183D01*
D02*
G37*
G36*
X00743629Y00735683D02*
X00741971Y00735353D01*
X00740565Y00734414D01*
X00739626Y00733008D01*
X00739296Y00731350D01*
X00739626Y00729692D01*
X00740565Y00728286D01*
X00741971Y00727346D01*
X00743629Y00727017D01*
X00745287Y00727346D01*
X00746693Y00728286D01*
X00747633Y00729692D01*
X00747962Y00731350D01*
X00747633Y00733008D01*
X00746693Y00734414D01*
X00745287Y00735353D01*
X00743629Y00735683D01*
D02*
G37*
G36*
X00505250Y00741443D02*
X00503397Y00741074D01*
X00501825Y00740025D01*
X00500776Y00738453D01*
X00500407Y00736600D01*
X00500776Y00734747D01*
X00501825Y00733175D01*
X00503397Y00732126D01*
X00505123Y00731782D01*
X00505037Y00731350D01*
X00505367Y00729692D01*
X00506306Y00728286D01*
X00507712Y00727346D01*
X00509371Y00727017D01*
X00511029Y00727346D01*
X00512435Y00728286D01*
X00513374Y00729692D01*
X00513704Y00731350D01*
X00513374Y00733008D01*
X00512435Y00734414D01*
X00511029Y00735353D01*
X00509890Y00735580D01*
X00510093Y00736600D01*
X00509724Y00738453D01*
X00508675Y00740025D01*
X00507103Y00741074D01*
X00505250Y00741443D01*
D02*
G37*
G36*
X00841521Y00732439D02*
X00839863Y00732110D01*
X00838457Y00731170D01*
X00837517Y00729764D01*
X00837188Y00728106D01*
X00837517Y00726448D01*
X00838457Y00725042D01*
X00839863Y00724103D01*
X00841521Y00723773D01*
X00843179Y00724103D01*
X00844585Y00725042D01*
X00845524Y00726448D01*
X00845854Y00728106D01*
X00845524Y00729764D01*
X00844585Y00731170D01*
X00843179Y00732110D01*
X00841521Y00732439D01*
D02*
G37*
G36*
X00624000Y00731433D02*
X00622342Y00731103D01*
X00620936Y00730164D01*
X00619997Y00728758D01*
X00619667Y00727100D01*
X00619997Y00725442D01*
X00620936Y00724036D01*
X00622342Y00723097D01*
X00624000Y00722767D01*
X00625658Y00723097D01*
X00627064Y00724036D01*
X00628003Y00725442D01*
X00628333Y00727100D01*
X00628003Y00728758D01*
X00627064Y00730164D01*
X00625658Y00731103D01*
X00624000Y00731433D01*
D02*
G37*
G36*
X00722802Y00730683D02*
X00721143Y00730353D01*
X00719738Y00729414D01*
X00718798Y00728008D01*
X00718468Y00726350D01*
X00718798Y00724692D01*
X00719738Y00723286D01*
X00721143Y00722347D01*
X00722802Y00722017D01*
X00724460Y00722347D01*
X00725866Y00723286D01*
X00726805Y00724692D01*
X00727135Y00726350D01*
X00726805Y00728008D01*
X00725866Y00729414D01*
X00724460Y00730353D01*
X00722802Y00730683D01*
D02*
G37*
G36*
X00530199D02*
X00528540Y00730353D01*
X00527135Y00729414D01*
X00526195Y00728008D01*
X00525865Y00726350D01*
X00526195Y00724692D01*
X00527135Y00723286D01*
X00528540Y00722347D01*
X00530199Y00722017D01*
X00531857Y00722347D01*
X00533263Y00723286D01*
X00534202Y00724692D01*
X00534532Y00726350D01*
X00534202Y00728008D01*
X00533263Y00729414D01*
X00531857Y00730353D01*
X00530199Y00730683D01*
D02*
G37*
G36*
X00638000Y00731193D02*
X00636147Y00730824D01*
X00634575Y00729774D01*
X00633526Y00728203D01*
X00633157Y00726350D01*
X00633526Y00724497D01*
X00634575Y00722925D01*
X00636147Y00721876D01*
X00638000Y00721507D01*
X00639853Y00721876D01*
X00641424Y00722925D01*
X00642474Y00724497D01*
X00642843Y00726350D01*
X00642474Y00728203D01*
X00641424Y00729774D01*
X00639853Y00730824D01*
X00638000Y00731193D01*
D02*
G37*
G36*
X00432750Y00727183D02*
X00431092Y00726853D01*
X00429686Y00725914D01*
X00428747Y00724508D01*
X00428417Y00722850D01*
X00428747Y00721192D01*
X00429686Y00719786D01*
X00431092Y00718847D01*
X00432750Y00718517D01*
X00434408Y00718847D01*
X00435814Y00719786D01*
X00436753Y00721192D01*
X00437083Y00722850D01*
X00436753Y00724508D01*
X00435814Y00725914D01*
X00434408Y00726853D01*
X00432750Y00727183D01*
D02*
G37*
G36*
X00884500Y00721433D02*
X00882842Y00721103D01*
X00881436Y00720164D01*
X00880497Y00718758D01*
X00880167Y00717100D01*
X00880497Y00715442D01*
X00881436Y00714036D01*
X00882842Y00713097D01*
X00884500Y00712767D01*
X00886159Y00713097D01*
X00887564Y00714036D01*
X00888504Y00715442D01*
X00888833Y00717100D01*
X00888504Y00718758D01*
X00887564Y00720164D01*
X00886159Y00721103D01*
X00884500Y00721433D01*
D02*
G37*
G36*
X00530199Y00720683D02*
X00528540Y00720353D01*
X00527135Y00719414D01*
X00526195Y00718008D01*
X00525865Y00716350D01*
X00526195Y00714692D01*
X00527135Y00713286D01*
X00528540Y00712347D01*
X00530199Y00712017D01*
X00531857Y00712347D01*
X00533263Y00713286D01*
X00534202Y00714692D01*
X00534532Y00716350D01*
X00534202Y00718008D01*
X00533263Y00719414D01*
X00531857Y00720353D01*
X00530199Y00720683D01*
D02*
G37*
G36*
X00937313Y00727380D02*
X00935460Y00727011D01*
X00933888Y00725962D01*
X00932839Y00724390D01*
X00932470Y00722537D01*
X00932839Y00720684D01*
X00933888Y00719112D01*
X00934577Y00718652D01*
X00933776Y00717453D01*
X00933407Y00715600D01*
X00933776Y00713747D01*
X00934825Y00712175D01*
X00936397Y00711126D01*
X00938250Y00710757D01*
X00940103Y00711126D01*
X00941674Y00712175D01*
X00942724Y00713747D01*
X00943093Y00715600D01*
X00942724Y00717453D01*
X00941674Y00719025D01*
X00940986Y00719484D01*
X00941787Y00720684D01*
X00942156Y00722537D01*
X00941787Y00724390D01*
X00940738Y00725962D01*
X00939166Y00727011D01*
X00937313Y00727380D01*
D02*
G37*
G36*
X00743629Y00715683D02*
X00741971Y00715353D01*
X00740565Y00714414D01*
X00739626Y00713008D01*
X00739296Y00711350D01*
X00739626Y00709692D01*
X00740565Y00708286D01*
X00741971Y00707346D01*
X00743629Y00707017D01*
X00745287Y00707346D01*
X00746693Y00708286D01*
X00747633Y00709692D01*
X00747962Y00711350D01*
X00747633Y00713008D01*
X00746693Y00714414D01*
X00745287Y00715353D01*
X00743629Y00715683D01*
D02*
G37*
G36*
X00706750Y00730433D02*
X00705092Y00730103D01*
X00703686Y00729164D01*
X00702747Y00727758D01*
X00702417Y00726100D01*
X00702747Y00724442D01*
X00703686Y00723036D01*
X00705092Y00722097D01*
X00706181Y00721880D01*
X00707422Y00721606D01*
X00707790Y00719753D01*
X00708723Y00718356D01*
X00708436Y00718164D01*
X00707497Y00716758D01*
X00707167Y00715100D01*
X00707497Y00713442D01*
X00708436Y00712036D01*
X00709842Y00711097D01*
X00711500Y00710767D01*
X00713158Y00711097D01*
X00713940Y00711619D01*
X00714316Y00711538D01*
X00715257Y00710972D01*
X00715512Y00709692D01*
X00716451Y00708286D01*
X00717857Y00707347D01*
X00718840Y00707151D01*
X00718682Y00706355D01*
X00719012Y00704697D01*
X00719951Y00703291D01*
X00721357Y00702352D01*
X00723015Y00702022D01*
X00724673Y00702352D01*
X00726079Y00703291D01*
X00727019Y00704697D01*
X00727348Y00706355D01*
X00727019Y00708014D01*
X00726079Y00709419D01*
X00724673Y00710359D01*
X00723690Y00710554D01*
X00723848Y00711350D01*
X00723518Y00713008D01*
X00722579Y00714414D01*
X00721173Y00715353D01*
X00719515Y00715683D01*
X00717857Y00715353D01*
X00717075Y00714831D01*
X00716699Y00714912D01*
X00715758Y00715479D01*
X00715503Y00716758D01*
X00715402Y00716910D01*
X00715650Y00718155D01*
X00715689Y00718181D01*
X00716739Y00719753D01*
X00717108Y00721606D01*
X00716739Y00723459D01*
X00715689Y00725031D01*
X00714118Y00726080D01*
X00712265Y00726449D01*
X00711061Y00726210D01*
X00710753Y00727758D01*
X00709814Y00729164D01*
X00708408Y00730103D01*
X00706750Y00730433D01*
D02*
G37*
G36*
X00973750Y00733933D02*
X00972091Y00733603D01*
X00970686Y00732664D01*
X00969746Y00731258D01*
X00969416Y00729600D01*
X00969746Y00727942D01*
X00970461Y00726872D01*
X00970534Y00726166D01*
X00970193Y00725337D01*
X00969186Y00724664D01*
X00968247Y00723258D01*
X00967917Y00721600D01*
X00968247Y00719941D01*
X00968961Y00718872D01*
X00969034Y00718165D01*
X00968694Y00717337D01*
X00967686Y00716664D01*
X00966747Y00715258D01*
X00966417Y00713600D01*
X00966747Y00711942D01*
X00967461Y00710872D01*
X00967534Y00710165D01*
X00967194Y00709337D01*
X00966186Y00708664D01*
X00965246Y00707258D01*
X00964917Y00705600D01*
X00965246Y00703941D01*
X00966186Y00702536D01*
X00967591Y00701596D01*
X00969250Y00701267D01*
X00970908Y00701596D01*
X00972314Y00702536D01*
X00973253Y00703941D01*
X00973583Y00705600D01*
X00973253Y00707258D01*
X00972539Y00708327D01*
X00972466Y00709034D01*
X00972806Y00709862D01*
X00973814Y00710536D01*
X00974753Y00711942D01*
X00975083Y00713600D01*
X00974753Y00715258D01*
X00974039Y00716327D01*
X00973966Y00717034D01*
X00974306Y00717862D01*
X00975314Y00718536D01*
X00976253Y00719941D01*
X00976583Y00721600D01*
X00976253Y00723258D01*
X00975539Y00724327D01*
X00975466Y00725034D01*
X00975806Y00725863D01*
X00976814Y00726536D01*
X00977753Y00727942D01*
X00978083Y00729600D01*
X00977753Y00731258D01*
X00976814Y00732664D01*
X00975408Y00733603D01*
X00973750Y00733933D01*
D02*
G37*
G36*
X00784500Y00708933D02*
X00782842Y00708603D01*
X00781436Y00707664D01*
X00780497Y00706258D01*
X00780167Y00704600D01*
X00780497Y00702942D01*
X00781436Y00701536D01*
X00782842Y00700597D01*
X00784500Y00700267D01*
X00786158Y00700597D01*
X00787564Y00701536D01*
X00788503Y00702942D01*
X00788833Y00704600D01*
X00788503Y00706258D01*
X00787564Y00707664D01*
X00786158Y00708603D01*
X00784500Y00708933D01*
D02*
G37*
G36*
X00649566Y00708651D02*
X00647908Y00708321D01*
X00646502Y00707382D01*
X00645563Y00705976D01*
X00645233Y00704317D01*
X00645563Y00702659D01*
X00646502Y00701254D01*
X00647908Y00700314D01*
X00649566Y00699984D01*
X00651225Y00700314D01*
X00652630Y00701254D01*
X00653570Y00702659D01*
X00653900Y00704317D01*
X00653570Y00705976D01*
X00652630Y00707382D01*
X00651225Y00708321D01*
X00649566Y00708651D01*
D02*
G37*
G36*
X00840271Y00715939D02*
X00838613Y00715609D01*
X00837207Y00714669D01*
X00836267Y00713264D01*
X00835938Y00711606D01*
X00836267Y00709947D01*
X00837207Y00708541D01*
X00838613Y00707602D01*
X00838612Y00706307D01*
X00837613Y00706108D01*
X00836207Y00705169D01*
X00835267Y00703763D01*
X00834938Y00702105D01*
X00835267Y00700447D01*
X00836207Y00699041D01*
X00837613Y00698102D01*
X00839271Y00697772D01*
X00840929Y00698102D01*
X00842335Y00699041D01*
X00843274Y00700447D01*
X00843604Y00702105D01*
X00843274Y00703763D01*
X00842335Y00705169D01*
X00840929Y00706108D01*
X00840929Y00707403D01*
X00841929Y00707602D01*
X00843335Y00708541D01*
X00844274Y00709947D01*
X00844604Y00711606D01*
X00844274Y00713264D01*
X00843335Y00714669D01*
X00841929Y00715609D01*
X00840271Y00715939D01*
D02*
G37*
G36*
X00743629Y00705683D02*
X00741971Y00705353D01*
X00740565Y00704414D01*
X00739626Y00703008D01*
X00739296Y00701350D01*
X00739626Y00699692D01*
X00740565Y00698286D01*
X00741971Y00697346D01*
X00743629Y00697017D01*
X00745287Y00697346D01*
X00746693Y00698286D01*
X00747633Y00699692D01*
X00747962Y00701350D01*
X00747633Y00703008D01*
X00746693Y00704414D01*
X00745287Y00705353D01*
X00743629Y00705683D01*
D02*
G37*
G36*
X00465500Y00704433D02*
X00463842Y00704103D01*
X00462436Y00703164D01*
X00461497Y00701758D01*
X00461167Y00700100D01*
X00461497Y00698442D01*
X00462436Y00697036D01*
X00463842Y00696097D01*
X00465500Y00695767D01*
X00467158Y00696097D01*
X00468564Y00697036D01*
X00469503Y00698442D01*
X00469833Y00700100D01*
X00469503Y00701758D01*
X00468564Y00703164D01*
X00467158Y00704103D01*
X00465500Y00704433D01*
D02*
G37*
G36*
X00614500Y00703933D02*
X00612842Y00703603D01*
X00611436Y00702664D01*
X00610497Y00701258D01*
X00610167Y00699600D01*
X00610497Y00697942D01*
X00611436Y00696536D01*
X00612842Y00695597D01*
X00614500Y00695267D01*
X00616158Y00695597D01*
X00617564Y00696536D01*
X00618503Y00697942D01*
X00618833Y00699600D01*
X00618503Y00701258D01*
X00617564Y00702664D01*
X00616158Y00703603D01*
X00614500Y00703933D01*
D02*
G37*
G36*
X00452750D02*
X00451092Y00703603D01*
X00449686Y00702664D01*
X00448747Y00701258D01*
X00448417Y00699600D01*
X00448747Y00697942D01*
X00449686Y00696536D01*
X00451092Y00695597D01*
X00452750Y00695267D01*
X00454408Y00695597D01*
X00455814Y00696536D01*
X00456753Y00697942D01*
X00457083Y00699600D01*
X00456753Y00701258D01*
X00455814Y00702664D01*
X00454408Y00703603D01*
X00452750Y00703933D01*
D02*
G37*
G36*
X00509371Y00725683D02*
X00507712Y00725353D01*
X00506306Y00724414D01*
X00505367Y00723008D01*
X00505037Y00721350D01*
X00505367Y00719692D01*
X00505657Y00719258D01*
X00505941Y00717920D01*
X00505540Y00717321D01*
X00505001Y00716514D01*
X00504672Y00714856D01*
X00505001Y00713197D01*
X00505941Y00711792D01*
X00507011Y00711076D01*
X00507171Y00709969D01*
X00507098Y00709607D01*
X00506436Y00709164D01*
X00505497Y00707758D01*
X00505167Y00706100D01*
X00505497Y00704442D01*
X00505734Y00704087D01*
X00505759Y00703892D01*
X00505311Y00702433D01*
X00504325Y00701775D01*
X00503276Y00700203D01*
X00502907Y00698350D01*
X00503276Y00696497D01*
X00504325Y00694925D01*
X00505897Y00693876D01*
X00507750Y00693507D01*
X00509603Y00693876D01*
X00511175Y00694925D01*
X00512224Y00696497D01*
X00512593Y00698350D01*
X00512224Y00700203D01*
X00511673Y00701029D01*
X00511266Y00701873D01*
X00511996Y00702657D01*
X00512564Y00703036D01*
X00513503Y00704442D01*
X00513833Y00706100D01*
X00513503Y00707758D01*
X00512564Y00709164D01*
X00511493Y00709880D01*
X00511334Y00710986D01*
X00511406Y00711349D01*
X00512069Y00711792D01*
X00513008Y00713197D01*
X00513338Y00714856D01*
X00513008Y00716514D01*
X00512652Y00717046D01*
X00512642Y00717076D01*
X00512435Y00718286D01*
X00512835Y00718885D01*
X00512835Y00718885D01*
X00513033Y00719182D01*
X00513374Y00719692D01*
X00513704Y00721350D01*
X00513374Y00723008D01*
X00512435Y00724414D01*
X00511029Y00725353D01*
X00509371Y00725683D01*
D02*
G37*
G36*
X00681500Y00703683D02*
X00679842Y00703353D01*
X00678436Y00702414D01*
X00677497Y00701008D01*
X00677167Y00699350D01*
X00677497Y00697692D01*
X00678436Y00696286D01*
X00679842Y00695347D01*
X00681500Y00695017D01*
X00683158Y00695347D01*
X00684564Y00696286D01*
X00684743Y00696553D01*
X00686091Y00696285D01*
X00686254Y00695467D01*
X00687193Y00694061D01*
X00688599Y00693122D01*
X00690257Y00692792D01*
X00691916Y00693122D01*
X00693321Y00694061D01*
X00694553Y00693707D01*
X00695092Y00693347D01*
X00696750Y00693017D01*
X00698408Y00693347D01*
X00699814Y00694286D01*
X00700753Y00695692D01*
X00701083Y00697350D01*
X00700753Y00699008D01*
X00699814Y00700414D01*
X00698408Y00701353D01*
X00696750Y00701683D01*
X00695092Y00701353D01*
X00693686Y00700414D01*
X00692455Y00700768D01*
X00691916Y00701129D01*
X00690257Y00701458D01*
X00688599Y00701129D01*
X00687193Y00700189D01*
X00687014Y00699922D01*
X00685666Y00700190D01*
X00685503Y00701008D01*
X00684564Y00702414D01*
X00683158Y00703353D01*
X00681500Y00703683D01*
D02*
G37*
G36*
X00530250Y00707933D02*
X00528592Y00707603D01*
X00527186Y00706664D01*
X00526247Y00705258D01*
X00525917Y00703600D01*
X00526247Y00701942D01*
X00527186Y00700536D01*
X00527436Y00700369D01*
Y00699664D01*
X00526497Y00698258D01*
X00526167Y00696600D01*
X00526497Y00694941D01*
X00527436Y00693536D01*
X00528842Y00692596D01*
X00530500Y00692266D01*
X00532158Y00692596D01*
X00533564Y00693536D01*
X00534503Y00694941D01*
X00534833Y00696600D01*
X00534503Y00698258D01*
X00533564Y00699664D01*
X00533314Y00699831D01*
Y00700536D01*
X00534253Y00701942D01*
X00534583Y00703600D01*
X00534253Y00705258D01*
X00533314Y00706664D01*
X00531908Y00707603D01*
X00530250Y00707933D01*
D02*
G37*
G36*
X00722802Y00700683D02*
X00721143Y00700353D01*
X00719738Y00699414D01*
X00718798Y00698008D01*
X00718468Y00696350D01*
X00718798Y00694692D01*
X00719738Y00693286D01*
X00721143Y00692347D01*
X00722802Y00692017D01*
X00724460Y00692347D01*
X00725866Y00693286D01*
X00726805Y00694692D01*
X00727135Y00696350D01*
X00726805Y00698008D01*
X00725866Y00699414D01*
X00724460Y00700353D01*
X00722802Y00700683D01*
D02*
G37*
G36*
X00824750Y00700183D02*
X00823092Y00699853D01*
X00821686Y00698914D01*
X00820747Y00697508D01*
X00820417Y00695850D01*
X00820747Y00694192D01*
X00821686Y00692786D01*
X00823092Y00691847D01*
X00824750Y00691517D01*
X00826408Y00691847D01*
X00827814Y00692786D01*
X00828753Y00694192D01*
X00829083Y00695850D01*
X00828753Y00697508D01*
X00827814Y00698914D01*
X00826408Y00699853D01*
X00824750Y00700183D01*
D02*
G37*
G36*
X00706343Y00708058D02*
X00704684Y00707728D01*
X00703279Y00706789D01*
X00702339Y00705383D01*
X00702009Y00703725D01*
X00702339Y00702067D01*
X00703279Y00700661D01*
X00704684Y00699721D01*
X00704936Y00698414D01*
X00703997Y00697008D01*
X00703667Y00695350D01*
X00703997Y00693692D01*
X00704936Y00692286D01*
X00706342Y00691347D01*
X00708000Y00691017D01*
X00709658Y00691347D01*
X00711064Y00692286D01*
X00712003Y00693692D01*
X00712333Y00695350D01*
X00712003Y00697008D01*
X00711064Y00698414D01*
X00709658Y00699353D01*
X00709407Y00700661D01*
X00710346Y00702067D01*
X00710676Y00703725D01*
X00710346Y00705383D01*
X00709407Y00706789D01*
X00708001Y00707728D01*
X00706343Y00708058D01*
D02*
G37*
G36*
X00885500Y00703866D02*
X00883842Y00703536D01*
X00882436Y00702597D01*
X00881497Y00701191D01*
X00881167Y00699533D01*
X00881497Y00697875D01*
X00881879Y00697303D01*
X00881061Y00696757D01*
X00880122Y00695351D01*
X00879792Y00693692D01*
X00880122Y00692034D01*
X00881061Y00690628D01*
X00882467Y00689689D01*
X00884125Y00689359D01*
X00885783Y00689689D01*
X00887189Y00690628D01*
X00888128Y00692034D01*
X00888458Y00693692D01*
X00888128Y00695351D01*
X00887746Y00695922D01*
X00888564Y00696469D01*
X00889503Y00697875D01*
X00889833Y00699533D01*
X00889503Y00701191D01*
X00888564Y00702597D01*
X00887158Y00703536D01*
X00885500Y00703866D01*
D02*
G37*
G36*
X00743629Y00695683D02*
X00741971Y00695353D01*
X00740565Y00694414D01*
X00739626Y00693008D01*
X00739296Y00691350D01*
X00739626Y00689692D01*
X00740565Y00688286D01*
X00741971Y00687346D01*
X00743629Y00687017D01*
X00745287Y00687346D01*
X00746693Y00688286D01*
X00747633Y00689692D01*
X00747962Y00691350D01*
X00747633Y00693008D01*
X00746693Y00694414D01*
X00745287Y00695353D01*
X00743629Y00695683D01*
D02*
G37*
G36*
X00840521Y00695260D02*
X00838863Y00694930D01*
X00837457Y00693991D01*
X00836517Y00692585D01*
X00836188Y00690927D01*
X00836517Y00689268D01*
X00837457Y00687863D01*
X00838863Y00686923D01*
X00840521Y00686594D01*
X00842179Y00686923D01*
X00843585Y00687863D01*
X00844524Y00689268D01*
X00844854Y00690927D01*
X00844524Y00692585D01*
X00843585Y00693991D01*
X00842179Y00694930D01*
X00840521Y00695260D01*
D02*
G37*
G36*
X00669000Y00699151D02*
X00667342Y00698821D01*
X00665936Y00697882D01*
X00664997Y00696476D01*
X00664667Y00694818D01*
X00664997Y00693159D01*
X00665936Y00691753D01*
X00666380Y00691457D01*
X00665747Y00690508D01*
X00665417Y00688850D01*
X00665747Y00687192D01*
X00666686Y00685786D01*
X00668092Y00684847D01*
X00669750Y00684517D01*
X00671408Y00684847D01*
X00672814Y00685786D01*
X00673753Y00687192D01*
X00674083Y00688850D01*
X00673753Y00690508D01*
X00672814Y00691914D01*
X00672370Y00692211D01*
X00673003Y00693159D01*
X00673333Y00694818D01*
X00673003Y00696476D01*
X00672064Y00697882D01*
X00670658Y00698821D01*
X00669000Y00699151D01*
D02*
G37*
G36*
X00716765Y00691687D02*
X00715107Y00691358D01*
X00713701Y00690418D01*
X00712761Y00689013D01*
X00712432Y00687354D01*
X00712761Y00685696D01*
X00713701Y00684290D01*
X00715107Y00683351D01*
X00716765Y00683021D01*
X00718423Y00683351D01*
X00719302Y00683938D01*
X00719738Y00683286D01*
X00721143Y00682347D01*
X00722802Y00682017D01*
X00724460Y00682347D01*
X00725866Y00683286D01*
X00726805Y00684692D01*
X00727135Y00686350D01*
X00726805Y00688008D01*
X00725866Y00689414D01*
X00724460Y00690354D01*
X00722802Y00690683D01*
X00721143Y00690354D01*
X00720265Y00689766D01*
X00719829Y00690418D01*
X00718423Y00691358D01*
X00716765Y00691687D01*
D02*
G37*
G36*
X00530199Y00690683D02*
X00528540Y00690354D01*
X00527135Y00689414D01*
X00526195Y00688008D01*
X00525865Y00686350D01*
X00526195Y00684692D01*
X00527135Y00683286D01*
X00528540Y00682347D01*
X00530199Y00682017D01*
X00531857Y00682347D01*
X00533263Y00683286D01*
X00534202Y00684692D01*
X00534532Y00686350D01*
X00534202Y00688008D01*
X00533263Y00689414D01*
X00531857Y00690354D01*
X00530199Y00690683D01*
D02*
G37*
G36*
X00680500Y00688433D02*
X00678842Y00688103D01*
X00677436Y00687164D01*
X00676497Y00685758D01*
X00676167Y00684100D01*
X00676497Y00682442D01*
X00675435Y00681762D01*
X00675404Y00681810D01*
X00675164Y00682168D01*
X00673758Y00683107D01*
X00672100Y00683437D01*
X00670442Y00683107D01*
X00669036Y00682168D01*
X00668097Y00680762D01*
X00667767Y00679104D01*
X00668097Y00677446D01*
X00669036Y00676040D01*
X00670442Y00675100D01*
X00672100Y00674771D01*
X00673758Y00675100D01*
X00675164Y00676040D01*
X00676104Y00677446D01*
X00676433Y00679104D01*
X00676104Y00680762D01*
X00677165Y00681442D01*
X00677197Y00681394D01*
X00677436Y00681036D01*
X00678842Y00680097D01*
X00680500Y00679767D01*
X00682158Y00680097D01*
X00683564Y00681036D01*
X00684503Y00682442D01*
X00684833Y00684100D01*
X00684503Y00685758D01*
X00683564Y00687164D01*
X00682158Y00688103D01*
X00680500Y00688433D01*
D02*
G37*
G36*
X00614594Y00693777D02*
X00612936Y00693447D01*
X00611530Y00692508D01*
X00610591Y00691102D01*
X00610261Y00689444D01*
X00609084Y00688847D01*
X00608186Y00688668D01*
X00606780Y00687729D01*
X00605840Y00686323D01*
X00605511Y00684665D01*
X00605840Y00683007D01*
X00606780Y00681601D01*
X00608186Y00680662D01*
X00609844Y00680332D01*
X00611502Y00680662D01*
X00612908Y00681601D01*
X00613847Y00683007D01*
X00614177Y00684665D01*
X00615353Y00685262D01*
X00616252Y00685441D01*
X00617658Y00686380D01*
X00618597Y00687786D01*
X00618927Y00689444D01*
X00618597Y00691102D01*
X00617658Y00692508D01*
X00616252Y00693447D01*
X00614594Y00693777D01*
D02*
G37*
G36*
X00832020Y00688937D02*
X00830362Y00688607D01*
X00828956Y00687668D01*
X00828017Y00686262D01*
X00827687Y00684604D01*
X00828017Y00682946D01*
X00828956Y00681540D01*
X00830362Y00680601D01*
X00832020Y00680271D01*
X00833679Y00680601D01*
X00835085Y00681540D01*
X00836024Y00682946D01*
X00836354Y00684604D01*
X00836024Y00686262D01*
X00835085Y00687668D01*
X00833679Y00688607D01*
X00832020Y00688937D01*
D02*
G37*
G36*
X00632511Y00692208D02*
X00630853Y00691878D01*
X00629447Y00690939D01*
X00628507Y00689533D01*
X00628177Y00687875D01*
X00628507Y00686217D01*
X00629447Y00684811D01*
X00630853Y00683872D01*
X00632511Y00683542D01*
X00634169Y00683872D01*
X00635293Y00684623D01*
X00636186Y00683286D01*
X00637592Y00682347D01*
X00639250Y00682017D01*
X00640908Y00682347D01*
X00641658Y00682848D01*
X00642197Y00682040D01*
X00643603Y00681101D01*
X00645261Y00680771D01*
X00646920Y00681101D01*
X00648325Y00682040D01*
X00649151Y00683276D01*
X00649793Y00682847D01*
X00651451Y00682517D01*
X00653110Y00682847D01*
X00653605Y00683177D01*
X00654198Y00682290D01*
X00655604Y00681351D01*
X00657262Y00681021D01*
X00657762Y00681120D01*
X00657997Y00679942D01*
X00658936Y00678536D01*
X00660342Y00677597D01*
X00662000Y00677267D01*
X00663658Y00677597D01*
X00665064Y00678536D01*
X00666003Y00679942D01*
X00666333Y00681600D01*
X00666003Y00683258D01*
X00665064Y00684664D01*
X00663658Y00685603D01*
X00662000Y00685933D01*
X00661500Y00685834D01*
X00661265Y00687012D01*
X00660326Y00688418D01*
X00658920Y00689358D01*
X00657262Y00689687D01*
X00655604Y00689358D01*
X00655108Y00689027D01*
X00654515Y00689914D01*
X00653110Y00690853D01*
X00651451Y00691183D01*
X00649793Y00690853D01*
X00648387Y00689914D01*
X00647562Y00688679D01*
X00646920Y00689108D01*
X00645261Y00689437D01*
X00643603Y00689108D01*
X00642853Y00688607D01*
X00642314Y00689414D01*
X00640908Y00690353D01*
X00639250Y00690683D01*
X00637592Y00690353D01*
X00636468Y00689603D01*
X00635575Y00690939D01*
X00634169Y00691878D01*
X00632511Y00692208D01*
D02*
G37*
G36*
X00802750Y00686443D02*
X00800897Y00686074D01*
X00799325Y00685024D01*
X00798276Y00683453D01*
X00797907Y00681600D01*
X00798276Y00679747D01*
X00799325Y00678175D01*
X00800897Y00677126D01*
X00802750Y00676757D01*
X00804603Y00677126D01*
X00806175Y00678175D01*
X00807224Y00679747D01*
X00807593Y00681600D01*
X00807224Y00683453D01*
X00806175Y00685024D01*
X00804603Y00686074D01*
X00802750Y00686443D01*
D02*
G37*
G36*
X00507250Y00686193D02*
X00505397Y00685824D01*
X00503825Y00684775D01*
X00502776Y00683203D01*
X00502407Y00681350D01*
X00502776Y00679497D01*
X00503825Y00677925D01*
X00505397Y00676876D01*
X00507250Y00676507D01*
X00509103Y00676876D01*
X00510675Y00677925D01*
X00511724Y00679497D01*
X00512093Y00681350D01*
X00511724Y00683203D01*
X00510675Y00684775D01*
X00509103Y00685824D01*
X00507250Y00686193D01*
D02*
G37*
G36*
X00758500Y00684933D02*
X00756842Y00684603D01*
X00755436Y00683664D01*
X00754497Y00682258D01*
X00754167Y00680600D01*
X00754497Y00678942D01*
X00755436Y00677536D01*
X00756842Y00676597D01*
X00758500Y00676267D01*
X00760158Y00676597D01*
X00761564Y00677536D01*
X00762503Y00678942D01*
X00762833Y00680600D01*
X00762503Y00682258D01*
X00761564Y00683664D01*
X00760158Y00684603D01*
X00758500Y00684933D01*
D02*
G37*
G36*
X00743629Y00685683D02*
X00741971Y00685353D01*
X00740565Y00684414D01*
X00739626Y00683008D01*
X00739296Y00681350D01*
X00739626Y00679692D01*
X00740565Y00678286D01*
X00741971Y00677346D01*
X00743416Y00677059D01*
X00743381Y00676886D01*
X00743711Y00675227D01*
X00744650Y00673821D01*
X00746056Y00672882D01*
X00747714Y00672552D01*
X00749373Y00672882D01*
X00750779Y00673821D01*
X00751718Y00675227D01*
X00752048Y00676886D01*
X00751718Y00678544D01*
X00750779Y00679949D01*
X00749373Y00680889D01*
X00747928Y00681176D01*
X00747962Y00681350D01*
X00747633Y00683008D01*
X00746693Y00684414D01*
X00745287Y00685353D01*
X00743629Y00685683D01*
D02*
G37*
G36*
X00838113Y00681174D02*
X00836455Y00680844D01*
X00835049Y00679905D01*
X00834109Y00678499D01*
X00833780Y00676841D01*
X00834109Y00675183D01*
X00835049Y00673777D01*
X00836455Y00672838D01*
X00838113Y00672508D01*
X00839771Y00672838D01*
X00841177Y00673777D01*
X00842116Y00675183D01*
X00842446Y00676841D01*
X00842116Y00678499D01*
X00841177Y00679905D01*
X00839771Y00680844D01*
X00838113Y00681174D01*
D02*
G37*
G36*
X00614750Y00679183D02*
X00613092Y00678853D01*
X00611686Y00677914D01*
X00610747Y00676508D01*
X00610417Y00674850D01*
X00610747Y00673192D01*
X00611686Y00671786D01*
X00613092Y00670847D01*
X00614750Y00670517D01*
X00616408Y00670847D01*
X00617814Y00671786D01*
X00618753Y00673192D01*
X00619083Y00674850D01*
X00618753Y00676508D01*
X00617814Y00677914D01*
X00616408Y00678853D01*
X00614750Y00679183D01*
D02*
G37*
G36*
X00775518Y00671686D02*
X00773859Y00671357D01*
X00772454Y00670417D01*
X00772270Y00670143D01*
X00770871Y00671078D01*
X00769017Y00671446D01*
X00767164Y00671078D01*
X00765593Y00670028D01*
X00764945Y00669899D01*
X00764408Y00670258D01*
X00762750Y00670588D01*
X00761092Y00670258D01*
X00759686Y00669318D01*
X00758747Y00667913D01*
X00758417Y00666254D01*
X00758747Y00664596D01*
X00759686Y00663190D01*
X00761092Y00662251D01*
X00762750Y00661921D01*
X00764408Y00662251D01*
X00765695Y00663111D01*
X00767164Y00662129D01*
X00769017Y00661760D01*
X00770871Y00662129D01*
X00772442Y00663179D01*
X00772460Y00663205D01*
X00773705Y00663453D01*
X00773859Y00663350D01*
X00775518Y00663020D01*
X00777176Y00663350D01*
X00778582Y00664289D01*
X00779663Y00663621D01*
X00780860Y00662821D01*
X00782518Y00662491D01*
X00784177Y00662821D01*
X00784614Y00663113D01*
X00785454Y00661855D01*
X00786860Y00660915D01*
X00788519Y00660585D01*
X00790177Y00660915D01*
X00791583Y00661855D01*
X00792522Y00663260D01*
X00792852Y00664919D01*
X00792522Y00666577D01*
X00791583Y00667983D01*
X00790177Y00668922D01*
X00788519Y00669252D01*
X00786860Y00668922D01*
X00786423Y00668630D01*
X00785583Y00669888D01*
X00784177Y00670827D01*
X00782518Y00671157D01*
X00780860Y00670827D01*
X00779454Y00669888D01*
X00778374Y00670556D01*
X00777176Y00671357D01*
X00775518Y00671686D01*
D02*
G37*
G36*
X00584000Y00671433D02*
X00582342Y00671103D01*
X00580936Y00670164D01*
X00579996Y00668758D01*
X00579825Y00667897D01*
X00579303Y00667778D01*
X00578017Y00668688D01*
X00578003Y00668758D01*
X00577064Y00670164D01*
X00575658Y00671103D01*
X00574000Y00671433D01*
X00572342Y00671103D01*
X00570936Y00670164D01*
X00569996Y00668758D01*
X00569667Y00667100D01*
X00568438Y00666769D01*
X00567342Y00666551D01*
X00565936Y00665612D01*
X00564997Y00664206D01*
X00564667Y00662548D01*
X00564997Y00660890D01*
X00565936Y00659484D01*
X00567342Y00658544D01*
X00569000Y00658215D01*
X00570658Y00658544D01*
X00572064Y00659484D01*
X00573004Y00660890D01*
X00573175Y00661751D01*
X00573697Y00661870D01*
X00574986Y00660944D01*
X00574997Y00660890D01*
X00575936Y00659484D01*
X00577342Y00658545D01*
X00579000Y00658215D01*
X00580658Y00658545D01*
X00582064Y00659484D01*
X00583004Y00660890D01*
X00583333Y00662548D01*
X00583626Y00662841D01*
X00584000Y00662767D01*
X00585658Y00663097D01*
X00587064Y00664036D01*
X00588003Y00665442D01*
X00588333Y00667100D01*
X00588003Y00668758D01*
X00587064Y00670164D01*
X00585658Y00671103D01*
X00584000Y00671433D01*
D02*
G37*
G36*
X00533376Y00676069D02*
X00531522Y00675700D01*
X00529951Y00674650D01*
X00528901Y00673079D01*
X00528532Y00671226D01*
X00528901Y00669372D01*
X00529951Y00667801D01*
X00531522Y00666751D01*
X00533376Y00666383D01*
X00535229Y00666751D01*
X00536800Y00667801D01*
X00537850Y00669372D01*
X00538219Y00671226D01*
X00537850Y00673079D01*
X00536800Y00674650D01*
X00535229Y00675700D01*
X00533376Y00676069D01*
D02*
G37*
G36*
X00682263Y00675187D02*
X00680605Y00674857D01*
X00679199Y00673917D01*
X00678260Y00672512D01*
X00677930Y00670854D01*
X00678260Y00669195D01*
X00678053Y00668696D01*
X00677605Y00668607D01*
X00676199Y00667667D01*
X00675260Y00666262D01*
X00673971Y00666295D01*
X00673263Y00666436D01*
X00671604Y00666106D01*
X00670199Y00665167D01*
X00669259Y00663761D01*
X00668930Y00662103D01*
X00669259Y00660445D01*
X00670199Y00659039D01*
X00671604Y00658100D01*
X00673263Y00657770D01*
X00674921Y00658100D01*
X00676327Y00659039D01*
X00677266Y00660445D01*
X00678554Y00660411D01*
X00679263Y00660270D01*
X00680921Y00660600D01*
X00682327Y00661539D01*
X00682671Y00662053D01*
X00683629Y00662745D01*
X00684298Y00662377D01*
X00685092Y00661847D01*
X00686750Y00661517D01*
X00688408Y00661847D01*
X00689814Y00662786D01*
X00690753Y00664192D01*
X00691083Y00665850D01*
X00690753Y00667508D01*
X00689814Y00668914D01*
X00688408Y00669853D01*
X00687720Y00669990D01*
X00686596Y00670854D01*
X00686266Y00672512D01*
X00685327Y00673917D01*
X00683921Y00674857D01*
X00682263Y00675187D01*
D02*
G37*
G36*
X00969250Y00694933D02*
X00967592Y00694604D01*
X00966186Y00693664D01*
X00965247Y00692258D01*
X00964917Y00690600D01*
X00965247Y00688942D01*
X00966186Y00687536D01*
X00967194Y00686863D01*
X00967534Y00686034D01*
X00967461Y00685328D01*
X00966747Y00684258D01*
X00966417Y00682600D01*
X00966747Y00680942D01*
X00967686Y00679536D01*
X00968694Y00678863D01*
X00969034Y00678035D01*
X00968961Y00677328D01*
X00968247Y00676258D01*
X00967917Y00674600D01*
X00968247Y00672942D01*
X00969186Y00671536D01*
X00970194Y00670863D01*
X00970534Y00670034D01*
X00970461Y00669328D01*
X00969747Y00668258D01*
X00969417Y00666600D01*
X00969747Y00664942D01*
X00970686Y00663536D01*
X00972092Y00662597D01*
X00973750Y00662267D01*
X00975408Y00662597D01*
X00976814Y00663536D01*
X00977754Y00664942D01*
X00978083Y00666600D01*
X00977754Y00668258D01*
X00976814Y00669664D01*
X00975806Y00670338D01*
X00975466Y00671166D01*
X00975539Y00671872D01*
X00976253Y00672942D01*
X00976583Y00674600D01*
X00976253Y00676258D01*
X00975314Y00677664D01*
X00974306Y00678338D01*
X00973966Y00679166D01*
X00974039Y00679873D01*
X00974753Y00680942D01*
X00975083Y00682600D01*
X00974753Y00684258D01*
X00973814Y00685664D01*
X00972806Y00686337D01*
X00972466Y00687166D01*
X00972539Y00687872D01*
X00973254Y00688942D01*
X00973584Y00690600D01*
X00973254Y00692258D01*
X00972314Y00693664D01*
X00970909Y00694604D01*
X00969250Y00694933D01*
D02*
G37*
G36*
X00803769Y00675187D02*
X00802111Y00674857D01*
X00800705Y00673917D01*
X00799766Y00672512D01*
X00799436Y00670854D01*
X00799766Y00669195D01*
X00800705Y00667789D01*
X00801746Y00667094D01*
X00801155Y00666209D01*
X00800825Y00664550D01*
X00801155Y00662892D01*
X00802094Y00661486D01*
X00803500Y00660547D01*
X00805158Y00660217D01*
X00806817Y00660547D01*
X00808223Y00661486D01*
X00809162Y00662892D01*
X00809492Y00664550D01*
X00809162Y00666209D01*
X00808223Y00667614D01*
X00807181Y00668310D01*
X00807773Y00669195D01*
X00808102Y00670854D01*
X00807773Y00672512D01*
X00806833Y00673917D01*
X00805427Y00674857D01*
X00803769Y00675187D01*
D02*
G37*
G36*
X00843613Y00667949D02*
X00841955Y00667619D01*
X00840549Y00666679D01*
X00839610Y00665274D01*
X00839280Y00663615D01*
X00839610Y00661957D01*
X00840549Y00660551D01*
X00841955Y00659612D01*
X00843613Y00659282D01*
X00845271Y00659612D01*
X00846677Y00660551D01*
X00847616Y00661957D01*
X00847946Y00663615D01*
X00847616Y00665274D01*
X00846677Y00666679D01*
X00845271Y00667619D01*
X00843613Y00667949D01*
D02*
G37*
G36*
X00708875Y00667933D02*
X00707217Y00667603D01*
X00705811Y00666664D01*
X00704872Y00665258D01*
X00704542Y00663600D01*
X00704872Y00661942D01*
X00705811Y00660536D01*
X00707217Y00659597D01*
X00708875Y00659267D01*
X00710533Y00659597D01*
X00711939Y00660536D01*
X00712878Y00661942D01*
X00713208Y00663600D01*
X00712878Y00665258D01*
X00711939Y00666664D01*
X00710533Y00667603D01*
X00708875Y00667933D01*
D02*
G37*
G36*
X00509750Y00666933D02*
X00508092Y00666603D01*
X00506686Y00665664D01*
X00505747Y00664258D01*
X00505417Y00662600D01*
X00505747Y00660942D01*
X00506686Y00659536D01*
X00508092Y00658597D01*
X00509750Y00658267D01*
X00511408Y00658597D01*
X00512814Y00659536D01*
X00513753Y00660942D01*
X00514083Y00662600D01*
X00513753Y00664258D01*
X00512814Y00665664D01*
X00511408Y00666603D01*
X00509750Y00666933D01*
D02*
G37*
G36*
X00540000Y00667433D02*
X00538342Y00667103D01*
X00536936Y00666164D01*
X00535997Y00664758D01*
X00535667Y00663100D01*
X00535997Y00661442D01*
X00536936Y00660036D01*
X00538342Y00659097D01*
X00540000Y00658767D01*
X00541658Y00659097D01*
X00543064Y00660036D01*
X00543686Y00660967D01*
X00544459Y00660922D01*
X00545069Y00660783D01*
X00545936Y00659484D01*
X00547342Y00658545D01*
X00549000Y00658215D01*
X00550658Y00658545D01*
X00552064Y00659484D01*
X00553004Y00660890D01*
X00553333Y00662548D01*
X00553004Y00664207D01*
X00552064Y00665612D01*
X00550658Y00666552D01*
X00549000Y00666882D01*
X00547342Y00666552D01*
X00545936Y00665612D01*
X00545314Y00664681D01*
X00544541Y00664726D01*
X00543932Y00664866D01*
X00543064Y00666164D01*
X00541658Y00667103D01*
X00540000Y00667433D01*
D02*
G37*
G36*
X00559000Y00666881D02*
X00557342Y00666551D01*
X00555936Y00665612D01*
X00554997Y00664206D01*
X00554667Y00662548D01*
X00554997Y00660890D01*
X00555936Y00659484D01*
X00557342Y00658544D01*
X00559000Y00658215D01*
X00560658Y00658544D01*
X00562064Y00659484D01*
X00563004Y00660890D01*
X00563333Y00662548D01*
X00563004Y00664206D01*
X00562064Y00665612D01*
X00560658Y00666551D01*
X00559000Y00666881D01*
D02*
G37*
G36*
X00965750Y00655683D02*
X00964092Y00655353D01*
X00962686Y00654414D01*
X00961216Y00654501D01*
X00960071Y00655266D01*
X00958413Y00655596D01*
X00956754Y00655266D01*
X00955349Y00654327D01*
X00954409Y00652921D01*
X00954079Y00651263D01*
X00954409Y00649604D01*
X00955349Y00648199D01*
X00956754Y00647259D01*
X00958413Y00646929D01*
X00960071Y00647259D01*
X00961477Y00648199D01*
X00962946Y00648112D01*
X00964092Y00647347D01*
X00965750Y00647017D01*
X00967408Y00647347D01*
X00968814Y00648286D01*
X00969753Y00649692D01*
X00970083Y00651350D01*
X00969753Y00653008D01*
X00968814Y00654414D01*
X00967408Y00655353D01*
X00965750Y00655683D01*
D02*
G37*
G36*
X00982000Y00662693D02*
X00980147Y00662324D01*
X00978576Y00661274D01*
X00977526Y00659703D01*
X00977157Y00657850D01*
X00977526Y00655997D01*
X00978576Y00654425D01*
X00980147Y00653376D01*
X00982000Y00653007D01*
X00983853Y00653376D01*
X00985425Y00654425D01*
X00986474Y00655997D01*
X00986843Y00657850D01*
X00986474Y00659703D01*
X00985425Y00661274D01*
X00983853Y00662324D01*
X00982000Y00662693D01*
D02*
G37*
G36*
X00729512Y00648683D02*
X00727853Y00648353D01*
X00726448Y00647414D01*
X00725550Y00646071D01*
X00725501Y00646103D01*
X00723843Y00646433D01*
X00722185Y00646103D01*
X00720779Y00645164D01*
X00719839Y00643758D01*
X00719510Y00642100D01*
X00719839Y00640442D01*
X00720779Y00639036D01*
X00721099Y00638822D01*
Y00638820D01*
X00720160Y00637415D01*
X00719830Y00635756D01*
X00720160Y00634098D01*
X00721099Y00632692D01*
X00722505Y00631753D01*
X00724163Y00631423D01*
X00725821Y00631753D01*
X00727227Y00632692D01*
X00728167Y00634098D01*
X00728496Y00635756D01*
X00728167Y00637415D01*
X00727227Y00638820D01*
X00727357Y00639249D01*
X00727853Y00640347D01*
X00729512Y00640017D01*
X00731170Y00640347D01*
X00732576Y00641286D01*
X00733515Y00642692D01*
X00733845Y00644350D01*
X00733515Y00646008D01*
X00732576Y00647414D01*
X00731170Y00648353D01*
X00729512Y00648683D01*
D02*
G37*
G36*
X00600500Y00645933D02*
X00598842Y00645603D01*
X00597436Y00644664D01*
X00596497Y00643258D01*
X00596167Y00641600D01*
X00596497Y00639942D01*
X00597436Y00638536D01*
X00598842Y00637597D01*
X00600500Y00637267D01*
X00602158Y00637597D01*
X00603564Y00638536D01*
X00604503Y00639942D01*
X00604833Y00641600D01*
X00604503Y00643258D01*
X00603564Y00644664D01*
X00602158Y00645603D01*
X00600500Y00645933D01*
D02*
G37*
G36*
X00999250Y00638193D02*
X00997397Y00637824D01*
X00995826Y00636774D01*
X00995514Y00636308D01*
X00993986D01*
X00993675Y00636774D01*
X00992103Y00637824D01*
X00990250Y00638193D01*
X00988397Y00637824D01*
X00986825Y00636774D01*
X00986514Y00636308D01*
X00984986D01*
X00984675Y00636774D01*
X00983103Y00637824D01*
X00981250Y00638193D01*
X00979397Y00637824D01*
X00977825Y00636774D01*
X00976776Y00635203D01*
X00976407Y00633350D01*
X00976776Y00631497D01*
X00977825Y00629925D01*
X00979397Y00628876D01*
X00981250Y00628507D01*
X00983103Y00628876D01*
X00984675Y00629925D01*
X00984986Y00630392D01*
X00986514D01*
X00986825Y00629925D01*
X00988397Y00628876D01*
X00990250Y00628507D01*
X00992103Y00628876D01*
X00993675Y00629925D01*
X00993986Y00630392D01*
X00995514D01*
X00995826Y00629925D01*
X00997397Y00628876D01*
X00999250Y00628507D01*
X01001103Y00628876D01*
X01002675Y00629925D01*
X01003724Y00631497D01*
X01004093Y00633350D01*
X01003724Y00635203D01*
X01002675Y00636774D01*
X01001103Y00637824D01*
X00999250Y00638193D01*
D02*
G37*
G36*
X00637750Y00634183D02*
X00636092Y00633853D01*
X00634686Y00632914D01*
X00633747Y00631508D01*
X00633417Y00629850D01*
X00633573Y00629066D01*
X00632376Y00628571D01*
X00632314Y00628664D01*
X00630908Y00629603D01*
X00629250Y00629933D01*
X00627592Y00629603D01*
X00626186Y00628664D01*
X00625247Y00627258D01*
X00624917Y00625600D01*
X00625247Y00623942D01*
X00626186Y00622536D01*
X00627592Y00621597D01*
X00629250Y00621267D01*
X00630908Y00621597D01*
X00632314Y00622536D01*
X00633253Y00623942D01*
X00633583Y00625600D01*
X00633427Y00626384D01*
X00634624Y00626879D01*
X00634686Y00626786D01*
X00636092Y00625847D01*
X00637750Y00625517D01*
X00639408Y00625847D01*
X00640814Y00626786D01*
X00641753Y00628192D01*
X00642083Y00629850D01*
X00641753Y00631508D01*
X00640814Y00632914D01*
X00639408Y00633853D01*
X00637750Y00634183D01*
D02*
G37*
G36*
X00822270Y00631185D02*
X00820612Y00630855D01*
X00819206Y00629915D01*
X00818267Y00628510D01*
X00817937Y00626851D01*
X00818267Y00625193D01*
X00819206Y00623787D01*
X00820612Y00622848D01*
X00822270Y00622518D01*
X00823928Y00622848D01*
X00825334Y00623787D01*
X00826273Y00625193D01*
X00826603Y00626851D01*
X00826273Y00628510D01*
X00825334Y00629915D01*
X00823928Y00630855D01*
X00822270Y00631185D01*
D02*
G37*
G36*
X00741500Y00633183D02*
X00739842Y00632853D01*
X00738436Y00631914D01*
X00737497Y00630508D01*
X00737167Y00628850D01*
X00737497Y00627192D01*
X00738436Y00625786D01*
X00739842Y00624847D01*
X00741500Y00624517D01*
X00742983Y00624812D01*
X00743575Y00623925D01*
X00745147Y00622876D01*
X00747000Y00622507D01*
X00748853Y00622876D01*
X00750425Y00623925D01*
X00751474Y00625497D01*
X00751843Y00627350D01*
X00751474Y00629203D01*
X00750425Y00630775D01*
X00748853Y00631824D01*
X00747000Y00632193D01*
X00745147Y00631824D01*
X00744785Y00631583D01*
X00744564Y00631914D01*
X00743158Y00632853D01*
X00741500Y00633183D01*
D02*
G37*
G36*
X00724500Y00629933D02*
X00722842Y00629603D01*
X00721436Y00628664D01*
X00720497Y00627258D01*
X00720167Y00625600D01*
X00720497Y00623942D01*
X00721436Y00622536D01*
X00722842Y00621597D01*
X00724500Y00621267D01*
X00726159Y00621597D01*
X00727564Y00622536D01*
X00728504Y00623942D01*
X00728834Y00625600D01*
X00728504Y00627258D01*
X00727564Y00628664D01*
X00726159Y00629603D01*
X00724500Y00629933D01*
D02*
G37*
G36*
X00705250D02*
X00703592Y00629603D01*
X00702186Y00628664D01*
X00701247Y00627258D01*
X00700917Y00625600D01*
X00701247Y00623942D01*
X00702186Y00622536D01*
X00703592Y00621597D01*
X00705250Y00621267D01*
X00706909Y00621597D01*
X00708314Y00622536D01*
X00709254Y00623942D01*
X00709584Y00625600D01*
X00709254Y00627258D01*
X00708314Y00628664D01*
X00706909Y00629603D01*
X00705250Y00629933D01*
D02*
G37*
G36*
X00686250D02*
X00684592Y00629603D01*
X00683186Y00628664D01*
X00682247Y00627258D01*
X00681917Y00625600D01*
X00682247Y00623942D01*
X00683186Y00622536D01*
X00684592Y00621597D01*
X00686250Y00621267D01*
X00687908Y00621597D01*
X00689314Y00622536D01*
X00690254Y00623942D01*
X00690583Y00625600D01*
X00690254Y00627258D01*
X00689314Y00628664D01*
X00687908Y00629603D01*
X00686250Y00629933D01*
D02*
G37*
G36*
X00667250D02*
X00665592Y00629603D01*
X00664186Y00628664D01*
X00663247Y00627258D01*
X00662917Y00625600D01*
X00663247Y00623942D01*
X00664186Y00622536D01*
X00665592Y00621597D01*
X00667250Y00621267D01*
X00668908Y00621597D01*
X00670314Y00622536D01*
X00671253Y00623942D01*
X00671583Y00625600D01*
X00671253Y00627258D01*
X00670314Y00628664D01*
X00668908Y00629603D01*
X00667250Y00629933D01*
D02*
G37*
G36*
X00610250D02*
X00608592Y00629603D01*
X00607186Y00628664D01*
X00606247Y00627258D01*
X00605917Y00625600D01*
X00606247Y00623942D01*
X00607186Y00622536D01*
X00608592Y00621597D01*
X00610250Y00621267D01*
X00611908Y00621597D01*
X00613314Y00622536D01*
X00614254Y00623942D01*
X00614584Y00625600D01*
X00614254Y00627258D01*
X00613314Y00628664D01*
X00611908Y00629603D01*
X00610250Y00629933D01*
D02*
G37*
G36*
X00588500Y00637443D02*
X00586647Y00637074D01*
X00585075Y00636025D01*
X00584026Y00634453D01*
X00583657Y00632600D01*
X00584026Y00630747D01*
X00585075Y00629175D01*
X00586233Y00628402D01*
X00586997Y00627258D01*
X00586667Y00625600D01*
X00586997Y00623942D01*
X00587936Y00622536D01*
X00589342Y00621597D01*
X00591000Y00621267D01*
X00592658Y00621597D01*
X00594064Y00622536D01*
X00595004Y00623942D01*
X00595333Y00625600D01*
X00595004Y00627258D01*
X00594064Y00628664D01*
X00592658Y00629603D01*
X00592962Y00630715D01*
X00592974Y00630746D01*
X00592974Y00630747D01*
X00593343Y00632600D01*
X00592974Y00634453D01*
X00591925Y00636025D01*
X00590353Y00637074D01*
X00588500Y00637443D01*
D02*
G37*
G36*
X00846500Y00627683D02*
X00844842Y00627353D01*
X00843436Y00626414D01*
X00842497Y00625008D01*
X00842167Y00623350D01*
X00842497Y00621692D01*
X00843436Y00620286D01*
X00844842Y00619347D01*
X00846500Y00619017D01*
X00848158Y00619347D01*
X00849564Y00620286D01*
X00850503Y00621692D01*
X00850833Y00623350D01*
X00850503Y00625008D01*
X00849564Y00626414D01*
X00848158Y00627353D01*
X00846500Y00627683D01*
D02*
G37*
G36*
X00995250Y00622050D02*
Y00613600D01*
X01003700D01*
X01003505Y00615080D01*
X01002548Y00617391D01*
X01001025Y00619375D01*
X00999041Y00620898D01*
X00996730Y00621855D01*
X00995250Y00622050D01*
D02*
G37*
G36*
X00993250D02*
X00991770Y00621855D01*
X00989459Y00620898D01*
X00987475Y00619375D01*
X00985952Y00617391D01*
X00984995Y00615080D01*
X00984800Y00613600D01*
X00993250D01*
Y00622050D01*
D02*
G37*
%LPD*%
D13*
X00999314Y00991111D02*
X00991317D01*
X00999314Y00999108D01*
Y01001108D01*
X00997315Y01003107D01*
X00993316D01*
X00991317Y01001108D01*
D82*
X00994250Y00612600D02*
D03*
D83*
X00626500Y00758850D02*
D03*
D84*
X00934750Y00934100D02*
D03*
X00982750Y00915850D02*
D03*
X00674387Y00668100D02*
D03*
X00617004Y00944345D02*
D03*
X00844250Y00991600D02*
D03*
X00720750Y00972600D02*
D03*
X00646500Y00991850D02*
D03*
X00486750Y00770850D02*
D03*
X00967750Y00660350D02*
D03*
X00527500Y00901350D02*
D03*
X00744500Y00723850D02*
D03*
X00663750Y00687600D02*
D03*
X00590250Y00940850D02*
D03*
X00488000Y00733100D02*
D03*
X00833500Y00862850D02*
D03*
X00861234Y00855757D02*
D03*
X00898000Y00877600D02*
D03*
X00868000Y00800850D02*
D03*
X00916000Y00864850D02*
D03*
X00936250Y00856850D02*
D03*
X00655500Y00763100D02*
D03*
X00615250Y00726600D02*
D03*
X00828685Y00663600D02*
D03*
X00615750Y00710100D02*
D03*
X00530000Y00875600D02*
D03*
X00575000Y00926100D02*
D03*
X00549750Y00906100D02*
D03*
X00529250Y00858850D02*
D03*
X00509500Y00834100D02*
D03*
X00794000Y00911100D02*
D03*
X00861750Y00947350D02*
D03*
X00880750Y00947600D02*
D03*
X00897500Y00938850D02*
D03*
X00602750Y00684350D02*
D03*
X00681750Y00814850D02*
D03*
X00688864Y00679204D02*
D03*
X00865000Y00691850D02*
D03*
X00784000Y00768100D02*
D03*
X00567000Y01006100D02*
D03*
X00593704Y00955894D02*
D03*
X00566000Y00916350D02*
D03*
X00545750Y00892850D02*
D03*
X00925500Y00969600D02*
D03*
X00861000Y00979600D02*
D03*
X00819500Y00979850D02*
D03*
X00783115Y00926638D02*
D03*
X00524000Y00993350D02*
D03*
X00543750Y01024100D02*
D03*
X00892266Y00978866D02*
D03*
X00542500Y00768600D02*
D03*
X00842500Y00943350D02*
D03*
X00695500Y00991350D02*
D03*
X00829000Y00953600D02*
D03*
X00887500Y00966850D02*
D03*
X00827888Y00967630D02*
D03*
X00797500Y00827850D02*
D03*
X01002809Y00926634D02*
D03*
X00716750Y00829861D02*
D03*
X00789500Y00820100D02*
D03*
X00709000Y00780600D02*
D03*
X00796269Y00670603D02*
D03*
X00530000Y00833600D02*
D03*
X00564000Y00671850D02*
D03*
X00616250Y00641600D02*
D03*
X00797750Y00764100D02*
D03*
D85*
X00523250Y00662100D02*
D03*
X00755750Y00669350D02*
D03*
X00903500Y00863850D02*
D03*
X00884986Y00855086D02*
D03*
X00542750Y00934100D02*
D03*
X00665250Y00726350D02*
D03*
X00987691Y00778659D02*
D03*
X00817750Y00692350D02*
D03*
X00652500Y00777850D02*
D03*
X00500250Y00872600D02*
D03*
X00478500Y00823600D02*
D03*
X00702000Y00756350D02*
D03*
X00720500Y00861100D02*
D03*
X00876250Y00614850D02*
D03*
X00686250Y00755850D02*
D03*
X00714500Y00728850D02*
D03*
X01016000Y00700600D02*
D03*
X00731750Y00927600D02*
D03*
X00692000Y00825600D02*
D03*
X00931250Y00715100D02*
D03*
X00974500Y00742350D02*
D03*
X00891250Y00759350D02*
D03*
X00928750Y00786600D02*
D03*
X00811750Y01017600D02*
D03*
X00578750Y00933100D02*
D03*
X00593000Y00992850D02*
D03*
X01013750Y00675850D02*
D03*
X00926250Y00987600D02*
D03*
X00925750Y00978850D02*
D03*
X00733000Y00986100D02*
D03*
X00750500Y00976600D02*
D03*
X00752000Y00950350D02*
D03*
X00751500Y00929600D02*
D03*
X00782750Y00946850D02*
D03*
X00495500Y00756600D02*
D03*
X00470750Y00765350D02*
D03*
X00487750Y00864600D02*
D03*
X00495250D02*
D03*
X00742000Y01007850D02*
D03*
X00896500Y00846850D02*
D03*
X00858000Y00834350D02*
D03*
X00797500Y00946100D02*
D03*
X00623250Y00998100D02*
D03*
X00556000Y00939600D02*
D03*
X00488500Y00676600D02*
D03*
X01003143Y00861710D02*
D03*
X01014500Y00835600D02*
D03*
X00785750Y00973850D02*
D03*
X00861000Y00759850D02*
D03*
X00504250Y00977850D02*
D03*
X00493500Y00992100D02*
D03*
X00442500Y00876600D02*
D03*
X01009750Y00655350D02*
D03*
X00503750Y00912600D02*
D03*
X00489250Y00914100D02*
D03*
X00495750Y00964350D02*
D03*
Y00943350D02*
D03*
X00456750Y00946350D02*
D03*
X00456500Y00975350D02*
D03*
X00539500Y00986600D02*
D03*
X00513250Y00936100D02*
D03*
X00474500Y00850350D02*
D03*
X00469000Y00783850D02*
D03*
X00931500Y00816850D02*
D03*
X00462500Y00667100D02*
D03*
X00505250Y00923600D02*
D03*
X00444000Y00997100D02*
D03*
X00441750Y00974350D02*
D03*
X00442500Y00946350D02*
D03*
X00454750Y00904100D02*
D03*
Y00916100D02*
D03*
X00466500Y00806350D02*
D03*
X00594250Y00979100D02*
D03*
X00428000Y00663850D02*
D03*
X00500500Y00775100D02*
D03*
X00448000Y00790600D02*
D03*
Y00797350D02*
D03*
Y00804100D02*
D03*
X00621250Y00972350D02*
D03*
X00577250Y00995100D02*
D03*
X00495500Y00742100D02*
D03*
Y00749350D02*
D03*
M02*
